Music_Diddly5_Ch2: ; 1ebefa (7a:7efa)
	musicf0 2
	speed 1
	musicdc 255
	octave 3
	G_ 2
	B_ 3
	inc_octave
	D_ 3
	G_ 3
	dec_octave
	B_ 2
	inc_octave
	D_ 3
	G_ 3
	B_ 3
	D_ 2
	G_ 3
	B_ 3
	inc_octave
	D_ 3
	dec_octave
	G_ 2
	B_ 3
	inc_octave
	D_ 3
	G_ 3
	musicef 252
	G_ 3
	music_end


Music_Diddly5_Ch1: ; 1ebf1b (7a:7f1b)
	musicf0 2
	speed 1
	musicdc 255
	musicef 254
	octave 2
	B_ 2
	inc_octave
	D_ 3
	G_ 3
	dec_octave
	B_ 3
	inc_octave
	D_ 2
	G_ 3
	B_ 3
	D_ 3
	G_ 2
	B_ 3
	inc_octave
	D_ 3
	dec_octave
	G_ 3
	B_ 2
	inc_octave
	D_ 3
	G_ 3
	B_ 3
	musicef 252
	B_ 3
	music_end
; 0x1ebf3e
