Music_Diddly2_Ch2: ; 1ebd67 (7a:7d67)
	musicf0 2
	speed 1
	musicdc 255
	octave 2
	B_ 5
	D_ 4
	F_ 4
	G# 4
	B_ 4
	inc_octave
	D_ 4
	F_ 5
	dec_octave
	G# 4
	B_ 4
	inc_octave
	D_ 4
	F_ 4
	G# 4
	B_ 5
	D_ 4
	F_ 4
	G# 4
	B_ 4
	inc_octave
	D_ 4
	F_ 5
	dec_octave
	F_ 4
	G# 4
	B_ 4
	inc_octave
	D_ 4
	F_ 4
	G_ 4
	G# 3
	G_ 3
	G# 3
	G_ 3
	G# 3
	G_ 3
	G# 3
	G_ 4
	G# 3
	G_ 3
	G# 3
	G_ 3
	G# 3
	G_ 3
	G# 3
	G_ 3
	G# 3
	musicef 254
	G_ 4
	G# 3
	G_ 3
	G# 3
	musicef 254
	G_ 3
	G# 3
	G_ 3
	musicef 255
	G# 3
	G_ 4
	G# 3
	music_end


Music_Diddly2_Ch1: ; 1ebdaf (7a:7daf)
	musicf0 2
	speed 1
	musicdc 255
	octave 2
	F_ 4
	dec_octave
	G# 4
	B_ 4
	inc_octave
	D_ 4
	F_ 4
	G# 4
	B_ 4
	D_ 4
	F_ 4
	G# 4
	B_ 4
	inc_octave
	D_ 4
	F_ 4
	dec_octave
	G# 4
	B_ 4
	inc_octave
	D_ 4
	F_ 4
	G# 4
	B_ 4
	dec_octave
	B_ 4
	inc_octave
	D_ 4
	F_ 4
	G# 4
	A_ 4
	B_ 4
	inc_octave
	C_ 3
	dec_octave
	B_ 3
	inc_octave
	C_ 3
	dec_octave
	B_ 3
	inc_octave
	C_ 3
	dec_octave
	B_ 3
	inc_octave
	C_ 3
	dec_octave
	B_ 4
	inc_octave
	C_ 3
	dec_octave
	B_ 3
	inc_octave
	C_ 3
	dec_octave
	B_ 3
	inc_octave
	C_ 3
	dec_octave
	B_ 3
	inc_octave
	C_ 3
	dec_octave
	B_ 3
	inc_octave
	C_ 3
	dec_octave
	musicef 254
	B_ 4
	inc_octave
	C_ 3
	dec_octave
	B_ 3
	musicef 254
	inc_octave
	C_ 3
	dec_octave
	B_ 3
	inc_octave
	C_ 3
	dec_octave
	musicef 255
	B_ 3
	inc_octave
	C_ 3
	dec_octave
	B_ 4
	inc_octave
	C_ 3
	music_end


Music_Diddly2_Ch3: ; 1ebe13 (7a:7e13)
	wave 4
	speed 1
	musice9 128
	musicdc 255
	musice8 7
	volume 32
	octave 1
	G_ 5
	volume 64
	G_ 4
	G_ 4
	G_ 4
	G_ 4
	G_ 4
	G_ 5
	G_ 4
	G_ 4
	G_ 4
	G_ 4
	G_ 4
	volume 96
	G_ 5
	G_ 4
	G_ 4
	G_ 4
	G_ 4
	G_ 4
	volume 96
	G_ 5
	G_ 4
	G_ 4
	volume 96
	G_ 4
	volume 64
	G_ 4
	G_ 4
	volume 32
	G_ 5
	G_ 4
	G_ 4
	musicf1 64
	G_ 4
	G_ 4
	G_ 4
	volume 64
	G_ 5
	G_ 4
	G_ 4
	G_ 4
	G_ 4
	G_ 4
	volume 96
	G_ 5
	G_ 4
	G_ 4
	G_ 4
	G_ 4
	G_ 4
	music_end
; 0x1ebe5d
