Music_Fort3_Ch2: ; 1ee797 (7b:6797)
	speed 1
	rest 14
	MainLoop
	musicf0 9
	octave 3
	musicdc 255
	musicf1 87
	musicf3
	vibrato_type 5
	vibrato_delay 60
	rest 15
	rest 14
	C_ 4
	tie
	C# 4
	tie
	D_ 14
	musicf2
	C_ 7
	tie
	C_ 15
	tie
	C_ 14
	tie
	C_ 15
	tie
	C_ 14
	tie
	C_ 15
	tie
	C_ 14
	tie
	C_ 15
	tie
	C_ 14
	tie
	C_ 15
	tie
	C_ 14
	C_ 15
	tie
	C_ 14
	musicf3
	rest 15
	rest 14
	dec_octave
	A# 4
	tie
	inc_octave
	C_ 4
	tie
	C_ 14
	dec_octave
	musicf2
	A# 7
	tie
	A# 15
	tie
	A# 14
	tie
	A# 15
	tie
	A# 14
	tie
	A# 15
	tie
	A# 14
	tie
	A# 15
	tie
	A# 14
	tie
	A# 15
	tie
	A# 14
	A# 15
	tie
	A# 14
	inc_octave
	musicf3
	rest 15
	rest 14
	C_ 4
	tie
	C# 4
	tie
	D_ 14
	musicf2
	C_ 7
	tie
	C_ 15
	tie
	C_ 14
	tie
	C_ 15
	tie
	C_ 14
	tie
	C_ 15
	tie
	C_ 14
	tie
	C_ 15
	tie
	C_ 14
	tie
	C_ 15
	tie
	C_ 14
	C_ 15
	tie
	C_ 14
	musicf3
	rest 15
	rest 14
	dec_octave
	A# 4
	tie
	inc_octave
	C_ 4
	tie
	C_ 14
	dec_octave
	musicf2
	A# 7
	tie
	A# 15
	tie
	A# 14
	tie
	A# 15
	tie
	A# 14
	tie
	A# 15
	tie
	A# 14
	tie
	A# 15
	tie
	A# 14
	A# 8
	musicf3
	inc_octave
	C_ 4
	C# 3
	C_ 7
	dec_octave
	A# 7
	inc_octave
	C_ 8
	dec_octave
	A# 7
	G_ 7
	F_ 7
	musicf0 33
	musicef 1
	musicf1 87
	musicf3
	octave 3
	G_ 4
	tie
	musice4 9
	G_ 4
	tie
	musice4 0
	G# 4
	tie
	musice4 9
	G# 3
	tie
	musice4 0
	A_ 14
	inc_octave
	C_ 15
	dec_octave
	musicf2
	F_ 14
	tie
	F_ 15
	tie
	F_ 14
	tie
	F_ 15
	tie
	F_ 14
	tie
	F_ 15
	tie
	F_ 14
	tie
	F_ 15
	tie
	F_ 14
	F_ 15
	tie
	F_ 14
	musicf3
	E_ 8
	F_ 7
	E_ 7
	C_ 7
	musicf2
	D_ 15
	tie
	D_ 14
	D_ 15
	F_ 4
	tie
	musice4 4
	F_ 3
	tie
	musice4 9
	F_ 4
	tie
	musice4 13
	F_ 3
	tie
	musice4 0
	F# 4
	tie
	musice4 4
	F# 4
	tie
	musice4 9
	F# 4
	tie
	musice4 13
	F# 3
	tie
	musice4 0
	G_ 14
	tie
	G_ 15
	tie
	G_ 14
	tie
	G_ 15
	tie
	G_ 14
	tie
	G_ 15
	tie
	G_ 14
	tie
	G_ 15
	tie
	G_ 14
	G_ 15
	tie
	G_ 14
	musicf3
	musicf0 33
	octave 3
	G_ 4
	tie
	musice4 9
	G_ 4
	tie
	musice4 0
	G# 4
	tie
	musice4 9
	G# 3
	tie
	musice4 0
	A_ 14
	inc_octave
	C_ 15
	dec_octave
	musicf2
	F_ 14
	tie
	F_ 15
	tie
	F_ 14
	tie
	F_ 15
	tie
	F_ 14
	tie
	F_ 15
	tie
	F_ 14
	tie
	F_ 15
	tie
	F_ 14
	F_ 15
	tie
	F_ 14
	musicf3
	E_ 8
	F_ 7
	E_ 7
	C_ 7
	musicf2
	D_ 15
	tie
	D_ 14
	D_ 15
	dec_octave
	F_ 4
	tie
	musice4 14
	F_ 3
	tie
	musice4 28
	F_ 4
	tie
	musice4 43
	F_ 3
	tie
	musice4 0
	F# 4
	tie
	musice4 14
	F# 4
	tie
	musice4 28
	F# 4
	tie
	musice4 43
	F# 3
	tie
	musice4 0
	G_ 14
	tie
	G_ 15
	tie
	G_ 14
	tie
	G_ 15
	tie
	G_ 14
	tie
	G_ 15
	tie
	G_ 14
	G_ 15
	tie
	G_ 14
	musicf3
	G_ 8
	A_ 7
	A# 7
	inc_octave
	C_ 7
	vibrato_delay 11
	C_ 4
	tie
	musice4 9
	C_ 4
	tie
	musice4 0
	C# 4
	tie
	musice4 9
	C# 3
	tie
	musice4 0
	D_ 14
	vibrato_delay 0
	C_ 15
	vibrato_delay 29
	musicf2
	F_ 14
	tie
	F_ 15
	tie
	F_ 14
	tie
	F_ 15
	tie
	F_ 14
	tie
	F_ 15
	tie
	F_ 14
	tie
	F_ 15
	tie
	F_ 14
	F_ 15
	musicf3
	D# 14
	D_ 15
	musicf2
	C_ 7
	C_ 7
	vibrato_delay 11
	C_ 4
	tie
	musice4 9
	C_ 4
	tie
	C# 4
	tie
	musice4 9
	C# 3
	tie
	musice4 0
	D_ 14
	D_ 15
	dec_octave
	vibrato_delay 29
	G_ 14
	tie
	G_ 15
	tie
	G_ 14
	tie
	G_ 15
	tie
	G_ 14
	tie
	G_ 15
	tie
	G_ 14
	tie
	G_ 15
	tie
	G_ 14
	G_ 15
	tie
	G_ 14
	musicf3
	G_ 8
	A_ 7
	A# 7
	inc_octave
	C_ 7
	vibrato_delay 11
	C_ 4
	tie
	musice4 9
	C_ 4
	tie
	musice4 0
	C# 4
	tie
	musice4 9
	C# 3
	tie
	musice4 0
	D_ 14
	vibrato_delay 0
	C_ 15
	vibrato_delay 29
	musicf2
	F_ 14
	tie
	F_ 15
	tie
	F_ 14
	tie
	F_ 15
	tie
	F_ 14
	tie
	F_ 15
	tie
	F_ 14
	tie
	F_ 15
	tie
	F_ 14
	F_ 15
	musicf3
	D# 14
	D_ 15
	musicf2
	C_ 7
	C_ 7
	vibrato_delay 11
	C_ 4
	tie
	musice4 9
	C_ 4
	tie
	musice4 19
	C_ 4
	tie
	musice4 28
	C_ 3
	tie
	musice4 0
	C# 4
	tie
	musice4 9
	C# 3
	tie
	musice4 19
	C# 4
	tie
	musice4 28
	C# 3
	tie
	musice4 0
	vibrato_delay 30
	D_ 15
	tie
	D_ 14
	tie
	D_ 15
	tie
	D_ 14
	tie
	D_ 15
	tie
	D_ 14
	tie
	D_ 15
	tie
	D_ 14
	tie
	D_ 15
	tie
	D_ 14
	tie
	D_ 15
	tie
	D_ 14
	D_ 15
	tie
	D_ 14
	musicf0 9
	musicf1 64
	musicf3
	Loop 2
	octave 1
	G_ 15
	rest 7
	G_ 4
	rest 11
	G_ 4
	rest 3
	inc_octave
	F_ 7
	musicf2
	G_ 4
	F_ 3
	dec_octave
	G_ 2
	inc_octave
	G_ 6
	inc_octave
	F_ 4
	rest 3
	F_ 4
	rest 3
	rest 4
	rest 3
	musicf1 32
	F_ 4
	F_ 11
	musicf3
	F_ 7
	musicf1 64
	G_ 4
	F_ 3
	dec_octave
	dec_octave
	G_ 4
	inc_octave
	inc_octave
	G_ 4
	dec_octave
	G_ 4
	G_ 10
	dec_octave
	G_ 4
	inc_octave
	G_ 3
	inc_octave
	G_ 4
	G_ 4
	dec_octave
	dec_octave
	G_ 4
	inc_octave
	inc_octave
	G_ 3
	musicf3
	F_ 7
	musicf2
	G_ 4
	F_ 3
	dec_octave
	dec_octave
	G_ 4
	inc_octave
	inc_octave
	G_ 4
	musicf1 96
	G_ 4
	rest 3
	rest 4
	rest 3
	G_ 4
	rest 3
	musicf3
	B_ 4
	tie
	musice4 7
	B_ 4
	tie
	inc_octave
	musice4 0
	C_ 7
	dec_octave
	A# 14
	musicf1 64
	dec_octave
	dec_octave
	G_ 15
	rest 7
	musicf3
	G_ 4
	rest 3
	rest 8
	G_ 4
	rest 3
	inc_octave
	F_ 7
	musicf2
	G_ 4
	F_ 3
	dec_octave
	G_ 2
	inc_octave
	G_ 6
	inc_octave
	F_ 4
	rest 3
	F_ 4
	rest 10
	musicf1 32
	F_ 4
	rest 4
	F_ 4
	rest 3
	musicf3
	F_ 7
	musicf1 64
	G_ 4
	F_ 3
	dec_octave
	dec_octave
	G_ 4
	inc_octave
	inc_octave
	G_ 4
	dec_octave
	musicf3
	G_ 4
	rest 3
	dec_octave
	musicf2
	G_ 1
	rest 2
	inc_octave
	G_ 4
	dec_octave
	G_ 4
	rest 3
	musicf3
	inc_octave
	inc_octave
	G_ 4
	rest 4
	dec_octave
	dec_octave
	musicf2
	G_ 4
	inc_octave
	inc_octave
	G_ 3
	musicf3
	F_ 7
	musicf2
	G_ 4
	F_ 3
	dec_octave
	dec_octave
	G_ 4
	inc_octave
	inc_octave
	G_ 4
	musicf3
	C_ 4
	C# 3
	C_ 7
	dec_octave
	A# 7
	inc_octave
	C_ 8
	dec_octave
	A# 7
	G_ 7
	F_ 7
	EndLoop
	EndMainLoop


Music_Fort3_Ch1: ; 1eeaa0 (7b:6aa0)
	speed 1
	rest 14
	MainLoop
	musicf0 9
	octave 3
	musicdc 255
	vibrato_type 5
	vibrato_delay 60
	musicec 251
	musicf1 87
	musicf3
	rest 15
	rest 14
	C_ 4
	tie
	C# 4
	tie
	D_ 14
	musicf2
	C_ 7
	tie
	C_ 15
	tie
	C_ 14
	tie
	C_ 15
	tie
	C_ 14
	tie
	C_ 15
	tie
	C_ 14
	tie
	C_ 15
	tie
	C_ 14
	tie
	C_ 15
	tie
	C_ 14
	C_ 15
	tie
	C_ 14
	musicf3
	rest 15
	rest 14
	dec_octave
	A# 4
	tie
	inc_octave
	C_ 4
	tie
	C_ 14
	dec_octave
	musicf2
	A# 7
	tie
	A# 15
	tie
	A# 14
	tie
	A# 15
	tie
	A# 14
	tie
	A# 15
	tie
	A# 14
	tie
	A# 15
	tie
	A# 14
	tie
	A# 15
	tie
	A# 14
	A# 15
	tie
	A# 14
	inc_octave
	musicf3
	rest 15
	rest 14
	C_ 4
	tie
	C# 4
	tie
	D_ 14
	musicf2
	C_ 7
	tie
	C_ 15
	tie
	C_ 14
	tie
	C_ 15
	tie
	C_ 14
	tie
	C_ 15
	tie
	C_ 14
	tie
	C_ 15
	tie
	C_ 14
	tie
	C_ 15
	tie
	C_ 14
	C_ 15
	tie
	C_ 14
	musicf3
	rest 15
	rest 14
	dec_octave
	A# 4
	tie
	inc_octave
	C_ 4
	tie
	C_ 14
	dec_octave
	A# 7
	tie
	A# 15
	tie
	A# 14
	tie
	A# 15
	tie
	A# 14
	tie
	A# 15
	tie
	A# 14
	tie
	A# 15
	tie
	A# 14
	musicef 252
	musicec 0
	octave 2
	A# 8
	rest 7
	A# 7
	rest 7
	rest 8
	A# 7
	rest 7
	inc_octave
	C_ 7
	musicef 4
	vibrato_type 5
	vibrato_delay 12
	octave 2
	Loop 2
	rest 15
	rest 14
	G# 4
	tie
	A_ 4
	tie
	A# 7
	A_ 14
	tie
	A_ 8
	A_ 4
	rest 3
	C_ 7
	rest 7
	F_ 15
	G_ 7
	rest 7
	rest 15
	rest 4
	F_ 5
	A_ 5
	inc_octave
	E_ 4
	F_ 4
	tie
	F_ 14
	tie
	F_ 7
	rest 8
	dec_octave
	A_ 7
	rest 14
	A_ 4
	tie
	musice4 17
	A_ 4
	tie
	musice4 0
	A# 7
	A_ 7
	rest 7
	rest 15
	rest 14
	A# 4
	tie
	B_ 4
	tie
	inc_octave
	C_ 7
	dec_octave
	A# 14
	tie
	A# 8
	inc_octave
	C_ 4
	rest 3
	rest 14
	dec_octave
	F_ 15
	G_ 7
	rest 7
	rest 15
	rest 4
	dec_octave
	A# 5
	inc_octave
	D_ 5
	inc_octave
	C# 4
	D_ 4
	tie
	D_ 14
	tie
	D_ 7
	rest 8
	dec_octave
	A_ 7
	rest 14
	B_ 4
	tie
	musice4 15
	B_ 4
	tie
	inc_octave
	musice4 0
	C_ 7
	dec_octave
	A# 7
	rest 7
	EndLoop
	rest 15
	rest 14
	A# 4
	tie
	B_ 4
	tie
	inc_octave
	C_ 7
	dec_octave
	G# 14
	tie
	G# 8
	inc_octave
	G_ 4
	rest 3
	dec_octave
	C_ 7
	rest 7
	G_ 15
	G# 7
	rest 7
	rest 15
	rest 4
	inc_octave
	C_ 5
	D# 5
	A_ 4
	A# 4
	tie
	A# 14
	tie
	A# 7
	rest 8
	F_ 7
	rest 14
	dec_octave
	A_ 4
	tie
	musice4 17
	A_ 4
	tie
	musice4 0
	A# 7
	F_ 7
	rest 7
	rest 15
	rest 14
	A# 4
	tie
	B_ 4
	tie
	inc_octave
	C_ 7
	dec_octave
	A# 14
	tie
	A# 8
	inc_octave
	D_ 4
	rest 3
	dec_octave
	C_ 7
	rest 7
	F_ 15
	G_ 7
	rest 7
	rest 15
	rest 4
	dec_octave
	A# 5
	inc_octave
	D_ 5
	inc_octave
	C# 4
	D_ 4
	tie
	D_ 14
	tie
	D_ 7
	rest 8
	dec_octave
	A_ 7
	rest 14
	B_ 4
	tie
	musice4 15
	B_ 4
	tie
	inc_octave
	musice4 0
	C_ 7
	dec_octave
	A# 7
	rest 7
	rest 15
	rest 14
	A# 4
	tie
	B_ 4
	tie
	inc_octave
	C_ 7
	dec_octave
	G# 14
	tie
	G# 8
	inc_octave
	G_ 4
	rest 3
	dec_octave
	C_ 7
	rest 7
	G_ 15
	G# 7
	rest 7
	rest 15
	rest 4
	inc_octave
	C_ 5
	D# 5
	A_ 4
	A# 4
	tie
	A# 14
	tie
	A# 7
	rest 8
	F_ 7
	rest 14
	dec_octave
	A_ 4
	tie
	musice4 17
	A_ 4
	tie
	musice4 0
	A# 7
	F_ 7
	rest 7
	rest 15
	rest 14
	inc_octave
	C_ 4
	tie
	C# 4
	tie
	D_ 7
	C_ 14
	tie
	C_ 8
	dec_octave
	G_ 4
	rest 3
	rest 14
	inc_octave
	D_ 15
	G_ 3
	rest 11
	rest 8
	G_ 4
	rest 3
	rest 14
	G_ 4
	G_ 4
	tie
	G_ 7
	rest 7
	G_ 4
	rest 3
	rest 8
	A# 4
	rest 3
	rest 14
	A_ 4
	tie
	musice4 9
	A_ 4
	tie
	musice4 0
	A# 7
	F_ 7
	rest 7
	rest 15
	rest 14
	rest 15
	rest 14
	rest 8
	C_ 4
	rest 3
	rest 14
	C_ 4
	rest 4
	rest 7
	C_ 7
	D_ 4
	rest 3
	rest 8
	dec_octave
	dec_octave
	G_ 4
	rest 3
	rest 14
	inc_octave
	inc_octave
	D_ 4
	rest 11
	C_ 7
	D_ 4
	rest 3
	rest 8
	C_ 4
	rest 3
	rest 14
	F# 4
	tie
	musice4 10
	F# 4
	tie
	musice4 0
	G_ 7
	F_ 14
	rest 15
	rest 14
	rest 15
	rest 14
	rest 8
	C_ 4
	rest 3
	rest 14
	C_ 4
	rest 11
	C_ 7
	D_ 4
	rest 3
	rest 8
	dec_octave
	dec_octave
	G_ 4
	rest 3
	rest 14
	inc_octave
	inc_octave
	D_ 4
	rest 11
	C_ 7
	D_ 4
	rest 3
	rest 8
	F_ 14
	rest 7
	F_ 8
	rest 7
	C_ 7
	rest 7
	rest 15
	rest 14
	rest 15
	rest 14
	rest 8
	C_ 4
	rest 3
	rest 14
	C_ 4
	rest 11
	C_ 7
	D_ 4
	rest 3
	rest 8
	dec_octave
	dec_octave
	G_ 4
	rest 3
	rest 14
	inc_octave
	inc_octave
	D_ 4
	rest 11
	C_ 7
	D_ 4
	rest 3
	rest 8
	C_ 4
	rest 3
	rest 14
	F# 4
	tie
	musice4 10
	F# 4
	tie
	musice4 0
	G_ 7
	F_ 14
	rest 15
	rest 14
	rest 15
	rest 14
	rest 8
	C_ 4
	rest 3
	rest 14
	C_ 4
	rest 11
	C_ 7
	D_ 4
	rest 3
	rest 8
	dec_octave
	dec_octave
	G_ 4
	rest 3
	rest 14
	inc_octave
	inc_octave
	D_ 4
	rest 11
	C_ 7
	D_ 4
	rest 3
	rest 8
	F_ 14
	rest 7
	F_ 8
	rest 7
	C_ 7
	rest 7
	EndMainLoop


Music_Fort3_Ch3: ; 1eecfb (7b:6cfb)
	speed 1
	wave 1
	musicdc 255
	volume 32
	musice9 96
	musicec 244
	octave 2
	F_ 7
	F# 7
	MainLoop
	vibrato_type 5
	vibrato_delay 60
	octave 2
	G_ 15
	inc_octave
	musice8 4
	D_ 14
	musice8 8
	volume 64
	F_ 4
	tie
	F# 4
	tie
	G_ 14
	F_ 15
	tie
	F_ 14
	tie
	F_ 15
	tie
	F_ 14
	tie
	F_ 7
	tie
	F_ 15
	tie
	F_ 14
	tie
	F_ 15
	tie
	F_ 14
	tie
	F_ 15
	tie
	F_ 14
	volume 96
	F_ 15
	dec_octave
	volume 32
	F_ 7
	F# 7
	G_ 15
	inc_octave
	musice8 4
	D_ 14
	musice8 8
	volume 64
	D# 4
	tie
	E_ 4
	tie
	F_ 14
	D# 14
	tie
	D# 15
	tie
	D# 14
	tie
	D# 15
	tie
	D# 7
	tie
	D# 15
	tie
	D# 14
	tie
	D# 15
	tie
	D# 14
	tie
	D# 15
	tie
	D# 14
	volume 96
	D# 15
	dec_octave
	volume 32
	F_ 7
	F# 7
	G_ 15
	inc_octave
	musice8 4
	D_ 14
	musice8 8
	volume 64
	F_ 4
	tie
	F# 4
	tie
	G_ 14
	F_ 15
	tie
	F_ 14
	tie
	F_ 15
	tie
	F_ 14
	tie
	F_ 7
	tie
	F_ 15
	tie
	F_ 14
	tie
	F_ 15
	tie
	F_ 14
	tie
	F_ 15
	tie
	F_ 14
	volume 96
	F_ 15
	dec_octave
	volume 32
	F_ 7
	F# 7
	G_ 15
	inc_octave
	musice8 4
	D_ 14
	musice8 8
	volume 64
	D# 4
	tie
	E_ 4
	tie
	F_ 14
	D# 14
	tie
	D# 15
	tie
	D# 14
	tie
	D# 15
	tie
	D# 7
	tie
	D# 15
	tie
	D# 14
	tie
	D# 15
	dec_octave
	volume 32
	F_ 7
	musice8 3
	G_ 15
	musice8 8
	inc_octave
	C# 7
	C_ 7
	dec_octave
	A# 7
	inc_octave
	C_ 8
	dec_octave
	A# 7
	F_ 7
	F# 7
	Loop 2
	G_ 15
	inc_octave
	D_ 7
	rest 7
	music_call Branch_1ef06a
	F_ 4
	tie
	F# 4
	tie
	G_ 7
	F_ 14
	music_call Branch_1ef06f
	dec_octave
	G_ 1
	rest 7
	inc_octave
	music_call Branch_1ef06a
	F_ 4
	rest 3
	music_call Branch_1ef06f
	dec_octave
	D_ 14
	F_ 15
	G_ 7
	rest 7
	inc_octave
	D_ 1
	rest 7
	dec_octave
	G_ 1
	rest 6
	G_ 3
	rest 11
	inc_octave
	inc_octave
	music_call Branch_1ef06a
	C_ 15
	tie
	C_ 14
	music_call Branch_1ef06f
	dec_octave
	dec_octave
	G_ 4
	rest 4
	inc_octave
	music_call Branch_1ef06a
	F_ 7
	music_call Branch_1ef06f
	dec_octave
	D_ 14
	F_ 15
	F# 7
	rest 7
	G_ 15
	inc_octave
	D_ 7
	rest 7
	music_call Branch_1ef06a
	F_ 4
	tie
	F# 4
	tie
	G_ 7
	F_ 14
	music_call Branch_1ef06f
	dec_octave
	G_ 1
	rest 7
	music_call Branch_1ef06a
	inc_octave
	A_ 4
	rest 3
	music_call Branch_1ef06f
	dec_octave
	D_ 14
	F_ 15
	G_ 7
	rest 7
	inc_octave
	D_ 1
	rest 7
	dec_octave
	G_ 1
	rest 6
	G_ 3
	rest 11
	inc_octave
	music_call Branch_1ef06a
	A_ 15
	tie
	A_ 14
	music_call Branch_1ef06f
	dec_octave
	G_ 4
	rest 4
	inc_octave
	music_call Branch_1ef06a
	F_ 7
	music_call Branch_1ef06f
	D_ 7
	dec_octave
	D_ 4
	rest 3
	F_ 15
	G_ 3
	rest 11
	EndLoop
	G# 15
	inc_octave
	D# 7
	rest 7
	music_call Branch_1ef06a
	F# 4
	tie
	G_ 4
	tie
	G# 7
	music_call Branch_1ef06f
	inc_octave
	C_ 14
	dec_octave
	dec_octave
	G# 1
	rest 7
	inc_octave
	inc_octave
	music_call Branch_1ef06a
	D# 4
	rest 3
	music_call Branch_1ef06f
	dec_octave
	dec_octave
	D# 14
	A# 15
	G# 7
	rest 7
	G# 1
	rest 7
	D# 1
	rest 6
	inc_octave
	D# 3
	rest 11
	inc_octave
	music_call Branch_1ef06a
	G_ 15
	tie
	G_ 14
	music_call Branch_1ef06f
	dec_octave
	dec_octave
	G# 4
	rest 4
	inc_octave
	inc_octave
	music_call Branch_1ef06a
	D_ 7
	music_call Branch_1ef06f
	dec_octave
	D# 14
	dec_octave
	A# 15
	F_ 7
	rest 7
	G_ 15
	inc_octave
	D_ 7
	rest 7
	music_call Branch_1ef06a
	F_ 4
	tie
	F# 4
	tie
	G_ 7
	F_ 14
	music_call Branch_1ef06f
	dec_octave
	G_ 1
	rest 7
	inc_octave
	music_call Branch_1ef06a
	A_ 4
	rest 3
	music_call Branch_1ef06f
	dec_octave
	D_ 14
	F_ 15
	G_ 7
	rest 7
	inc_octave
	D_ 1
	rest 7
	dec_octave
	G_ 1
	rest 6
	G_ 3
	rest 11
	inc_octave
	music_call Branch_1ef06a
	A_ 15
	tie
	A_ 14
	music_call Branch_1ef06f
	dec_octave
	G_ 4
	rest 4
	inc_octave
	music_call Branch_1ef06a
	F_ 7
	music_call Branch_1ef06f
	D_ 7
	dec_octave
	D_ 4
	rest 3
	F_ 15
	G_ 3
	rest 11
	G# 15
	inc_octave
	D# 7
	rest 7
	music_call Branch_1ef06a
	F# 4
	tie
	G_ 4
	tie
	G# 7
	music_call Branch_1ef06f
	inc_octave
	C_ 14
	dec_octave
	dec_octave
	G# 1
	rest 7
	inc_octave
	inc_octave
	music_call Branch_1ef06a
	D# 4
	rest 3
	music_call Branch_1ef06f
	dec_octave
	dec_octave
	D# 14
	A# 15
	G# 7
	rest 7
	G# 1
	rest 7
	D# 1
	rest 6
	inc_octave
	D# 3
	rest 11
	inc_octave
	music_call Branch_1ef06a
	G_ 15
	tie
	G_ 14
	music_call Branch_1ef06f
	dec_octave
	dec_octave
	G# 4
	rest 4
	inc_octave
	inc_octave
	music_call Branch_1ef06a
	D_ 7
	music_call Branch_1ef06f
	dec_octave
	D# 14
	dec_octave
	A# 15
	F_ 7
	rest 7
	A_ 15
	inc_octave
	E_ 7
	rest 7
	music_call Branch_1ef06a
	A# 4
	tie
	B_ 4
	tie
	inc_octave
	C_ 7
	dec_octave
	G_ 14
	music_call Branch_1ef06f
	dec_octave
	A_ 1
	rest 7
	inc_octave
	music_call Branch_1ef06a
	D_ 4
	rest 3
	music_call Branch_1ef06f
	dec_octave
	E_ 7
	rest 7
	A_ 15
	G_ 7
	C# 4
	rest 3
	D_ 8
	inc_octave
	inc_octave
	music_call Branch_1ef06a
	C_ 4
	rest 3
	music_call Branch_1ef06f
	dec_octave
	D_ 4
	rest 3
	dec_octave
	C_ 4
	rest 3
	inc_octave
	inc_octave
	music_call Branch_1ef06a
	C_ 15
	music_call Branch_1ef06f
	dec_octave
	dec_octave
	D_ 1
	rest 6
	inc_octave
	inc_octave
	music_call Branch_1ef06a
	C_ 4
	rest 3
	music_call Branch_1ef06f
	dec_octave
	dec_octave
	D_ 4
	rest 4
	inc_octave
	inc_octave
	music_call Branch_1ef06a
	F_ 4
	rest 3
	music_call Branch_1ef06f
	dec_octave
	C_ 4
	rest 3
	C# 4
	rest 3
	inc_octave
	E_ 4
	tie
	musice4 12
	E_ 4
	tie
	musice4 0
	F_ 7
	music_call Branch_1ef06f
	dec_octave
	dec_octave
	D_ 14
	music_call Branch_1ef040
	octave 1
	G_ 3
	rest 12
	inc_octave
	musice8 2
	G_ 7
	musice8 8
	dec_octave
	G_ 3
	rest 12
	G_ 4
	rest 3
	inc_octave
	F_ 7
	musice8 4
	G_ 7
	musice8 8
	dec_octave
	G_ 3
	rest 12
	inc_octave
	inc_octave
	musice8 3
	D_ 7
	musice8 8
	dec_octave
	D_ 4
	rest 3
	inc_octave
	musice8 4
	F_ 8
	F# 7
	musice8 2
	G_ 14
	musice8 8
	music_call Branch_1ef040
	octave 1
	G_ 3
	rest 16
	rest 3
	G_ 4
	rest 3
	rest 8
	G_ 4
	rest 3
	inc_octave
	F_ 7
	musice8 4
	G_ 7
	musice8 8
	dec_octave
	G_ 3
	rest 12
	inc_octave
	inc_octave
	musice8 4
	D_ 7
	musice8 8
	dec_octave
	D_ 4
	rest 3
	inc_octave
	musice8 4
	F_ 8
	F# 7
	musice8 2
	G_ 14
	musice8 8
	music_call Branch_1ef040
	octave 1
	G_ 3
	rest 12
	inc_octave
	musice8 2
	G_ 7
	musice8 8
	dec_octave
	G_ 3
	rest 12
	G_ 4
	rest 3
	inc_octave
	F_ 7
	musice8 4
	G_ 7
	musice8 8
	dec_octave
	G_ 3
	rest 12
	inc_octave
	inc_octave
	musice8 4
	D_ 7
	musice8 8
	dec_octave
	D_ 4
	rest 3
	inc_octave
	musice8 4
	F_ 8
	F# 7
	musice8 2
	G_ 14
	music_call Branch_1ef040
	octave 1
	G_ 3
	rest 12
	inc_octave
	musice8 2
	G_ 7
	musice8 8
	dec_octave
	G_ 3
	rest 12
	G_ 4
	rest 3
	inc_octave
	F_ 7
	musice8 4
	G_ 7
	musice8 8
	dec_octave
	G_ 4
	rest 4
	inc_octave
	C_ 7
	C# 7
	D_ 7
	F_ 8
	D_ 7
	F_ 7
	F# 7
	EndMainLoop

Branch_1ef040:
	octave 1
	G_ 15
	rest 7
	G_ 4
	rest 3
	inc_octave
	musice8 2
	G_ 8
	musice8 8
	dec_octave
	G_ 4
	rest 3
	inc_octave
	F_ 7
	musice8 4
	G_ 7
	musice8 8
	dec_octave
	G_ 2
	rest 6
	inc_octave
	inc_octave
	musice8 4
	A# 7
	D_ 7
	musice8 8
	dec_octave
	D_ 4
	rest 3
	F_ 4
	rest 4
	F# 4
	rest 3
	G_ 3
	rest 11
	music_ret

Branch_1ef06a:
	volume 32
	vibrato_delay 12
	music_ret

Branch_1ef06f:
	volume 32
	vibrato_delay 0
	music_ret


Music_Fort3_Ch4: ; 1ef074 (7b:7074)
	speed 1
	octave 1
	musicdc 255
	rest 14
	MainLoop
	bass 15
	snare3 7
	snare3 7
	snare3 15
	snare4 14
	snare3 8
	noise2 7
	bass 7
	snare3 7
	snare4 15
	noisea 7
	snare3 4
	snare3 3
	bass 8
	snare1 7
	snare4 14
	noisea 8
	snare3 7
	snare3 7
	snare1 7
	snare3 8
	bass 7
	snare3 4
	snare3 5
	snare3 5
	snare2 15
	snare4 14
	bass 15
	snare3 7
	snare3 7
	snare3 15
	snare4 14
	snare3 8
	noise2 7
	bass 7
	snare3 7
	snare4 15
	noisea 7
	snare3 4
	snare3 3
	bass 8
	snare1 7
	snare4 14
	noisea 8
	snare3 7
	snare3 7
	snare1 7
	snare3 8
	bass 7
	snare3 4
	snare3 5
	snare3 5
	snare2 15
	noisea 14
	bass 15
	snare3 7
	snare3 7
	snare3 15
	snare4 14
	snare3 8
	noise2 7
	bass 7
	snare3 7
	snare4 15
	noisea 7
	snare3 4
	snare3 3
	bass 8
	snare1 7
	snare4 14
	noisea 8
	snare3 7
	snare3 7
	snare1 7
	snare3 8
	bass 7
	snare3 4
	snare3 5
	snare3 5
	snare2 15
	snare4 14
	bass 15
	snare3 7
	snare3 7
	snare3 15
	snare4 14
	snare3 8
	noise2 7
	bass 7
	snare3 7
	snare4 15
	noisea 7
	snare3 4
	snare3 3
	bass 8
	snare1 7
	snare4 14
	noisea 8
	snare3 7
	snare3 7
	snare1 7
	snare3 8
	bass 7
	snare3 7
	snare2 4
	snare2 3
	snare2 8
	snare2 14
	snare2 7
	music_call Branch_1ef1de
	bass 8
	snare1 7
	snare4 14
	noisea 8
	snare3 7
	snare3 7
	snare1 7
	snare3 8
	bass 7
	snare3 4
	snare3 5
	snare3 5
	snare2 15
	snare4 14
	music_call Branch_1ef1de
	bass 8
	snare1 7
	snare4 14
	noisea 8
	snare3 7
	snare3 7
	snare1 7
	snare3 8
	bass 7
	snare3 4
	snare3 5
	snare3 5
	snare2 15
	snare3 4
	snare3 5
	snare3 5
	music_call Branch_1ef1de
	bass 8
	snare1 7
	snare4 14
	noisea 8
	snare3 7
	snare3 7
	snare1 7
	snare3 8
	bass 7
	snare3 4
	snare3 5
	snare3 5
	snare2 15
	snare4 14
	music_call Branch_1ef1de
	bass 8
	snare1 7
	snare4 14
	noisea 8
	snare3 7
	snare3 7
	snare1 7
	snare3 8
	bass 7
	snare3 4
	snare3 5
	snare3 5
	noisea 15
	snare2 14
	music_call Branch_1ef1de
	bass 8
	snare1 7
	snare4 14
	noisea 8
	snare3 7
	snare3 7
	snare1 7
	snare3 8
	bass 7
	snare3 4
	snare3 5
	snare3 5
	snare2 15
	snare4 14
	music_call Branch_1ef1de
	bass 8
	snare1 7
	snare4 14
	noisea 8
	snare3 7
	snare3 7
	snare1 7
	snare3 8
	bass 7
	snare3 4
	snare3 5
	snare3 5
	snare2 15
	snare3 4
	snare3 5
	snare3 5
	music_call Branch_1ef1de
	bass 8
	snare1 7
	snare4 14
	noisea 8
	snare3 7
	snare3 7
	snare1 7
	snare3 8
	bass 7
	snare3 4
	snare3 5
	snare3 5
	snare2 15
	snare4 14
	music_call Branch_1ef1de
	bass 8
	snare1 7
	snare4 14
	noisea 8
	snare3 7
	snare3 7
	snare1 7
	snare3 8
	bass 7
	snare3 4
	snare3 5
	snare3 5
	snare2 8
	snare2 14
	snare2 7
	bass 15
	snare3 7
	snare3 7
	snare3 15
	snare1 14
	snare3 15
	bass 7
	snare3 7
	snare3 15
	noisea 14
	bass 8
	snare1 7
	snare4 14
	noisea 8
	snare3 7
	snare3 7
	snare1 7
	snare3 8
	bass 7
	snare3 4
	snare3 5
	snare3 5
	snare2 15
	snare4 14
	bass 15
	snare3 7
	snare3 7
	snare3 15
	snare1 14
	snare3 15
	bass 7
	snare3 7
	snare3 15
	noisea 14
	bass 8
	snare1 7
	snare4 14
	noisea 8
	snare3 7
	snare3 7
	snare1 7
	snare3 7
	bass 8
	snare3 4
	snare3 5
	snare3 5
	snare2 15
	snare2 14
	bass 15
	snare3 7
	snare3 7
	snare3 15
	snare1 14
	snare3 15
	bass 7
	snare3 7
	snare3 15
	noisea 14
	bass 8
	snare1 7
	snare4 14
	noisea 8
	snare3 7
	snare3 7
	snare1 7
	snare3 8
	bass 7
	snare3 4
	snare3 5
	snare3 5
	snare2 15
	snare4 14
	bass 15
	snare3 7
	snare3 7
	snare3 15
	snare1 14
	snare3 15
	bass 7
	snare3 7
	snare3 15
	noisea 14
	bass 8
	snare1 7
	snare4 14
	noisea 8
	snare3 7
	snare3 7
	snare2 7
	snare3 8
	musicef 250
	snare1 4
	musicef 252
	snare1 3
	musicef 0
	snare1 7
	snare1 7
	snare1 8
	snare1 7
	snare1 7
	snare1 7
	EndMainLoop

Branch_1ef1de:
	octave 1
	speed 1
	bass 15
	snare3 7
	snare3 7
	snare3 15
	snare4 14
	snare3 15
	bass 7
	snare3 7
	snare3 15
	noisea 14
	music_ret
; 0x1ef1ec
