Music_GRChallengeCup_Ch2: ; 1f2d24 (7c:6d24)
	MainLoop
	speed 1
	musicdc 17
	musicf0 0
	octave 4
	vibrato_delay 24
	musicef 255
	C_ 4
	C# 4
	D_ 4
	D# 4
	musicf1 69
	E_ 15
	tie
	E_ 15
	tie
	E_ 8
	E_ 7
	E_ 5
	E_ 3
	F_ 5
	E_ 2
	G_ 15
	G_ 5
	F_ 15
	F_ 5
	D_ 15
	D_ 5
	E_ 15
	tie
	E_ 15
	tie
	E_ 8
	E_ 7
	E_ 5
	E_ 3
	E_ 5
	E_ 2
	D_ 15
	D_ 5
	dec_octave
	B_ 15
	B_ 5
	inc_octave
	D_ 15
	D_ 5
	E_ 15
	tie
	E_ 8
	E_ 7
	A_ 5
	E_ 5
	E_ 5
	A_ 5
	A_ 5
	E_ 5
	B_ 15
	B_ 5
	G_ 15
	G_ 5
	B_ 15
	B_ 5
	musicef 250
	volume 30
	musicf3
	speed 6
	A_ 10
	tie
	speed 1
	A_ 15
	tie
	A_ 10
	volume 160
	musicf1 54
	A_ 5
	A_ 15
	tie
	A_ 15
	musicf0 8
	musicef 255
	musicf1 67
	Loop 2
	octave 2
	musicf2
	musice8 8
	E_ 5
	E_ 10
	E_ 5
	E_ 3
	E_ 5
	E_ 2
	musicf3
	E_ 15
	musicf2
	E_ 5
	E_ 3
	E_ 5
	E_ 2
	EndLoop
	MainLoop
	musicf0 8
	musicef 255
	musicf1 67
	Loop 2
	octave 2
	musicf2
	musice8 8
	F_ 5
	F_ 10
	F_ 5
	F_ 3
	F_ 5
	F_ 2
	musicf3
	F_ 15
	musicf2
	F_ 5
	F_ 3
	F_ 5
	F_ 2
	EndLoop
	Loop 2
	octave 2
	musicf2
	musice8 8
	F# 5
	F# 10
	F# 5
	F# 3
	F# 5
	F# 2
	musicf3
	F# 15
	musicf2
	F# 5
	F# 3
	F# 5
	F# 2
	EndLoop
	octave 2
	musicf2
	musice8 8
	F_ 5
	F_ 10
	F_ 5
	F_ 3
	F_ 5
	F_ 2
	musicf3
	F_ 15
	musicf2
	F_ 5
	F_ 3
	F_ 5
	F_ 2
	octave 2
	musicf2
	musice8 8
	F_ 5
	F_ 10
	F_ 5
	F_ 3
	F_ 5
	F_ 2
	musicf3
	musicf0 0
	musicef 1
	vibrato_type 1
	vibrato_delay 15
	octave 3
	musice4 0
	musicf1 70
	E_ 15
	E_ 8
	E_ 5
	E_ 2
	inc_octave
	vibrato_delay 30
	E_ 15
	tie
	E_ 15
	tie
	E_ 15
	tie
	E_ 15
	tie
	E_ 8
	E_ 7
	dec_octave
	musicf3
	A_ 15
	B_ 15
	inc_octave
	C_ 15
	musicf1 70
	vibrato_delay 15
	D_ 15
	tie
	D_ 15
	D_ 15
	C_ 8
	D_ 7
	C_ 15
	tie
	C_ 15
	C_ 15
	dec_octave
	musicf3
	A_ 8
	B_ 7
	musicf1 70
	inc_octave
	C_ 15
	tie
	C_ 15
	C_ 15
	vibrato_delay 0
	C_ 8
	C_ 7
	dec_octave
	musicf3
	B_ 15
	musicf1 70
	A_ 8
	B_ 7
	G_ 8
	A_ 7
	B_ 8
	G_ 7
	vibrato_delay 30
	A_ 15
	tie
	A_ 15
	tie
	A_ 15
	tie
	A_ 15
	tie
	A_ 15
	A_ 15
	E_ 15
	E_ 8
	E_ 5
	E_ 2
	inc_octave
	E_ 15
	tie
	E_ 15
	tie
	E_ 15
	tie
	E_ 15
	tie
	E_ 8
	E_ 7
	musicf3
	dec_octave
	A_ 15
	B_ 15
	inc_octave
	C_ 15
	musicf1 70
	vibrato_delay 15
	D_ 15
	tie
	D_ 15
	D_ 15
	C_ 8
	D_ 7
	C_ 15
	tie
	C_ 15
	C_ 15
	dec_octave
	musicf3
	A_ 8
	B_ 7
	musicf1 70
	vibrato_delay 0
	inc_octave
	C_ 15
	tie
	C_ 8
	C_ 7
	E_ 15
	tie
	E_ 8
	E_ 7
	D_ 15
	D_ 5
	G_ 15
	G_ 5
	D_ 15
	D_ 5
	vibrato_delay 15
	musicf3
	F_ 15
	tie
	F_ 15
	tie
	F_ 15
	musicf1 70
	E_ 8
	F_ 7
	E_ 15
	tie
	E_ 15
	E_ 15
	musicf3
	F_ 8
	G_ 7
	musicf1 70
	A_ 15
	tie
	A_ 15
	A_ 15
	A_ 8
	A_ 7
	musicf3
	A_ 15
	musicf1 70
	G_ 8
	A_ 7
	F_ 8
	G_ 7
	A_ 8
	F_ 7
	G_ 15
	G_ 8
	C_ 5
	G_ 2
	vibrato_delay 0
	C_ 15
	tie
	C_ 15
	tie
	C_ 15
	tie
	C_ 15
	C_ 15
	musicf3
	D_ 8
	E_ 7
	musicf1 70
	vibrato_delay 15
	F_ 15
	tie
	F_ 15
	F_ 15
	F_ 8
	F_ 7
	musicf3
	F_ 15
	musicf1 70
	E_ 8
	F_ 7
	D_ 8
	E_ 7
	F_ 8
	D_ 7
	E_ 15
	tie
	E_ 15
	tie
	E_ 15
	tie
	E_ 15
	tie
	E_ 15
	tie
	E_ 15
	E_ 15
	dec_octave
	musicf3
	A_ 8
	B_ 7
	musicf1 70
	inc_octave
	C_ 15
	tie
	C_ 15
	C_ 15
	C_ 8
	C_ 7
	musicf1 70
	D_ 15
	musicf1 70
	C_ 8
	D_ 7
	dec_octave
	B_ 8
	inc_octave
	C_ 7
	dec_octave
	A_ 8
	B_ 7
	G_ 15
	G_ 15
	inc_octave
	musicf3
	G_ 15
	tie
	G_ 15
	tie
	G_ 15
	tie
	G_ 15
	musicf1 70
	F_ 15
	F_ 8
	E_ 5
	F_ 2
	E_ 15
	tie
	E_ 15
	E_ 8
	musicf3
	F_ 7
	musicf1 70
	E_ 5
	F_ 3
	C_ 5
	E_ 2
	dec_octave
	A_ 15
	A_ 5
	inc_octave
	C_ 15
	D_ 5
	D_ 15
	D_ 5
	musicf3
	C_ 15
	tie
	C_ 15
	tie
	C_ 15
	dec_octave
	B_ 4
	inc_octave
	C_ 4
	dec_octave
	B_ 4
	A_ 3
	musicf1 70
	B_ 15
	tie
	B_ 15
	B_ 15
	inc_octave
	musicf3
	C_ 8
	D_ 7
	vibrato_delay 30
	musicef 255
	E_ 15
	tie
	E_ 15
	tie
	E_ 15
	tie
	E_ 15
	tie
	E_ 15
	tie
	E_ 15
	tie
	E_ 15
	tie
	E_ 15
	EndMainLoop


Music_GRChallengeCup_Ch1: ; 1f2f36 (7c:6f36)
	MainLoop
	speed 1
	musicdc 17
	musicf0 1
	musicef 255
	octave 3
	vibrato_delay 24
	G_ 4
	G# 4
	A_ 4
	A# 4
	inc_octave
	musicf1 53
	C# 15
	tie
	C# 15
	tie
	C# 8
	C# 7
	C# 5
	C# 3
	C# 5
	C# 2
	D_ 15
	D_ 5
	D_ 15
	D_ 5
	dec_octave
	A# 15
	A# 5
	inc_octave
	C# 15
	tie
	C# 15
	tie
	C# 8
	C# 7
	C# 5
	C# 3
	C# 5
	C# 2
	dec_octave
	B_ 15
	B_ 5
	G_ 15
	G_ 5
	B_ 15
	B_ 5
	inc_octave
	C_ 15
	tie
	C_ 8
	C_ 7
	C_ 5
	C_ 5
	C_ 5
	C_ 5
	C_ 5
	C_ 5
	D_ 15
	D_ 5
	dec_octave
	B_ 15
	B_ 5
	inc_octave
	D_ 15
	D_ 5
	musicef 250
	volume 30
	musicf3
	speed 6
	C# 10
	tie
	speed 1
	C# 15
	tie
	C# 10
	volume 144
	musicf1 54
	C# 5
	C# 15
	tie
	C# 15
	musicf0 8
	musicf1 67
	Loop 2
	octave 1
	musicf2
	musice8 8
	A_ 5
	A_ 10
	A_ 5
	A_ 3
	A_ 5
	A_ 2
	musicf3
	inc_octave
	B_ 15
	dec_octave
	musicf2
	A_ 5
	A_ 3
	A_ 5
	A_ 2
	EndLoop
	MainLoop
	musicf1 67
	Loop 5
	octave 1
	musicf2
	musice8 8
	A_ 5
	A_ 10
	A_ 5
	A_ 3
	A_ 5
	A_ 2
	musicf3
	inc_octave
	B_ 15
	dec_octave
	musicf2
	A_ 5
	A_ 3
	A_ 5
	A_ 2
	EndLoop
	octave 1
	musicf2
	musice8 8
	A_ 5
	A_ 10
	A_ 5
	A_ 3
	A_ 5
	A_ 2
	musicf3
	inc_octave
	B_ 15
	tie
	B_ 8
	dec_octave
	musicf0 21
	volume 128
	octave 2
	A_ 5
	rest 2
	inc_octave
	A_ 15
	tie
	A_ 15
	music_call Branch_1f3140
	rest 15
	rest 15
	E_ 15
	musicec 3
	music_call Branch_1f3140
	G_ 15
	F# 15
	tie
	F# 15
	musicec 2
	music_call Branch_1f3140
	F# 8
	rest 7
	F# 15
	tie
	F# 15
	musicec 2
	music_call Branch_1f3140
	F# 5
	rest 3
	F# 5
	rest 2
	F_ 15
	tie
	F_ 15
	musicec 1
	music_call Branch_1f3140
	F_ 8
	rest 7
	D_ 15
	C_ 8
	rest 7
	musicec 3
	music_call Branch_1f3140
	D_ 8
	rest 7
	E_ 15
	tie
	E_ 15
	music_call Branch_1f3140
	rest 15
	rest 8
	music_call Branch_1f3150
	rest 15
	dec_octave
	A_ 15
	rest 8
	A_ 7
	inc_octave
	A_ 15
	tie
	A_ 15
	music_call Branch_1f3140
	rest 15
	rest 15
	E_ 15
	musicec 3
	music_call Branch_1f3140
	G_ 15
	F# 15
	tie
	F# 15
	musicec 2
	music_call Branch_1f3140
	F# 8
	rest 7
	F# 15
	tie
	F# 15
	musicec 2
	music_call Branch_1f3140
	F# 5
	rest 3
	F# 5
	rest 2
	F_ 15
	tie
	F_ 8
	rest 7
	musicec 1
	music_call Branch_1f3140
	rest 8
	rest 7
	B_ 15
	rest 5
	B_ 10
	musicec 3
	music_call Branch_1f3140
	rest 15
	inc_octave
	C_ 15
	tie
	C_ 15
	musicec 8
	music_call Branch_1f3140
	octave 3
	G_ 8
	F_ 7
	G_ 15
	tie
	G_ 15
	musicec 6
	music_call Branch_1f3140
	A_ 8
	A# 7
	inc_octave
	C_ 15
	tie
	C_ 15
	musicec 1
	music_call Branch_1f3140
	octave 4
	C_ 8
	rest 7
	dec_octave
	B_ 15
	B_ 8
	rest 7
	musicec 1
	music_call Branch_1f3140
	octave 4
	D_ 8
	rest 7
	C_ 15
	rest 8
	dec_octave
	G_ 5
	rest 2
	G_ 15
	tie
	G_ 15
	tie
	G_ 8
	music_call Branch_1f3150
	rest 8
	rest 7
	musicec 3
	music_call Branch_1f3140
	octave 3
	F_ 8
	G_ 7
	A_ 15
	tie
	A_ 15
	musicec 5
	music_call Branch_1f3140
	A_ 8
	rest 7
	G# 13
	rest 2
	G# 8
	rest 7
	musicec 4
	music_call Branch_1f3140
	G# 8
	rest 7
	A_ 15
	tie
	A_ 15
	music_call Branch_1f3140
	rest 15
	rest 8
	music_call Branch_1f3150
	rest 15
	musicec 3
	music_call Branch_1f3140
	E_ 8
	G_ 7
	A_ 15
	tie
	A_ 15
	musicec 1
	music_call Branch_1f3140
	A_ 8
	rest 7
	B_ 15
	A_ 5
	rest 10
	musicec 3
	music_call Branch_1f3140
	F_ 8
	rest 7
	E_ 15
	tie
	E_ 15
	inc_octave
	volume 95
	D_ 15
	tie
	D_ 15
	volume 96
	C# 15
	tie
	C# 15
	musicec 3
	music_call Branch_1f3140
	rest 8
	dec_octave
	G_ 5
	rest 2
	A_ 15
	tie
	A_ 15
	musicec 1
	music_call Branch_1f3140
	A_ 8
	F_ 7
	D_ 15
	rest 5
	F_ 10
	musicec 4
	music_call Branch_1f3140
	rest 15
	G_ 15
	tie
	G_ 15
	musicec 1
	music_call Branch_1f3140
	G_ 4
	D_ 4
	C_ 4
	D_ 3
	D_ 15
	tie
	D_ 15
	rest 15
	G# 8
	B_ 7
	A_ 15
	tie
	A_ 15
	musicf0 8
	musicef 255
	octave 2
	musicf1 67
	musicf3
	B_ 15
	musicf2
	musice8 8
	E_ 5
	E_ 3
	E_ 5
	E_ 2
	E_ 5
	E_ 10
	E_ 5
	E_ 3
	E_ 5
	E_ 2
	musicf3
	B_ 15
	E_ 5
	E_ 3
	E_ 5
	E_ 2
	EndMainLoop

Branch_1f3140:
	musicf0 8
	octave 2
	musicef 255
	E_ 15
	musicef 1
	musicf0 21
	musicf1 128
	octave 3
	musicec 0
	music_ret

Branch_1f3150:
	musicf0 8
	octave 2
	musicf2
	G_ 4
	G_ 3
	musicf0 21
	volume 128
	octave 3
	musicf3
	music_ret


Music_GRChallengeCup_Ch3: ; 1f315d (7c:715d)
	speed 1
	wave 1
	volume 32
	musice9 96
	musicdc 17
	octave 4
	rest 16
	octave 1
	A_ 15
	tie
	A_ 15
	tie
	A_ 8
	rest 7
	A_ 5
	rest 3
	A_ 5
	rest 2
	A# 15
	rest 5
	A# 15
	rest 5
	A# 15
	rest 5
	A_ 15
	tie
	A_ 15
	tie
	A_ 8
	rest 7
	A_ 5
	rest 3
	A_ 5
	rest 2
	G_ 15
	rest 5
	G_ 15
	rest 5
	G_ 15
	rest 5
	F_ 15
	tie
	F_ 15
	tie
	F_ 8
	rest 7
	F_ 5
	rest 3
	F_ 5
	rest 2
	G_ 15
	rest 5
	G_ 15
	rest 5
	G_ 15
	rest 5
	A_ 16
	tie
	A_ 16
	tie
	A_ 16
	tie
	A_ 16
	tie
	A_ 16
	tie
	A_ 10
	rest 16
	rest 14
	musice8 4
	A_ 15
	A_ 8
	A_ 7
	music_call Branch_1f333b
	octave 1
	A_ 8
	A_ 7
	A_ 15
	A_ 8
	A_ 7
	music_call Branch_1f333b
	octave 1
	A_ 8
	A_ 7
	MainLoop
	musice8 4
	octave 1
	Loop 3
	A_ 15
	A_ 8
	A_ 7
	music_call Branch_1f333b
	octave 1
	A_ 8
	A_ 7
	A_ 15
	A_ 8
	A_ 7
	music_call Branch_1f333b
	octave 1
	A_ 8
	A_ 7
	EndLoop
	A_ 15
	A_ 8
	A_ 7
	music_call Branch_1f333b
	A_ 8
	A_ 7
	A_ 15
	A_ 8
	A_ 7
	musicec 3
	music_call Branch_1f333b
	A_ 8
	A_ 7
	A_ 15
	A_ 8
	A_ 7
	music_call Branch_1f333b
	A_ 8
	A_ 7
	A_ 15
	A_ 8
	A_ 7
	music_call Branch_1f333b
	A_ 8
	A_ 7
	A_ 15
	A_ 8
	A_ 7
	musicec 3
	music_call Branch_1f333b
	A_ 8
	A_ 7
	A_ 15
	A_ 8
	A_ 7
	musicec 5
	music_call Branch_1f333b
	A_ 8
	A_ 7
	A_ 15
	A_ 8
	A_ 7
	music_call Branch_1f333b
	A_ 8
	A_ 7
	A_ 8
	octave 3
	musice8 4
	C_ 4
	rest 3
	musice8 8
	octave 1
	musice8 8
	F# 15
	G_ 15
	G# 15
	musice8 4
	A_ 15
	A_ 8
	A_ 7
	music_call Branch_1f333b
	A_ 8
	A_ 7
	A_ 15
	A_ 8
	A_ 7
	musicec 3
	music_call Branch_1f333b
	A_ 8
	A_ 7
	A_ 15
	A_ 8
	A_ 7
	music_call Branch_1f333b
	A_ 8
	A_ 7
	A_ 15
	A_ 8
	A_ 7
	music_call Branch_1f333b
	A_ 8
	A_ 7
	A_ 15
	A_ 8
	A_ 7
	musicec 3
	music_call Branch_1f333b
	A_ 8
	A_ 7
	B_ 15
	B_ 8
	B_ 7
	musicec 5
	music_call Branch_1f333b
	B_ 8
	B_ 7
	inc_octave
	C_ 15
	C_ 8
	C_ 7
	musicec 8
	music_call Branch_1f333b
	octave 2
	C_ 8
	dec_octave
	G_ 7
	C_ 8
	inc_octave
	inc_octave
	musice8 4
	E_ 4
	rest 3
	musice8 4
	dec_octave
	dec_octave
	C_ 8
	C_ 7
	musice8 8
	D_ 15
	E_ 15
	musice8 4
	F_ 15
	F_ 8
	F_ 7
	musicec 3
	music_call Branch_1f333b
	F_ 8
	F_ 7
	F_ 15
	F_ 8
	F_ 7
	music_call Branch_1f333b
	F_ 8
	F_ 7
	E_ 15
	E_ 8
	E_ 7
	musicec 254
	music_call Branch_1f333b
	E_ 8
	E_ 7
	E_ 8
	inc_octave
	inc_octave
	musice8 4
	C_ 4
	rest 3
	dec_octave
	dec_octave
	E_ 8
	E_ 7
	musicec 5
	music_call Branch_1f333b
	E_ 8
	E_ 7
	D_ 15
	D_ 8
	D_ 7
	musicec 5
	music_call Branch_1f333b
	D_ 8
	D_ 7
	E_ 15
	E_ 8
	E_ 7
	musicec 7
	music_call Branch_1f333b
	E_ 8
	E_ 7
	A_ 15
	A_ 8
	A_ 7
	music_call Branch_1f333b
	A_ 8
	A_ 7
	G_ 8
	inc_octave
	inc_octave
	C_ 4
	rest 3
	dec_octave
	dec_octave
	G_ 8
	G_ 7
	musicec 3
	music_call Branch_1f333b
	G_ 8
	G_ 7
	F_ 15
	F_ 8
	F_ 7
	musicec 3
	music_call Branch_1f333b
	F_ 8
	F_ 7
	F_ 15
	F_ 8
	F_ 7
	musicec 5
	music_call Branch_1f333b
	F_ 8
	F_ 7
	E_ 15
	E_ 8
	E_ 7
	musicec 254
	music_call Branch_1f333b
	E_ 8
	E_ 7
	D# 8
	inc_octave
	inc_octave
	C# 4
	rest 3
	dec_octave
	dec_octave
	D# 8
	D# 7
	musicec 4
	music_call Branch_1f333b
	D# 8
	D# 7
	D_ 15
	D_ 8
	D_ 7
	musicec 3
	music_call Branch_1f333b
	D_ 8
	D_ 7
	D_ 15
	D_ 8
	D_ 7
	musicec 3
	music_call Branch_1f333b
	D_ 8
	D_ 7
	G_ 15
	G_ 8
	G_ 7
	musicec 3
	music_call Branch_1f333b
	inc_octave
	D_ 8
	D_ 7
	musice8 8
	G_ 15
	dec_octave
	G_ 15
	G# 15
	inc_octave
	G# 15
	musice8 4
	dec_octave
	A_ 15
	A_ 8
	A_ 7
	music_call Branch_1f333b
	A_ 8
	A_ 7
	A_ 15
	A_ 8
	A_ 7
	music_call Branch_1f333b
	A_ 8
	A_ 7
	EndMainLoop

Branch_1f333b:
	octave 2
	volume 64
	musice8 8
	A_ 15
	volume 32
	musice8 4
	musicec 0
	octave 1
	music_ret


Music_GRChallengeCup_Ch4: ; 1f3349 (7c:7349)
	speed 1
	octave 1
	rest 16
	Loop 3
	snare1 16
	rest 16
	rest 13
	snare1 5
	musicef 254
	snare1 5
	snare1 5
	musicef 0
	snare1 16
	rest 4
	snare1 16
	rest 4
	snare1 16
	rest 4
	EndLoop
	speed 5
	snare5 16
	speed 1
	rest 10
	snare1 8
	bass 15
	snare1 7
	music_call Branch_1f33e9
	MainLoop
	music_call Branch_1f33fd
	music_call Branch_1f33e9
	bass 8
	snare1 7
	snare3 8
	bass 7
	snare1 8
	snare3 7
	snare3 8
	musicef 253
	snare1 4
	snare1 3
	musicef 0
	snare1 8
	snare1 7
	snare3 8
	musicef 253
	snare1 4
	snare1 3
	musicef 0
	snare1 8
	snare1 7
	snare1 8
	snare4 7
	music_call Branch_1f33e9
	music_call Branch_1f33fd
	music_call Branch_1f33e9
	bass 8
	snare3 7
	snare3 8
	snare3 7
	snare1 8
	snare3 7
	snare3 8
	snare3 7
	bass 8
	snare1 7
	snare3 8
	snare3 7
	snare1 8
	bass 7
	snare4 8
	snare1 7
	music_call Branch_1f33e9
	music_call Branch_1f33fd
	music_call Branch_1f33e9
	bass 8
	snare3 7
	snare3 8
	snare3 7
	snare1 8
	snare3 7
	snare3 8
	snare3 7
	bass 8
	snare1 7
	snare3 8
	musicef 253
	snare1 4
	snare1 3
	musicef 0
	snare1 8
	snare1 7
	snare1 8
	snare1 7
	Loop 3
	music_call Branch_1f33e9
	music_call Branch_1f33fd
	EndLoop
	music_call Branch_1f33e9
	bass 8
	snare3 7
	snare3 8
	snare3 7
	snare1 8
	snare3 7
	snare3 8
	musicef 253
	snare1 4
	snare1 3
	musicef 0
	snare1 8
	snare1 7
	snare1 8
	snare1 7
	snare1 8
	snare1 7
	snare1 8
	snare1 7
	music_call Branch_1f33e9
	EndMainLoop

Branch_1f33e9:
	octave 1
	speed 1
	bass 8
	snare3 7
	snare3 8
	snare3 7
	snare1 8
	snare3 7
	snare3 8
	snare3 7
	bass 8
	snare3 7
	snare3 8
	bass 7
	snare1 8
	snare3 7
	snare3 8
	snare4 7
	music_ret

Branch_1f33fd:
	octave 1
	speed 1
	bass 8
	snare3 7
	snare3 8
	snare3 7
	snare1 8
	snare3 7
	snare3 8
	snare3 7
	bass 8
	snare1 7
	snare3 8
	snare3 7
	snare1 8
	snare3 7
	snare4 8
	snare1 7
	music_ret
; 0x1f3411
