Music_GROverworld_Ch2: ; 1ead0d (7a:6d0d)
	MainLoop
	music_call Branch_1eae1e
	A# 16
	tie
	A# 9
	A# 8
	inc_octave
	D_ 16
	tie
	D_ 9
	D_ 8
	C_ 16
	C_ 6
	dec_octave
	A_ 16
	A_ 6
	F_ 16
	F_ 6
	speed 11
	G_ 12
	musicf0 11
	speed 1
	musicdc 17
	octave 2
	musicf1 70
	musicf2
	B_ 9
	B_ 16
	rest 8
	rest 9
	rest 8
	B_ 6
	B_ 2
	B_ 6
	B_ 2
	B_ 6
	B_ 11
	B_ 10
	B_ 6
	rest 16
	rest 1
	music_call Branch_1eae1e
	A# 16
	tie
	A# 9
	A# 8
	inc_octave
	D_ 16
	tie
	D_ 9
	D_ 8
	C_ 16
	C_ 6
	dec_octave
	G_ 16
	G_ 6
	inc_octave
	C_ 16
	C_ 6
	musicf1 103
	musicf2
	D_ 16
	tie
	D_ 16
	tie
	D_ 16
	tie
	D_ 16
	tie
	D_ 16
	tie
	D_ 12
	tie
	D_ 8
	D_ 16
	musicf0 14
	musicf1 70
	musicef 2
	musicf2
	octave 3
	D_ 4
	D_ 4
	F_ 5
	F_ 3
	G_ 16
	tie
	G_ 16
	tie
	G_ 16
	tie
	G_ 16
	tie
	G_ 16
	tie
	G_ 3
	G_ 16
	A_ 7
	G_ 8
	tie
	A_ 8
	rest 2
	A# 5
	A# 3
	A_ 8
	A_ 1
	A# 7
	A# 1
	A_ 5
	A# 3
	F_ 5
	A_ 3
	D_ 16
	tie
	D_ 16
	tie
	D_ 16
	tie
	D_ 3
	D_ 16
	C_ 7
	D_ 8
	tie
	C_ 8
	rest 2
	dec_octave
	A# 5
	A# 3
	inc_octave
	C_ 7
	dec_octave
	A# 8
	tie
	inc_octave
	C_ 8
	rest 2
	F_ 5
	F_ 3
	F_ 16
	tie
	F_ 16
	tie
	F_ 16
	musicf1 54
	musicf2
	D# 8
	D# 8
	dec_octave
	A# 9
	A# 8
	inc_octave
	D# 8
	D# 8
	musicf1 86
	musicf2
	D_ 8
	D_ 1
	D# 7
	D# 1
	D_ 5
	D# 3
	C_ 5
	D_ 3
	D_ 16
	tie
	D_ 16
	tie
	D_ 16
	tie
	D_ 3
	D_ 16
	musicf1 160
	musicf2
	D# 16
	D# 1
	F_ 15
	F_ 1
	musicf1 86
	musicf2
	G_ 7
	F_ 8
	tie
	G_ 8
	inc_octave
	rest 2
	D_ 5
	D_ 3
	D_ 16
	tie
	D_ 16
	tie
	D_ 16
	tie
	D_ 3
	D_ 16
	C_ 9
	D_ 8
	D_ 8
	C_ 8
	musicf1 86
	musicf2
	F_ 6
	D_ 5
	musicf3
	C_ 11
	D_ 11
	dec_octave
	musicf1 86
	musicf2
	A_ 16
	tie
	A_ 16
	tie
	A_ 16
	tie
	A_ 16
	tie
	A_ 2
	A_ 16
	G_ 5
	A_ 3
	F_ 5
	G_ 3
	G_ 16
	tie
	G_ 16
	tie
	G_ 2
	G_ 16
	D_ 8
	D_ 8
	G_ 16
	G_ 6
	A_ 16
	A_ 6
	A# 16
	A# 6
	musicf3
	speed 11
	A# 6
	A_ 6
	G_ 6
	speed 1
	speed 11
	F_ 3
	tie
	speed 1
	F_ 1
	tie
	F_ 16
	EndMainLoop

Branch_1eae1e:
	musicf0 13
	octave 3
	speed 1
	musicdc 17
	vibrato_delay 33
	musicef 1
	musicf1 48
	musicf2
	octave 3
	D_ 5
	D_ 3
	E_ 5
	E_ 3
	F_ 16
	tie
	F_ 16
	tie
	F_ 16
	tie
	F_ 16
	tie
	F_ 16
	tie
	F_ 3
	F_ 16
	E_ 5
	E_ 4
	D_ 5
	E_ 3
	C_ 5
	D_ 3
	E_ 5
	D_ 3
	D_ 7
	E_ 8
	tie
	D_ 8
	rest 2
	dec_octave
	G_ 5
	G_ 3
	G_ 16
	tie
	G_ 16
	tie
	G_ 16
	tie
	G_ 16
	tie
	G_ 3
	G_ 16
	G_ 5
	G_ 3
	G_ 5
	G_ 3
	F_ 16
	tie
	F_ 9
	F_ 8
	A_ 16
	tie
	A_ 9
	A_ 8
	inc_octave
	C_ 16
	tie
	C_ 9
	C_ 8
	E_ 16
	tie
	E_ 9
	E_ 8
	D_ 7
	D_ 8
	rest 8
	rest 2
	dec_octave
	G_ 5
	inc_octave
	D_ 3
	dec_octave
	G_ 16
	tie
	G_ 16
	tie
	G_ 16
	tie
	G_ 16
	tie
	G_ 3
	G_ 16
	inc_octave
	D_ 5
	D_ 3
	E_ 5
	D_ 3
	F_ 16
	tie
	F_ 16
	tie
	F_ 16
	tie
	F_ 16
	tie
	F_ 16
	tie
	F_ 3
	F_ 16
	E_ 5
	E_ 4
	D_ 5
	E_ 3
	C_ 5
	D_ 3
	E_ 5
	D_ 3
	D_ 7
	E_ 8
	tie
	D_ 8
	rest 2
	dec_octave
	G_ 5
	G_ 3
	G_ 16
	tie
	G_ 16
	tie
	G_ 16
	tie
	G_ 16
	G_ 16
	tie
	G_ 3
	G_ 5
	G_ 3
	A_ 5
	G_ 3
	music_ret


Music_GROverworld_Ch1: ; 1eaeaf (7a:6eaf)
	speed 1
	rest 16
	MainLoop
	musicf0 11
	speed 1
	musicdc 17
	octave 3
	musicf1 70
	musicf2
	C_ 9
	C_ 16
	rest 8
	rest 9
	rest 8
	C_ 6
	C_ 2
	C_ 6
	C_ 2
	C_ 6
	C_ 11
	C_ 10
	C_ 6
	rest 16
	rest 1
	rest 16
	dec_octave
	B_ 9
	B_ 16
	rest 8
	rest 9
	rest 8
	B_ 6
	B_ 2
	B_ 6
	B_ 2
	B_ 6
	B_ 11
	B_ 10
	B_ 6
	rest 16
	rest 1
	rest 16
	A_ 9
	A_ 16
	rest 8
	rest 9
	rest 8
	F_ 6
	F_ 2
	F_ 6
	F_ 2
	A_ 6
	A_ 11
	A_ 10
	A_ 6
	rest 16
	rest 1
	rest 16
	B_ 9
	B_ 16
	rest 8
	rest 9
	rest 8
	B_ 6
	B_ 2
	B_ 6
	B_ 2
	B_ 6
	B_ 11
	B_ 10
	B_ 6
	rest 16
	rest 1
	rest 16
	inc_octave
	C_ 9
	C_ 16
	rest 8
	rest 9
	rest 8
	C_ 6
	C_ 2
	C_ 6
	C_ 2
	C_ 6
	C_ 11
	C_ 10
	C_ 6
	rest 16
	rest 1
	rest 16
	dec_octave
	B_ 9
	B_ 16
	rest 8
	rest 9
	rest 8
	B_ 6
	B_ 2
	B_ 6
	B_ 2
	B_ 6
	B_ 11
	B_ 10
	B_ 6
	rest 16
	rest 1
	rest 16
	G_ 9
	G_ 16
	rest 8
	rest 9
	rest 8
	G_ 6
	G_ 2
	G_ 6
	G_ 2
	A_ 6
	A_ 11
	F_ 10
	F_ 6
	rest 16
	rest 1
	rest 16
	inc_octave
	C_ 9
	C_ 16
	rest 8
	rest 9
	rest 8
	C_ 6
	C_ 2
	C_ 6
	C_ 2
	C_ 6
	C_ 11
	C_ 10
	C_ 6
	rest 16
	rest 1
	rest 16
	dec_octave
	G_ 9
	G_ 16
	rest 8
	rest 9
	rest 8
	G_ 6
	G_ 2
	G_ 6
	G_ 2
	G_ 6
	G_ 11
	G_ 10
	G_ 6
	rest 16
	rest 1
	musicf0 15
	octave 2
	musice8 8
	musicf1 48
	musicf2
	B_ 5
	B_ 3
	inc_octave
	C_ 5
	C_ 3
	musicf0 11
	speed 1
	musicdc 17
	octave 3
	musicf1 70
	musicf2
	C_ 8
	C_ 1
	musicf0 23
	musicf1 32
	musicf2
	octave 5
	C_ 4
	C_ 4
	F_ 4
	C_ 4
	C_ 4
	F_ 4
	inc_octave
	C_ 5
	dec_octave
	C_ 4
	C_ 4
	inc_octave
	C_ 4
	musicf0 11
	musicf1 70
	musicf2
	octave 3
	C_ 6
	C_ 2
	C_ 6
	C_ 2
	C_ 8
	C_ 1
	musicf3
	musicf0 23
	musicf1 32
	musicf2
	octave 5
	C_ 4
	C_ 4
	musicf0 11
	musicf1 70
	musicf2
	octave 3
	C_ 7
	C_ 1
	musicf0 23
	musicf1 32
	musicf2
	octave 5
	C_ 4
	C_ 4
	inc_octave
	C_ 4
	dec_octave
	C_ 5
	C_ 4
	inc_octave
	C_ 4
	musicf0 15
	octave 2
	musice8 8
	musicf1 48
	musicf2
	A_ 5
	A_ 3
	inc_octave
	C_ 5
	C_ 3
	musicf0 11
	speed 1
	musicdc 17
	octave 2
	musicf1 70
	musicf2
	B_ 8
	B_ 1
	musicf0 23
	musicf1 32
	musicf2
	octave 5
	D_ 4
	D_ 4
	G_ 4
	D_ 4
	D_ 4
	G_ 4
	B_ 5
	D_ 4
	D_ 4
	B_ 4
	musicf0 11
	musicf1 70
	musicf2
	octave 2
	B_ 6
	B_ 2
	B_ 6
	B_ 2
	B_ 8
	B_ 1
	musicf3
	musicf0 23
	musicf1 32
	musicf2
	octave 5
	D_ 4
	D_ 4
	musicf0 11
	musicf1 70
	musicf2
	octave 2
	B_ 7
	B_ 1
	musicf0 23
	musicf1 32
	musicf2
	octave 5
	D_ 4
	D_ 4
	B_ 4
	D_ 5
	D_ 4
	B_ 4
	musicf0 15
	octave 2
	musice8 8
	musicf1 48
	musicf2
	B_ 5
	B_ 3
	inc_octave
	D_ 5
	D_ 3
	musicf0 11
	speed 1
	musicdc 17
	octave 3
	musicf1 70
	musicf2
	C_ 8
	C_ 1
	musicf0 23
	musicf1 32
	musicf2
	octave 5
	C_ 4
	C_ 4
	F_ 4
	C_ 4
	C_ 4
	F_ 4
	inc_octave
	C_ 5
	dec_octave
	C_ 4
	C_ 4
	inc_octave
	C_ 4
	musicf0 11
	musicf1 70
	musicf2
	octave 2
	F_ 6
	F_ 2
	F_ 6
	F_ 2
	A_ 8
	A_ 1
	musicf3
	musicf0 23
	musicf1 32
	musicf2
	octave 5
	C_ 4
	C_ 4
	musicf0 11
	musicf1 70
	musicf2
	octave 2
	A_ 7
	A_ 1
	musicf0 23
	musicf1 32
	musicf2
	octave 5
	C_ 4
	C_ 4
	inc_octave
	C_ 4
	dec_octave
	C_ 5
	C_ 4
	inc_octave
	C_ 4
	musicf0 15
	octave 3
	musice8 8
	musicf1 48
	musicf2
	C_ 8
	C_ 8
	musicf0 11
	speed 1
	musicdc 17
	octave 2
	musicf1 70
	musicf2
	B_ 8
	B_ 1
	musicf0 23
	musicf1 32
	musicf2
	octave 5
	D_ 4
	D_ 4
	G_ 4
	D_ 4
	D_ 4
	G_ 4
	B_ 5
	D_ 4
	D_ 4
	D_ 4
	musicf0 11
	musicf1 70
	musicf2
	octave 2
	B_ 6
	B_ 2
	B_ 6
	B_ 2
	B_ 8
	B_ 1
	musicf3
	musicf0 23
	musicf1 32
	musicf2
	octave 5
	D_ 4
	D_ 4
	musicf0 11
	musicf1 70
	musicf2
	octave 2
	B_ 7
	B_ 1
	musicf0 23
	musicf1 32
	musicf2
	octave 5
	D_ 4
	D_ 4
	B_ 4
	D_ 5
	D_ 4
	B_ 4
	musicf0 15
	octave 2
	musice8 8
	musicf1 48
	musicf2
	B_ 5
	B_ 3
	inc_octave
	C_ 5
	C_ 3
	musicf0 11
	speed 1
	musicdc 17
	octave 3
	musicf1 70
	musicf2
	C_ 8
	C_ 1
	musicf0 23
	musicf1 32
	musicf2
	octave 5
	C_ 4
	C_ 4
	F_ 4
	C_ 4
	C_ 4
	F_ 4
	inc_octave
	C_ 5
	dec_octave
	C_ 4
	C_ 4
	inc_octave
	C_ 4
	musicf0 11
	musicf1 70
	musicf2
	octave 3
	C_ 6
	C_ 2
	C_ 6
	C_ 2
	C_ 8
	C_ 1
	musicf3
	musicf0 23
	musicf1 32
	musicf2
	octave 5
	C_ 4
	C_ 4
	musicf0 11
	musicf1 70
	musicf2
	octave 3
	C_ 7
	C_ 1
	musicf0 23
	musicf1 32
	musicf2
	octave 5
	C_ 4
	C_ 4
	inc_octave
	C_ 4
	dec_octave
	C_ 5
	C_ 4
	inc_octave
	C_ 4
	musicf0 15
	octave 2
	musice8 8
	musicf1 48
	musicf2
	A_ 5
	A_ 3
	inc_octave
	C_ 5
	C_ 3
	musicf0 11
	speed 1
	musicdc 17
	octave 2
	musicf1 70
	musicf2
	B_ 8
	B_ 1
	musicf0 23
	musicf1 32
	musicf2
	octave 5
	D_ 4
	D_ 4
	G_ 4
	D_ 4
	D_ 4
	G_ 4
	B_ 5
	D_ 4
	D_ 4
	B_ 4
	musicf0 11
	musicf1 70
	musicf2
	octave 2
	B_ 6
	B_ 2
	B_ 6
	B_ 2
	B_ 8
	B_ 1
	musicf3
	musicf0 23
	musicf1 32
	musicf2
	octave 5
	D_ 4
	D_ 4
	musicf0 11
	musicf1 70
	musicf2
	octave 2
	B_ 7
	B_ 1
	musicf0 23
	musicf1 32
	musicf2
	octave 5
	D_ 4
	D_ 4
	B_ 4
	D_ 5
	D_ 4
	B_ 4
	musicf0 15
	octave 2
	musice8 8
	musicf1 48
	musicf2
	B_ 5
	B_ 3
	inc_octave
	C_ 5
	C_ 3
	musicef 254
	D_ 16
	tie
	D_ 9
	D_ 8
	F_ 16
	tie
	F_ 9
	F_ 8
	E_ 16
	E_ 6
	C_ 16
	C_ 6
	E_ 16
	E_ 6
	musicf3
	speed 11
	G_ 6
	F# 3
	musicef 2
	speed 1
	musicf0 14
	musicef 254
	octave 2
	D_ 6
	D# 6
	F_ 5
	G_ 6
	A_ 5
	A# 5
	musicef 2
	musicf0 11
	speed 1
	musicdc 17
	octave 3
	musicf1 70
	musicf2
	D_ 8
	D_ 1
	musicf0 12
	musicf1 71
	octave 2
	musicf3
	G_ 4
	rest 4
	musicf2
	inc_octave
	D_ 4
	dec_octave
	G_ 4
	G_ 4
	inc_octave
	D_ 4
	G_ 5
	dec_octave
	G_ 4
	inc_octave
	D_ 4
	G_ 4
	musicf0 11
	musicf1 70
	musicf2
	octave 3
	D_ 6
	D_ 2
	musicf0 12
	musicf1 71
	musicf3
	octave 3
	G_ 4
	rest 4
	musicf2
	inc_octave
	D_ 5
	dec_octave
	G_ 4
	G_ 4
	inc_octave
	D_ 4
	musicf0 11
	musicf1 70
	musicf2
	octave 3
	D_ 7
	D_ 1
	musicf0 12
	musicf1 71
	musicf3
	octave 3
	D_ 4
	rest 4
	musicf2
	G_ 5
	D_ 4
	dec_octave
	A# 4
	inc_octave
	G_ 4
	D_ 4
	dec_octave
	A# 4
	G_ 4
	inc_octave
	D_ 4
	musicf0 11
	speed 1
	musicdc 17
	octave 3
	musicf1 70
	musicf2
	F_ 8
	F_ 1
	musicf0 12
	musicf1 71
	octave 3
	musicf3
	D_ 4
	rest 4
	musicf2
	A_ 4
	D_ 4
	D_ 4
	A_ 4
	inc_octave
	D_ 5
	dec_octave
	D_ 4
	A_ 4
	inc_octave
	D_ 4
	musicf0 11
	musicf1 70
	musicf2
	octave 3
	D_ 6
	D_ 2
	musicf0 12
	musicf1 71
	musicf3
	octave 4
	D_ 4
	rest 4
	musicf2
	A_ 5
	D_ 4
	D_ 4
	A_ 4
	musicf0 11
	musicf1 70
	musicf2
	octave 2
	A_ 7
	A_ 1
	musicf0 12
	musicf1 71
	musicf3
	octave 3
	A_ 4
	rest 4
	musicf2
	inc_octave
	D_ 5
	dec_octave
	A_ 4
	F_ 4
	inc_octave
	D_ 4
	dec_octave
	A_ 4
	F_ 4
	D_ 4
	A_ 4
	musicf0 11
	speed 1
	musicdc 17
	octave 2
	musicf1 70
	musicf2
	G# 8
	G# 1
	musicf0 12
	musicf1 71
	musicf3
	octave 2
	F_ 4
	rest 4
	musicf2
	inc_octave
	C_ 4
	dec_octave
	F_ 4
	F_ 4
	inc_octave
	C_ 4
	F_ 5
	dec_octave
	F_ 4
	inc_octave
	C_ 4
	F_ 4
	musicf0 11
	musicf1 70
	musicf2
	octave 3
	C_ 6
	C_ 2
	musicf0 12
	musicf1 71
	musicf3
	octave 3
	F_ 4
	rest 4
	musicf2
	inc_octave
	C_ 5
	dec_octave
	F_ 4
	F_ 4
	inc_octave
	C_ 4
	musicf0 11
	musicf1 70
	musicf2
	octave 3
	F_ 7
	F_ 1
	musicf0 12
	musicf1 71
	octave 3
	C_ 4
	rest 4
	musicf2
	F_ 5
	C_ 4
	dec_octave
	G# 4
	inc_octave
	F_ 4
	C_ 4
	dec_octave
	G# 4
	F_ 4
	inc_octave
	C_ 4
	musicf0 11
	speed 1
	musicdc 17
	octave 2
	musicf1 70
	musicf2
	A# 8
	A# 1
	musicf0 12
	musicf1 71
	octave 2
	musicf3
	A# 4
	rest 4
	musicf2
	inc_octave
	D_ 4
	dec_octave
	A# 4
	A# 4
	inc_octave
	D_ 4
	F_ 5
	dec_octave
	A# 4
	inc_octave
	D_ 4
	F_ 4
	musicf0 11
	musicf1 70
	octave 2
	A# 6
	A# 2
	musicf0 12
	musicf1 71
	musicf3
	octave 3
	F_ 4
	rest 4
	musicf2
	inc_octave
	D_ 5
	dec_octave
	F_ 4
	F_ 4
	inc_octave
	D_ 4
	musicf0 11
	musicf1 70
	octave 2
	A# 7
	A# 1
	musicf0 12
	musicf1 71
	musicf3
	octave 3
	D_ 4
	rest 4
	musicf2
	F_ 5
	D_ 4
	dec_octave
	A# 4
	inc_octave
	F_ 4
	D_ 4
	dec_octave
	A# 4
	F_ 4
	inc_octave
	D_ 4
	musicf0 11
	speed 1
	musicdc 17
	octave 3
	musicf1 70
	C_ 8
	C_ 1
	musicf0 12
	musicf1 71
	musicf3
	octave 3
	C_ 4
	rest 4
	musicf2
	G_ 4
	C_ 4
	C_ 4
	G_ 4
	inc_octave
	C_ 5
	dec_octave
	C_ 4
	G_ 4
	inc_octave
	C_ 4
	musicf0 11
	musicf1 70
	octave 3
	G_ 6
	G_ 2
	musicf0 12
	musicf1 71
	musicf3
	octave 4
	C_ 4
	rest 4
	musicf2
	G_ 5
	C_ 4
	C_ 4
	G_ 4
	musicf0 11
	musicf1 70
	octave 3
	G_ 7
	G_ 1
	musicf0 12
	musicf1 71
	musicf3
	octave 3
	G_ 4
	rest 4
	musicf2
	inc_octave
	C_ 5
	dec_octave
	G_ 4
	D# 4
	inc_octave
	C_ 4
	dec_octave
	G_ 4
	D# 4
	C_ 4
	G_ 4
	musicf0 11
	speed 1
	musicdc 17
	octave 4
	musicf1 70
	C_ 8
	C_ 1
	musicf0 12
	musicf1 71
	musicf3
	octave 3
	C_ 4
	rest 4
	musicf2
	F_ 4
	C_ 4
	C_ 4
	F_ 4
	A_ 5
	C_ 4
	F_ 4
	A_ 4
	musicf0 11
	musicf1 70
	octave 3
	F_ 6
	F_ 2
	musicf0 12
	musicf1 71
	musicf3
	octave 3
	A_ 4
	rest 4
	musicf2
	inc_octave
	F_ 5
	dec_octave
	A_ 4
	A_ 4
	inc_octave
	F_ 4
	musicf0 11
	musicf1 70
	octave 3
	C_ 7
	C_ 1
	musicf0 12
	musicf1 71
	musicf3
	octave 3
	F_ 4
	rest 4
	musicf2
	A_ 5
	F_ 4
	C_ 4
	A_ 4
	F_ 4
	C_ 4
	dec_octave
	A_ 4
	inc_octave
	F_ 4
	musicf0 11
	speed 1
	musicdc 17
	octave 3
	musicf1 70
	D# 8
	D# 1
	musicf0 12
	musicf1 71
	musicf3
	octave 2
	G_ 4
	rest 4
	musicf2
	inc_octave
	D_ 4
	dec_octave
	G_ 4
	G_ 4
	inc_octave
	D_ 4
	G_ 5
	dec_octave
	G_ 4
	inc_octave
	D_ 4
	G_ 4
	musicf0 11
	musicf1 70
	octave 2
	A# 6
	A# 2
	musicf0 12
	musicf1 71
	musicf3
	octave 3
	G_ 4
	rest 4
	musicf2
	inc_octave
	D_ 5
	dec_octave
	G_ 4
	G_ 4
	inc_octave
	D_ 4
	musicf0 11
	musicf1 70
	octave 3
	D# 7
	D# 1
	musicf0 12
	musicf1 71
	musicf3
	octave 3
	D_ 4
	rest 4
	musicf2
	G_ 5
	D_ 4
	dec_octave
	A# 4
	inc_octave
	G_ 4
	D_ 4
	dec_octave
	A# 4
	G_ 4
	inc_octave
	D_ 4
	musicf0 14
	octave 3
	musicf3
	speed 11
	F_ 12
	D# 6
	speed 11
	C_ 3
	tie
	speed 1
	C_ 1
	tie
	C_ 16
	rest 16
	EndMainLoop


Music_GROverworld_Ch3: ; 1eb3d6 (7a:73d6)
	musicdc 17
	wave 1
	volume 32
	musice8 1
	musice9 96
	speed 1
	rest 16
	MainLoop
	musice8 1
	Loop 3
	octave 1
	G_ 9
	tie
	G_ 16
	rest 8
	rest 9
	rest 8
	musice8 4
	G_ 8
	G_ 8
	musice8 1
	G_ 6
	tie
	G_ 11
	musice8 4
	G_ 16
	musice8 1
	rest 16
	rest 1
	rest 16
	EndLoop
	octave 1
	G_ 9
	tie
	G_ 16
	rest 8
	rest 9
	rest 8
	musice8 5
	G_ 8
	G_ 8
	musice8 1
	G_ 6
	tie
	G_ 11
	musice8 4
	G_ 16
	rest 16
	rest 1
	musice8 1
	D_ 8
	tie
	D_ 8
	Loop 2
	octave 1
	G_ 9
	tie
	G_ 16
	rest 8
	rest 9
	rest 8
	musice8 5
	G_ 8
	G_ 8
	musice8 1
	G_ 6
	tie
	G_ 11
	musice8 4
	G_ 16
	musice8 1
	rest 16
	rest 1
	rest 16
	EndLoop
	octave 1
	D# 9
	tie
	D# 16
	rest 8
	rest 9
	rest 8
	musice8 5
	D# 8
	D# 8
	musice8 1
	F_ 6
	tie
	F_ 11
	musice8 4
	F_ 16
	rest 16
	rest 1
	musice8 1
	F_ 8
	tie
	F_ 8
	octave 1
	G_ 9
	tie
	G_ 16
	rest 8
	rest 9
	rest 8
	musice8 4
	G_ 8
	G_ 8
	musice8 1
	G_ 6
	tie
	G_ 11
	G_ 8
	tie
	G_ 8
	rest 16
	rest 1
	rest 16
	octave 1
	G_ 9
	tie
	G_ 16
	rest 8
	rest 9
	rest 8
	musice8 4
	G_ 8
	G_ 8
	musice8 1
	G_ 6
	tie
	G_ 11
	G_ 8
	tie
	G_ 8
	rest 16
	rest 1
	D_ 8
	tie
	D_ 8
	Loop 3
	octave 1
	G_ 9
	tie
	G_ 16
	rest 8
	rest 9
	rest 8
	musice8 4
	G_ 8
	G_ 8
	musice8 1
	G_ 6
	tie
	G_ 11
	musice8 4
	G_ 16
	musice8 1
	rest 16
	rest 1
	rest 16
	EndLoop
	octave 1
	G_ 9
	tie
	G_ 16
	rest 8
	rest 9
	rest 8
	musice8 5
	G_ 8
	G_ 8
	musice8 1
	G_ 6
	tie
	G_ 11
	musice8 4
	G_ 16
	rest 16
	rest 1
	musice8 1
	D_ 8
	tie
	D_ 8
	Loop 2
	octave 1
	G_ 9
	tie
	G_ 16
	rest 8
	rest 9
	rest 8
	musice8 5
	G_ 8
	G_ 8
	musice8 1
	G_ 6
	tie
	G_ 11
	musice8 4
	G_ 16
	musice8 1
	rest 16
	rest 1
	rest 16
	EndLoop
	octave 1
	A# 9
	tie
	A# 16
	rest 8
	rest 9
	rest 8
	musice8 5
	A# 8
	A# 8
	inc_octave
	musice8 1
	C_ 6
	tie
	C_ 11
	musice8 4
	C_ 16
	rest 16
	rest 1
	musice8 1
	C_ 8
	tie
	C_ 8
	musice8 1
	speed 1
	D_ 16
	tie
	D_ 16
	tie
	D_ 9
	tie
	D_ 8
	musice8 4
	D_ 9
	dec_octave
	A_ 8
	musice8 7
	D_ 16
	tie
	D_ 16
	tie
	D_ 16
	tie
	D_ 16
	tie
	D_ 2
	octave 1
	musice8 1
	D# 9
	tie
	D# 16
	rest 8
	rest 9
	rest 8
	D# 5
	tie
	D# 11
	rest 16
	rest 1
	musice8 8
	D# 5
	tie
	D# 11
	tie
	D# 16
	tie
	D# 1
	musice8 1
	A_ 8
	tie
	A_ 8
	octave 1
	A# 9
	tie
	A# 16
	rest 8
	rest 9
	rest 8
	A# 5
	tie
	A# 11
	rest 16
	rest 1
	musice8 8
	A# 5
	tie
	A# 11
	tie
	A# 16
	tie
	A# 1
	musice8 1
	A# 8
	tie
	A# 8
	octave 1
	C# 9
	tie
	C# 16
	rest 8
	rest 9
	rest 8
	C# 5
	tie
	C# 11
	rest 16
	rest 1
	musice8 8
	C# 5
	tie
	C# 11
	tie
	C# 16
	tie
	C# 1
	musice8 1
	C# 8
	tie
	C# 8
	octave 1
	C_ 9
	tie
	C_ 16
	rest 8
	rest 9
	rest 8
	C_ 5
	tie
	C_ 11
	rest 9
	inc_octave
	musice8 5
	G_ 8
	inc_octave
	C_ 8
	dec_octave
	G_ 8
	dec_octave
	A# 9
	inc_octave
	F_ 8
	A# 8
	F_ 8
	octave 1
	musice8 1
	G# 9
	tie
	G# 16
	rest 8
	rest 9
	rest 8
	G# 5
	tie
	G# 11
	rest 16
	rest 1
	musice8 8
	G# 5
	tie
	G# 11
	tie
	G# 16
	tie
	G# 1
	musice8 1
	G# 8
	tie
	G# 8
	octave 1
	D_ 9
	tie
	D_ 16
	rest 8
	rest 9
	rest 8
	D_ 5
	tie
	D_ 11
	rest 16
	rest 1
	musice8 8
	D_ 5
	tie
	D_ 11
	tie
	D_ 16
	tie
	D_ 1
	musice8 1
	D_ 8
	tie
	D_ 8
	octave 1
	D# 9
	tie
	D# 16
	rest 8
	rest 9
	rest 8
	D# 5
	tie
	D# 11
	rest 16
	rest 1
	musice8 8
	D# 5
	tie
	D# 11
	tie
	D# 16
	tie
	D# 1
	musice8 1
	D# 8
	tie
	D# 8
	musice8 8
	vibrato_type 5
	vibrato_delay 32
	speed 11
	F_ 3
	tie
	F_ 3
	tie
	F_ 3
	tie
	speed 1
	F_ 16
	tie
	A# 4
	tie
	B_ 4
	tie
	inc_octave
	C_ 9
	speed 11
	F_ 3
	tie
	F_ 3
	tie
	F_ 3
	tie
	speed 1
	F_ 16
	rest 16
	rest 1
	EndMainLoop
	music_end


Music_GROverworld_Ch4: ; 1eb5e4 (7a:75e4)
	speed 1
	rest 16
	MainLoop
	octave 1
	speed 1
	Loop 16
	snare1 9
	musicef 250
	snare1 8
	musicef 253
	snare2 6
	snare2 5
	snare2 5
	musicef 0
	snare1 16
	rest 1
	snare1 16
	musicef 253
	snare2 6
	snare2 6
	snare2 5
	musicef 0
	snare1 16
	musicef 253
	snare1 16
	rest 1
	musicef 0
	snare1 16
	EndLoop
	snare1 9
	musicef 250
	snare1 8
	musicef 253
	snare2 6
	snare2 5
	snare2 5
	musicef 0
	snare1 16
	rest 1
	snare1 16
	musicef 253
	snare1 9
	musicef 0
	snare1 8
	snare1 16
	snare2 6
	musicef 253
	snare2 6
	snare2 5
	snare2 6
	snare2 5
	snare2 5
	Loop 7
	musicef 0
	snare1 9
	musicef 250
	snare1 8
	musicef 253
	snare2 6
	snare2 5
	snare2 5
	Loop 2
	musicef 254
	snare1 16
	rest 1
	musicef 2
	snare1 16
	EndLoop
	musicef 0
	snare1 16
	rest 1
	musicef 253
	snare2 6
	snare2 5
	snare2 5
	EndLoop
	speed 11
	snare5 12
	rest 12
	EndMainLoop
; 0x1eb64e
