Music_TitleScreen_Ch2: ; 1e96cc (7a:56cc)
	musicf0 0
	octave 3
	speed 1
	musicdc 17
	G_ 3
	A_ 4
	B_ 3
	inc_octave
	C_ 4
	D_ 3
	E_ 4
	F_ 3
	F# 4
	musicf1 101
	musicf2
	vibrato_delay 0
	Loop 4
	G_ 16
	tie
	G_ 14
	musicdc 1
	G_ 15
	musicdc 17
	Loop 3
	G_ 4
	musicdc 1
	G_ 1
	musicdc 17
	EndLoop
	EndLoop
	musicf3
	musicdc 17
	Loop 8
	G_ 3
	A_ 4
	G_ 4
	A_ 4
	EndLoop
	speed 10
	G_ 3
	octave 2
	musice8 4
	duty 2
	musicef 252
	F_ 3
	E_ 3
	musicf0 0
	octave 3
	musice8 8
	speed 1
	musicf1 101
	musicf2
	G_ 8
	musicdc 1
	G_ 7
	musicdc 0
	rest 8
	musicdc 17
	F_ 5
	F_ 2
	speed 5
	E_ 3
	musicdc 1
	E_ 3
	musicdc 17
	G_ 3
	musicdc 1
	G_ 3
	inc_octave
	musicdc 17
	vibrato_delay 15
	D_ 6
	musicdc 1
	D_ 3
	speed 1
	musicdc 17
	C_ 7
	musicdc 1
	C_ 8
	dec_octave
	vibrato_delay 30
	speed 10
	musicdc 17
	G_ 6
	musicdc 1
	G_ 3
	musicdc 17
	speed 1
	E_ 8
	musicdc 1
	E_ 15
	musicdc 17
	G_ 5
	G_ 2
	musicf2
	G_ 15
	tie
	G_ 15
	musicdc 1
	G_ 15
	musicdc 17
	F_ 8
	musicdc 1
	F_ 7
	musicdc 17
	musicf3
	F_ 15
	E_ 5
	F_ 5
	E_ 5
	musicf1 101
	musicf2
	D_ 7
	musicdc 1
	F_ 8
	musicdc 17
	C_ 7
	musicdc 1
	D_ 8
	musicdc 17
	D_ 15
	tie
	D_ 16
	tie
	D_ 16
	tie
	D_ 16
	tie
	D_ 12
	musicdc 1
	D_ 15
	musicdc 17
	G_ 8
	musicdc 1
	G_ 7
	musicdc 0
	rest 8
	musicdc 17
	F_ 5
	musicdc 1
	F_ 2
	musicdc 17
	speed 5
	E_ 3
	musicdc 1
	E_ 3
	musicdc 17
	G_ 3
	musicdc 1
	G_ 3
	inc_octave
	musicdc 17
	vibrato_delay 15
	D_ 6
	musicdc 1
	D_ 3
	speed 1
	musicdc 17
	E_ 8
	musicdc 1
	E_ 7
	dec_octave
	vibrato_delay 30
	speed 10
	musicdc 17
	G_ 6
	musicdc 1
	speed 5
	G_ 3
	musicdc 17
	musicf3
	E_ 3
	F_ 3
	speed 1
	musicf1 101
	musicf2
	G_ 8
	musicdc 1
	G_ 7
	musicdc 17
	G# 15
	tie
	G# 8
	musicdc 1
	G# 7
	musicdc 17
	inc_octave
	C_ 15
	tie
	C_ 8
	musicdc 1
	C_ 7
	musicdc 17
	vibrato_delay 15
	D_ 15
	tie
	D_ 15
	musicdc 1
	D_ 15
	musicdc 17
	C_ 8
	musicdc 1
	C_ 7
	musicdc 17
	musicf3
	F# 4
	vibrato_delay 25
	G_ 11
	tie
	G_ 15
	G_ 15
	tie
	G_ 15
	tie
	G_ 15
	musicf1 101
	musicf2
	F_ 8
	musicdc 1
	G_ 7
	musicdc 17
	musicf3
	C_ 15
	musicf2
	D_ 8
	musicdc 1
	D_ 7
	musicf0 4
	vibrato_delay 26
	musicdc 17
	musicf1 87
	octave 4
	D_ 4
	musicf2
	D# 11
	tie
	D# 15
	tie
	D# 15
	tie
	D# 15
	tie
	D# 15
	musicdc 1
	D# 15
	musicf2
	musicdc 17
	F_ 8
	musicdc 1
	F_ 15
	musicdc 17
	D# 5
	musicdc 1
	D# 2
	musicdc 17
	D_ 8
	musicf2
	D# 3
	musicdc 1
	D_ 4
	musicdc 17
	D_ 4
	musicdc 1
	D# 4
	dec_octave
	musicdc 17
	A# 4
	inc_octave
	musicdc 1
	D_ 3
	dec_octave
	musicdc 17
	vibrato_delay 15
	G_ 15
	tie
	G_ 15
	tie
	G_ 15
	musicdc 1
	G_ 15
	musicdc 17
	G# 8
	musicdc 1
	G# 15
	musicdc 17
	A# 5
	musicdc 1
	G# 2
	musicdc 17
	inc_octave
	C_ 8
	musicdc 1
	dec_octave
	A# 7
	tie
	inc_octave
	C_ 8
	musicdc 17
	G_ 5
	musicdc 1
	C_ 2
	musicdc 17
	G_ 15
	tie
	G_ 15
	musicdc 1
	G_ 15
	musicdc 17
	musicf3
	F_ 8
	G_ 7
	musicf2
	A# 7
	musicdc 1
	G_ 3
	musicdc 17
	D# 7
	musicdc 1
	A# 3
	musicdc 17
	C_ 7
	musicdc 1
	D# 3
	musicdc 17
	musicf3
	D_ 8
	musicf2
	D# 4
	musicdc 1
	D_ 3
	musicdc 17
	D_ 4
	musicdc 1
	D# 4
	musicdc 17
	dec_octave
	A# 4
	inc_octave
	musicdc 1
	D_ 3
	musicdc 17
	dec_octave
	G_ 15
	tie
	G_ 15
	tie
	G_ 15
	tie
	G_ 15
	musicdc 1
	G_ 15
	musicdc 17
	G# 5
	musicdc 1
	G_ 3
	musicdc 17
	A# 5
	musicdc 1
	G# 2
	inc_octave
	musicdc 17
	C_ 15
	tie
	C_ 15
	musicdc 1
	C_ 8
	musicdc 17
	G_ 4
	musicdc 1
	G_ 3
	musicdc 17
	D# 4
	musicdc 1
	G_ 4
	musicdc 17
	C_ 4
	musicdc 1
	D# 3
	dec_octave
	musicdc 17
	B_ 15
	inc_octave
	musicdc 1
	C_ 8
	musicdc 17
	musicf3
	F# 4
	G_ 15
	tie
	G_ 3
	musicf2
	F_ 8
	musicdc 1
	G_ 7
	musicf1 64
	musicf2
	musicdc 17
	D_ 7
	musicdc 1
	D_ 3
	musicdc 17
	D# 7
	musicdc 1
	D_ 3
	musicdc 17
	F_ 7
	musicdc 1
	D# 3
	musicdc 17
	D_ 7
	musicdc 1
	F_ 3
	musicdc 17
	A# 7
	musicdc 1
	D_ 3
	musicdc 17
	F_ 7
	musicdc 1
	A# 3
	musicdc 17
	musicf1 71
	musicf2
	D# 15
	musicdc 1
	D# 8
	musicdc 17
	musicf3
	C_ 15
	musicf2
	D_ 3
	musicdc 1
	C_ 4
	musicdc 17
	D# 4
	musicdc 1
	D_ 4
	musicdc 17
	F_ 3
	musicdc 1
	D# 4
	musicdc 17
	musicf3
	G_ 15
	tie
	G_ 16
	tie
	G_ 14
	musicf2
	F_ 8
	musicdc 1
	G_ 7
	musicdc 17
	G_ 15
	musicdc 1
	F_ 8
	musicdc 17
	musicf3
	A_ 3
	A# 12
	musicf2
	G# 3
	musicdc 1
	A# 4
	musicdc 17
	D# 4
	musicdc 1
	A# 4
	musicdc 17
	G# 3
	musicdc 1
	D# 4
	musicdc 17
	speed 5
	G_ 12
	tie
	G_ 6
	musicdc 1
	G_ 3
	musicdc 17
	musicf0 0
	musicf3
	octave 4
	G_ 1
	A_ 1
	B_ 1
	speed 1
	vibrato_delay 20
	inc_octave
	C_ 15
	tie
	C_ 15
	tie
	C_ 15
	tie
	C_ 15
	tie
	C_ 15
	tie
	C_ 15
	dec_octave
	musicf1 101
	musicf2
	B_ 8
	inc_octave
	musicdc 1
	C_ 15
	dec_octave
	musicdc 17
	A_ 5
	musicdc 1
	B_ 2
	musicdc 17
	G_ 15
	tie
	G_ 15
	tie
	G_ 15
	tie
	G_ 15
	tie
	G_ 15
	tie
	G_ 15
	musicdc 1
	G_ 15
	musicdc 17
	E_ 5
	musicdc 1
	G_ 3
	musicdc 17
	G_ 5
	musicdc 1
	E_ 2
	musicdc 17
	A_ 15
	tie
	A_ 15
	tie
	A_ 15
	tie
	A_ 15
	tie
	A_ 15
	musicf1 80
	musicf2
	G_ 8
	musicdc 1
	A_ 7
	musicdc 17
	F_ 8
	musicdc 1
	G_ 7
	musicdc 17
	A_ 8
	musicdc 1
	F_ 7
	musicdc 17
	musicf3
	G_ 8
	musicf1 71
	musicf2
	A_ 3
	musicdc 1
	G_ 4
	musicdc 17
	G_ 4
	musicdc 1
	A_ 4
	musicdc 17
	E_ 3
	musicdc 1
	G_ 4
	musicdc 17
	C_ 15
	tie
	C_ 15
	tie
	C_ 15
	tie
	C_ 15
	musicf0 7
	musicf1 80
	musicf2
	musice8 8
	octave 3
	D_ 8
	musicdc 1
	D_ 7
	musicf0 0
	musicf1 101
	musicf2
	octave 4
	musicdc 17
	D_ 5
	musicdc 1
	C_ 3
	musicdc 17
	E_ 5
	musicdc 1
	D_ 2
	musicf2
	musicdc 17
	F_ 15
	tie
	F_ 15
	tie
	F_ 15
	tie
	F_ 15
	tie
	F_ 8
	musicdc 1
	F_ 7
	musicdc 17
	E_ 8
	musicdc 1
	F_ 7
	musicdc 17
	D_ 8
	musicdc 1
	E_ 7
	musicdc 17
	F_ 8
	musicdc 1
	D_ 7
	musicdc 17
	E_ 8
	musicdc 1
	F_ 15
	musicdc 17
	dec_octave
	G_ 5
	musicdc 1
	inc_octave
	E_ 2
	musicdc 17
	C_ 15
	tie
	C_ 15
	tie
	C_ 15
	tie
	C_ 15
	musicdc 1
	C_ 15
	dec_octave
	musicdc 17
	A_ 5
	inc_octave
	musicdc 1
	C_ 3
	musicdc 17
	C_ 5
	dec_octave
	musicdc 1
	A_ 2
	inc_octave
	vibrato_delay 0
	musicdc 17
	musicdc 17
	D_ 16
	tie
	D_ 14
	musicdc 1
	D_ 15
	musicf3
	musicdc 17
	D_ 8
	E_ 7
	musicf2
	D_ 15
	musicdc 1
	D_ 8
	musicdc 17
	musicf3
	dec_octave
	A_ 16
	tie
	A_ 7
	inc_octave
	musicf2
	C_ 8
	dec_octave
	musicdc 1
	A_ 7
	inc_octave
	musicdc 17
	C_ 16
	tie
	C_ 14
	musicdc 1
	C_ 15
	musicdc 17
	musicf3
	dec_octave
	B_ 4
	inc_octave
	C_ 4
	dec_octave
	B_ 3
	A_ 4
	musicf2
	B_ 16
	tie
	B_ 14
	musicdc 1
	B_ 15
	musicdc 17
	inc_octave
	C_ 8
	dec_octave
	musicdc 1
	B_ 7
	inc_octave
	musicf1 101
	musicf2
	vibrato_delay 30
	musicdc 17
	C_ 16
	tie
	C_ 14
	tie
	C_ 16
	tie
	C_ 16
	tie
	C_ 16
	tie
	C_ 16
	tie
	C_ 16
	tie
	C_ 10
	tie
	C_ 16
	tie
	C_ 16
	tie
	C_ 16
	tie
	C_ 16
	tie
	C_ 16
	tie
	C_ 12
	musicdc 1
	C_ 12
	music_end


Music_TitleScreen_Ch1: ; 1e9abd (7a:5abd)
	musicf0 1
	octave 3
	speed 1
	musice4 255
	musicef 252
	rest 2
	musicdc 16
	G_ 3
	A_ 4
	B_ 3
	inc_octave
	musicdc 17
	C_ 4
	D_ 3
	E_ 4
	musicdc 1
	F_ 3
	F# 2
	musice4 0
	musicef 4
	vibrato_delay 0
	musicdc 17
	musicf1 85
	musicf2
	D_ 16
	tie
	D_ 14
	musicdc 16
	D_ 15
	musicdc 17
	Loop 3
	D_ 4
	musicdc 16
	D_ 1
	musicdc 17
	EndLoop
	C_ 16
	tie
	C_ 14
	musicdc 16
	C_ 15
	musicdc 17
	Loop 3
	C_ 4
	musicdc 16
	C_ 1
	musicdc 17
	EndLoop
	dec_octave
	B_ 16
	tie
	B_ 14
	musicdc 16
	B_ 15
	musicdc 17
	Loop 3
	B_ 4
	musicdc 16
	B_ 1
	musicdc 17
	EndLoop
	A_ 16
	tie
	A_ 14
	musicdc 16
	A_ 15
	musicdc 17
	Loop 3
	A_ 4
	musicdc 16
	A_ 1
	musicdc 17
	EndLoop
	vibrato_delay 28
	speed 10
	G_ 12
	tie
	G_ 3
	rest 3
	rest 3
	speed 1
	octave 2
	octave 2
	musice8 8
	speed 1
	musicf2
	B_ 8
	musicdc 16
	B_ 7
	rest 8
	musicdc 17
	inc_octave
	D_ 5
	musicdc 16
	D_ 2
	speed 5
	musicdc 17
	C_ 3
	musicdc 16
	C_ 3
	musicdc 17
	E_ 3
	musicdc 16
	E_ 3
	musicdc 17
	vibrato_delay 15
	G_ 6
	musicdc 16
	G_ 3
	speed 1
	musicdc 17
	G_ 8
	musicdc 16
	G_ 7
	musicdc 17
	E_ 15
	musicf0 3
	musicf3
	octave 3
	musicdc 17
	E_ 8
	inc_octave
	C_ 7
	musicf2
	D_ 8
	musicdc 16
	C_ 7
	musicdc 17
	musicf3
	C_ 8
	D_ 7
	musicef 255
	Loop 2
	G_ 4
	A_ 4
	G_ 3
	A_ 4
	EndLoop
	musicf0 1
	speed 1
	musicf1 85
	musicf2
	octave 3
	C_ 8
	musicdc 16
	C_ 7
	rest 8
	musicdc 17
	D_ 5
	musicdc 16
	C_ 2
	vibrato_delay 0
	musicdc 17
	F_ 15
	tie
	F_ 15
	musicdc 16
	F_ 15
	musicdc 17
	C_ 8
	musicdc 16
	C_ 7
	musicdc 17
	C_ 15
	dec_octave
	musicf2
	A_ 8
	inc_octave
	musicdc 16
	C_ 7
	dec_octave
	musicdc 17
	F_ 8
	musicdc 16
	A_ 7
	musicdc 17
	E_ 8
	musicdc 16
	F_ 7
	musicdc 17
	F_ 8
	musicf0 3
	musicf3
	octave 2
	A_ 7
	musicf2
	B_ 4
	musicdc 16
	A_ 4
	musicdc 17
	inc_octave
	C_ 4
	dec_octave
	musicdc 16
	B_ 3
	inc_octave
	musicf3
	musicdc 17
	D_ 8
	musicf2
	F_ 4
	musicdc 16
	D_ 3
	musicdc 17
	A_ 4
	musicdc 16
	F_ 4
	inc_octave
	musicdc 17
	C_ 4
	dec_octave
	musicdc 16
	A_ 3
	musicf3
	musicdc 17
	B_ 15
	A_ 5
	B_ 5
	A_ 5
	musicf2
	E_ 8
	musicdc 16
	A_ 7
	musicdc 17
	D_ 8
	musicdc 16
	E_ 7
	musicf0 1
	musicf3
	octave 3
	speed 5
	musicdc 17
	musicf2
	C_ 3
	musicdc 16
	C_ 3
	musicdc 17
	E_ 3
	musicdc 16
	E_ 3
	musicdc 17
	vibrato_delay 15
	G_ 6
	musicdc 16
	G_ 3
	speed 1
	musicdc 17
	G_ 8
	musicdc 16
	G_ 7
	musicdc 17
	E_ 15
	musicf0 3
	musicf3
	octave 3
	musicdc 17
	E_ 8
	inc_octave
	C_ 7
	musicf2
	musicf1 87
	D_ 8
	musicdc 16
	C_ 7
	musicdc 17
	musicf3
	C_ 8
	D_ 7
	musicef 255
	G_ 4
	A_ 4
	G_ 3
	musicef 255
	A_ 4
	musicf0 1
	speed 1
	musicf3
	musicdc 17
	octave 3
	C_ 15
	D_ 15
	musicdc 17
	musicf2
	E_ 8
	musicdc 16
	E_ 7
	musicdc 17
	F_ 15
	musicf0 3
	musicf3
	octave 3
	C_ 8
	F_ 7
	musicf2
	G# 8
	musicdc 16
	F_ 7
	musicdc 17
	musicf3
	F_ 8
	G# 7
	musicf0 1
	musicf1 87
	musicf2
	octave 3
	speed 1
	musicdc 17
	G# 16
	tie
	G# 14
	musicdc 16
	G# 15
	musicdc 17
	F_ 8
	musicdc 16
	F_ 7
	musicdc 17
	inc_octave
	D# 15
	musicf0 3
	musicdc 17
	musicf3
	octave 3
	F_ 8
	G# 7
	inc_octave
	musicf1 87
	musicf2
	C_ 8
	musicdc 16
	C_ 7
	musicdc 17
	musicf3
	dec_octave
	G# 8
	inc_octave
	C_ 7
	D_ 4
	D# 4
	dec_octave
	F_ 7
	musicf1 70
	musicf2
	G# 4
	musicdc 16
	F_ 4
	musicdc 17
	inc_octave
	C_ 4
	dec_octave
	musicdc 16
	F_ 3
	musicdc 17
	inc_octave
	F_ 3
	musicdc 16
	C_ 2
	dec_octave
	musicdc 17
	G# 3
	inc_octave
	musicdc 16
	C_ 2
	musicdc 17
	C_ 3
	dec_octave
	musicdc 16
	G# 2
	inc_octave
	musicdc 17
	F_ 3
	musicdc 16
	C_ 2
	musicdc 17
	G# 3
	musicdc 16
	F_ 2
	musicdc 17
	inc_octave
	C_ 3
	dec_octave
	musicdc 16
	G# 2
	musicf3
	volume 55
	musicdc 16
	C_ 3
	musicf1 39
	musicf2
	dec_octave
	G# 3
	rest 2
	musicf0 12
	musicf3
	musicdc 17
	speed 1
	octave 3
	musicf1 55
	musicf2
	G# 3
	musicdc 16
	G# 4
	musicdc 17
	inc_octave
	C_ 4
	dec_octave
	musicdc 16
	G# 4
	musicdc 17
	G# 3
	musicdc 16
	inc_octave
	C_ 4
	musicdc 17
	D# 4
	musicdc 16
	dec_octave
	G# 4
	musicdc 17
	G# 3
	musicdc 16
	inc_octave
	D# 4
	musicdc 17
	G_ 4
	musicdc 16
	dec_octave
	G# 4
	musicdc 17
	G# 3
	musicdc 16
	inc_octave
	musicf0 6
	musicf3
	musicdc 16
	G_ 8
	dec_octave
	G# 4
	musicf0 12
	musicdc 17
	musicf2
	G# 4
	musicdc 16
	G# 3
	musicdc 17
	inc_octave
	C_ 4
	musicdc 16
	dec_octave
	G# 4
	musicdc 17
	G# 3
	musicdc 16
	inc_octave
	C_ 4
	musicdc 17
	D# 4
	musicdc 16
	dec_octave
	G# 4
	musicdc 17
	G# 3
	musicdc 16
	inc_octave
	D# 4
	musicdc 17
	G_ 4
	musicdc 16
	dec_octave
	G# 4
	musicdc 17
	G# 3
	musicdc 16
	inc_octave
	G_ 4
	musicf0 6
	musicf3
	musicdc 16
	G_ 4
	dec_octave
	G# 4
	musicf0 12
	musicdc 17
	musicf2
	D_ 4
	musicdc 16
	D_ 3
	musicdc 17
	G_ 4
	musicdc 16
	D_ 4
	musicdc 17
	D_ 3
	musicdc 16
	G_ 4
	musicdc 17
	A# 4
	musicdc 16
	D_ 4
	musicdc 17
	D_ 3
	musicdc 16
	A# 4
	musicdc 17
	inc_octave
	D_ 4
	musicdc 16
	dec_octave
	D_ 4
	musicdc 17
	D_ 3
	musicdc 16
	inc_octave
	musicf0 6
	musicf3
	musicdc 16
	D_ 8
	dec_octave
	D_ 4
	musicf0 12
	musicdc 17
	musicf2
	D_ 4
	musicdc 16
	D_ 3
	musicdc 17
	G_ 4
	musicdc 16
	D_ 4
	musicdc 17
	D_ 3
	musicdc 16
	G_ 4
	musicdc 17
	A# 4
	musicdc 16
	D_ 4
	musicdc 17
	D_ 3
	musicdc 16
	A# 4
	musicdc 17
	inc_octave
	D_ 4
	musicdc 16
	dec_octave
	D_ 4
	musicdc 17
	D_ 3
	musicdc 16
	inc_octave
	D_ 4
	musicf0 6
	musicf3
	musicdc 16
	D_ 4
	dec_octave
	D_ 4
	musicf0 12
	musicdc 17
	musicf2
	F_ 3
	musicdc 16
	F_ 4
	musicdc 17
	G# 4
	musicdc 16
	F_ 4
	musicdc 17
	F_ 3
	musicdc 16
	G# 4
	musicdc 17
	inc_octave
	C_ 4
	musicdc 16
	dec_octave
	F_ 4
	musicdc 17
	F_ 3
	musicdc 16
	inc_octave
	C_ 4
	musicdc 17
	D# 4
	musicdc 16
	dec_octave
	F_ 4
	musicdc 17
	F_ 3
	musicdc 16
	inc_octave
	musicf0 6
	musicf3
	musicdc 16
	D# 8
	dec_octave
	F_ 4
	musicf0 12
	musicdc 17
	musicf2
	F_ 4
	musicdc 16
	F_ 3
	musicdc 17
	G# 4
	musicdc 16
	F_ 4
	musicdc 17
	F_ 3
	musicdc 16
	G# 4
	musicdc 17
	inc_octave
	C_ 4
	musicdc 16
	dec_octave
	F_ 4
	musicdc 17
	F_ 3
	musicdc 16
	inc_octave
	C_ 4
	musicdc 17
	D# 4
	musicdc 16
	dec_octave
	F_ 4
	musicdc 17
	F_ 3
	musicdc 16
	inc_octave
	D# 4
	musicf0 6
	musicf3
	musicdc 16
	D# 4
	dec_octave
	F_ 4
	musicf0 12
	musicdc 17
	musicf2
	D# 4
	musicdc 16
	D# 3
	musicdc 17
	G_ 4
	musicdc 16
	D# 4
	musicdc 17
	D# 3
	musicdc 16
	G_ 4
	musicdc 17
	A# 4
	musicdc 16
	D# 4
	musicdc 17
	D# 3
	musicdc 16
	A# 4
	musicdc 17
	inc_octave
	D_ 4
	musicdc 16
	dec_octave
	D# 4
	musicdc 17
	D# 3
	musicdc 16
	inc_octave
	musicf0 6
	musicf3
	musicdc 16
	D_ 8
	dec_octave
	D# 4
	musicf0 12
	musicdc 17
	musicf2
	D# 4
	musicdc 16
	D# 3
	musicdc 17
	G_ 4
	musicdc 16
	D# 4
	musicdc 17
	D# 3
	musicdc 16
	G_ 4
	musicdc 17
	A# 4
	musicdc 16
	D# 4
	musicdc 17
	E_ 3
	musicdc 16
	A# 4
	musicdc 17
	inc_octave
	C_ 4
	musicdc 16
	dec_octave
	E_ 4
	musicdc 17
	E_ 3
	musicdc 16
	inc_octave
	C_ 4
	musicf0 1
	musicf1 80
	musicf2
	musicdc 17
	octave 3
	D# 8
	musicdc 16
	D# 7
	musicf3
	musicdc 17
	C_ 5
	D# 5
	G# 5
	musicf2
	inc_octave
	C_ 8
	dec_octave
	musicdc 16
	G# 7
	musicdc 17
	musicf3
	G# 5
	inc_octave
	C_ 5
	D# 5
	F# 15
	musicf2
	D# 8
	musicdc 16
	F# 7
	dec_octave
	musicdc 17
	B_ 8
	inc_octave
	musicdc 16
	D# 7
	dec_octave
	musicdc 17
	G# 8
	musicdc 16
	B_ 7
	musicdc 17
	A# 15
	musicdc 16
	A# 8
	musicdc 17
	F_ 7
	musicdc 16
	A# 8
	musicdc 17
	F_ 5
	musicdc 16
	F# 2
	musicdc 17
	musicf3
	A# 8
	musicf2
	F_ 5
	musicdc 16
	A# 2
	vibrato_delay 8
	musicdc 17
	G_ 8
	tie
	G_ 15
	musicdc 16
	G_ 7
	musicdc 17
	C_ 8
	tie
	C_ 15
	musicdc 16
	C_ 7
	musicdc 17
	F_ 8
	musicdc 16
	C_ 7
	musicdc 17
	musicf3
	C_ 5
	F_ 5
	A_ 5
	musicf2
	inc_octave
	C_ 8
	dec_octave
	musicdc 16
	A_ 7
	musicdc 17
	musicf3
	F_ 5
	A_ 5
	inc_octave
	C_ 5
	F_ 15
	musicf2
	C_ 8
	musicdc 16
	C_ 7
	musicdc 17
	dec_octave
	A_ 8
	inc_octave
	musicdc 16
	C_ 7
	dec_octave
	musicdc 17
	F_ 8
	musicdc 16
	A_ 7
	musicdc 17
	G_ 8
	musicdc 16
	F_ 7
	musicdc 17
	musicf3
	D_ 5
	G_ 5
	B_ 5
	inc_octave
	musicf2
	D_ 8
	dec_octave
	musicdc 16
	B_ 7
	musicdc 17
	musicf3
	B_ 5
	inc_octave
	D_ 5
	G_ 5
	B_ 8
	tie
	B_ 15
	tie
	B_ 7
	dec_octave
	dec_octave
	dec_octave
	musicf3
	musicdc 17
	B_ 3
	inc_octave
	D_ 4
	G_ 4
	B_ 4
	inc_octave
	F_ 3
	B_ 4
	inc_octave
	D_ 4
	E_ 4
	Loop 2
	musicf0 0
	musicf3
	octave 4
	musice8 8
	musicdc 17
	E_ 16
	tie
	E_ 14
	musicf0 7
	musicf1 80
	musicf2
	musice8 8
	octave 3
	C_ 8
	musicdc 1
	C_ 7
	dec_octave
	musicf1 39
	musicf2
	musice8 8
	musicdc 17
	E_ 5
	musicdc 16
	E_ 3
	musicdc 17
	E_ 5
	musicdc 16
	E_ 2
	Loop 2
	musicdc 17
	E_ 8
	musicdc 16
	E_ 7
	EndLoop
	inc_octave
	musicf1 64
	musicf2
	musice8 8
	musicdc 17
	C_ 8
	musicdc 1
	C_ 7
	rest 8
	musicf0 0
	musicf1 101
	musicdc 17
	octave 4
	musicf2
	musice8 8
	E_ 5
	E_ 2
	EndLoop
	musicf0 0
	musicf3
	octave 4
	musice8 8
	musicdc 17
	E_ 16
	tie
	E_ 14
	musicf0 7
	musicf1 80
	musicf2
	musice8 8
	octave 3
	C_ 8
	musicdc 1
	C_ 7
	dec_octave
	musicf1 55
	musicf2
	musice8 8
	musicdc 17
	F_ 5
	musicdc 16
	F_ 3
	musicdc 17
	F_ 5
	musicdc 16
	F_ 2
	musicdc 17
	F_ 8
	musicdc 16
	F_ 7
	musicf0 0
	musicf1 85
	octave 4
	musice8 8
	musicdc 17
	E_ 8
	musicdc 16
	E_ 7
	musicf0 7
	musicf1 80
	musicf2
	octave 3
	musice8 8
	musicdc 17
	C_ 8
	musicdc 1
	C_ 7
	musicf0 0
	musicf1 85
	musicf2
	musicdc 17
	octave 4
	musice8 8
	D_ 5
	musicdc 16
	D_ 3
	musicdc 17
	C_ 5
	musicdc 16
	D_ 2
	musicdc 17
	D_ 8
	musicdc 16
	C_ 4
	rest 11
	dec_octave
	musicdc 17
	G_ 4
	inc_octave
	musicdc 1
	D_ 3
	dec_octave
	musicdc 17
	G_ 15
	tie
	G_ 15
	tie
	G_ 15
	tie
	G_ 15
	musicf3
	dec_octave
	B_ 3
	inc_octave
	C_ 4
	D_ 4
	E_ 4
	F_ 3
	G_ 4
	A_ 4
	B_ 4
	vibrato_delay 30
	inc_octave
	C_ 15
	tie
	C_ 15
	tie
	C_ 15
	tie
	C_ 15
	tie
	C_ 15
	musicf2
	dec_octave
	G# 8
	musicdc 16
	inc_octave
	C_ 7
	dec_octave
	musicdc 17
	F_ 8
	musicdc 16
	A# 7
	musicdc 17
	inc_octave
	C_ 8
	musicdc 16
	F_ 7
	musicdc 17
	C_ 8
	musicdc 16
	C_ 15
	dec_octave
	musicdc 17
	E_ 5
	inc_octave
	musicdc 16
	C_ 2
	musicdc 17
	dec_octave
	G_ 15
	tie
	G_ 15
	tie
	G_ 15
	tie
	G_ 15
	musicdc 16
	G_ 15
	musicdc 17
	E_ 5
	musicdc 16
	G_ 3
	musicdc 17
	G_ 5
	musicdc 16
	E_ 2
	musicdc 17
	F# 16
	tie
	F# 14
	musicdc 16
	F# 15
	musicdc 17
	F# 5
	musicdc 16
	F# 3
	musicdc 17
	F# 5
	musicdc 16
	F# 2
	musicdc 17
	F# 15
	musicdc 16
	F# 8
	musicdc 17
	F# 16
	tie
	F# 4
	musicdc 16
	F# 3
	musicdc 17
	F# 8
	musicdc 16
	F# 7
	musicdc 17
	F_ 16
	tie
	F_ 14
	musicdc 16
	F_ 15
	musicdc 17
	F_ 8
	musicdc 16
	F_ 7
	musicdc 17
	F_ 16
	tie
	F_ 14
	musicdc 16
	F_ 15
	musicdc 17
	F_ 8
	musicdc 16
	F_ 7
	musicdc 17
	F_ 16
	tie
	F_ 14
	musicdc 16
	F_ 15
	musicdc 17
	F_ 5
	musicdc 16
	F_ 3
	musicdc 17
	F_ 5
	musicdc 16
	F_ 2
	musicdc 17
	F_ 15
	musicdc 16
	F_ 5
	musicdc 17
	D_ 15
	musicdc 16
	F_ 5
	musicdc 17
	F_ 15
	musicdc 16
	D_ 5
	musicdc 17
	musicf1 55
	E_ 16
	tie
	E_ 16
	tie
	E_ 16
	tie
	E_ 16
	tie
	E_ 16
	tie
	E_ 10
	musicdc 16
	E_ 12
	music_end


Music_TitleScreen_Ch3: ; 1ea0f8 (7a:60f8)
	musicdc 17
	wave 1
	volume 32
	musice8 3
	musice9 96
	speed 1
	rest 14
	rest 14
	speed 5
	octave 2
	musice8 6
	D_ 9
	musice8 7
	D_ 1
	D_ 1
	D_ 1
	musice8 6
	C_ 9
	musice8 7
	C_ 1
	C_ 1
	C_ 1
	musice8 6
	dec_octave
	B_ 9
	musice8 7
	B_ 1
	B_ 1
	B_ 1
	musice8 6
	A_ 9
	musice8 7
	A_ 1
	A_ 1
	A_ 1
	speed 10
	musice8 1
	G_ 12
	tie
	G_ 3
	musice8 4
	F_ 3
	E_ 3
	D_ 3
	speed 5
	octave 2
	C_ 6
	C_ 6
	dec_octave
	B_ 6
	B_ 6
	A_ 6
	A_ 6
	G_ 6
	G_ 6
	F_ 6
	F_ 6
	E_ 6
	E_ 6
	D_ 6
	D_ 6
	G_ 6
	musice8 8
	A_ 3
	B_ 3
	musice8 4
	inc_octave
	C_ 6
	C_ 6
	dec_octave
	B_ 6
	B_ 6
	A_ 6
	A_ 6
	G_ 6
	G_ 6
	F_ 6
	F_ 6
	F_ 6
	F_ 6
	A# 6
	A# 6
	A# 6
	A_ 6
	speed 5
	musice8 6
	G# 3
	musice8 4
	G# 6
	speed 1
	musice8 4
	G# 7
	G# 8
	speed 5
	musice8 6
	G# 3
	musice8 4
	G# 6
	musice8 8
	G# 3
	musice8 6
	G_ 3
	musice8 4
	G_ 6
	speed 1
	musice8 4
	G_ 7
	G_ 8
	speed 5
	musice8 6
	G_ 3
	musice8 4
	G_ 6
	musice8 8
	G_ 3
	musice8 6
	F_ 3
	musice8 4
	F_ 6
	speed 1
	musice8 4
	F_ 7
	F_ 8
	speed 5
	musice8 6
	A# 3
	musice8 4
	A# 6
	musice8 8
	E_ 3
	musice8 6
	D# 3
	musice8 4
	D# 6
	speed 1
	musice8 4
	D# 7
	D# 8
	speed 5
	musice8 6
	D# 3
	musice8 8
	D# 3
	E_ 6
	musice8 4
	F_ 6
	F_ 6
	G# 6
	G# 6
	G_ 6
	G_ 6
	C_ 6
	C_ 6
	D_ 6
	D_ 6
	D_ 6
	D_ 6
	G_ 6
	G_ 6
	G_ 6
	G_ 6
	speed 5
	musice8 7
	octave 1
	Loop 2
	speed 5
	musice8 7
	A_ 3
	A_ 3
	music_call Branch_1ea254
	speed 1
	musice8 4
	A_ 7
	A_ 8
	EndLoop
	Loop 2
	speed 5
	musice8 7
	G_ 3
	G_ 3
	music_call Branch_1ea254
	speed 1
	musice8 4
	G_ 7
	G_ 8
	EndLoop
	Loop 2
	speed 5
	musice8 7
	F_ 3
	F_ 3
	music_call Branch_1ea254
	speed 1
	musice8 4
	F_ 7
	F_ 8
	EndLoop
	speed 5
	musice8 7
	E_ 3
	E_ 3
	music_call Branch_1ea254
	speed 1
	musice8 4
	E_ 7
	E_ 8
	speed 5
	musice8 7
	E_ 3
	E_ 3
	music_call Branch_1ea26d
	speed 1
	musice8 4
	E_ 7
	E_ 8
	musice8 4
	speed 5
	octave 1
	G# 6
	G# 6
	G# 6
	G# 6
	G_ 6
	G_ 6
	G_ 6
	G_ 6
	F# 6
	F# 6
	F# 6
	F# 6
	G_ 6
	G_ 6
	G_ 6
	G_ 6
	musice8 3
	inc_octave
	C_ 3
	dec_octave
	G_ 3
	inc_octave
	C_ 3
	dec_octave
	G_ 3
	inc_octave
	musice8 5
	C_ 4
	dec_octave
	G_ 4
	G_ 4
	musice8 6
	speed 10
	C_ 12
	music_end

Branch_1ea254:
	speed 1
	octave 3
	musice8 4
	musicdc 17
	musice8 6
	volume 32
	E_ 8
	musicdc 16
	volume 96
	E_ 7
	musicdc 17
	volume 32
	octave 1
	musice8 7
	music_ret

Branch_1ea26d:
	speed 1
	octave 3
	musice8 4
	musicdc 17
	musice8 6
	volume 32
	G_ 8
	musicdc 16
	volume 96
	G_ 7
	musicdc 17
	volume 32
	octave 1
	musice8 7
	music_ret


Music_TitleScreen_Ch4: ; 1ea286 (7a:6286)
	octave 1
	speed 1
	musicef 252
	snare2 3
	snare2 4
	musicef 254
	snare2 3
	snare2 4
	musicef 0
	snare2 3
	snare2 4
	snare2 3
	snare2 4
	speed 5
	Loop 4
	snare5 9
	snare1 1
	musicef 252
	snare1 1
	snare1 1
	musicef 0
	EndLoop
	speed 1
	snare2 5
	musicef 252
	Loop 23
	snare2 5
	EndLoop
	speed 10
	musicef 2
	snare5 12
	musicef 0
	speed 1
	Loop 15
	snare1 15
	musicef 252
	snare1 15
	musicef 0
	snare1 15
	musicef 254
	snare2 3
	musicef 252
	snare2 4
	snare2 4
	snare2 4
	musicef 0
	EndLoop
	snare1 15
	musicef 252
	snare1 15
	musicef 0
	snare2 3
	musicef 252
	snare2 4
	snare2 4
	snare2 4
	snare2 3
	snare2 4
	snare2 4
	snare2 4
	musicef 0
	Loop 7
	snare1 15
	snare1 15
	musicef 2
	snare4 15
	musicef 0
	snare2 3
	musicef 252
	snare2 4
	snare2 4
	snare2 4
	musicef 0
	EndLoop
	snare1 15
	snare1 15
	snare2 3
	musicef 252
	snare2 4
	snare2 4
	snare2 4
	snare2 3
	snare2 4
	snare2 4
	snare2 4
	musicef 0
	Loop 7
	snare1 15
	musicef 252
	snare1 15
	musicef 0
	snare1 15
	musicef 254
	snare2 3
	musicef 252
	snare2 4
	snare2 4
	snare2 4
	musicef 0
	EndLoop
	snare1 15
	musicef 252
	snare1 15
	musicef 0
	snare2 3
	musicef 252
	snare2 4
	snare2 4
	snare2 4
	snare2 3
	snare2 4
	snare2 4
	snare2 4
	musicef 0
	Loop 8
	snare1 15
	snare1 16
	tie
	snare1 14
	musicef 252
	snare2 3
	snare2 4
	snare2 4
	snare2 4
	musicef 0
	EndLoop
	Loop 8
	snare1 15
	musicef 252
	snare1 15
	musicef 0
	snare1 15
	snare2 3
	musicef 252
	snare2 4
	snare2 4
	snare2 4
	musicef 0
	EndLoop
	musicef 1
	snare1 15
	snare2 3
	musicef 252
	snare2 4
	snare2 4
	snare2 4
	musicef 0
	snare1 15
	musicef 250
	snare2 3
	snare2 4
	musicef 252
	snare2 4
	snare2 4
	musicef 254
	snare2 3
	snare2 4
	snare2 4
	snare2 4
	musicef 0
	snare1 5
	speed 5
	snare1 4
	snare1 4
	musicef 2
	snare5 12
	music_end
; 0x1ea368
