Music_Ditty6_Ch2:
	preset 34
	speed 1
	stereo_panning 15, 15
	musicef -4
	octave 3
	F_ 2
	musicef 1
	G_ 3
	musicef 1
	A_ 2
	musicef 1
	B_ 3
	inc_octave
	musicef 1
	C_ 2
	D_ 3
	E_ 2
	F_ 3
	musicf1 87
	G_ 16
	tie
	G_ 14
	G_ 11
	A# 16
	tie
	A# 5
	A# 10
	G_ 6
	A# 4
	A_ 16
	tie
	A_ 14
	A_ 11
	inc_octave
	C_ 16
	tie
	C_ 14
	C_ 11
	dec_octave
	B_ 16
	tie
	B_ 16
	tie
	B_ 16
	tie
	B_ 13
	tie
	B_ 16
	tie
	B_ 16
	tie
	B_ 16
	tie
	B_ 16
	tie
	B_ 16
	tie
	B_ 16
	tie
	B_ 7
	tie
	B_ 16
	tie
	B_ 16
	tie
	B_ 16
	tie
	B_ 16
	tie
	B_ 16
	tie
	B_ 2
	speed 2
	B_ 10
	music_end


Music_Ditty6_Ch1:
	preset 23
	speed 1
	stereo_panning 15, 15
	musicef -4
	octave 3
	C_ 2
	musicef 1
	D_ 3
	musicef 1
	E_ 2
	musicef 1
	F_ 3
	musicef 1
	G_ 2
	A_ 3
	B_ 2
	inc_octave
	C_ 3
	dec_octave
	G_ 6
	inc_octave
	D# 5
	dec_octave
	A# 5
	inc_octave
	G_ 5
	dec_octave
	G_ 5
	inc_octave
	D# 5
	dec_octave
	A# 5
	inc_octave
	G_ 5
	dec_octave
	G_ 6
	inc_octave
	D# 5
	dec_octave
	A# 5
	inc_octave
	G_ 5
	dec_octave
	G_ 5
	inc_octave
	D# 5
	dec_octave
	A# 5
	inc_octave
	G_ 5
	dec_octave
	A_ 6
	inc_octave
	F_ 5
	C_ 5
	A_ 5
	dec_octave
	A_ 5
	inc_octave
	F_ 5
	C_ 5
	A_ 5
	dec_octave
	A_ 6
	inc_octave
	F_ 5
	C_ 5
	A_ 5
	dec_octave
	A_ 5
	inc_octave
	F_ 5
	C_ 5
	A_ 5
	octave 4
	preset 34
	musicef -3
	D_ 6
	octave 4
	preset 23
	G_ 5
	D_ 5
	B_ 5
	dec_octave
	G_ 5
	inc_octave
	D_ 5
	dec_octave
	D_ 5
	B_ 5
	dec_octave
	B_ 6
	inc_octave
	G_ 5
	dec_octave
	G_ 5
	inc_octave
	D_ 5
	dec_octave
	D_ 5
	B_ 5
	G_ 5
	inc_octave
	D_ 5
	dec_octave
	B_ 6
	inc_octave
	G_ 5
	D_ 5
	B_ 5
	G_ 5
	inc_octave
	D_ 5
	dec_octave
	B_ 5
	inc_octave
	G_ 5
	D_ 6
	B_ 5
	G_ 5
	inc_octave
	D_ 5
	dec_octave
	B_ 5
	G_ 5
	B_ 5
	inc_octave
	D_ 5
	preset 26
	musicf1 87
	G_ 16
	tie
	G_ 16
	tie
	G_ 16
	tie
	G_ 16
	tie
	G_ 16
	tie
	G_ 2
	speed 2
	G_ 10
	music_end


Music_Ditty6_Ch3:
	wave 5
	volume_envelope 2, 0
	echo 96
	speed 1
	stereo_panning TRUE, TRUE
	rest 10
	rest 10
	octave 1
	cutoff 4
	D# 16
	tie
	D# 16
	tie
	D# 16
	tie
	D# 16
	tie
	D# 16
	tie
	D# 2
	D_ 16
	tie
	D_ 16
	tie
	D_ 16
	tie
	D_ 16
	tie
	D_ 16
	tie
	D_ 2
	Loop 4
	cutoff 4
	speed 7
	G_ 3
	speed 10
	D_ 2
	EndLoop
	speed 1
	G_ 16
	tie
	G_ 16
	tie
	G_ 16
	tie
	G_ 16
	tie
	G_ 16
	tie
	G_ 2
	speed 2
	cutoff 1
	G_ 10
	music_end


Music_Ditty6_Ch4:
	octave 1
	speed 1
	stereo_panning 15, 15
	rest 10
	rest 10
	musicef 1
	snare1 6
	musicef -2
	Loop 7
	snare2 5
	EndLoop
	Loop 3
	snare2 6
	Loop 7
	snare2 5
	EndLoop
	EndLoop
	musicef 0
	Loop 4
	speed 7
	snare1 3
	speed 10
	snare1 2
	EndLoop
	musicef 2
	speed 7
	snare5 12
	music_end
