Music_Ditty2_Ch2:
	preset 2
	speed 1
	stereo_panning 15, 15
	octave 2
	B_ 5
	D_ 4
	F_ 4
	G# 4
	B_ 4
	inc_octave
	D_ 4
	F_ 5
	dec_octave
	G# 4
	B_ 4
	inc_octave
	D_ 4
	F_ 4
	G# 4
	B_ 5
	D_ 4
	F_ 4
	G# 4
	B_ 4
	inc_octave
	D_ 4
	F_ 5
	dec_octave
	F_ 4
	G# 4
	B_ 4
	inc_octave
	D_ 4
	F_ 4
	G_ 4
	G# 3
	G_ 3
	G# 3
	G_ 3
	G# 3
	G_ 3
	G# 3
	G_ 4
	G# 3
	G_ 3
	G# 3
	G_ 3
	G# 3
	G_ 3
	G# 3
	G_ 3
	G# 3
	musicef -2
	G_ 4
	G# 3
	G_ 3
	G# 3
	musicef -2
	G_ 3
	G# 3
	G_ 3
	musicef -1
	G# 3
	G_ 4
	G# 3
	music_end


Music_Ditty2_Ch1:
	preset 2
	speed 1
	stereo_panning 15, 15
	octave 2
	F_ 4
	dec_octave
	G# 4
	B_ 4
	inc_octave
	D_ 4
	F_ 4
	G# 4
	B_ 4
	D_ 4
	F_ 4
	G# 4
	B_ 4
	inc_octave
	D_ 4
	F_ 4
	dec_octave
	G# 4
	B_ 4
	inc_octave
	D_ 4
	F_ 4
	G# 4
	B_ 4
	dec_octave
	B_ 4
	inc_octave
	D_ 4
	F_ 4
	G# 4
	A_ 4
	B_ 4
	inc_octave
	C_ 3
	dec_octave
	B_ 3
	inc_octave
	C_ 3
	dec_octave
	B_ 3
	inc_octave
	C_ 3
	dec_octave
	B_ 3
	inc_octave
	C_ 3
	dec_octave
	B_ 4
	inc_octave
	C_ 3
	dec_octave
	B_ 3
	inc_octave
	C_ 3
	dec_octave
	B_ 3
	inc_octave
	C_ 3
	dec_octave
	B_ 3
	inc_octave
	C_ 3
	dec_octave
	B_ 3
	inc_octave
	C_ 3
	dec_octave
	musicef -2
	B_ 4
	inc_octave
	C_ 3
	dec_octave
	B_ 3
	musicef -2
	inc_octave
	C_ 3
	dec_octave
	B_ 3
	inc_octave
	C_ 3
	dec_octave
	musicef -1
	B_ 3
	inc_octave
	C_ 3
	dec_octave
	B_ 4
	inc_octave
	C_ 3
	music_end


Music_Ditty2_Ch3:
	wave 4
	speed 1
	echo 128
	stereo_panning 15, 15
	cutoff 7
	volume 32
	octave 1
	G_ 5
	volume 64
	G_ 4
	G_ 4
	G_ 4
	G_ 4
	G_ 4
	G_ 5
	G_ 4
	G_ 4
	G_ 4
	G_ 4
	G_ 4
	volume 96
	G_ 5
	G_ 4
	G_ 4
	G_ 4
	G_ 4
	G_ 4
	volume 96
	G_ 5
	G_ 4
	G_ 4
	volume 96
	G_ 4
	volume 64
	G_ 4
	G_ 4
	volume 32
	G_ 5
	G_ 4
	G_ 4
	musicf1 64
	G_ 4
	G_ 4
	G_ 4
	volume 64
	G_ 5
	G_ 4
	G_ 4
	G_ 4
	G_ 4
	G_ 4
	volume 96
	G_ 5
	G_ 4
	G_ 4
	G_ 4
	G_ 4
	G_ 4
	music_end
