Music_Ditty1_Ch2:
	preset 2
	speed 1
	octave 2
	D# 2
	E_ 3
	D# 3
	E_ 3
	musicef -2
	D# 2
	E_ 3
	musicef -1
	D# 3
	E_ 3
	musicef 1
	D# 2
	E_ 3
	musicef 1
	D# 3
	E_ 3
	D# 2
	E_ 3
	D# 3
	E_ 3
	F_ 2
	G# 3
	F_ 3
	G# 3
	B_ 2
	inc_octave
	D_ 3
	F_ 3
	G# 3
	F_ 2
	G# 3
	B_ 3
	inc_octave
	D_ 3
	F_ 2
	dec_octave
	B_ 3
	inc_octave
	D_ 3
	F_ 2
	G# 3
	B_ 3
	inc_octave
	D_ 3
	dec_octave
	G# 2
	musicef 1
	B_ 3
	inc_octave
	D_ 3
	F_ 3
	dec_octave
	musicef -3
	G# 2
	B_ 3
	inc_octave
	D_ 3
	F_ 3
	dec_octave
	G# 2
	musicef -1
	B_ 3
	inc_octave
	D_ 3
	F_ 3
	dec_octave
	musicef -2
	G# 2
	B_ 3
	inc_octave
	D_ 3
	F_ 3
	dec_octave
	musicef -1
	G# 2
	B_ 3
	inc_octave
	D_ 3
	F_ 3
	music_end


Music_Ditty1_Ch1:
	preset 2
	speed 1
	octave 1
	musicef 1
	G_ 2
	G# 3
	G_ 3
	G# 3
	musicef -2
	G_ 2
	G# 3
	musicef -1
	G_ 3
	G# 3
	G_ 2
	G# 3
	musicef 1
	G_ 3
	G# 3
	G_ 2
	G# 3
	B_ 3
	inc_octave
	D_ 3
	dec_octave
	B_ 2
	inc_octave
	D_ 3
	dec_octave
	B_ 3
	inc_octave
	D_ 3
	dec_octave
	B_ 2
	inc_octave
	D_ 3
	E_ 3
	G# 3
	A# 2
	inc_octave
	D_ 3
	dec_octave
	A# 3
	inc_octave
	D_ 3
	E_ 2
	D_ 3
	E_ 3
	G# 3
	E_ 2
	G# 3
	A# 3
	G# 3
	A# 2
	inc_octave
	D_ 3
	dec_octave
	G# 3
	A# 3
	musicef -3
	A# 2
	inc_octave
	D_ 3
	dec_octave
	G# 3
	A# 3
	musicef -2
	A# 2
	inc_octave
	D_ 3
	dec_octave
	G# 3
	A# 3
	musicef -2
	A# 2
	inc_octave
	D_ 3
	dec_octave
	G# 3
	A# 3
	musicef -1
	A# 2
	inc_octave
	D_ 3
	dec_octave
	G# 3
	A# 3
	music_end


Music_Ditty1_Ch3:
	wave 5
	speed 1
	stereo_panning 15, 15
	octave 1
	volume_envelope 2, 0
	C_ 2
	C# 3
	volume_envelope 4, 0
	musicef -4
	C_ 3
	C# 3
	C_ 2
	C# 3
	C_ 3
	C# 3
	C_ 2
	C# 3
	C_ 3
	C# 3
	C_ 2
	C# 3
	E_ 3
	G_ 3
	E_ 2
	G_ 3
	A# 3
	volume_envelope 2, 0
	inc_octave
	C_ 3
	dec_octave
	G_ 2
	A# 3
	inc_octave
	C_ 3
	E_ 3
	dec_octave
	A# 2
	inc_octave
	C_ 3
	E_ 3
	G_ 3
	C_ 2
	E_ 3
	G_ 3
	A# 3
	E_ 2
	G_ 3
	A# 3
	inc_octave
	C_ 3
	dec_octave
	G_ 2
	A# 3
	inc_octave
	C_ 3
	E_ 3
	dec_octave
	volume_envelope 4, 0
	G_ 2
	A# 3
	inc_octave
	C_ 3
	E_ 3
	dec_octave
	volume_envelope 8, 0
	G_ 2
	A# 3
	inc_octave
	C_ 3
	E_ 3
	music_end
