Music_DuelThemeClubMember_Ch2:
	speed 7
	stereo_panning TRUE, TRUE
	vibrato_type 8
	vibrato_delay 20
	cutoff 8
	duty 2
	MainLoop
	octave 2
	Loop 7
	rest 16
	EndLoop
	rest 9
	Loop 2
	rest 3
	music_call Branch_1e1895
	volume_envelope 10, 0
	speed 1
	note F_, 4
	note F#, 3
	tie
	speed 7
	note F#, 1
	volume_envelope 3, 7
	note F#, 1
	dec_octave
	volume_envelope 10, 0
	note A_, 1
	rest 2
	inc_octave
	volume_envelope 10, 0
	note D_, 10
	volume_envelope 3, 7
	note D_, 12
	music_call Branch_1e1895
	volume_envelope 10, 0
	note F#, 2
	volume_envelope 3, 7
	note F#, 1
	volume_envelope 10, 0
	note A_, 13
	volume_envelope 3, 7
	note A_, 10
	volume_envelope 10, 0
	note F#, 1
	volume_envelope 3, 7
	note F#, 1
	volume_envelope 10, 0
	note F#, 1
	note G_, 1
	note A_, 1
	volume_envelope 3, 7
	note A_, 1
	volume_envelope 10, 0
	speed 1
	note A#, 4
	note B_, 3
	tie
	speed 7
	note B_, 15
	volume_envelope 3, 7
	note B_, 4
	volume_envelope 10, 0
	speed 1
	note A#, 4
	note B_, 3
	tie
	speed 7
	note B_, 3
	note A_, 3
	volume_envelope 3, 7
	note A_, 1
	volume_envelope 10, 0
	note G_, 2
	volume_envelope 3, 7
	note G_, 2
	volume_envelope 10, 0
	speed 1
	note G#, 4
	note A_, 3
	tie
	speed 7
	note A_, 15
	volume_envelope 3, 7
	note A_, 4
	volume_envelope 10, 0
	speed 1
	note G#, 4
	note A_, 3
	tie
	speed 7
	note A_, 3
	note G_, 4
	cutoff 7
	note F#, 3
	volume_envelope 3, 7
	note F#, 1
	volume_envelope 10, 0
	cutoff 8
	speed 1
	note F#, 4
	note G_, 3
	tie
	speed 7
	note G_, 15
	volume_envelope 3, 7
	note G_, 4
	volume_envelope 10, 0
	speed 1
	note F#, 4
	note G_, 3
	tie
	speed 7
	note G_, 3
	note F#, 4
	note E_, 3
	volume_envelope 3, 7
	note E_, 1
	volume_envelope 10, 0
	speed 1
	note D#, 4
	note E_, 3
	tie
	speed 7
	note E_, 1
	volume_envelope 3, 7
	note E_, 1
	volume_envelope 10, 0
	note D_, 13
	volume_envelope 3, 7
	note D_, 9
	dec_octave
	EndLoop
	inc_octave
	duty 1
	volume_envelope 10, 0
	speed 1
	note C#, 4
	note D_, 3
	tie
	speed 7
	note D_, 1
	rest 1
	note D_, 1
	rest 1
	note C#, 1
	rest 1
	music_call Branch_1e18d4
	speed 1
	note G#, 4
	note A_, 3
	tie
	speed 7
	note A_, 1
	volume_envelope 3, 7
	note A_, 1
	volume_envelope 10, 0
	note F#, 5
	volume_envelope 3, 7
	note F#, 1
	dec_octave
	volume_envelope 10, 0
	note A_, 1
	inc_octave
	speed 1
	note D_, 4
	volume_envelope 3, 7
	note D_, 3
	volume_envelope 10, 0
	note F#, 4
	volume_envelope 3, 7
	note F#, 3
	volume_envelope 10, 0
	note A_, 4
	volume_envelope 3, 7
	note A_, 3
	speed 7
	rest 3
	dec_octave
	duty 1
	volume_envelope 10, 0
	cutoff 8
	Loop 3
	note A_, 1
	rest 2
	EndLoop
	inc_octave
	speed 1
	note C#, 4
	note D_, 3
	tie
	speed 7
	note D_, 1
	rest 1
	note D_, 1
	rest 1
	note C#, 1
	rest 1
	music_call Branch_1e18d4
	speed 1
	note G#, 4
	note A_, 3
	tie
	speed 7
	note A_, 15
	tie
	note A_, 6
	volume_envelope 3, 7
	note A_, 2
	inc_octave
	volume_envelope 10, 0
	speed 1
	note C#, 4
	note D_, 3
	tie
	speed 7
	note D_, 2
	note C#, 1
	volume_envelope 3, 7
	note C#, 2
	dec_octave
	volume_envelope 10, 0
	note B_, 1
	volume_envelope 3, 7
	note B_, 1
	volume_envelope 10, 0
	speed 1
	note A#, 4
	note B_, 3
	tie
	speed 7
	note B_, 1
	volume_envelope 3, 7
	note B_, 1
	volume_envelope 10, 0
	note A_, 13
	tie
	note A_, 6
	volume_envelope 3, 7
	note A_, 2
	dec_octave
	volume_envelope 7, -1
	speed 1
	note A_, 5
	inc_octave
	note C#, 5
	note E_, 4
	note A_, 5
	inc_octave
	note C#, 5
	note E_, 4
	dec_octave
	note C#, 5
	note E_, 5
	note A_, 4
	inc_octave
	note C#, 5
	note E_, 5
	note A_, 4
	dec_octave
	music_call Branch_1e191c
	volume_envelope 10, 0
	note A_, 2
	tie
	note A_, 16
	tie
	note A_, 6
	duty 1
	volume_envelope 10, 0
	speed 1
	dec_octave
	note B_, 4
	inc_octave
	note C_, 3
	speed 7
	note C#, 1
	rest 1
	note C#, 1
	note D_, 2
	note E_, 2
	note G_, 2
	duty 2
	music_call Branch_1e191c
	volume_envelope 10, 0
	speed 1
	note G#, 4
	note A_, 3
	tie
	speed 7
	note A_, 5
	note G_, 2
	note F#, 2
	volume_envelope 3, 7
	note F#, 2
	volume_envelope 10, 0
	note E_, 2
	volume_envelope 3, 7
	note E_, 2
	volume_envelope 10, 0
	speed 1
	note F#, 4
	note G_, 3
	tie
	speed 7
	note G_, 5
	note F#, 2
	note E_, 2
	volume_envelope 3, 7
	note E_, 2
	volume_envelope 10, 0
	note D_, 2
	volume_envelope 3, 7
	note D_, 2
	volume_envelope 10, 0
	note D_, 16
	note D_, 16
	volume_envelope 3, 7
	note D_, 2
	volume_envelope 10, 0
	note D_, 12
	volume_envelope 3, 7
	note D_, 2
	volume_envelope 10, 0
	note D_, 14
	rest 4
	EndMainLoop

Branch_1e1895:
	octave 2
	volume_envelope 10, 0
	note A_, 1
	note B_, 1
	inc_octave
	note D_, 1
	volume_envelope 3, 7
	note D_, 1
	volume_envelope 10, 0
	speed 1
	note F_, 4
	note F#, 3
	tie
	speed 7
	note F#, 10
	volume_envelope 3, 7
	note F#, 1
	volume_envelope 10, 0
	note D_, 3
	volume_envelope 3, 7
	note D_, 1
	volume_envelope 10, 0
	speed 1
	note D#, 4
	note E_, 3
	tie
	speed 7
	note E_, 5
	volume_envelope 3, 7
	note E_, 2
	volume_envelope 10, 0
	speed 1
	note F#, 4
	note G_, 3
	tie
	speed 7
	note G_, 2
	note F#, 1
	volume_envelope 3, 7
	note F#, 2
	volume_envelope 10, 0
	note E_, 1
	volume_envelope 3, 7
	note E_, 1
	music_ret

Branch_1e18d4:
	note C_, 1
	rest 2
	dec_octave
	note G_, 1
	rest 2
	note G_, 1
	rest 2
	duty 2
	volume_envelope 10, 0
	note G_, 1
	inc_octave
	speed 1
	note C_, 4
	volume_envelope 3, 7
	note C_, 3
	volume_envelope 10, 0
	note E_, 4
	volume_envelope 3, 7
	note E_, 3
	volume_envelope 10, 0
	note G_, 4
	volume_envelope 3, 7
	note G_, 3
	speed 7
	rest 3
	duty 1
	volume_envelope 10, 0
	cutoff 8
	dec_octave
	Loop 3
	note G_, 1
	rest 2
	EndLoop
	inc_octave
	duty 2
	volume_envelope 10, 0
	speed 1
	note A#, 4
	note B_, 3
	tie
	speed 7
	note B_, 2
	note A_, 1
	volume_envelope 3, 7
	note A_, 1
	volume_envelope 10, 0
	note G_, 1
	volume_envelope 3, 7
	note G_, 1
	volume_envelope 10, 0
	music_ret

Branch_1e191c:
	speed 1
	volume_envelope 10, 0
	note F_, 4
	note F#, 3
	tie
	speed 7
	note F#, 9
	volume_envelope 3, 7
	note F#, 2
	volume_envelope 10, 0
	note G_, 1
	volume_envelope 3, 7
	note G_, 1
	volume_envelope 10, 0
	note A_, 1
	volume_envelope 3, 7
	note A_, 1
	volume_envelope 10, 0
	note B_, 2
	volume_envelope 3, 7
	note B_, 2
	inc_octave
	volume_envelope 10, 0
	speed 1
	note F_, 4
	note F#, 3
	tie
	speed 7
	note F#, 7
	note E_, 1
	volume_envelope 3, 7
	note E_, 1
	volume_envelope 10, 0
	note D_, 1
	volume_envelope 3, 7
	note D_, 1
	volume_envelope 10, 0
	note C#, 2
	volume_envelope 3, 7
	note C#, 1
	dec_octave
	volume_envelope 10, 0
	note A_, 9
	note F#, 1
	volume_envelope 3, 7
	note F#, 1
	volume_envelope 10, 0
	speed 1
	note A#, 4
	note B_, 3
	tie
	speed 7
	note B_, 8
	volume_envelope 3, 7
	note B_, 1
	volume_envelope 10, 0
	note A_, 4
	note G_, 4
	note F#, 10
	note G_, 1
	volume_envelope 3, 7
	note G_, 1
	volume_envelope 10, 0
	note A_, 1
	volume_envelope 3, 7
	note A_, 1
	volume_envelope 10, 0
	note D_, 10
	note E_, 2
	note F#, 2
	volume_envelope 3, 7
	note F#, 2
	music_ret


Music_DuelThemeClubMember_Ch1:
	speed 7
	stereo_panning TRUE, TRUE
	vibrato_type 8
	vibrato_delay 20
	cutoff 8
	MainLoop
	duty 1
	volume_envelope 9, 0
	octave 2
	Loop 4
	Loop 3
	note D_, 1
	rest 2
	EndLoop
	rest 1
	dec_octave
	note A_, 1
	rest 1
	note A_, 1
	note B_, 1
	rest 2
	inc_octave
	EndLoop
	Loop 4
	octave 2
	note D_, 1
	rest 2
	note D_, 1
	duty 2
	volume_envelope 10, 2
	cutoff 6
	note A_, 2
	music_call Branch_1e1d8f
	EndLoop
	octave 2
	note D_, 1
	rest 2
	note D_, 1
	duty 2
	inc_octave
	volume_envelope 10, 2
	cutoff 6
	note D_, 2
	music_call Branch_1e1d8f
	octave 2
	note D_, 1
	rest 2
	note D_, 1
	duty 2
	inc_octave
	volume_envelope 10, 2
	cutoff 6
	note C_, 2
	dec_octave
	duty 1
	volume_envelope 9, 0
	cutoff 8
	note D_, 1
	rest 3
	dec_octave
	note A_, 1
	rest 1
	inc_octave
	duty 2
	volume_envelope 10, 2
	cutoff 6
	note G_, 1
	dec_octave
	duty 1
	volume_envelope 9, 0
	cutoff 8
	note B_, 1
	rest 2
	inc_octave
	Loop 3
	octave 2
	note D_, 1
	rest 2
	note D_, 1
	duty 2
	inc_octave
	volume_envelope 10, 2
	cutoff 6
	note D_, 2
	music_call Branch_1e1d8f
	EndLoop
	octave 2
	note D_, 1
	rest 2
	note D_, 1
	duty 2
	inc_octave
	volume_envelope 10, 2
	cutoff 6
	note C_, 2
	dec_octave
	duty 1
	volume_envelope 9, 0
	cutoff 8
	note D_, 1
	rest 3
	dec_octave
	note A_, 1
	rest 1
	inc_octave
	duty 2
	volume_envelope 10, 2
	cutoff 6
	note G_, 1
	dec_octave
	duty 1
	volume_envelope 9, 0
	cutoff 8
	note B_, 1
	rest 2
	inc_octave
	note D_, 1
	rest 2
	note D_, 1
	duty 2
	inc_octave
	volume_envelope 10, 2
	cutoff 6
	note D_, 2
	music_call Branch_1e1d8f
	octave 2
	note D_, 1
	rest 2
	note D_, 1
	duty 2
	inc_octave
	volume_envelope 10, 2
	cutoff 6
	note D_, 2
	dec_octave
	duty 1
	volume_envelope 9, 0
	cutoff 8
	note D_, 1
	rest 3
	note D_, 1
	rest 1
	duty 2
	volume_envelope 10, 2
	cutoff 6
	note A_, 2
	duty 1
	volume_envelope 9, 0
	cutoff 8
	note F#, 1
	rest 1
	Loop 2
	note G_, 1
	rest 2
	note G_, 1
	duty 2
	volume_envelope 10, 2
	cutoff 6
	note G_, 2
	duty 1
	volume_envelope 9, 0
	cutoff 8
	note G_, 1
	rest 3
	note D_, 1
	rest 1
	duty 2
	volume_envelope 10, 2
	cutoff 6
	note G_, 1
	duty 1
	volume_envelope 9, 0
	cutoff 8
	note E_, 1
	rest 2
	EndLoop
	note F#, 1
	rest 2
	note F#, 1
	duty 2
	volume_envelope 10, 2
	cutoff 6
	inc_octave
	note C#, 2
	music_call Branch_1e1dad
	octave 2
	note F#, 1
	rest 2
	note F#, 1
	inc_octave
	duty 2
	volume_envelope 10, 2
	cutoff 6
	note E_, 2
	music_call Branch_1e1dad
	note E_, 1
	rest 2
	note E_, 1
	duty 2
	volume_envelope 10, 2
	cutoff 6
	note G_, 2
	duty 1
	volume_envelope 9, 0
	cutoff 8
	note E_, 1
	rest 3
	note E_, 1
	rest 1
	duty 2
	volume_envelope 10, 2
	cutoff 6
	note B_, 1
	duty 1
	volume_envelope 9, 0
	cutoff 8
	note G_, 1
	rest 2
	note A_, 1
	rest 2
	note A_, 1
	duty 2
	volume_envelope 10, 2
	cutoff 6
	note G_, 2
	duty 1
	volume_envelope 9, 0
	cutoff 8
	note A_, 1
	rest 3
	note E_, 1
	rest 1
	duty 2
	volume_envelope 10, 2
	cutoff 6
	note A_, 1
	duty 1
	volume_envelope 9, 0
	cutoff 8
	note A_, 1
	rest 2
	note D_, 1
	rest 2
	note D_, 1
	duty 2
	volume_envelope 10, 2
	cutoff 6
	note A_, 2
	duty 1
	volume_envelope 9, 0
	cutoff 8
	note D_, 1
	rest 3
	dec_octave
	note A_, 1
	rest 1
	inc_octave
	duty 2
	volume_envelope 10, 2
	cutoff 6
	note A_, 1
	dec_octave
	duty 1
	volume_envelope 9, 0
	cutoff 8
	note B_, 1
	rest 2
	inc_octave
	note D_, 1
	rest 2
	note D_, 1
	duty 2
	volume_envelope 10, 2
	cutoff 6
	note A_, 2
	duty 1
	volume_envelope 9, 0
	cutoff 8
	note D_, 1
	rest 3
	dec_octave
	note A_, 1
	rest 1
	inc_octave
	duty 2
	volume_envelope 7, 0
	frequency_offset 0
	note E_, 1
	note F#, 1
	note A_, 1
	rest 1
	volume_envelope 7, 0
	music_call Branch_1e1ce3
	volume_envelope 7, 0
	octave 3
	speed 1
	note C#, 4
	note D_, 3
	tie
	speed 7
	note D_, 1
	rest 1
	dec_octave
	note F#, 1
	volume_envelope 10, 2
	cutoff 6
	note F#, 2
	volume_envelope 7, 0
	cutoff 8
	note A_, 10
	duty 1
	volume_envelope 9, 0
	cutoff 8
	note D_, 1
	rest 2
	note D_, 1
	duty 2
	volume_envelope 10, 2
	cutoff 6
	inc_octave
	note D_, 2
	dec_octave
	duty 1
	volume_envelope 9, 0
	cutoff 8
	note D_, 1
	rest 3
	dec_octave
	note A_, 1
	rest 1
	inc_octave
	duty 2
	volume_envelope 7, 0
	note E_, 1
	note F#, 1
	note A_, 1
	rest 1
	music_call Branch_1e1ce3
	volume_envelope 7, 0
	octave 3
	note D_, 2
	rest 1
	note F#, 13
	dec_octave
	duty 1
	volume_envelope 9, 0
	cutoff 8
	note D_, 1
	rest 2
	note D_, 1
	duty 2
	inc_octave
	volume_envelope 10, 2
	cutoff 6
	note D_, 2
	dec_octave
	duty 1
	volume_envelope 9, 0
	cutoff 8
	note D_, 1
	rest 3
	inc_octave
	duty 2
	volume_envelope 7, 0
	note D_, 1
	rest 1
	note D_, 1
	note E_, 1
	note F#, 1
	rest 1
	speed 1
	note F#, 4
	note G_, 3
	tie
	speed 7
	note G_, 15
	dec_octave
	duty 1
	volume_envelope 9, 0
	cutoff 8
	note G_, 1
	rest 2
	note G_, 1
	inc_octave
	duty 2
	volume_envelope 7, 0
	speed 1
	note F#, 4
	note G_, 3
	tie
	speed 7
	note G_, 2
	rest 1
	note F#, 3
	rest 1
	dec_octave
	volume_envelope 10, 2
	cutoff 6
	note G_, 1
	duty 1
	volume_envelope 9, 0
	cutoff 8
	note E_, 1
	rest 2
	inc_octave
	duty 2
	volume_envelope 7, 0
	speed 1
	note E_, 4
	note F#, 3
	tie
	speed 7
	note F#, 15
	dec_octave
	duty 1
	volume_envelope 9, 0
	cutoff 8
	note F#, 1
	rest 2
	note F#, 1
	inc_octave
	duty 2
	volume_envelope 7, 0
	speed 1
	note E_, 4
	note F#, 3
	tie
	speed 7
	note F#, 2
	rest 1
	note E_, 3
	rest 1
	dec_octave
	volume_envelope 10, 2
	cutoff 6
	note A_, 1
	duty 1
	volume_envelope 9, 0
	cutoff 8
	note E_, 1
	rest 2
	inc_octave
	duty 2
	volume_envelope 7, 0
	speed 1
	note D#, 4
	note E_, 3
	tie
	speed 7
	note E_, 15
	dec_octave
	duty 1
	volume_envelope 9, 0
	cutoff 8
	note A_, 1
	rest 2
	note A_, 1
	duty 2
	volume_envelope 7, 0
	speed 1
	note A#, 4
	note B_, 3
	tie
	speed 7
	note B_, 2
	rest 1
	note A_, 3
	rest 1
	note G_, 3
	rest 1
	speed 1
	note F#, 4
	note G_, 3
	tie
	speed 7
	note G_, 1
	rest 1
	note F#, 13
	duty 1
	volume_envelope 9, 0
	cutoff 8
	note D_, 1
	rest 2
	note D_, 1
	inc_octave
	duty 2
	volume_envelope 10, 2
	cutoff 6
	note D_, 2
	dec_octave
	frequency_offset 0
	duty 1
	volume_envelope 9, 0
	cutoff 8
	note D_, 1
	rest 2
	music_call Branch_1e1d4a
	octave 3
	speed 1
	volume_envelope 7, 0
	note F_, 4
	note F#, 3
	tie
	speed 7
	note F#, 1
	rest 1
	note D_, 5
	rest 1
	dec_octave
	note F#, 1
	speed 1
	note A_, 4
	rest 3
	inc_octave
	note D_, 4
	rest 3
	note F#, 4
	rest 3
	speed 7
	rest 3
	dec_octave
	duty 1
	volume_envelope 9, 0
	cutoff 8
	Loop 3
	note D_, 1
	rest 2
	EndLoop
	music_call Branch_1e1d4a
	volume_envelope 8, 0
	octave 3
	note D_, 16
	tie
	note D_, 6
	rest 2
	speed 1
	note G#, 4
	note A_, 3
	tie
	speed 7
	note A_, 2
	note A_, 1
	rest 2
	note A_, 1
	rest 1
	note D_, 2
	rest 1
	note D_, 13
	note C#, 6
	rest 2
	dec_octave
	volume_envelope 7, -1
	speed 1
	note E_, 5
	note A_, 5
	inc_octave
	note C#, 4
	note E_, 5
	note A_, 5
	inc_octave
	note C#, 4
	dec_octave
	dec_octave
	note A_, 5
	inc_octave
	note C#, 5
	note E_, 4
	note A_, 5
	inc_octave
	note C#, 5
	note E_, 4
	dec_octave
	speed 7
	music_call Branch_1e1d22
	note D_, 16
	note C#, 6
	dec_octave
	duty 1
	volume_envelope 7, 0
	speed 1
	note G_, 4
	note G#, 3
	speed 7
	note A_, 1
	rest 1
	note A_, 1
	note B_, 2
	inc_octave
	note C#, 2
	note E_, 2
	duty 2
	music_call Branch_1e1d22
	note D_, 4
	note E_, 2
	note D_, 2
	rest 2
	note C#, 2
	rest 2
	note E_, 6
	note D_, 2
	note C#, 2
	rest 2
	dec_octave
	note A_, 2
	rest 2
	note G_, 16
	note F#, 16
	rest 2
	note G_, 12
	rest 2
	note G_, 14
	rest 4
	EndMainLoop

Branch_1e1ce3:
	octave 3
	speed 1
	note C#, 4
	note D_, 3
	tie
	speed 7
	note D_, 9
	dec_octave
	duty 1
	volume_envelope 9, 0
	dec_octave
	note A_, 1
	rest 1
	inc_octave
	duty 2
	volume_envelope 7, 0
	note A_, 3
	rest 1
	inc_octave
	note C_, 6
	dec_octave
	duty 1
	volume_envelope 9, 0
	cutoff 8
	note D_, 1
	rest 1
	inc_octave
	duty 2
	volume_envelope 7, 0
	speed 1
	note D#, 4
	note E_, 3
	tie
	speed 7
	note E_, 2
	note D_, 1
	dec_octave
	volume_envelope 10, 2
	cutoff 6
	note G_, 2
	inc_octave
	volume_envelope 7, 0
	cutoff 8
	note C_, 1
	rest 1
	music_ret

Branch_1e1d22:
	volume_envelope 8, 0
	note D_, 10
	rest 2
	note E_, 1
	rest 1
	note F#, 1
	rest 1
	note G_, 2
	rest 2
	inc_octave
	note D_, 8
	note C#, 1
	rest 1
	dec_octave
	note B_, 1
	rest 1
	note A_, 2
	rest 1
	note F#, 9
	note D_, 1
	rest 1
	note G_, 9
	rest 1
	note F#, 4
	note E_, 4
	note D_, 10
	note E_, 1
	rest 1
	note F#, 1
	rest 1
	dec_octave
	note B_, 10
	inc_octave
	note C#, 2
	note D_, 2
	rest 2
	note D_, 2
	tie
	music_ret

Branch_1e1d4a:
	octave 2
	volume_envelope 8, 0
	speed 1
	note G#, 4
	note A_, 3
	tie
	speed 7
	note A_, 1
	rest 1
	note A_, 1
	rest 1
	note G#, 1
	rest 1
	note G_, 1
	rest 2
	note C_, 1
	rest 2
	note C_, 1
	rest 2
	duty 2
	volume_envelope 7, 0
	note E_, 1
	speed 1
	note G_, 4
	rest 3
	inc_octave
	note C_, 4
	rest 3
	note E_, 4
	rest 3
	speed 7
	rest 3
	cutoff 8
	dec_octave
	duty 1
	volume_envelope 8, 0
	Loop 3
	note C_, 1
	rest 2
	EndLoop
	inc_octave
	duty 2
	volume_envelope 7, 0
	speed 1
	note F#, 4
	note G_, 3
	tie
	speed 7
	note G_, 2
	note F#, 1
	rest 1
	note E_, 1
	rest 1
	music_ret

Branch_1e1d8f:
	octave 2
	duty 1
	volume_envelope 9, 0
	cutoff 8
	note D_, 1
	rest 3
	dec_octave
	note A_, 1
	rest 1
	inc_octave
	duty 2
	volume_envelope 10, 2
	cutoff 6
	note A_, 1
	dec_octave
	duty 1
	volume_envelope 9, 0
	cutoff 8
	note B_, 1
	rest 2
	music_ret

Branch_1e1dad:
	octave 2
	duty 1
	volume_envelope 9, 0
	cutoff 8
	note F#, 1
	rest 3
	note C#, 1
	rest 1
	duty 2
	volume_envelope 10, 2
	cutoff 6
	note A_, 1
	duty 1
	volume_envelope 9, 0
	cutoff 8
	note E_, 1
	rest 2
	music_ret


Music_DuelThemeClubMember_Ch3:
	speed 7
	stereo_panning TRUE, TRUE
	volume_envelope 2, 0
	wave 4
	echo 96
	cutoff 8
	octave 1
	MainLoop
	Loop 4
	Loop 3
	note D_, 1
	rest 2
	EndLoop
	rest 1
	music_call Branch_1e1fdd
	EndLoop
	Loop 4
	note D_, 1
	rest 2
	note D_, 1
	inc_octave
	inc_octave
	cutoff 3
	note D_, 2
	dec_octave
	dec_octave
	cutoff 8
	note D_, 1
	rest 3
	music_call Branch_1e1fdd
	EndLoop
	music_call Branch_1e1f23
	note D_, 1
	rest 2
	note D_, 1
	inc_octave
	cutoff 3
	note F#, 2
	dec_octave
	cutoff 8
	note D_, 1
	rest 3
	music_call Branch_1e1fdd
	note D_, 1
	rest 2
	note D_, 1
	inc_octave
	inc_octave
	cutoff 3
	note D_, 2
	dec_octave
	dec_octave
	cutoff 8
	note D_, 1
	rest 3
	music_call Branch_1e1fdd
	music_call Branch_1e1f23
	note D_, 1
	rest 2
	note D_, 1
	inc_octave
	cutoff 3
	note A_, 2
	dec_octave
	cutoff 8
	note D_, 1
	rest 3
	music_call Branch_1e1fdd
	note D_, 1
	rest 2
	note D_, 1
	inc_octave
	cutoff 3
	note A_, 2
	dec_octave
	cutoff 8
	note D_, 1
	rest 2
	note D_, 2
	rest 1
	note D_, 1
	rest 1
	note C#, 1
	rest 1
	music_call Branch_1e2014
	octave 2
	note C_, 3
	dec_octave
	note G_, 1
	rest 1
	inc_octave
	note C_, 1
	rest 1
	dec_octave
	Loop 3
	note D_, 1
	rest 2
	EndLoop
	inc_octave
	note D_, 1
	speed 1
	note F#, 4
	rest 3
	note A_, 4
	rest 3
	inc_octave
	note D_, 4
	rest 3
	speed 7
	rest 3
	dec_octave
	dec_octave
	Loop 3
	note D_, 1
	rest 2
	EndLoop
	note D_, 2
	rest 1
	note D_, 1
	rest 1
	note C#, 1
	rest 1
	music_call Branch_1e2014
	octave 1
	note C_, 3
	note D_, 1
	rest 1
	note D#, 1
	rest 1
	music_call Branch_1e1ff6
	octave 1
	cutoff 8
	note E_, 1
	rest 1
	note E_, 2
	cutoff 6
	note B_, 2
	music_call Branch_1e1ff6
	octave 1
	cutoff 8
	note F#, 2
	note G_, 2
	cutoff 6
	note G#, 2
	music_call Branch_1e2005
	octave 1
	cutoff 8
	note A_, 1
	rest 1
	note A_, 2
	cutoff 6
	note E_, 2
	music_call Branch_1e2005
	octave 1
	cutoff 8
	note B_, 2
	inc_octave
	note C_, 2
	note C#, 2
	dec_octave
	Loop 2
	music_call Branch_1e1fe3
	note E_, 1
	rest 1
	note E_, 1
	rest 1
	note E_, 2
	rest 1
	note E_, 1
	rest 1
	note E_, 1
	rest 1
	cutoff 7
	note E_, 1
	cutoff 8
	note E_, 1
	rest 1
	note E_, 2
	note F#, 1
	rest 1
	note F#, 1
	rest 1
	note F#, 2
	rest 1
	note F#, 1
	rest 1
	note F#, 1
	rest 1
	cutoff 7
	note F#, 1
	cutoff 8
	note F#, 1
	rest 1
	note F#, 2
	note G_, 1
	rest 1
	note G_, 1
	rest 1
	note G_, 2
	rest 1
	note G_, 1
	rest 1
	note G_, 1
	rest 1
	cutoff 7
	note G_, 1
	cutoff 8
	note F#, 1
	rest 1
	note E_, 2
	music_call Branch_1e1fe3
	note B_, 1
	rest 1
	note B_, 1
	rest 1
	note B_, 2
	rest 1
	note B_, 1
	rest 1
	note B_, 1
	rest 1
	cutoff 7
	note B_, 1
	cutoff 8
	note F#, 1
	rest 1
	note F_, 2
	note E_, 1
	rest 1
	note E_, 1
	rest 1
	note E_, 2
	rest 1
	note E_, 1
	rest 1
	note E_, 1
	note F#, 2
	note G_, 2
	note G#, 2
	note A_, 1
	rest 1
	note A_, 1
	rest 1
	note A_, 2
	rest 1
	note B_, 1
	rest 1
	note B_, 1
	note A_, 2
	note E_, 2
	note C#, 2
	EndLoop
	Loop 2
	music_call Branch_1e1fe3
	EndLoop
	note D_, 1
	rest 1
	note D_, 1
	rest 1
	note D_, 2
	rest 1
	note D_, 1
	rest 1
	note D_, 1
	rest 1
	cutoff 7
	note D_, 1
	cutoff 8
	note D_, 1
	rest 1
	note A_, 14
	rest 4
	EndMainLoop

Branch_1e1f23:
	note D_, 1
	rest 2
	note D_, 1
	inc_octave
	cutoff 3
	note A_, 2
	dec_octave
	cutoff 8
	note D_, 1
	rest 3
	music_call Branch_1e1fdd
	note D_, 1
	rest 2
	note D_, 1
	inc_octave
	cutoff 3
	note G_, 2
	dec_octave
	cutoff 8
	note D_, 1
	rest 3
	music_call Branch_1e1fdd
	Loop 3
	note D_, 1
	rest 2
	note D_, 1
	inc_octave
	cutoff 3
	note A_, 2
	dec_octave
	cutoff 8
	note D_, 1
	rest 3
	music_call Branch_1e1fdd
	EndLoop
	note D_, 1
	rest 2
	note D_, 1
	inc_octave
	cutoff 3
	note G_, 2
	dec_octave
	cutoff 8
	note D_, 1
	rest 3
	music_call Branch_1e1fdd
	note D_, 1
	rest 2
	note D_, 1
	inc_octave
	cutoff 3
	note A_, 2
	dec_octave
	cutoff 8
	note D_, 1
	rest 3
	music_call Branch_1e1fdd
	note D_, 1
	rest 2
	note D_, 1
	inc_octave
	cutoff 3
	note A_, 2
	dec_octave
	cutoff 8
	note D_, 1
	rest 3
	note D_, 1
	rest 1
	note E_, 2
	note F#, 1
	rest 1
	Loop 2
	note G_, 1
	rest 2
	note G_, 1
	inc_octave
	cutoff 3
	note B_, 2
	dec_octave
	cutoff 8
	note G_, 1
	rest 3
	note D_, 1
	rest 1
	note D_, 1
	note E_, 1
	rest 2
	EndLoop
	note F#, 1
	rest 2
	note F#, 1
	inc_octave
	cutoff 3
	note A_, 2
	dec_octave
	cutoff 8
	note F#, 1
	rest 3
	note C#, 1
	rest 1
	note C#, 1
	note E_, 1
	rest 2
	note F#, 1
	rest 2
	note F#, 1
	inc_octave
	inc_octave
	cutoff 3
	note C#, 2
	dec_octave
	dec_octave
	cutoff 8
	note F#, 1
	rest 3
	note C#, 1
	rest 1
	note C#, 1
	note E_, 1
	rest 2
	note E_, 1
	rest 2
	note E_, 1
	inc_octave
	cutoff 3
	note B_, 2
	dec_octave
	cutoff 8
	note E_, 1
	rest 3
	note E_, 1
	rest 1
	note F#, 1
	note G_, 1
	rest 2
	note A_, 1
	rest 2
	note A_, 1
	inc_octave
	cutoff 3
	note B_, 2
	dec_octave
	cutoff 8
	note A_, 1
	rest 3
	note E_, 1
	rest 1
	note F#, 1
	note A_, 1
	rest 2
	music_ret

Branch_1e1fdd:
	note A_, 1
	rest 1
	note A_, 1
	note B_, 1
	rest 2
	music_ret

Branch_1e1fe3:
	note D_, 1
	rest 1
	note D_, 1
	rest 1
	note D_, 2
	rest 1
	note D_, 1
	rest 1
	note D_, 1
	rest 1
	cutoff 7
	note D_, 1
	cutoff 8
	note D_, 1
	rest 1
	note D_, 2
	music_ret

Branch_1e1ff6:
	octave 1
	cutoff 8
	note E_, 1
	rest 1
	note E_, 1
	rest 1
	note E_, 2
	rest 1
	note E_, 1
	rest 1
	cutoff 6
	note E_, 1
	music_ret

Branch_1e2005:
	octave 1
	cutoff 8
	note A_, 1
	rest 1
	note A_, 1
	rest 1
	note A_, 2
	rest 1
	note A_, 1
	rest 1
	cutoff 6
	note A_, 1
	music_ret

Branch_1e2014:
	octave 1
	Loop 3
	note C_, 1
	rest 2
	EndLoop
	inc_octave
	note C_, 1
	speed 1
	note E_, 4
	rest 3
	note G_, 4
	rest 3
	inc_octave
	note C_, 4
	rest 3
	speed 7
	rest 3
	dec_octave
	dec_octave
	Loop 3
	note C_, 1
	rest 2
	EndLoop
	music_ret


Music_DuelThemeClubMember_Ch4:
	speed 7
	octave 1
	MainLoop
	Loop 3
	bass 2
	snare3 1
	snare4 1
	snare3 1
	bass 1
	snare2 2
	snare3 1
	bass 1
	snare4 2
	snare1 1
	snare4 1
	rest 1
	snare3 1
	EndLoop
	bass 2
	snare3 1
	snare4 1
	snare3 1
	bass 1
	snare2 2
	snare3 1
	snare1 1
	snare4 1
	speed 1
	snare2 4
	snare2 3
	speed 7
	snare1 1
	snare1 1
	snare1 2
	Loop 3
	music_call Branch_1e20cf
	EndLoop
	music_call Branch_1e20dc
	Loop 15
	music_call Branch_1e20cf
	EndLoop
	music_call Branch_1e20dc
	Loop 15
	music_call Branch_1e20cf
	EndLoop
	bass 2
	snare3 1
	snare4 1
	snare1 2
	snare4 2
	snare3 1
	snare1 1
	snare4 1
	speed 1
	snare2 4
	snare2 3
	speed 7
	Loop 4
	snare1 1
	EndLoop
	Loop 5
	bass 1
	snare3 1
	snare4 1
	snare1 1
	snare3 1
	bass 1
	snare4 2
	snare3 1
	bass 1
	snare3 2
	snare1 2
	snare4 2
	EndLoop
	bass 2
	snare3 1
	snare1 1
	snare3 1
	bass 1
	snare4 2
	snare3 1
	bass 1
	snare4 1
	speed 1
	snare2 4
	snare2 3
	speed 7
	Loop 4
	snare1 1
	EndLoop
	Loop 3
	music_call Branch_1e20cf
	EndLoop
	music_call Branch_1e20ee
	Loop 7
	music_call Branch_1e20cf
	EndLoop
	music_call Branch_1e20dc
	Loop 7
	music_call Branch_1e20cf
	EndLoop
	music_call Branch_1e20ee
	Loop 2
	music_call Branch_1e20cf
	EndLoop
	bass 2
	snare3 1
	snare4 1
	snare1 2
	snare4 2
	bass 1
	snare3 1
	snare4 2
	snare1 2
	snare5 14
	snare1 4
	EndMainLoop

Branch_1e20cf:
	bass 2
	snare3 1
	snare4 1
	snare1 2
	snare4 2
	bass 1
	snare3 1
	snare4 2
	snare1 1
	snare4 1
	rest 1
	snare3 1
	music_ret

Branch_1e20dc:
	bass 2
	snare3 1
	snare4 1
	snare1 2
	snare4 2
	snare3 1
	snare1 1
	snare4 1
	speed 1
	snare2 4
	snare2 3
	speed 7
	snare1 1
	snare1 1
	snare1 2
	music_ret

Branch_1e20ee:
	bass 2
	snare3 1
	snare4 1
	snare1 2
	snare4 1
	speed 1
	snare2 4
	snare2 3
	speed 7
	Loop 8
	snare1 1
	EndLoop
	music_ret
