Music_DuelThemeGRLeader_Ch2:
	preset 0
	octave 3
	speed 1
	stereo_panning 15, 15
	musicf1 71
	musicf3
	note G#, 3
	musicf2
	note A_, 11
	note A_, 7
	note G_, 13
	note G_, 7
	note E_, 13
	note E_, 7
	note D_, 4
	note E_, 3
	musicf3
	note D#, 7
	note E_, 6
	note C_, 7
	dec_octave
	note A_, 7
	musicf2
	note G_, 4
	note A_, 3
	note G#, 3
	note G_, 3
	note A_, 7
	note A_, 7
	musicf3
	preset 1
	vibrato_type 5
	vibrato_delay 27
	octave 3
	note C_, 7
	note G_, 6
	preset 0
	octave 4
	note D#, 4
	musicf2
	note E_, 3
	tie
	note E_, 7
	tie
	note E_, 13
	tie
	note E_, 14
	tie
	note E_, 13
	tie
	note E_, 14
	note E_, 13
	MainLoop
	preset 0
	musicf1 71
	octave 3
	note A_, 7
	note A_, 7
	music_call Branch_1ef490
	preset 0
	musicf1 71
	musicf3
	octave 3
	note C_, 5
	note D_, 5
	note D#, 5
	note E_, 4
	note G_, 4
	note G#, 4
	octave 3
	musicf2
	note A_, 7
	note A_, 7
	music_call Branch_1ef490
	music_call Branch_1ef4d1
	note A_, 14
	tie
	note A_, 13
	tie
	note A_, 14
	tie
	note A_, 13
	rest 7
	music_call Branch_1ef615
	preset 35
	musicf1 71
	musicf3
	octave 3
	note G_, 3
	note G#, 3
	note A_, 14
	tie
	note A_, 7
	note G_, 6
	pitch_offset 254
	music_call Branch_1ef5f5
	pitch_offset 0
	preset 35
	note D_, 13
	note F_, 14
	tie
	note F_, 7
	note G_, 13
	tie
	note G_, 7
	musicf2
	note E_, 13
	tie
	note E_, 14
	tie
	note E_, 13
	tie
	note E_, 14
	tie
	note E_, 13
	note E_, 14
	musicf3
	note F_, 13
	note G_, 14
	note A_, 13
	note E_, 14
	tie
	note E_, 7
	note C_, 6
	music_call Branch_1ef5f5
	preset 35
	note D_, 13
	dec_octave
	note A_, 14
	tie
	note A_, 7
	inc_octave
	note D#, 3
	note E_, 3
	tie
	note E_, 14
	musicf2
	note C_, 13
	tie
	note C_, 14
	tie
	note C_, 13
	tie
	note C_, 14
	tie
	note C_, 13
	tie
	note C_, 14
	note C_, 13
	musicf3
	note D_, 5
	note E_, 5
	note F_, 5
	note F#, 4
	note G_, 4
	note G#, 4
	note A_, 14
	tie
	note A_, 7
	note G_, 6
	pitch_offset 254
	music_call Branch_1ef5f5
	pitch_offset 0
	preset 35
	note D_, 13
	note F_, 14
	tie
	note F_, 7
	note G_, 13
	tie
	note G_, 7
	musicf2
	note F_, 7
	note F_, 6
	musicf3
	note A#, 3
	inc_octave
	note C_, 4
	tie
	note C_, 14
	dec_octave
	note A#, 6
	pitch_offset 8
	music_call Branch_1ef5f5
	pitch_offset 0
	preset 35
	note F_, 13
	note G#, 14
	tie
	note G#, 13
	note A#, 14
	tie
	note A#, 7
	note A_, 3
	note G#, 3
	musicf2
	note G_, 14
	tie
	note G_, 13
	note G_, 14
	note A_, 13
	tie
	note A_, 14
	note A_, 13
	inc_octave
	note C_, 14
	tie
	note C_, 13
	note C_, 14
	dec_octave
	note B_, 13
	tie
	note B_, 14
	note B_, 13
	note G_, 7
	note G_, 7
	rest 13
	music_call Branch_1ef4d1
	note A_, 14
	tie
	note A_, 13
	tie
	note A_, 14
	tie
	note A_, 13
	note A_, 7
	musicf3
	music_call Branch_1ef628
	music_call Branch_1ef564
	note A_, 14
	tie
	note A_, 13
	tie
	note A_, 14
	tie
	note A_, 13
	musicf3
	preset 34
	musicf1 71
	musicf3
	octave 2
	note G_, 4
	inc_octave
	note C_, 5
	note F_, 5
	musicf2
	note G_, 13
	note G_, 7
	note A_, 14
	note A_, 6
	musicf3
	note A_, 4
	musicf2
	note A#, 16
	tie
	note A#, 7
	tie
	note A#, 14
	tie
	note A#, 13
	tie
	note A#, 14
	tie
	note A#, 13
	tie
	note A#, 14
	tie
	note A#, 13
	tie
	note A#, 14
	tie
	note A#, 13
	note A#, 14
	note G_, 7
	note A#, 6
	musicf3
	inc_octave
	note C#, 3
	note D_, 4
	tie
	note D_, 14
	note C_, 6
	tie
	note C_, 14
	dec_octave
	musicf2
	note A#, 7
	inc_octave
	note C_, 6
	dec_octave
	musicf3
	note A_, 14
	tie
	note A_, 7
	musicf2
	note A#, 6
	note A_, 7
	tie
	note A#, 7
	inc_octave
	note C_, 7
	note C_, 6
	dec_octave
	musicf3
	note A_, 14
	tie
	note A_, 7
	note F_, 6
	tie
	note F_, 14
	musicf2
	note D_, 7
	note F_, 6
	musicf3
	note G#, 3
	note A_, 11
	tie
	note A_, 13
	tie
	note A_, 14
	tie
	note A_, 13
	tie
	note A_, 14
	preset 9
	octave 2
	note A#, 13
	inc_octave
	note C#, 4
	note D_, 10
	dec_octave
	note A#, 13
	preset 34
	octave 3
	musicf2
	note G_, 14
	tie
	note G_, 13
	tie
	note G_, 14
	tie
	note G_, 13
	tie
	note G_, 14
	tie
	note G_, 13
	tie
	note G_, 14
	tie
	note G_, 13
	tie
	note G_, 14
	tie
	note G_, 13
	note G_, 14
	note D#, 13
	note D#, 7
	preset 9
	octave 2
	musicf1 48
	musicf2
	note A#, 5
	note A#, 2
	musicf3
	preset 34
	octave 3
	musicf1 71
	musicf2
	note A#, 7
	note A#, 13
	inc_octave
	note C_, 14
	note C_, 6
	musicf3
	dec_octave
	note A_, 14
	tie
	note A_, 7
	musicf2
	note A#, 6
	note A_, 7
	tie
	note A#, 7
	note A_, 7
	note A_, 6
	musicf3
	note F_, 14
	tie
	note F_, 7
	musicf2
	note D_, 6
	note F_, 7
	tie
	note D_, 7
	musicf3
	note G#, 3
	note A_, 10
	tie
	note A_, 14
	tie
	note A_, 13
	tie
	note A_, 14
	tie
	note A_, 13
	tie
	note A_, 14
	tie
	note A_, 13
	preset 9
	octave 2
	note G_, 14
	note A_, 13
	preset 35
	octave 3
	musicf1 87
	note G_, 14
	tie
	note G_, 7
	musicf2
	note A_, 6
	note G_, 7
	tie
	note A_, 7
	note A#, 7
	note G_, 6
	musicf3
	note B_, 4
	vibrato_delay 14
	musicf2
	inc_octave
	note C_, 10
	tie
	note C_, 13
	tie
	note C_, 14
	tie
	note C_, 13
	vibrato_delay 0
	note C_, 14
	tie
	note C_, 7
	dec_octave
	note A#, 6
	inc_octave
	note C_, 7
	tie
	dec_octave
	note A#, 7
	note F#, 7
	note A#, 6
	musicf3
	note D_, 14
	tie
	note D_, 7
	note A_, 3
	note A#, 3
	tie
	note A#, 14
	musicf2
	note F#, 7
	note F#, 6
	musicf3
	note G#, 4
	vibrato_delay 10
	note A_, 10
	tie
	note A_, 13
	tie
	note A_, 14
	vibrato_delay 0
	musicf2
	note G_, 13
	tie
	note G_, 7
	note G_, 7
	note D_, 13
	note D_, 7
	note E_, 14
	note E_, 6
	note F_, 14
	tie
	note F_, 8
	note F_, 5
	musicf3
	preset 9
	octave 3
	musicf1 48
	musicf2
	note C#, 5
	note C#, 9
	musicf3
	preset 35
	musicf1 71
	musicf3
	note G_, 13
	tie
	note G_, 14
	musicf2
	note A_, 13
	note A_, 7
	note A#, 14
	note A#, 6
	inc_octave
	note C_, 14
	tie
	note C_, 13
	note C_, 14
	vibrato_delay 27
	note D_, 13
	tie
	note D_, 14
	tie
	note D_, 13
	tie
	note D_, 14
	tie
	note D_, 13
	tie
	note D_, 14
	tie
	note D_, 13
	tie
	note D_, 14
	tie
	note D_, 13
	tie
	note D_, 14
	tie
	note D_, 13
	note D_, 14
	tie
	note D_, 13
	note C_, 14
	tie
	note C_, 13
	note C_, 14
	note D_, 13
	tie
	note D_, 14
	note D_, 13
	note D_, 14
	tie
	note D_, 13
	note D_, 14
	musicf3
	note D#, 3
	musicf2
	note E_, 10
	tie
	note E_, 14
	tie
	note E_, 8
	note E_, 5
	musicf3
	preset 1
	musicef 2
	musicf1 71
	octave 3
	note E_, 4
	note E_, 3
	musicf3
	inc_octave
	note D_, 7
	musicf2
	dec_octave
	note B_, 4
	inc_octave
	note D_, 3
	dec_octave
	note G_, 3
	note B_, 3
	musicf3
	note B_, 7
	musicf2
	note G_, 4
	note B_, 3
	note D_, 4
	note G_, 3
	note G_, 3
	note D_, 3
	note E_, 7
	note E_, 7
	music_call Branch_1ef490
	octave 2
	note B_, 14
	inc_octave
	note C_, 13
	rest 14
	music_call Branch_1ef490
	preset 0
	musicf1 71
	musicf3
	octave 3
	note C_, 5
	note D_, 5
	note D#, 5
	note E_, 4
	note G_, 4
	note G#, 4
	EndMainLoop

Branch_1ef490:
	preset 9
	octave 3
	musicf1 48
	musicf2
	note C_, 5
	note C_, 8
	rest 7
	note C_, 5
	note C_, 9
	rest 6
	rest 7
	note C_, 5
	note C_, 9
	rest 6
	musicf3
	note D_, 14
	note C_, 13
	rest 14
	musicf2
	note C_, 5
	note C_, 8
	rest 7
	note C_, 5
	note C_, 9
	rest 6
	rest 7
	note C_, 5
	note C_, 9
	rest 6
	musicf3
	dec_octave
	note B_, 14
	inc_octave
	note C_, 13
	rest 14
	musicf2
	note C_, 5
	note C_, 8
	rest 7
	note C_, 5
	note C_, 9
	rest 6
	rest 7
	note C_, 5
	note C_, 9
	rest 6
	musicf3
	note D_, 14
	note C_, 13
	rest 14
	musicf2
	note C_, 5
	note C_, 8
	rest 7
	note C_, 5
	note C_, 9
	rest 6
	rest 7
	note C_, 5
	note C_, 9
	rest 6
	musicf3
	music_ret

Branch_1ef4d1:
	preset 34
	musicf1 71
	musicf3
	octave 2
	note G_, 5
	note G#, 5
	note A_, 5
	inc_octave
	note C_, 4
	note D_, 4
	note D#, 4
	note E_, 14
	tie
	note E_, 7
	note G_, 6
	music_call Branch_1ef5f5
	preset 34
	octave 3
	note F#, 13
	tie
	note F#, 14
	tie
	note F#, 13
	tie
	note F#, 14
	tie
	note F#, 13
	tie
	note F#, 14
	tie
	note F#, 13
	music_call Branch_1ef5f5
	preset 34
	octave 3
	note E_, 7
	note F#, 6
	note G_, 14
	note F#, 7
	note E_, 6
	note D_, 4
	rest 3
	note F#, 14
	tie
	note F#, 6
	note E_, 14
	tie
	note E_, 7
	note C_, 6
	music_call Branch_1ef5f5
	preset 34
	octave 3
	note D_, 13
	tie
	note D_, 14
	tie
	note D_, 13
	tie
	note D_, 14
	tie
	note D_, 13
	tie
	note D_, 14
	tie
	note D_, 13
	tie
	note D_, 14
	tie
	note D_, 13
	rest 7
	music_call Branch_1ef602
	preset 34
	note E_, 14
	tie
	note E_, 7
	note G_, 6
	music_call Branch_1ef5f5
	preset 34
	octave 3
	note F#, 13
	tie
	note F#, 14
	tie
	note F#, 13
	tie
	note F#, 14
	tie
	note F#, 13
	tie
	note F#, 14
	tie
	note F#, 13
	music_call Branch_1ef5f5
	preset 34
	octave 3
	note E_, 7
	note F#, 6
	note G_, 14
	note F#, 7
	note E_, 6
	note D_, 4
	rest 3
	note F#, 14
	tie
	note F#, 6
	note B_, 14
	tie
	note B_, 7
	note G_, 6
	music_call Branch_1ef5f5
	preset 34
	musicf1 71
	musicf2
	note A_, 13
	tie
	note A_, 14
	tie
	note A_, 13
	tie
	note A_, 14
	tie
	note A_, 13
	tie
	music_ret

Branch_1ef564:
	preset 35
	musicf1 71
	musicf3
	octave 2
	note G_, 5
	note G#, 5
	note A_, 5
	inc_octave
	note C_, 4
	note D_, 4
	note D#, 4
	note E_, 14
	tie
	note E_, 7
	note G_, 6
	music_call Branch_1ef5f5
	preset 35
	octave 3
	note F#, 13
	tie
	note F#, 14
	tie
	note F#, 13
	tie
	note F#, 14
	tie
	note F#, 13
	tie
	note F#, 14
	tie
	note F#, 13
	music_call Branch_1ef5f5
	preset 35
	octave 3
	note E_, 7
	note F#, 6
	note G_, 14
	note F#, 7
	note E_, 6
	note D_, 4
	rest 3
	note F#, 14
	tie
	note F#, 6
	note E_, 14
	tie
	note E_, 7
	note C_, 6
	music_call Branch_1ef5f5
	preset 35
	octave 3
	note D_, 13
	tie
	note D_, 14
	tie
	note D_, 13
	tie
	note D_, 14
	tie
	note D_, 13
	tie
	note D_, 14
	tie
	note D_, 13
	tie
	note D_, 14
	tie
	note D_, 13
	rest 7
	music_call Branch_1ef602
	preset 35
	note E_, 14
	tie
	note E_, 7
	note G_, 6
	music_call Branch_1ef5f5
	preset 35
	octave 3
	note F#, 13
	tie
	note F#, 14
	tie
	note F#, 13
	tie
	note F#, 14
	tie
	note F#, 13
	tie
	note F#, 14
	tie
	note F#, 13
	music_call Branch_1ef5f5
	preset 35
	octave 3
	note E_, 7
	note F#, 6
	note G_, 14
	note F#, 7
	note E_, 6
	note D_, 4
	rest 3
	note F#, 14
	tie
	note F#, 6
	note B_, 14
	tie
	note B_, 7
	note G_, 6
	music_call Branch_1ef5f5
	preset 35
	musicf2
	note A_, 13
	tie
	note A_, 14
	tie
	note A_, 13
	tie
	note A_, 14
	tie
	note A_, 13
	tie
	music_ret

Branch_1ef5f5:
	preset 9
	octave 2
	musicf1 48
	octave 3
	musicf2
	note C_, 5
	note C_, 9
	musicf1 71
	musicf3
	music_ret

Branch_1ef602:
	preset 9
	octave 3
	musicf1 48
	musicf3
	note E_, 7
	dec_octave
	note G_, 4
	note A_, 4
	note G_, 5
	inc_octave
	note D_, 14
	note C_, 13
	octave 3
	musicf1 71
	musicf3
	music_ret

Branch_1ef615:
	preset 9
	octave 3
	musicf1 48
	musicf3
	note E_, 7
	dec_octave
	note G_, 4
	note A_, 4
	note G_, 5
	inc_octave
	note D_, 14
	note C_, 7
	octave 3
	musicf1 71
	musicf3
	music_ret

Branch_1ef628:
	preset 9
	octave 3
	musicf1 48
	musicf3
	note E_, 7
	dec_octave
	note G_, 4
	note A_, 4
	note G_, 5
	music_ret


Music_DuelThemeGRLeader_Ch1:
	preset 9
	octave 2
	speed 1
	stereo_panning 15, 15
	octave 3
	note E_, 14
	rest 7
	note D_, 13
	rest 7
	note C_, 13
	rest 7
	dec_octave
	note G_, 4
	rest 3
	note A_, 7
	inc_octave
	note C_, 4
	rest 2
	dec_octave
	note A_, 7
	note E_, 7
	note D_, 4
	rest 3
	note D#, 4
	rest 2
	note E_, 7
	rest 7
	preset 1
	octave 3
	rest 3
	note E_, 7
	note B_, 3
	musicf1 71
	musicf2
	note G#, 14
	tie
	note G#, 13
	tie
	note G#, 14
	tie
	note G#, 13
	tie
	note G#, 14
	note G#, 13
	MainLoop
	Loop 2
	preset 0
	musicf1 71
	octave 3
	musicf2
	note E_, 7
	note E_, 7
	music_call Branch_1ef8d6
	rest 14
	music_call Branch_1ef8f0
	EndLoop
	music_call Branch_1ef90b
	preset 7
	musicef -3
	octave 3
	note F#, 14
	tie
	note F#, 13
	tie
	note F#, 14
	tie
	note F#, 13
	rest 7
	music_call Branch_1efa51
	preset 9
	octave 3
	musicf1 48
	rest 14
	rest 13
	musicf2
	note D_, 5
	note D_, 9
	rest 13
	rest 7
	note D_, 5
	note D_, 2
	musicf3
	note D_, 13
	note F_, 14
	dec_octave
	note A#, 13
	rest 14
	rest 13
	musicf2
	note A#, 5
	note A#, 9
	rest 13
	inc_octave
	rest 7
	note D_, 5
	note D_, 2
	musicf3
	note D_, 13
	note E_, 14
	note F_, 13
	Loop 2
	rest 14
	rest 13
	musicf2
	note E_, 5
	note E_, 9
	rest 13
	rest 7
	note E_, 5
	note E_, 2
	musicf3
	dec_octave
	note A_, 13
	inc_octave
	note C_, 14
	dec_octave
	note A_, 13
	inc_octave
	EndLoop
	rest 14
	rest 13
	musicf2
	note D_, 5
	note D_, 9
	rest 13
	rest 7
	note D_, 5
	note D_, 2
	musicf3
	note D_, 13
	note F_, 14
	dec_octave
	note A#, 13
	inc_octave
	rest 14
	rest 13
	musicf2
	note C#, 5
	note C#, 9
	rest 13
	rest 7
	note G#, 5
	note G#, 2
	musicf3
	note F_, 13
	dec_octave
	note A_, 5
	note A#, 5
	inc_octave
	note C_, 5
	note D_, 4
	note E_, 4
	note F_, 4
	preset 1
	octave 3
	musicf1 71
	note C_, 14
	tie
	note C_, 13
	note C_, 14
	note D_, 13
	tie
	note D_, 14
	note D_, 13
	note F_, 14
	tie
	note F_, 13
	note F_, 14
	note E_, 13
	tie
	note E_, 14
	note E_, 13
	note C_, 7
	note C_, 14
	tie
	note C_, 6
	musicf3
	preset 0
	preset 4
	musicf1 71
	musicf2
	note G#, 7
	note G#, 14
	rest 6
	musicf3
	music_call Branch_1ef90b
	preset 7
	musicef -3
	octave 3
	note F#, 14
	tie
	note F#, 13
	tie
	note F#, 14
	tie
	note F#, 13
	rest 7
	music_call Branch_1efa62
	music_call Branch_1ef997
	preset 9
	octave 3
	musicf1 48
	musicf2
	rest 7
	note E_, 5
	note E_, 9
	rest 6
	note C_, 5
	note C_, 9
	rest 13
	note C_, 5
	note C_, 9
	musicf3
	preset 0
	musicf1 71
	octave 3
	note E_, 13
	note E_, 7
	note F_, 14
	note E_, 6
	preset 7
	octave 3
	musicf1 48
	musicf3
	note D#, 14
	tie
	note D#, 13
	preset 9
	octave 2
	musicf2
	note A#, 5
	note A#, 9
	rest 13
	rest 7
	octave 3
	note D#, 5
	note D#, 9
	musicf3
	dec_octave
	note G_, 6
	note A#, 14
	note G_, 13
	preset 7
	octave 3
	note D#, 14
	tie
	note D#, 13
	preset 9
	octave 2
	musicf2
	note A#, 5
	note A#, 9
	musicf3
	preset 7
	octave 3
	note D_, 7
	rest 6
	note A#, 14
	tie
	note A#, 7
	note A_, 13
	tie
	note A_, 7
	note G_, 7
	rest 6
	note F_, 14
	tie
	note F_, 7
	note G_, 6
	preset 9
	octave 3
	musicf2
	note D_, 5
	note D_, 9
	musicf3
	preset 7
	octave 3
	note A_, 7
	rest 6
	note F_, 14
	tie
	note F_, 7
	preset 9
	octave 2
	note A#, 6
	inc_octave
	note D_, 14
	dec_octave
	note A#, 13
	preset 7
	octave 3
	note F_, 14
	tie
	note F_, 13
	tie
	note F_, 14
	tie
	note F_, 13
	tie
	note F_, 7
	preset 9
	octave 3
	musicf2
	note F_, 5
	note F_, 2
	musicf3
	dec_octave
	note G_, 13
	note A#, 4
	rest 3
	rest 7
	note G_, 13
	preset 7
	octave 3
	note D#, 14
	tie
	note D#, 13
	preset 9
	octave 2
	musicf2
	note A#, 5
	note A#, 9
	rest 13
	rest 7
	octave 3
	note D#, 5
	note D#, 9
	musicf3
	dec_octave
	note G_, 6
	note A#, 14
	note G_, 13
	preset 7
	octave 3
	note D#, 14
	tie
	note D#, 13
	preset 9
	octave 2
	musicf2
	note A#, 5
	note A#, 9
	musicf3
	preset 7
	octave 3
	note C_, 13
	preset 9
	octave 3
	musicf2
	note D#, 5
	note D#, 9
	musicf3
	preset 7
	octave 3
	note G_, 7
	rest 13
	note A_, 14
	rest 6
	note F_, 14
	tie
	note F_, 7
	note G_, 6
	preset 9
	octave 3
	musicf2
	note D_, 5
	note D_, 9
	musicf3
	preset 7
	octave 3
	note F_, 7
	rest 6
	note D_, 14
	tie
	note D_, 7
	preset 9
	octave 2
	note F_, 6
	note A_, 14
	note F_, 13
	preset 7
	octave 3
	note F_, 14
	tie
	note F_, 13
	tie
	note F_, 14
	tie
	note F_, 13
	tie
	note F_, 7
	preset 9
	octave 3
	musicf2
	note D_, 5
	note D_, 2
	musicf3
	dec_octave
	note F_, 4
	note G_, 3
	tie
	note G_, 6
	note D#, 14
	note F_, 13
	preset 9
	octave 3
	musicf1 48
	rest 14
	rest 13
	musicf2
	note C_, 5
	note C_, 9
	rest 13
	rest 7
	note F_, 5
	note F_, 9
	musicf3
	dec_octave
	note G_, 6
	note A#, 14
	note G_, 13
	inc_octave
	rest 14
	rest 13
	musicf2
	note F_, 5
	note F_, 9
	rest 13
	rest 7
	note A#, 5
	note A#, 2
	musicf3
	note C_, 13
	note D#, 14
	note F_, 13
	rest 14
	rest 13
	musicf2
	octave 2
	note A#, 5
	note A#, 9
	rest 13
	rest 7
	note A#, 5
	note A#, 9
	musicf3
	note F_, 6
	note A#, 14
	note F_, 13
	inc_octave
	rest 14
	rest 13
	musicf2
	note F_, 5
	note F_, 9
	rest 13
	rest 7
	note F_, 5
	note F_, 9
	musicf3
	dec_octave
	note A#, 6
	preset 0
	musicf3
	octave 2
	note A_, 5
	note A#, 5
	inc_octave
	note C_, 5
	note D_, 4
	note E_, 4
	note F_, 4
	musicf1 71
	note F_, 14
	tie
	note F_, 7
	preset 9
	octave 3
	musicf1 48
	note F_, 6
	note F_, 14
	preset 0
	musicf1 71
	note G_, 13
	tie
	note G_, 14
	tie
	note G_, 13
	tie
	note G_, 14
	tie
	note G_, 13
	tie
	note G_, 14
	tie
	note G_, 13
	tie
	note G_, 14
	tie
	note G_, 13
	tie
	note G_, 14
	tie
	note G_, 7
	note G_, 6
	musicf3
	note D_, 5
	note E_, 5
	note F_, 5
	note G_, 4
	note A_, 4
	note B_, 4
	note F_, 14
	tie
	note F_, 7
	preset 9
	octave 3
	musicf1 48
	musicf2
	note F_, 6
	note F_, 14
	preset 0
	musicf3
	octave 3
	note G_, 13
	tie
	note G_, 7
	preset 9
	octave 3
	musicf1 48
	note G_, 5
	note G_, 9
	rest 6
	preset 0
	octave 3
	musicf1 71
	note G#, 14
	tie
	note G#, 7
	note G#, 6
	tie
	note G#, 14
	note A_, 13
	tie
	note A_, 14
	note A_, 7
	preset 1
	musicef 2
	musicf1 71
	musicf3
	note D_, 3
	note D#, 3
	dec_octave
	musicf2
	note B_, 4
	note B_, 3
	musicf3
	inc_octave
	note B_, 7
	musicf2
	note G_, 4
	note B_, 3
	note D_, 3
	note G_, 3
	musicf3
	note G_, 7
	musicf2
	note D_, 4
	note G_, 3
	dec_octave
	note B_, 4
	inc_octave
	note D_, 3
	note D_, 3
	dec_octave
	note B_, 3
	dec_octave
	note B_, 7
	note B_, 7
	music_call Branch_1ef8d6
	rest 14
	music_call Branch_1ef8d6
	rest 14
	music_call Branch_1ef8d6
	rest 14
	music_call Branch_1ef8f0
	EndMainLoop

Branch_1ef8d6:
	preset 9
	octave 2
	musicf3
	rest 13
	rest 14
	rest 13
	rest 14
	rest 13
	note A_, 14
	note G_, 13
	rest 14
	rest 13
	rest 7
	musicf2
	note G_, 5
	note G_, 9
	rest 6
	rest 7
	note G_, 5
	note G_, 9
	rest 6
	musicf3
	note F#, 14
	note G_, 13
	music_ret

Branch_1ef8f0:
	preset 9
	octave 2
	musicf3
	rest 13
	rest 14
	rest 13
	rest 14
	rest 13
	note A_, 14
	note G_, 13
	rest 14
	rest 13
	musicf2
	rest 7
	note G_, 5
	note G_, 9
	rest 6
	rest 7
	note G_, 5
	note G_, 9
	rest 6
	musicf3
	note B_, 14
	inc_octave
	note C_, 13
	music_ret

Branch_1ef90b:
	preset 7
	musicf3
	octave 3
	note C_, 14
	tie
	note C_, 7
	note E_, 6
	music_call Branch_1efa34
	preset 7
	note D_, 13
	tie
	note D_, 14
	tie
	note D_, 7
	music_call Branch_1efa41
	preset 7
	musicef -3
	note D_, 14
	tie
	note D_, 13
	music_call Branch_1efa34
	preset 7
	note C_, 7
	note D_, 6
	note E_, 14
	note D_, 7
	note C_, 6
	dec_octave
	note B_, 4
	rest 3
	inc_octave
	note D_, 14
	tie
	note D_, 6
	note C_, 14
	tie
	note C_, 7
	dec_octave
	note A_, 6
	music_call Branch_1efa34
	preset 7
	octave 2
	note F#, 13
	tie
	note F#, 14
	tie
	note F#, 13
	music_call Branch_1efa4a
	preset 7
	octave 2
	musicef -3
	note F#, 14
	tie
	note F#, 13
	tie
	note F#, 14
	tie
	note F#, 13
	rest 7
	music_call Branch_1efa51
	preset 7
	octave 3
	note C_, 14
	tie
	note C_, 7
	note E_, 6
	music_call Branch_1efa34
	note D_, 13
	tie
	note D_, 14
	tie
	note D_, 7
	music_call Branch_1efa41
	preset 7
	musicef -3
	note D_, 14
	tie
	note D_, 13
	music_call Branch_1efa34
	preset 7
	note C_, 7
	note D_, 6
	note E_, 14
	note D_, 7
	note C_, 6
	dec_octave
	note B_, 4
	rest 3
	inc_octave
	note D_, 14
	tie
	note D_, 6
	note G_, 14
	tie
	note G_, 7
	note E_, 6
	music_call Branch_1efa34
	preset 7
	note F#, 13
	tie
	note F#, 14
	tie
	note F#, 13
	music_call Branch_1efa4a
	music_ret

Branch_1ef997:
	preset 1
	musicf1 71
	musicf3
	octave 2
	note A_, 14
	tie
	note A_, 7
	inc_octave
	note C_, 6
	music_call Branch_1efa34
	preset 1
	note D_, 13
	tie
	note D_, 14
	tie
	note D_, 7
	music_call Branch_1efa41
	preset 1
	musicef -3
	note D_, 14
	tie
	note D_, 13
	music_call Branch_1efa34
	preset 1
	octave 2
	note A_, 7
	note B_, 6
	inc_octave
	note C_, 14
	dec_octave
	note B_, 7
	note A_, 6
	musicf2
	note G_, 4
	note G_, 3
	musicf3
	note B_, 14
	tie
	note B_, 6
	note A_, 14
	tie
	note A_, 7
	dec_octave
	note E_, 6
	music_call Branch_1efa34
	preset 1
	octave 2
	note F#, 13
	tie
	note F#, 14
	tie
	note F#, 13
	music_call Branch_1efa4a
	preset 1
	musicef -3
	octave 2
	musicf1 71
	note F#, 14
	tie
	note F#, 13
	tie
	note F#, 14
	tie
	note F#, 13
	note F#, 7
	music_call Branch_1efa51
	preset 1
	octave 2
	note A_, 14
	tie
	note A_, 7
	inc_octave
	note C_, 6
	music_call Branch_1efa34
	preset 1
	note D_, 13
	tie
	note D_, 14
	tie
	note D_, 7
	music_call Branch_1efa41
	preset 1
	musicef -3
	note D_, 14
	tie
	note D_, 13
	music_call Branch_1efa34
	octave 2
	preset 1
	note A_, 7
	note B_, 6
	inc_octave
	note C_, 14
	dec_octave
	note B_, 7
	note A_, 6
	musicf2
	note G_, 4
	note G_, 3
	musicf3
	note B_, 14
	tie
	note B_, 6
	inc_octave
	note D_, 14
	tie
	note D_, 7
	dec_octave
	note A_, 6
	music_call Branch_1efa34
	preset 1
	octave 2
	note F#, 13
	tie
	note F#, 14
	tie
	note F#, 13
	music_call Branch_1efa4a
	music_ret

Branch_1efa34:
	preset 9
	octave 2
	musicf1 48
	octave 3
	musicf2
	note E_, 5
	note E_, 9
	musicf3
	musicf1 71
	music_ret

Branch_1efa41:
	preset 9
	octave 2
	octave 3
	musicf3
	note C_, 6
	note D_, 14
	note C_, 13
	music_ret

Branch_1efa4a:
	preset 9
	octave 2
	musicf3
	note A_, 14
	note G_, 13
	music_ret

Branch_1efa51:
	preset 9
	musicf1 48
	musicf2
	octave 2
	note G_, 5
	inc_octave
	note C_, 9
	dec_octave
	rest 6
	musicf3
	note A_, 14
	note G_, 13
	musicf1 71
	music_ret

Branch_1efa62:
	preset 9
	musicf1 48
	musicf2
	octave 2
	note G_, 5
	inc_octave
	note C_, 9
	dec_octave
	rest 6
	musicf3
	inc_octave
	note D_, 14
	note C_, 13
	musicf1 71
	music_ret


Music_DuelThemeGRLeader_Ch3:
	wave 5
	speed 1
	volume_envelope 2, 0
	echo 96
	stereo_panning 15, 15
	octave 1
	note A_, 14
	note A_, 4
	rest 3
	inc_octave
	note C_, 13
	note C_, 4
	rest 3
	note D_, 13
	inc_octave
	note D_, 4
	rest 3
	dec_octave
	note D_, 7
	note D#, 7
	note E_, 6
	dec_octave
	note G_, 7
	note E_, 7
	note G_, 7
	note G#, 6
	note A_, 7
	rest 16
	rest 4
	note A#, 14
	tie
	note A#, 7
	note A#, 3
	rest 3
	note A#, 7
	inc_octave
	note F_, 4
	rest 3
	note A#, 13
	note F_, 14
	dec_octave
	note A#, 13
	MainLoop
	music_call Branch_1efd79
	music_call Branch_1efd91
	music_call Branch_1efd79
	music_call Branch_1efd91
	music_call Branch_1efd79
	music_call Branch_1efd91
	music_call Branch_1efd79
	music_call Branch_1efd91
	music_call Branch_1efda8
	music_call Branch_1efdc0
	music_call Branch_1efda8
	music_call Branch_1efdd9
	music_call Branch_1efda8
	music_call Branch_1efdc0
	music_call Branch_1efda8
	music_call Branch_1efdd9
	octave 1
	note G_, 14
	note G_, 4
	rest 3
	note G_, 6
	inc_octave
	note F_, 5
	rest 2
	dec_octave
	note D_, 4
	rest 3
	note F_, 7
	note F#, 6
	note G_, 4
	rest 3
	inc_octave
	note A#, 5
	rest 2
	dec_octave
	note A#, 13
	inc_octave
	note C_, 14
	dec_octave
	note A#, 13
	note G_, 14
	note G_, 4
	rest 3
	note G_, 6
	inc_octave
	note F_, 5
	rest 2
	dec_octave
	note D_, 4
	rest 3
	note F_, 7
	note F#, 6
	note G_, 4
	rest 3
	inc_octave
	note A#, 5
	rest 2
	dec_octave
	note E_, 13
	note F_, 14
	note F#, 13
	Loop 2
	octave 1
	note F_, 14
	note F_, 4
	rest 3
	note F_, 6
	inc_octave
	note A_, 5
	rest 2
	dec_octave
	inc_octave
	note C_, 4
	rest 3
	note E_, 7
	note F_, 6
	dec_octave
	note F_, 4
	rest 3
	inc_octave
	inc_octave
	note C_, 5
	rest 2
	dec_octave
	dec_octave
	inc_octave
	note F_, 13
	dec_octave
	note A#, 14
	inc_octave
	note C_, 13
	EndLoop
	octave 1
	note G_, 14
	note G_, 4
	rest 3
	note G_, 6
	inc_octave
	note F_, 5
	rest 2
	dec_octave
	note D_, 4
	rest 3
	note F_, 7
	note F#, 6
	note G_, 4
	rest 3
	inc_octave
	note A#, 5
	rest 2
	dec_octave
	note F_, 13
	note G_, 14
	note F_, 13
	note D#, 14
	note D#, 4
	rest 3
	note D#, 6
	inc_octave
	note A#, 5
	rest 2
	dec_octave
	note A#, 4
	rest 3
	inc_octave
	note C#, 7
	note D_, 6
	note D#, 4
	rest 3
	inc_octave
	note C#, 5
	rest 2
	dec_octave
	dec_octave
	note D#, 13
	inc_octave
	note D#, 14
	dec_octave
	note D#, 13
	inc_octave
	note D_, 7
	dec_octave
	note A_, 4
	rest 3
	note D_, 4
	rest 3
	note A_, 4
	rest 2
	note D_, 4
	rest 3
	note A_, 4
	rest 3
	inc_octave
	note E_, 7
	dec_octave
	note B_, 4
	rest 2
	note E_, 4
	rest 3
	note B_, 4
	rest 3
	note E_, 4
	rest 3
	note B_, 4
	rest 2
	inc_octave
	note G_, 7
	note D_, 4
	rest 3
	dec_octave
	note G_, 4
	rest 3
	inc_octave
	note D_, 4
	rest 2
	dec_octave
	note G_, 4
	rest 3
	inc_octave
	note D_, 4
	rest 3
	note A_, 7
	note E_, 4
	rest 2
	dec_octave
	note A_, 4
	rest 3
	inc_octave
	note E_, 4
	rest 3
	dec_octave
	note A_, 4
	rest 3
	inc_octave
	note E_, 4
	rest 2
	note D_, 7
	dec_octave
	note A_, 4
	rest 3
	note D_, 4
	rest 3
	note A_, 4
	rest 2
	note A#, 7
	inc_octave
	note F_, 4
	rest 3
	note A#, 7
	note G#, 4
	rest 2
	music_call Branch_1efda8
	music_call Branch_1efdc0
	music_call Branch_1efda8
	music_call Branch_1efdd9
	music_call Branch_1efda8
	music_call Branch_1efdc0
	music_call Branch_1efda8
	music_call Branch_1efdd9
	music_call Branch_1efda8
	music_call Branch_1efdc0
	music_call Branch_1efda8
	music_call Branch_1efdd9
	music_call Branch_1efda8
	music_call Branch_1efdc0
	music_call Branch_1efda8
	octave 1
	note A_, 4
	rest 3
	inc_octave
	note A_, 5
	rest 2
	note G_, 7
	note A_, 4
	rest 2
	note G_, 5
	rest 2
	dec_octave
	note E_, 4
	rest 3
	note G_, 7
	note G#, 6
	note A_, 7
	rest 7
	note A_, 13
	note A_, 4
	rest 3
	note G_, 14
	note G_, 3
	rest 3
	Loop 2
	octave 1
	note F_, 14
	note F_, 4
	rest 3
	note F_, 6
	inc_octave
	note G_, 5
	rest 2
	note C_, 4
	rest 3
	note D#, 7
	note F_, 6
	dec_octave
	note F_, 4
	rest 3
	inc_octave
	note A#, 5
	rest 2
	note F_, 13
	note C_, 14
	note D#, 13
	EndLoop
	octave 1
	note F_, 14
	note F_, 4
	rest 3
	note F_, 6
	inc_octave
	note A#, 5
	rest 2
	note C_, 4
	rest 3
	note D#, 7
	note F_, 6
	dec_octave
	note F_, 4
	rest 3
	inc_octave
	inc_octave
	note F_, 5
	rest 2
	dec_octave
	note F_, 13
	note C_, 14
	note D#, 13
	octave 1
	note F_, 14
	note F_, 4
	rest 3
	note F_, 6
	inc_octave
	inc_octave
	note D_, 5
	rest 2
	dec_octave
	note C_, 4
	rest 3
	note D#, 7
	note F_, 6
	dec_octave
	note F_, 4
	rest 3
	inc_octave
	inc_octave
	note D_, 5
	rest 2
	dec_octave
	note F_, 13
	note C_, 14
	note D#, 13
	octave 1
	note F_, 14
	note F_, 4
	rest 3
	note F_, 6
	inc_octave
	note G_, 5
	rest 2
	note C_, 4
	rest 3
	note D#, 7
	note F_, 6
	dec_octave
	note F_, 4
	rest 3
	inc_octave
	note A#, 5
	rest 2
	note F_, 13
	note C_, 14
	note D#, 13
	octave 1
	note F_, 14
	note F_, 4
	rest 3
	note F_, 6
	inc_octave
	note G_, 5
	rest 2
	note C_, 4
	rest 3
	note D#, 7
	note F_, 6
	dec_octave
	note F_, 4
	rest 3
	inc_octave
	note G_, 5
	rest 2
	note F_, 13
	note C_, 14
	note D#, 13
	dec_octave
	octave 1
	note A#, 14
	note A#, 4
	rest 3
	note A#, 6
	inc_octave
	note A_, 5
	rest 2
	dec_octave
	note F_, 4
	rest 3
	note A_, 7
	note A#, 6
	note A#, 4
	rest 3
	inc_octave
	inc_octave
	note D_, 5
	rest 2
	dec_octave
	note F_, 13
	note A_, 14
	note F_, 13
	octave 1
	note A#, 14
	note A#, 4
	rest 3
	note A#, 6
	inc_octave
	inc_octave
	note D_, 5
	rest 2
	dec_octave
	dec_octave
	note F_, 4
	rest 3
	note A_, 7
	note A#, 6
	note A#, 4
	rest 3
	inc_octave
	note A_, 5
	rest 2
	dec_octave
	note F_, 13
	note A_, 14
	note F_, 13
	octave 1
	note G#, 14
	note G#, 4
	rest 3
	note G#, 6
	inc_octave
	note G_, 5
	rest 2
	note D#, 4
	rest 3
	note G_, 7
	note G#, 6
	dec_octave
	note G#, 4
	rest 3
	inc_octave
	inc_octave
	note C_, 5
	rest 2
	dec_octave
	note D#, 13
	note G_, 14
	note D#, 13
	octave 1
	note D_, 14
	note D_, 4
	rest 3
	note D_, 6
	inc_octave
	inc_octave
	note C_, 5
	rest 2
	dec_octave
	dec_octave
	note A_, 4
	rest 3
	inc_octave
	note C_, 7
	note D_, 6
	dec_octave
	note D_, 4
	rest 3
	inc_octave
	inc_octave
	note F_, 5
	rest 2
	dec_octave
	dec_octave
	note A_, 13
	inc_octave
	note C_, 14
	dec_octave
	note A_, 13
	note G_, 14
	note G_, 4
	rest 3
	note G_, 6
	inc_octave
	note F_, 5
	rest 2
	note D_, 4
	rest 3
	note F_, 7
	note G_, 6
	dec_octave
	note G_, 4
	rest 3
	inc_octave
	note F_, 5
	rest 2
	dec_octave
	note G_, 13
	inc_octave
	note D_, 14
	note C#, 13
	dec_octave
	note D#, 14
	note D#, 4
	rest 3
	note D#, 6
	inc_octave
	note A#, 5
	rest 2
	dec_octave
	note A#, 4
	rest 3
	inc_octave
	note C#, 7
	note D#, 6
	dec_octave
	note D#, 4
	rest 3
	inc_octave
	inc_octave
	note C#, 5
	rest 2
	dec_octave
	note D#, 13
	dec_octave
	note A#, 14
	inc_octave
	note C#, 13
	note D_, 7
	dec_octave
	note A_, 4
	rest 3
	note D_, 4
	rest 3
	inc_octave
	inc_octave
	note C_, 5
	rest 1
	dec_octave
	dec_octave
	note D_, 4
	rest 3
	note D_, 2
	rest 5
	note E_, 13
	note E_, 4
	rest 3
	inc_octave
	inc_octave
	note G_, 5
	rest 2
	dec_octave
	note E_, 13
	dec_octave
	note B_, 14
	inc_octave
	note D_, 13
	note E_, 7
	dec_octave
	note E_, 4
	rest 3
	note E_, 2
	rest 5
	inc_octave
	inc_octave
	note D_, 5
	rest 1
	dec_octave
	dec_octave
	note E_, 4
	rest 3
	inc_octave
	note E_, 7
	note D_, 7
	note E_, 6
	dec_octave
	note E_, 4
	rest 3
	inc_octave
	inc_octave
	note D_, 5
	rest 2
	dec_octave
	dec_octave
	note B_, 13
	inc_octave
	note D_, 14
	dec_octave
	note B_, 13
	inc_octave
	note D_, 7
	dec_octave
	note A_, 4
	rest 3
	note D_, 4
	rest 3
	inc_octave
	inc_octave
	note C_, 5
	rest 1
	dec_octave
	dec_octave
	note D_, 4
	rest 3
	note D_, 2
	rest 5
	note E_, 13
	note E_, 4
	rest 3
	inc_octave
	inc_octave
	note D_, 5
	rest 2
	dec_octave
	note E_, 13
	dec_octave
	note A#, 14
	inc_octave
	inc_octave
	note D_, 5
	rest 2
	dec_octave
	dec_octave
	note A#, 3
	rest 3
	note A#, 7
	inc_octave
	note A#, 4
	rest 3
	dec_octave
	note E_, 13
	note E_, 14
	note E_, 4
	rest 3
	inc_octave
	note D_, 6
	note E_, 7
	dec_octave
	note D_, 4
	rest 3
	note D#, 4
	rest 3
	note E_, 4
	rest 2
	note G_, 7
	note E_, 4
	rest 3
	note G_, 4
	rest 3
	note G#, 4
	rest 2
	music_call Branch_1efd79
	music_call Branch_1efd91
	music_call Branch_1efd79
	music_call Branch_1efd91
	music_call Branch_1efd79
	music_call Branch_1efd91
	music_call Branch_1efd79
	music_call Branch_1efd91
	EndMainLoop

Branch_1efd79:
	octave 1
	note A_, 14
	inc_octave
	note G_, 5
	rest 2
	dec_octave
	note A_, 6
	note A_, 4
	rest 3
	inc_octave
	note G_, 5
	rest 2
	dec_octave
	inc_octave
	note G_, 7
	note G#, 6
	note A_, 4
	rest 3
	note G_, 5
	rest 2
	note C_, 13
	note D_, 14
	note E_, 13
	music_ret

Branch_1efd91:
	octave 1
	note A_, 14
	inc_octave
	note G_, 5
	rest 2
	dec_octave
	note A_, 6
	note A_, 4
	rest 3
	note A_, 1
	rest 6
	inc_octave
	note G_, 7
	note G#, 6
	note A_, 4
	rest 3
	dec_octave
	note A_, 2
	rest 5
	note F#, 13
	note G_, 14
	note G#, 13
	music_ret

Branch_1efda8:
	octave 1
	note A_, 14
	note A_, 4
	rest 3
	note A_, 6
	inc_octave
	note G_, 5
	rest 2
	dec_octave
	note E_, 4
	rest 3
	note G_, 7
	note G#, 6
	note A_, 4
	rest 3
	inc_octave
	inc_octave
	note C_, 5
	rest 2
	dec_octave
	note C_, 13
	note D_, 14
	note C_, 13
	music_ret

Branch_1efdc0:
	octave 1
	note A_, 14
	note A_, 4
	rest 3
	note A_, 6
	inc_octave
	note G_, 5
	rest 2
	dec_octave
	note E_, 4
	rest 3
	note G_, 7
	note G#, 6
	note A_, 4
	rest 3
	inc_octave
	inc_octave
	note C_, 5
	rest 2
	dec_octave
	dec_octave
	note F#, 13
	note G_, 14
	note G#, 13
	music_ret

Branch_1efdd9:
	octave 1
	note A_, 14
	note A_, 4
	rest 3
	note A_, 6
	inc_octave
	inc_octave
	note C_, 5
	rest 2
	dec_octave
	dec_octave
	note E_, 4
	rest 3
	note G_, 7
	note G#, 6
	note A_, 4
	rest 3
	inc_octave
	inc_octave
	note C_, 5
	rest 2
	dec_octave
	dec_octave
	note F#, 13
	note G_, 14
	note G#, 13
	music_ret


Music_DuelThemeGRLeader_Ch4:
	octave 1
	speed 1
	snare4 14
	snare1 7
	snare4 13
	snare1 7
	snare4 13
	snare3 7
	snare1 3
	snare1 4
	snare1 7
	snare1 6
	snare1 7
	snare1 7
	bass 7
	bass 6
	snare1 14
	bass 4
	bass 4
	bass 5
	snare1 14
	bass 7
	snare1 6
	snare1 4
	musicef -4
	snare1 5
	snare1 5
	musicef 0
	snare1 4
	musicef -4
	snare1 4
	snare1 5
	musicef 0
	snare1 7
	snare1 7
	bass 13
	MainLoop
	bass 14
	snare3 7
	bass 6
	snare1 14
	snare3 7
	snare3 6
	bass 7
	snare3 7
	snare4 13
	snare1 7
	bass 7
	snare4 13
	music_call Branch_1effdc
	music_call Branch_1effeb
	music_call Branch_1effdc
	music_call Branch_1effeb
	music_call Branch_1effdc
	music_call Branch_1effeb
	musicef 0
	snare1 7
	musicef -6
	snare1 7
	musicef 0
	snare1 7
	musicef -6
	snare1 6
	musicef 0
	snare1 7
	snare1 7
	musicef -6
	snare1 7
	musicef 0
	snare1 6
	musicef -6
	snare1 7
	musicef 0
	snare1 7
	musicef -6
	snare1 7
	musicef -4
	snare1 3
	snare1 3
	musicef 0
	snare1 7
	snare1 7
	musicef -6
	snare1 7
	musicef 0
	snare1 6
	music_call Branch_1effeb
	music_call Branch_1effdc
	music_call Branch_1effeb
	music_call Branch_1effdc
	music_call Branch_1effeb
	music_call Branch_1effdc
	music_call Branch_1effeb
	bass 14
	snare3 7
	bass 6
	snare1 14
	snare3 7
	snare3 6
	bass 7
	snare1 7
	snare4 7
	musicef -3
	snare1 3
	snare1 3
	musicef 0
	snare1 7
	snare1 7
	bass 7
	snare1 6
	music_call Branch_1effeb
	music_call Branch_1effdc
	music_call Branch_1effeb
	music_call Branch_1effdc
	music_call Branch_1effeb
	bass 14
	snare3 7
	bass 6
	snare1 14
	snare3 7
	snare3 6
	bass 7
	snare1 7
	snare4 13
	snare1 14
	snare1 7
	snare1 6
	snare1 14
	snare4 7
	bass 6
	snare1 14
	snare1 13
	snare4 7
	bass 7
	snare1 13
	snare1 14
	snare4 7
	bass 6
	snare1 14
	snare1 13
	snare4 7
	bass 7
	snare1 13
	snare1 3
	snare1 4
	snare1 7
	snare1 7
	snare1 6
	snare1 7
	snare1 7
	snare1 7
	snare1 6
	music_call Branch_1effeb
	music_call Branch_1effdc
	music_call Branch_1effeb
	music_call Branch_1effdc
	music_call Branch_1effeb
	music_call Branch_1effdc
	music_call Branch_1effeb
	bass 14
	snare3 7
	bass 6
	snare1 14
	snare3 7
	musicef -3
	snare1 3
	snare1 3
	musicef 0
	snare1 4
	musicef -3
	snare1 5
	snare1 5
	musicef 0
	snare1 4
	musicef -3
	snare1 4
	snare1 5
	musicef 0
	snare1 7
	snare1 7
	snare3 6
	snare1 6
	music_call Branch_1effeb
	music_call Branch_1effdc
	music_call Branch_1effeb
	music_call Branch_1effdc
	music_call Branch_1effeb
	music_call Branch_1effdc
	music_call Branch_1effeb
	bass 7
	snare1 7
	snare4 7
	snare1 3
	snare1 3
	snare1 7
	snare1 7
	snare1 7
	bass 6
	snare1 14
	bass 13
	snare1 7
	bass 14
	snare1 6
	music_call Branch_1effeb
	music_call Branch_1effdc
	music_call Branch_1effeb
	music_call Branch_1effdc
	music_call Branch_1effeb
	music_call Branch_1effdc
	music_call Branch_1effeb
	bass 14
	snare3 7
	bass 6
	snare1 14
	snare3 7
	snare3 6
	bass 7
	snare1 7
	snare4 7
	musicef -3
	snare1 3
	snare1 3
	musicef 0
	snare1 7
	snare1 7
	snare3 7
	snare1 6
	music_call Branch_1effeb
	music_call Branch_1effdc
	music_call Branch_1effeb
	bass 14
	snare3 7
	bass 6
	snare1 15
	snare3 7
	musicef -3
	snare1 3
	snare1 3
	musicef 0
	snare1 7
	snare1 7
	snare1 7
	snare1 6
	snare1 7
	snare1 7
	snare1 7
	snare1 6
	snare1 14
	snare4 7
	bass 6
	snare1 14
	snare1 13
	snare3 7
	bass 7
	snare4 13
	snare1 14
	snare4 13
	bass 14
	snare3 7
	bass 6
	snare1 14
	snare3 7
	snare3 6
	bass 7
	snare1 7
	snare4 13
	snare1 7
	snare3 7
	snare1 7
	snare1 6
	snare1 14
	snare4 7
	bass 6
	snare1 14
	snare1 13
	snare3 7
	snare1 7
	snare4 13
	snare1 14
	snare3 7
	snare1 6
	bass 14
	snare1 13
	snare3 7
	snare4 7
	snare1 7
	bass 6
	snare1 4
	musicef -2
	snare1 5
	snare1 5
	musicef 0
	snare1 4
	musicef -2
	snare1 4
	snare1 5
	musicef 0
	snare1 7
	snare1 7
	snare3 7
	snare1 6
	speed 6
	snare5 16
	speed 1
	rest 12
	rest 16
	rest 16
	rest 16
	rest 16
	rest 16
	rest 16
	rest 12
	rest 16
	rest 16
	rest 16
	rest 16
	rest 16
	rest 16
	rest 12
	rest 16
	rest 16
	rest 16
	rest 16
	rest 16
	rest 1
	snare3 4
	snare3 5
	snare3 5
	snare4 13
	Loop 3
	snare3 7
	snare3 7
	snare4 13
	snare3 7
	snare4 7
	snare3 7
	snare3 6
	snare3 7
	snare3 7
	snare4 13
	snare3 7
	snare4 7
	snare3 7
	snare3 6
	EndLoop
	snare3 7
	snare3 7
	snare4 13
	snare3 7
	snare4 7
	snare3 7
	musicef -3
	snare1 3
	snare1 3
	musicef 0
	snare1 7
	snare1 7
	snare1 7
	snare1 6
	snare1 7
	snare1 7
	snare1 7
	snare1 6
	EndMainLoop

Branch_1effdc:
	octave 1
	bass 14
	snare3 7
	bass 6
	snare1 14
	snare3 7
	snare3 6
	bass 7
	snare1 7
	snare4 13
	snare1 7
	bass 7
	snare3 7
	snare1 6
	music_ret

Branch_1effeb:
	octave 1
	bass 14
	snare3 7
	bass 6
	snare1 14
	snare3 7
	snare3 6
	bass 7
	snare3 7
	snare4 13
	snare1 7
	bass 7
	snare4 13
	music_ret
