Music_Fort3_Ch2:
	speed 1
	rest 14
	MainLoop
	preset 9
	octave 3
	stereo_panning 15, 15
	musicf1 87
	musicf3
	vibrato_type 5
	vibrato_delay 60
	rest 15
	rest 14
	note C_, 4
	tie
	note C#, 4
	tie
	note D_, 14
	musicf2
	note C_, 7
	tie
	note C_, 15
	tie
	note C_, 14
	tie
	note C_, 15
	tie
	note C_, 14
	tie
	note C_, 15
	tie
	note C_, 14
	tie
	note C_, 15
	tie
	note C_, 14
	tie
	note C_, 15
	tie
	note C_, 14
	note C_, 15
	tie
	note C_, 14
	musicf3
	rest 15
	rest 14
	dec_octave
	note A#, 4
	tie
	inc_octave
	note C_, 4
	tie
	note C_, 14
	dec_octave
	musicf2
	note A#, 7
	tie
	note A#, 15
	tie
	note A#, 14
	tie
	note A#, 15
	tie
	note A#, 14
	tie
	note A#, 15
	tie
	note A#, 14
	tie
	note A#, 15
	tie
	note A#, 14
	tie
	note A#, 15
	tie
	note A#, 14
	note A#, 15
	tie
	note A#, 14
	inc_octave
	musicf3
	rest 15
	rest 14
	note C_, 4
	tie
	note C#, 4
	tie
	note D_, 14
	musicf2
	note C_, 7
	tie
	note C_, 15
	tie
	note C_, 14
	tie
	note C_, 15
	tie
	note C_, 14
	tie
	note C_, 15
	tie
	note C_, 14
	tie
	note C_, 15
	tie
	note C_, 14
	tie
	note C_, 15
	tie
	note C_, 14
	note C_, 15
	tie
	note C_, 14
	musicf3
	rest 15
	rest 14
	dec_octave
	note A#, 4
	tie
	inc_octave
	note C_, 4
	tie
	note C_, 14
	dec_octave
	musicf2
	note A#, 7
	tie
	note A#, 15
	tie
	note A#, 14
	tie
	note A#, 15
	tie
	note A#, 14
	tie
	note A#, 15
	tie
	note A#, 14
	tie
	note A#, 15
	tie
	note A#, 14
	note A#, 8
	musicf3
	inc_octave
	note C_, 4
	note C#, 3
	note C_, 7
	dec_octave
	note A#, 7
	inc_octave
	note C_, 8
	dec_octave
	note A#, 7
	note G_, 7
	note F_, 7
	preset 33
	musicef 1
	musicf1 87
	musicf3
	octave 3
	note G_, 4
	tie
	frequency_offset 9
	note G_, 4
	tie
	frequency_offset 0
	note G#, 4
	tie
	frequency_offset 9
	note G#, 3
	tie
	frequency_offset 0
	note A_, 14
	inc_octave
	note C_, 15
	dec_octave
	musicf2
	note F_, 14
	tie
	note F_, 15
	tie
	note F_, 14
	tie
	note F_, 15
	tie
	note F_, 14
	tie
	note F_, 15
	tie
	note F_, 14
	tie
	note F_, 15
	tie
	note F_, 14
	note F_, 15
	tie
	note F_, 14
	musicf3
	note E_, 8
	note F_, 7
	note E_, 7
	note C_, 7
	musicf2
	note D_, 15
	tie
	note D_, 14
	note D_, 15
	note F_, 4
	tie
	frequency_offset 4
	note F_, 3
	tie
	frequency_offset 9
	note F_, 4
	tie
	frequency_offset 13
	note F_, 3
	tie
	frequency_offset 0
	note F#, 4
	tie
	frequency_offset 4
	note F#, 4
	tie
	frequency_offset 9
	note F#, 4
	tie
	frequency_offset 13
	note F#, 3
	tie
	frequency_offset 0
	note G_, 14
	tie
	note G_, 15
	tie
	note G_, 14
	tie
	note G_, 15
	tie
	note G_, 14
	tie
	note G_, 15
	tie
	note G_, 14
	tie
	note G_, 15
	tie
	note G_, 14
	note G_, 15
	tie
	note G_, 14
	musicf3
	preset 33
	octave 3
	note G_, 4
	tie
	frequency_offset 9
	note G_, 4
	tie
	frequency_offset 0
	note G#, 4
	tie
	frequency_offset 9
	note G#, 3
	tie
	frequency_offset 0
	note A_, 14
	inc_octave
	note C_, 15
	dec_octave
	musicf2
	note F_, 14
	tie
	note F_, 15
	tie
	note F_, 14
	tie
	note F_, 15
	tie
	note F_, 14
	tie
	note F_, 15
	tie
	note F_, 14
	tie
	note F_, 15
	tie
	note F_, 14
	note F_, 15
	tie
	note F_, 14
	musicf3
	note E_, 8
	note F_, 7
	note E_, 7
	note C_, 7
	musicf2
	note D_, 15
	tie
	note D_, 14
	note D_, 15
	dec_octave
	note F_, 4
	tie
	frequency_offset 14
	note F_, 3
	tie
	frequency_offset 28
	note F_, 4
	tie
	frequency_offset 43
	note F_, 3
	tie
	frequency_offset 0
	note F#, 4
	tie
	frequency_offset 14
	note F#, 4
	tie
	frequency_offset 28
	note F#, 4
	tie
	frequency_offset 43
	note F#, 3
	tie
	frequency_offset 0
	note G_, 14
	tie
	note G_, 15
	tie
	note G_, 14
	tie
	note G_, 15
	tie
	note G_, 14
	tie
	note G_, 15
	tie
	note G_, 14
	note G_, 15
	tie
	note G_, 14
	musicf3
	note G_, 8
	note A_, 7
	note A#, 7
	inc_octave
	note C_, 7
	vibrato_delay 11
	note C_, 4
	tie
	frequency_offset 9
	note C_, 4
	tie
	frequency_offset 0
	note C#, 4
	tie
	frequency_offset 9
	note C#, 3
	tie
	frequency_offset 0
	note D_, 14
	vibrato_delay 0
	note C_, 15
	vibrato_delay 29
	musicf2
	note F_, 14
	tie
	note F_, 15
	tie
	note F_, 14
	tie
	note F_, 15
	tie
	note F_, 14
	tie
	note F_, 15
	tie
	note F_, 14
	tie
	note F_, 15
	tie
	note F_, 14
	note F_, 15
	musicf3
	note D#, 14
	note D_, 15
	musicf2
	note C_, 7
	note C_, 7
	vibrato_delay 11
	note C_, 4
	tie
	frequency_offset 9
	note C_, 4
	tie
	note C#, 4
	tie
	frequency_offset 9
	note C#, 3
	tie
	frequency_offset 0
	note D_, 14
	note D_, 15
	dec_octave
	vibrato_delay 29
	note G_, 14
	tie
	note G_, 15
	tie
	note G_, 14
	tie
	note G_, 15
	tie
	note G_, 14
	tie
	note G_, 15
	tie
	note G_, 14
	tie
	note G_, 15
	tie
	note G_, 14
	note G_, 15
	tie
	note G_, 14
	musicf3
	note G_, 8
	note A_, 7
	note A#, 7
	inc_octave
	note C_, 7
	vibrato_delay 11
	note C_, 4
	tie
	frequency_offset 9
	note C_, 4
	tie
	frequency_offset 0
	note C#, 4
	tie
	frequency_offset 9
	note C#, 3
	tie
	frequency_offset 0
	note D_, 14
	vibrato_delay 0
	note C_, 15
	vibrato_delay 29
	musicf2
	note F_, 14
	tie
	note F_, 15
	tie
	note F_, 14
	tie
	note F_, 15
	tie
	note F_, 14
	tie
	note F_, 15
	tie
	note F_, 14
	tie
	note F_, 15
	tie
	note F_, 14
	note F_, 15
	musicf3
	note D#, 14
	note D_, 15
	musicf2
	note C_, 7
	note C_, 7
	vibrato_delay 11
	note C_, 4
	tie
	frequency_offset 9
	note C_, 4
	tie
	frequency_offset 19
	note C_, 4
	tie
	frequency_offset 28
	note C_, 3
	tie
	frequency_offset 0
	note C#, 4
	tie
	frequency_offset 9
	note C#, 3
	tie
	frequency_offset 19
	note C#, 4
	tie
	frequency_offset 28
	note C#, 3
	tie
	frequency_offset 0
	vibrato_delay 30
	note D_, 15
	tie
	note D_, 14
	tie
	note D_, 15
	tie
	note D_, 14
	tie
	note D_, 15
	tie
	note D_, 14
	tie
	note D_, 15
	tie
	note D_, 14
	tie
	note D_, 15
	tie
	note D_, 14
	tie
	note D_, 15
	tie
	note D_, 14
	note D_, 15
	tie
	note D_, 14
	preset 9
	musicf1 64
	musicf3
	Loop 2
	octave 1
	note G_, 15
	rest 7
	note G_, 4
	rest 11
	note G_, 4
	rest 3
	inc_octave
	note F_, 7
	musicf2
	note G_, 4
	note F_, 3
	dec_octave
	note G_, 2
	inc_octave
	note G_, 6
	inc_octave
	note F_, 4
	rest 3
	note F_, 4
	rest 3
	rest 4
	rest 3
	musicf1 32
	note F_, 4
	note F_, 11
	musicf3
	note F_, 7
	musicf1 64
	note G_, 4
	note F_, 3
	dec_octave
	dec_octave
	note G_, 4
	inc_octave
	inc_octave
	note G_, 4
	dec_octave
	note G_, 4
	note G_, 10
	dec_octave
	note G_, 4
	inc_octave
	note G_, 3
	inc_octave
	note G_, 4
	note G_, 4
	dec_octave
	dec_octave
	note G_, 4
	inc_octave
	inc_octave
	note G_, 3
	musicf3
	note F_, 7
	musicf2
	note G_, 4
	note F_, 3
	dec_octave
	dec_octave
	note G_, 4
	inc_octave
	inc_octave
	note G_, 4
	musicf1 96
	note G_, 4
	rest 3
	rest 4
	rest 3
	note G_, 4
	rest 3
	musicf3
	note B_, 4
	tie
	frequency_offset 7
	note B_, 4
	tie
	inc_octave
	frequency_offset 0
	note C_, 7
	dec_octave
	note A#, 14
	musicf1 64
	dec_octave
	dec_octave
	note G_, 15
	rest 7
	musicf3
	note G_, 4
	rest 3
	rest 8
	note G_, 4
	rest 3
	inc_octave
	note F_, 7
	musicf2
	note G_, 4
	note F_, 3
	dec_octave
	note G_, 2
	inc_octave
	note G_, 6
	inc_octave
	note F_, 4
	rest 3
	note F_, 4
	rest 10
	musicf1 32
	note F_, 4
	rest 4
	note F_, 4
	rest 3
	musicf3
	note F_, 7
	musicf1 64
	note G_, 4
	note F_, 3
	dec_octave
	dec_octave
	note G_, 4
	inc_octave
	inc_octave
	note G_, 4
	dec_octave
	musicf3
	note G_, 4
	rest 3
	dec_octave
	musicf2
	note G_, 1
	rest 2
	inc_octave
	note G_, 4
	dec_octave
	note G_, 4
	rest 3
	musicf3
	inc_octave
	inc_octave
	note G_, 4
	rest 4
	dec_octave
	dec_octave
	musicf2
	note G_, 4
	inc_octave
	inc_octave
	note G_, 3
	musicf3
	note F_, 7
	musicf2
	note G_, 4
	note F_, 3
	dec_octave
	dec_octave
	note G_, 4
	inc_octave
	inc_octave
	note G_, 4
	musicf3
	note C_, 4
	note C#, 3
	note C_, 7
	dec_octave
	note A#, 7
	inc_octave
	note C_, 8
	dec_octave
	note A#, 7
	note G_, 7
	note F_, 7
	EndLoop
	EndMainLoop


Music_Fort3_Ch1:
	speed 1
	rest 14
	MainLoop
	preset 9
	octave 3
	stereo_panning 15, 15
	vibrato_type 5
	vibrato_delay 60
	pitch_offset 251
	musicf1 87
	musicf3
	rest 15
	rest 14
	note C_, 4
	tie
	note C#, 4
	tie
	note D_, 14
	musicf2
	note C_, 7
	tie
	note C_, 15
	tie
	note C_, 14
	tie
	note C_, 15
	tie
	note C_, 14
	tie
	note C_, 15
	tie
	note C_, 14
	tie
	note C_, 15
	tie
	note C_, 14
	tie
	note C_, 15
	tie
	note C_, 14
	note C_, 15
	tie
	note C_, 14
	musicf3
	rest 15
	rest 14
	dec_octave
	note A#, 4
	tie
	inc_octave
	note C_, 4
	tie
	note C_, 14
	dec_octave
	musicf2
	note A#, 7
	tie
	note A#, 15
	tie
	note A#, 14
	tie
	note A#, 15
	tie
	note A#, 14
	tie
	note A#, 15
	tie
	note A#, 14
	tie
	note A#, 15
	tie
	note A#, 14
	tie
	note A#, 15
	tie
	note A#, 14
	note A#, 15
	tie
	note A#, 14
	inc_octave
	musicf3
	rest 15
	rest 14
	note C_, 4
	tie
	note C#, 4
	tie
	note D_, 14
	musicf2
	note C_, 7
	tie
	note C_, 15
	tie
	note C_, 14
	tie
	note C_, 15
	tie
	note C_, 14
	tie
	note C_, 15
	tie
	note C_, 14
	tie
	note C_, 15
	tie
	note C_, 14
	tie
	note C_, 15
	tie
	note C_, 14
	note C_, 15
	tie
	note C_, 14
	musicf3
	rest 15
	rest 14
	dec_octave
	note A#, 4
	tie
	inc_octave
	note C_, 4
	tie
	note C_, 14
	dec_octave
	note A#, 7
	tie
	note A#, 15
	tie
	note A#, 14
	tie
	note A#, 15
	tie
	note A#, 14
	tie
	note A#, 15
	tie
	note A#, 14
	tie
	note A#, 15
	tie
	note A#, 14
	musicef -4
	pitch_offset 0
	octave 2
	note A#, 8
	rest 7
	note A#, 7
	rest 7
	rest 8
	note A#, 7
	rest 7
	inc_octave
	note C_, 7
	musicef 4
	vibrato_type 5
	vibrato_delay 12
	octave 2
	Loop 2
	rest 15
	rest 14
	note G#, 4
	tie
	note A_, 4
	tie
	note A#, 7
	note A_, 14
	tie
	note A_, 8
	note A_, 4
	rest 3
	note C_, 7
	rest 7
	note F_, 15
	note G_, 7
	rest 7
	rest 15
	rest 4
	note F_, 5
	note A_, 5
	inc_octave
	note E_, 4
	note F_, 4
	tie
	note F_, 14
	tie
	note F_, 7
	rest 8
	dec_octave
	note A_, 7
	rest 14
	note A_, 4
	tie
	frequency_offset 17
	note A_, 4
	tie
	frequency_offset 0
	note A#, 7
	note A_, 7
	rest 7
	rest 15
	rest 14
	note A#, 4
	tie
	note B_, 4
	tie
	inc_octave
	note C_, 7
	dec_octave
	note A#, 14
	tie
	note A#, 8
	inc_octave
	note C_, 4
	rest 3
	rest 14
	dec_octave
	note F_, 15
	note G_, 7
	rest 7
	rest 15
	rest 4
	dec_octave
	note A#, 5
	inc_octave
	note D_, 5
	inc_octave
	note C#, 4
	note D_, 4
	tie
	note D_, 14
	tie
	note D_, 7
	rest 8
	dec_octave
	note A_, 7
	rest 14
	note B_, 4
	tie
	frequency_offset 15
	note B_, 4
	tie
	inc_octave
	frequency_offset 0
	note C_, 7
	dec_octave
	note A#, 7
	rest 7
	EndLoop
	rest 15
	rest 14
	note A#, 4
	tie
	note B_, 4
	tie
	inc_octave
	note C_, 7
	dec_octave
	note G#, 14
	tie
	note G#, 8
	inc_octave
	note G_, 4
	rest 3
	dec_octave
	note C_, 7
	rest 7
	note G_, 15
	note G#, 7
	rest 7
	rest 15
	rest 4
	inc_octave
	note C_, 5
	note D#, 5
	note A_, 4
	note A#, 4
	tie
	note A#, 14
	tie
	note A#, 7
	rest 8
	note F_, 7
	rest 14
	dec_octave
	note A_, 4
	tie
	frequency_offset 17
	note A_, 4
	tie
	frequency_offset 0
	note A#, 7
	note F_, 7
	rest 7
	rest 15
	rest 14
	note A#, 4
	tie
	note B_, 4
	tie
	inc_octave
	note C_, 7
	dec_octave
	note A#, 14
	tie
	note A#, 8
	inc_octave
	note D_, 4
	rest 3
	dec_octave
	note C_, 7
	rest 7
	note F_, 15
	note G_, 7
	rest 7
	rest 15
	rest 4
	dec_octave
	note A#, 5
	inc_octave
	note D_, 5
	inc_octave
	note C#, 4
	note D_, 4
	tie
	note D_, 14
	tie
	note D_, 7
	rest 8
	dec_octave
	note A_, 7
	rest 14
	note B_, 4
	tie
	frequency_offset 15
	note B_, 4
	tie
	inc_octave
	frequency_offset 0
	note C_, 7
	dec_octave
	note A#, 7
	rest 7
	rest 15
	rest 14
	note A#, 4
	tie
	note B_, 4
	tie
	inc_octave
	note C_, 7
	dec_octave
	note G#, 14
	tie
	note G#, 8
	inc_octave
	note G_, 4
	rest 3
	dec_octave
	note C_, 7
	rest 7
	note G_, 15
	note G#, 7
	rest 7
	rest 15
	rest 4
	inc_octave
	note C_, 5
	note D#, 5
	note A_, 4
	note A#, 4
	tie
	note A#, 14
	tie
	note A#, 7
	rest 8
	note F_, 7
	rest 14
	dec_octave
	note A_, 4
	tie
	frequency_offset 17
	note A_, 4
	tie
	frequency_offset 0
	note A#, 7
	note F_, 7
	rest 7
	rest 15
	rest 14
	inc_octave
	note C_, 4
	tie
	note C#, 4
	tie
	note D_, 7
	note C_, 14
	tie
	note C_, 8
	dec_octave
	note G_, 4
	rest 3
	rest 14
	inc_octave
	note D_, 15
	note G_, 3
	rest 11
	rest 8
	note G_, 4
	rest 3
	rest 14
	note G_, 4
	note G_, 4
	tie
	note G_, 7
	rest 7
	note G_, 4
	rest 3
	rest 8
	note A#, 4
	rest 3
	rest 14
	note A_, 4
	tie
	frequency_offset 9
	note A_, 4
	tie
	frequency_offset 0
	note A#, 7
	note F_, 7
	rest 7
	rest 15
	rest 14
	rest 15
	rest 14
	rest 8
	note C_, 4
	rest 3
	rest 14
	note C_, 4
	rest 4
	rest 7
	note C_, 7
	note D_, 4
	rest 3
	rest 8
	dec_octave
	dec_octave
	note G_, 4
	rest 3
	rest 14
	inc_octave
	inc_octave
	note D_, 4
	rest 11
	note C_, 7
	note D_, 4
	rest 3
	rest 8
	note C_, 4
	rest 3
	rest 14
	note F#, 4
	tie
	frequency_offset 10
	note F#, 4
	tie
	frequency_offset 0
	note G_, 7
	note F_, 14
	rest 15
	rest 14
	rest 15
	rest 14
	rest 8
	note C_, 4
	rest 3
	rest 14
	note C_, 4
	rest 11
	note C_, 7
	note D_, 4
	rest 3
	rest 8
	dec_octave
	dec_octave
	note G_, 4
	rest 3
	rest 14
	inc_octave
	inc_octave
	note D_, 4
	rest 11
	note C_, 7
	note D_, 4
	rest 3
	rest 8
	note F_, 14
	rest 7
	note F_, 8
	rest 7
	note C_, 7
	rest 7
	rest 15
	rest 14
	rest 15
	rest 14
	rest 8
	note C_, 4
	rest 3
	rest 14
	note C_, 4
	rest 11
	note C_, 7
	note D_, 4
	rest 3
	rest 8
	dec_octave
	dec_octave
	note G_, 4
	rest 3
	rest 14
	inc_octave
	inc_octave
	note D_, 4
	rest 11
	note C_, 7
	note D_, 4
	rest 3
	rest 8
	note C_, 4
	rest 3
	rest 14
	note F#, 4
	tie
	frequency_offset 10
	note F#, 4
	tie
	frequency_offset 0
	note G_, 7
	note F_, 14
	rest 15
	rest 14
	rest 15
	rest 14
	rest 8
	note C_, 4
	rest 3
	rest 14
	note C_, 4
	rest 11
	note C_, 7
	note D_, 4
	rest 3
	rest 8
	dec_octave
	dec_octave
	note G_, 4
	rest 3
	rest 14
	inc_octave
	inc_octave
	note D_, 4
	rest 11
	note C_, 7
	note D_, 4
	rest 3
	rest 8
	note F_, 14
	rest 7
	note F_, 8
	rest 7
	note C_, 7
	rest 7
	EndMainLoop


Music_Fort3_Ch3:
	speed 1
	wave 1
	stereo_panning 15, 15
	volume_envelope 2, 0
	echo 96
	pitch_offset 244
	octave 2
	note F_, 7
	note F#, 7
	MainLoop
	vibrato_type 5
	vibrato_delay 60
	octave 2
	note G_, 15
	inc_octave
	cutoff 4
	note D_, 14
	cutoff 8
	volume_envelope 4, 0
	note F_, 4
	tie
	note F#, 4
	tie
	note G_, 14
	note F_, 15
	tie
	note F_, 14
	tie
	note F_, 15
	tie
	note F_, 14
	tie
	note F_, 7
	tie
	note F_, 15
	tie
	note F_, 14
	tie
	note F_, 15
	tie
	note F_, 14
	tie
	note F_, 15
	tie
	note F_, 14
	volume_envelope 6, 0
	note F_, 15
	dec_octave
	volume_envelope 2, 0
	note F_, 7
	note F#, 7
	note G_, 15
	inc_octave
	cutoff 4
	note D_, 14
	cutoff 8
	volume_envelope 4, 0
	note D#, 4
	tie
	note E_, 4
	tie
	note F_, 14
	note D#, 14
	tie
	note D#, 15
	tie
	note D#, 14
	tie
	note D#, 15
	tie
	note D#, 7
	tie
	note D#, 15
	tie
	note D#, 14
	tie
	note D#, 15
	tie
	note D#, 14
	tie
	note D#, 15
	tie
	note D#, 14
	volume_envelope 6, 0
	note D#, 15
	dec_octave
	volume_envelope 2, 0
	note F_, 7
	note F#, 7
	note G_, 15
	inc_octave
	cutoff 4
	note D_, 14
	cutoff 8
	volume_envelope 4, 0
	note F_, 4
	tie
	note F#, 4
	tie
	note G_, 14
	note F_, 15
	tie
	note F_, 14
	tie
	note F_, 15
	tie
	note F_, 14
	tie
	note F_, 7
	tie
	note F_, 15
	tie
	note F_, 14
	tie
	note F_, 15
	tie
	note F_, 14
	tie
	note F_, 15
	tie
	note F_, 14
	volume_envelope 6, 0
	note F_, 15
	dec_octave
	volume_envelope 2, 0
	note F_, 7
	note F#, 7
	note G_, 15
	inc_octave
	cutoff 4
	note D_, 14
	cutoff 8
	volume_envelope 4, 0
	note D#, 4
	tie
	note E_, 4
	tie
	note F_, 14
	note D#, 14
	tie
	note D#, 15
	tie
	note D#, 14
	tie
	note D#, 15
	tie
	note D#, 7
	tie
	note D#, 15
	tie
	note D#, 14
	tie
	note D#, 15
	dec_octave
	volume_envelope 2, 0
	note F_, 7
	cutoff 3
	note G_, 15
	cutoff 8
	inc_octave
	note C#, 7
	note C_, 7
	dec_octave
	note A#, 7
	inc_octave
	note C_, 8
	dec_octave
	note A#, 7
	note F_, 7
	note F#, 7
	Loop 2
	note G_, 15
	inc_octave
	note D_, 7
	rest 7
	music_call Branch_1ef06a
	note F_, 4
	tie
	note F#, 4
	tie
	note G_, 7
	note F_, 14
	music_call Branch_1ef06f
	dec_octave
	note G_, 1
	rest 7
	inc_octave
	music_call Branch_1ef06a
	note F_, 4
	rest 3
	music_call Branch_1ef06f
	dec_octave
	note D_, 14
	note F_, 15
	note G_, 7
	rest 7
	inc_octave
	note D_, 1
	rest 7
	dec_octave
	note G_, 1
	rest 6
	note G_, 3
	rest 11
	inc_octave
	inc_octave
	music_call Branch_1ef06a
	note C_, 15
	tie
	note C_, 14
	music_call Branch_1ef06f
	dec_octave
	dec_octave
	note G_, 4
	rest 4
	inc_octave
	music_call Branch_1ef06a
	note F_, 7
	music_call Branch_1ef06f
	dec_octave
	note D_, 14
	note F_, 15
	note F#, 7
	rest 7
	note G_, 15
	inc_octave
	note D_, 7
	rest 7
	music_call Branch_1ef06a
	note F_, 4
	tie
	note F#, 4
	tie
	note G_, 7
	note F_, 14
	music_call Branch_1ef06f
	dec_octave
	note G_, 1
	rest 7
	music_call Branch_1ef06a
	inc_octave
	note A_, 4
	rest 3
	music_call Branch_1ef06f
	dec_octave
	note D_, 14
	note F_, 15
	note G_, 7
	rest 7
	inc_octave
	note D_, 1
	rest 7
	dec_octave
	note G_, 1
	rest 6
	note G_, 3
	rest 11
	inc_octave
	music_call Branch_1ef06a
	note A_, 15
	tie
	note A_, 14
	music_call Branch_1ef06f
	dec_octave
	note G_, 4
	rest 4
	inc_octave
	music_call Branch_1ef06a
	note F_, 7
	music_call Branch_1ef06f
	note D_, 7
	dec_octave
	note D_, 4
	rest 3
	note F_, 15
	note G_, 3
	rest 11
	EndLoop
	note G#, 15
	inc_octave
	note D#, 7
	rest 7
	music_call Branch_1ef06a
	note F#, 4
	tie
	note G_, 4
	tie
	note G#, 7
	music_call Branch_1ef06f
	inc_octave
	note C_, 14
	dec_octave
	dec_octave
	note G#, 1
	rest 7
	inc_octave
	inc_octave
	music_call Branch_1ef06a
	note D#, 4
	rest 3
	music_call Branch_1ef06f
	dec_octave
	dec_octave
	note D#, 14
	note A#, 15
	note G#, 7
	rest 7
	note G#, 1
	rest 7
	note D#, 1
	rest 6
	inc_octave
	note D#, 3
	rest 11
	inc_octave
	music_call Branch_1ef06a
	note G_, 15
	tie
	note G_, 14
	music_call Branch_1ef06f
	dec_octave
	dec_octave
	note G#, 4
	rest 4
	inc_octave
	inc_octave
	music_call Branch_1ef06a
	note D_, 7
	music_call Branch_1ef06f
	dec_octave
	note D#, 14
	dec_octave
	note A#, 15
	note F_, 7
	rest 7
	note G_, 15
	inc_octave
	note D_, 7
	rest 7
	music_call Branch_1ef06a
	note F_, 4
	tie
	note F#, 4
	tie
	note G_, 7
	note F_, 14
	music_call Branch_1ef06f
	dec_octave
	note G_, 1
	rest 7
	inc_octave
	music_call Branch_1ef06a
	note A_, 4
	rest 3
	music_call Branch_1ef06f
	dec_octave
	note D_, 14
	note F_, 15
	note G_, 7
	rest 7
	inc_octave
	note D_, 1
	rest 7
	dec_octave
	note G_, 1
	rest 6
	note G_, 3
	rest 11
	inc_octave
	music_call Branch_1ef06a
	note A_, 15
	tie
	note A_, 14
	music_call Branch_1ef06f
	dec_octave
	note G_, 4
	rest 4
	inc_octave
	music_call Branch_1ef06a
	note F_, 7
	music_call Branch_1ef06f
	note D_, 7
	dec_octave
	note D_, 4
	rest 3
	note F_, 15
	note G_, 3
	rest 11
	note G#, 15
	inc_octave
	note D#, 7
	rest 7
	music_call Branch_1ef06a
	note F#, 4
	tie
	note G_, 4
	tie
	note G#, 7
	music_call Branch_1ef06f
	inc_octave
	note C_, 14
	dec_octave
	dec_octave
	note G#, 1
	rest 7
	inc_octave
	inc_octave
	music_call Branch_1ef06a
	note D#, 4
	rest 3
	music_call Branch_1ef06f
	dec_octave
	dec_octave
	note D#, 14
	note A#, 15
	note G#, 7
	rest 7
	note G#, 1
	rest 7
	note D#, 1
	rest 6
	inc_octave
	note D#, 3
	rest 11
	inc_octave
	music_call Branch_1ef06a
	note G_, 15
	tie
	note G_, 14
	music_call Branch_1ef06f
	dec_octave
	dec_octave
	note G#, 4
	rest 4
	inc_octave
	inc_octave
	music_call Branch_1ef06a
	note D_, 7
	music_call Branch_1ef06f
	dec_octave
	note D#, 14
	dec_octave
	note A#, 15
	note F_, 7
	rest 7
	note A_, 15
	inc_octave
	note E_, 7
	rest 7
	music_call Branch_1ef06a
	note A#, 4
	tie
	note B_, 4
	tie
	inc_octave
	note C_, 7
	dec_octave
	note G_, 14
	music_call Branch_1ef06f
	dec_octave
	note A_, 1
	rest 7
	inc_octave
	music_call Branch_1ef06a
	note D_, 4
	rest 3
	music_call Branch_1ef06f
	dec_octave
	note E_, 7
	rest 7
	note A_, 15
	note G_, 7
	note C#, 4
	rest 3
	note D_, 8
	inc_octave
	inc_octave
	music_call Branch_1ef06a
	note C_, 4
	rest 3
	music_call Branch_1ef06f
	dec_octave
	note D_, 4
	rest 3
	dec_octave
	note C_, 4
	rest 3
	inc_octave
	inc_octave
	music_call Branch_1ef06a
	note C_, 15
	music_call Branch_1ef06f
	dec_octave
	dec_octave
	note D_, 1
	rest 6
	inc_octave
	inc_octave
	music_call Branch_1ef06a
	note C_, 4
	rest 3
	music_call Branch_1ef06f
	dec_octave
	dec_octave
	note D_, 4
	rest 4
	inc_octave
	inc_octave
	music_call Branch_1ef06a
	note F_, 4
	rest 3
	music_call Branch_1ef06f
	dec_octave
	note C_, 4
	rest 3
	note C#, 4
	rest 3
	inc_octave
	note E_, 4
	tie
	frequency_offset 12
	note E_, 4
	tie
	frequency_offset 0
	note F_, 7
	music_call Branch_1ef06f
	dec_octave
	dec_octave
	note D_, 14
	music_call Branch_1ef040
	octave 1
	note G_, 3
	rest 12
	inc_octave
	cutoff 2
	note G_, 7
	cutoff 8
	dec_octave
	note G_, 3
	rest 12
	note G_, 4
	rest 3
	inc_octave
	note F_, 7
	cutoff 4
	note G_, 7
	cutoff 8
	dec_octave
	note G_, 3
	rest 12
	inc_octave
	inc_octave
	cutoff 3
	note D_, 7
	cutoff 8
	dec_octave
	note D_, 4
	rest 3
	inc_octave
	cutoff 4
	note F_, 8
	note F#, 7
	cutoff 2
	note G_, 14
	cutoff 8
	music_call Branch_1ef040
	octave 1
	note G_, 3
	rest 16
	rest 3
	note G_, 4
	rest 3
	rest 8
	note G_, 4
	rest 3
	inc_octave
	note F_, 7
	cutoff 4
	note G_, 7
	cutoff 8
	dec_octave
	note G_, 3
	rest 12
	inc_octave
	inc_octave
	cutoff 4
	note D_, 7
	cutoff 8
	dec_octave
	note D_, 4
	rest 3
	inc_octave
	cutoff 4
	note F_, 8
	note F#, 7
	cutoff 2
	note G_, 14
	cutoff 8
	music_call Branch_1ef040
	octave 1
	note G_, 3
	rest 12
	inc_octave
	cutoff 2
	note G_, 7
	cutoff 8
	dec_octave
	note G_, 3
	rest 12
	note G_, 4
	rest 3
	inc_octave
	note F_, 7
	cutoff 4
	note G_, 7
	cutoff 8
	dec_octave
	note G_, 3
	rest 12
	inc_octave
	inc_octave
	cutoff 4
	note D_, 7
	cutoff 8
	dec_octave
	note D_, 4
	rest 3
	inc_octave
	cutoff 4
	note F_, 8
	note F#, 7
	cutoff 2
	note G_, 14
	music_call Branch_1ef040
	octave 1
	note G_, 3
	rest 12
	inc_octave
	cutoff 2
	note G_, 7
	cutoff 8
	dec_octave
	note G_, 3
	rest 12
	note G_, 4
	rest 3
	inc_octave
	note F_, 7
	cutoff 4
	note G_, 7
	cutoff 8
	dec_octave
	note G_, 4
	rest 4
	inc_octave
	note C_, 7
	note C#, 7
	note D_, 7
	note F_, 8
	note D_, 7
	note F_, 7
	note F#, 7
	EndMainLoop

Branch_1ef040:
	octave 1
	note G_, 15
	rest 7
	note G_, 4
	rest 3
	inc_octave
	cutoff 2
	note G_, 8
	cutoff 8
	dec_octave
	note G_, 4
	rest 3
	inc_octave
	note F_, 7
	cutoff 4
	note G_, 7
	cutoff 8
	dec_octave
	note G_, 2
	rest 6
	inc_octave
	inc_octave
	cutoff 4
	note A#, 7
	note D_, 7
	cutoff 8
	dec_octave
	note D_, 4
	rest 3
	note F_, 4
	rest 4
	note F#, 4
	rest 3
	note G_, 3
	rest 11
	music_ret

Branch_1ef06a:
	volume_envelope 2, 0
	vibrato_delay 12
	music_ret

Branch_1ef06f:
	volume_envelope 2, 0
	vibrato_delay 0
	music_ret


Music_Fort3_Ch4:
	speed 1
	octave 1
	stereo_panning 15, 15
	rest 14
	MainLoop
	bass 15
	snare3 7
	snare3 7
	snare3 15
	snare4 14
	snare3 8
	noise2 7
	bass 7
	snare3 7
	snare4 15
	noisea 7
	snare3 4
	snare3 3
	bass 8
	snare1 7
	snare4 14
	noisea 8
	snare3 7
	snare3 7
	snare1 7
	snare3 8
	bass 7
	snare3 4
	snare3 5
	snare3 5
	snare2 15
	snare4 14
	bass 15
	snare3 7
	snare3 7
	snare3 15
	snare4 14
	snare3 8
	noise2 7
	bass 7
	snare3 7
	snare4 15
	noisea 7
	snare3 4
	snare3 3
	bass 8
	snare1 7
	snare4 14
	noisea 8
	snare3 7
	snare3 7
	snare1 7
	snare3 8
	bass 7
	snare3 4
	snare3 5
	snare3 5
	snare2 15
	noisea 14
	bass 15
	snare3 7
	snare3 7
	snare3 15
	snare4 14
	snare3 8
	noise2 7
	bass 7
	snare3 7
	snare4 15
	noisea 7
	snare3 4
	snare3 3
	bass 8
	snare1 7
	snare4 14
	noisea 8
	snare3 7
	snare3 7
	snare1 7
	snare3 8
	bass 7
	snare3 4
	snare3 5
	snare3 5
	snare2 15
	snare4 14
	bass 15
	snare3 7
	snare3 7
	snare3 15
	snare4 14
	snare3 8
	noise2 7
	bass 7
	snare3 7
	snare4 15
	noisea 7
	snare3 4
	snare3 3
	bass 8
	snare1 7
	snare4 14
	noisea 8
	snare3 7
	snare3 7
	snare1 7
	snare3 8
	bass 7
	snare3 7
	snare2 4
	snare2 3
	snare2 8
	snare2 14
	snare2 7
	music_call Branch_1ef1de
	bass 8
	snare1 7
	snare4 14
	noisea 8
	snare3 7
	snare3 7
	snare1 7
	snare3 8
	bass 7
	snare3 4
	snare3 5
	snare3 5
	snare2 15
	snare4 14
	music_call Branch_1ef1de
	bass 8
	snare1 7
	snare4 14
	noisea 8
	snare3 7
	snare3 7
	snare1 7
	snare3 8
	bass 7
	snare3 4
	snare3 5
	snare3 5
	snare2 15
	snare3 4
	snare3 5
	snare3 5
	music_call Branch_1ef1de
	bass 8
	snare1 7
	snare4 14
	noisea 8
	snare3 7
	snare3 7
	snare1 7
	snare3 8
	bass 7
	snare3 4
	snare3 5
	snare3 5
	snare2 15
	snare4 14
	music_call Branch_1ef1de
	bass 8
	snare1 7
	snare4 14
	noisea 8
	snare3 7
	snare3 7
	snare1 7
	snare3 8
	bass 7
	snare3 4
	snare3 5
	snare3 5
	noisea 15
	snare2 14
	music_call Branch_1ef1de
	bass 8
	snare1 7
	snare4 14
	noisea 8
	snare3 7
	snare3 7
	snare1 7
	snare3 8
	bass 7
	snare3 4
	snare3 5
	snare3 5
	snare2 15
	snare4 14
	music_call Branch_1ef1de
	bass 8
	snare1 7
	snare4 14
	noisea 8
	snare3 7
	snare3 7
	snare1 7
	snare3 8
	bass 7
	snare3 4
	snare3 5
	snare3 5
	snare2 15
	snare3 4
	snare3 5
	snare3 5
	music_call Branch_1ef1de
	bass 8
	snare1 7
	snare4 14
	noisea 8
	snare3 7
	snare3 7
	snare1 7
	snare3 8
	bass 7
	snare3 4
	snare3 5
	snare3 5
	snare2 15
	snare4 14
	music_call Branch_1ef1de
	bass 8
	snare1 7
	snare4 14
	noisea 8
	snare3 7
	snare3 7
	snare1 7
	snare3 8
	bass 7
	snare3 4
	snare3 5
	snare3 5
	snare2 8
	snare2 14
	snare2 7
	bass 15
	snare3 7
	snare3 7
	snare3 15
	snare1 14
	snare3 15
	bass 7
	snare3 7
	snare3 15
	noisea 14
	bass 8
	snare1 7
	snare4 14
	noisea 8
	snare3 7
	snare3 7
	snare1 7
	snare3 8
	bass 7
	snare3 4
	snare3 5
	snare3 5
	snare2 15
	snare4 14
	bass 15
	snare3 7
	snare3 7
	snare3 15
	snare1 14
	snare3 15
	bass 7
	snare3 7
	snare3 15
	noisea 14
	bass 8
	snare1 7
	snare4 14
	noisea 8
	snare3 7
	snare3 7
	snare1 7
	snare3 7
	bass 8
	snare3 4
	snare3 5
	snare3 5
	snare2 15
	snare2 14
	bass 15
	snare3 7
	snare3 7
	snare3 15
	snare1 14
	snare3 15
	bass 7
	snare3 7
	snare3 15
	noisea 14
	bass 8
	snare1 7
	snare4 14
	noisea 8
	snare3 7
	snare3 7
	snare1 7
	snare3 8
	bass 7
	snare3 4
	snare3 5
	snare3 5
	snare2 15
	snare4 14
	bass 15
	snare3 7
	snare3 7
	snare3 15
	snare1 14
	snare3 15
	bass 7
	snare3 7
	snare3 15
	noisea 14
	bass 8
	snare1 7
	snare4 14
	noisea 8
	snare3 7
	snare3 7
	snare2 7
	snare3 8
	musicef -6
	snare1 4
	musicef -4
	snare1 3
	musicef 0
	snare1 7
	snare1 7
	snare1 8
	snare1 7
	snare1 7
	snare1 7
	EndMainLoop

Branch_1ef1de:
	octave 1
	speed 1
	bass 15
	snare3 7
	snare3 7
	snare3 15
	snare4 14
	snare3 15
	bass 7
	snare3 7
	snare3 15
	noisea 14
	music_ret
