Music_Fort4_Ch2: ; 1f16cc (7c:56cc)
	musicf0 22
	speed 1
	musicdc 255
	octave 2
	C_ 16
	MainLoop
	musicf0 9
	speed 1
	musicdc 255
	musicef 255
	musicf1 71
	octave 2
	speed 4
	musice8 7
	musicf2
	Loop 4
	D_ 1
	D_ 3
	rest 4
	inc_octave
	E_ 1
	rest 1
	E_ 1
	rest 1
	dec_octave
	D_ 1
	D_ 3
	rest 4
	G# 1
	rest 1
	G# 1
	rest 1
	rest 4
	C_ 1
	C_ 3
	EndLoop
	duty 1
	octave 3
	musice8 8
	speed 8
	musicf1 103
	musicf3
	volume 30
	E_ 14
	volume 176
	vibrato_type 5
	vibrato_delay 1
	musicf2
	E_ 2
	tie
	E_ 6
	E_ 2
	musicf3
	D_ 2
	E_ 2
	F_ 2
	G_ 2
	musicf2
	E_ 4
	E_ 2
	musicf3
	volume 29
	D_ 10
	volume 176
	musicf2
	D_ 14
	D_ 2
	musicf3
	volume 176
	D_ 4
	D_ 2
	musicf3
	volume 30
	G_ 10
	volume 176
	musicf2
	G_ 6
	G_ 2
	musicf3
	F_ 3
	C_ 3
	F_ 2
	vibrato_delay 40
	speed 1
	E_ 4
	speed 8
	speed 1
	F_ 4
	speed 8
	musicf2
	E_ 5
	tie
	E_ 10
	tie
	E_ 12
	E_ 4
	musicf3
	volume 30
	E_ 14
	volume 176
	vibrato_type 5
	vibrato_delay 1
	musicf2
	E_ 2
	tie
	E_ 6
	E_ 2
	musicf3
	D_ 2
	E_ 2
	F_ 2
	G_ 2
	musicf2
	A_ 4
	A_ 2
	musicf3
	volume 29
	G_ 10
	volume 176
	musicf2
	G_ 14
	G_ 2
	musicf3
	vibrato_delay 0
	volume 28
	musicf2
	A_ 4
	A_ 2
	volume 176
	musicf3
	G_ 6
	musicf2
	D_ 2
	D_ 2
	volume 28
	G_ 6
	G_ 2
	musicf3
	F_ 4
	volume 176
	G_ 3
	speed 4
	F_ 1
	G_ 1
	speed 8
	vibrato_delay 0
	volume 29
	F_ 7
	volume 176
	vibrato_delay 1
	F_ 8
	vibrato_delay 0
	speed 4
	E_ 1
	F_ 1
	speed 8
	vibrato_delay 48
	E_ 8
	volume 27
	F_ 4
	volume 176
	G_ 4
	volume 29
	A_ 6
	volume 176
	A_ 2
	volume 29
	G_ 6
	volume 176
	G_ 2
	volume 29
	inc_octave
	C_ 6
	volume 176
	C_ 2
	dec_octave
	volume 29
	G_ 6
	volume 176
	G_ 2
	volume 192
	musicf2
	A_ 1
	A_ 1
	rest 2
	musicf3
	musicf0 9
	speed 1
	musicdc 255
	octave 3
	musicf1 96
	speed 4
	musice8 7
	musicf2
	E_ 1
	rest 1
	E_ 1
	rest 1
	dec_octave
	D_ 1
	D_ 3
	rest 4
	G# 1
	rest 1
	G# 1
	rest 1
	rest 4
	C_ 1
	C_ 3
	Loop 3
	D_ 1
	D_ 3
	rest 4
	inc_octave
	E_ 1
	rest 1
	E_ 1
	rest 1
	dec_octave
	D_ 1
	D_ 3
	rest 4
	G# 1
	rest 1
	G# 1
	rest 1
	rest 4
	C_ 1
	C_ 3
	EndLoop
	duty 1
	octave 3
	musice8 8
	vibrato_delay 0
	speed 8
	musicf1 103
	musicf3
	Loop 2
	volume 29
	A_ 6
	volume 176
	A_ 2
	volume 29
	G_ 6
	volume 176
	G_ 2
	volume 29
	inc_octave
	C_ 6
	volume 176
	C_ 2
	dec_octave
	volume 29
	G_ 6
	volume 176
	G_ 2
	EndLoop
	volume 128
	speed 1
	A_ 4
	speed 8
	speed 1
	volume 144
	A# 4
	speed 8
	vibrato_delay 40
	volume 128
	A_ 15
	A_ 16
	tie
	A_ 16
	tie
	A_ 8
	A_ 1
	dec_octave
	speed 1
	volume 192
	musicf1 102
	musicf3
	A# 8
	inc_octave
	musicf2
	C# 5
	C# 3
	E_ 5
	E_ 3
	G_ 5
	G_ 3
	A# 5
	A# 3
	inc_octave
	C# 5
	C# 3
	E_ 5
	E_ 3
	musicf3
	EndMainLoop


Music_Fort4_Ch1: ; 1f1852 (7c:5852)
	volume 241
	duty 2
	musicee 28
	musicdc 255
	vibrato_delay 0
	speed 1
	octave 3
	musicef 250
	G_ 5
	musicef 2
	G_ 5
	musicef 4
	G_ 6
	speed 8
	G_ 4
	musicee 0
	rest 12
	MainLoop
	musicee 0
	speed 8
	rest 16
	rest 16
	rest 16
	musicf0 23
	musicf1 23
	speed 4
	octave 4
	musicf3
	rest 1
	rest 1
	A_ 1
	rest 1
	musicf2
	inc_octave
	D_ 1
	dec_octave
	A_ 1
	A_ 1
	inc_octave
	D_ 1
	E_ 1
	dec_octave
	A_ 1
	A_ 1
	inc_octave
	E_ 1
	A_ 1
	dec_octave
	A_ 1
	A_ 1
	musicf3
	musicf0 24
	inc_octave
	A_ 1
	rest 1
	dec_octave
	A_ 1
	musicf0 23
	A_ 1
	rest 1
	musicf2
	inc_octave
	D_ 1
	dec_octave
	A_ 1
	A_ 1
	inc_octave
	D_ 1
	E_ 1
	dec_octave
	A_ 1
	A_ 1
	inc_octave
	E_ 1
	A_ 1
	dec_octave
	A_ 1
	A_ 1
	inc_octave
	musicf3
	musicf0 24
	A_ 1
	rest 1
	dec_octave
	A_ 1
	musicf0 23
	A_ 1
	rest 1
	musicf2
	inc_octave
	D_ 1
	dec_octave
	A_ 1
	A_ 1
	inc_octave
	D_ 1
	E_ 1
	dec_octave
	A_ 1
	A_ 1
	inc_octave
	E_ 1
	A_ 1
	dec_octave
	A_ 1
	A_ 1
	musicf3
	musicf0 24
	inc_octave
	A_ 1
	rest 1
	dec_octave
	A_ 1
	musicf0 23
	A_ 1
	rest 1
	musicf2
	inc_octave
	D_ 1
	dec_octave
	A_ 1
	A_ 1
	inc_octave
	D_ 1
	E_ 1
	dec_octave
	A_ 1
	A_ 1
	inc_octave
	E_ 1
	A_ 1
	dec_octave
	A_ 1
	A_ 1
	inc_octave
	musicf3
	musicf0 24
	A_ 1
	rest 1
	dec_octave
	A_ 1
	musicf0 23
	G# 1
	rest 1
	musicf2
	inc_octave
	D_ 1
	dec_octave
	G# 1
	B_ 1
	inc_octave
	D_ 1
	F_ 1
	dec_octave
	B_ 1
	inc_octave
	D_ 1
	F_ 1
	G# 1
	D_ 1
	F_ 1
	musicf3
	musicf0 24
	G# 1
	rest 1
	F_ 1
	dec_octave
	musicf0 23
	G# 1
	rest 1
	musicf2
	inc_octave
	D_ 1
	dec_octave
	G# 1
	B_ 1
	inc_octave
	D_ 1
	F_ 1
	dec_octave
	B_ 1
	inc_octave
	D_ 1
	F_ 1
	G# 1
	D_ 1
	F_ 1
	musicf3
	musicf0 24
	G# 1
	rest 1
	F_ 1
	dec_octave
	musicf0 23
	G# 1
	rest 1
	musicf2
	inc_octave
	D_ 1
	dec_octave
	G# 1
	B_ 1
	inc_octave
	D_ 1
	F_ 1
	dec_octave
	B_ 1
	inc_octave
	D_ 1
	F_ 1
	G# 1
	D_ 1
	F_ 1
	musicf3
	musicf0 24
	G# 1
	rest 1
	F_ 1
	dec_octave
	musicf0 23
	G# 1
	rest 1
	musicf2
	inc_octave
	D_ 1
	dec_octave
	G# 1
	B_ 1
	inc_octave
	D_ 1
	F_ 1
	dec_octave
	B_ 1
	inc_octave
	D_ 1
	F_ 1
	G# 1
	D_ 1
	F_ 1
	musicf3
	musicf0 24
	G# 1
	Loop 2
	rest 1
	F_ 1
	dec_octave
	musicf0 23
	G_ 1
	rest 1
	musicf2
	inc_octave
	D# 1
	dec_octave
	G_ 1
	A# 1
	inc_octave
	D# 1
	F_ 1
	dec_octave
	A# 1
	inc_octave
	D# 1
	F_ 1
	A# 1
	D# 1
	F_ 1
	musicf3
	musicf0 24
	A# 1
	rest 1
	F_ 1
	musicf0 23
	dec_octave
	G_ 1
	rest 1
	musicf2
	inc_octave
	D# 1
	dec_octave
	G_ 1
	A# 1
	inc_octave
	D# 1
	F_ 1
	dec_octave
	A# 1
	inc_octave
	D# 1
	F_ 1
	A# 1
	D# 1
	F_ 1
	musicf3
	musicf0 24
	A# 1
	EndLoop
	rest 1
	F_ 1
	dec_octave
	musicf0 23
	A_ 1
	rest 1
	musicf2
	inc_octave
	D_ 1
	dec_octave
	A_ 1
	A_ 1
	inc_octave
	D_ 1
	E_ 1
	dec_octave
	A_ 1
	A_ 1
	inc_octave
	E_ 1
	A_ 1
	dec_octave
	A_ 1
	A_ 1
	musicf3
	musicf0 24
	inc_octave
	A_ 1
	rest 1
	dec_octave
	A_ 1
	musicf0 23
	A_ 1
	rest 1
	musicf2
	inc_octave
	D_ 1
	dec_octave
	A_ 1
	A_ 1
	inc_octave
	D_ 1
	E_ 1
	dec_octave
	A_ 1
	A_ 1
	inc_octave
	E_ 1
	A_ 1
	dec_octave
	A_ 1
	A_ 1
	inc_octave
	musicf3
	musicf0 24
	A_ 1
	Loop 3
	rest 1
	dec_octave
	A_ 1
	musicf0 23
	A_ 1
	rest 1
	musicf2
	inc_octave
	D_ 1
	dec_octave
	A_ 1
	A_ 1
	inc_octave
	D_ 1
	E_ 1
	dec_octave
	A_ 1
	A_ 1
	inc_octave
	E_ 1
	A_ 1
	dec_octave
	A_ 1
	A_ 1
	inc_octave
	musicf3
	musicf0 24
	A_ 1
	rest 1
	dec_octave
	A_ 1
	musicf0 23
	A_ 1
	rest 1
	musicf2
	inc_octave
	D_ 1
	dec_octave
	A_ 1
	A_ 1
	inc_octave
	D_ 1
	E_ 1
	dec_octave
	A_ 1
	A_ 1
	inc_octave
	E_ 1
	A_ 1
	dec_octave
	A_ 1
	A_ 1
	inc_octave
	musicf3
	musicf0 24
	A_ 1
	EndLoop
	rest 1
	dec_octave
	A_ 1
	musicf0 23
	G_ 1
	rest 1
	musicf2
	inc_octave
	D# 1
	dec_octave
	G_ 1
	A# 1
	inc_octave
	D# 1
	F_ 1
	dec_octave
	A# 1
	inc_octave
	D# 1
	F_ 1
	A# 1
	D# 1
	F_ 1
	musicf3
	musicf0 24
	A# 1
	rest 1
	F_ 1
	musicf0 23
	dec_octave
	G_ 1
	rest 1
	musicf2
	inc_octave
	D# 1
	dec_octave
	G_ 1
	A# 1
	inc_octave
	D# 1
	F_ 1
	dec_octave
	A# 1
	inc_octave
	D# 1
	F_ 1
	A# 1
	D# 1
	F_ 1
	musicf3
	musicf0 24
	A# 1
	rest 1
	F_ 1
	dec_octave
	musicf0 23
	G_ 1
	rest 1
	musicf2
	inc_octave
	D# 1
	dec_octave
	G_ 1
	A# 1
	inc_octave
	D# 1
	F_ 1
	dec_octave
	A# 1
	inc_octave
	D# 1
	F_ 1
	A# 1
	D# 1
	F_ 1
	musicf3
	musicf0 24
	A# 1
	rest 1
	F_ 1
	musicf0 23
	dec_octave
	G_ 1
	rest 1
	musicf2
	inc_octave
	D# 1
	dec_octave
	G_ 1
	A# 1
	inc_octave
	D# 1
	F_ 1
	dec_octave
	A# 1
	inc_octave
	D# 1
	F_ 1
	A# 1
	D# 1
	F_ 1
	musicf3
	musicf0 24
	A# 1
	Loop 2
	rest 1
	F_ 1
	dec_octave
	musicf0 23
	B_ 1
	rest 1
	musicf2
	inc_octave
	D_ 1
	dec_octave
	B_ 1
	B_ 1
	inc_octave
	D_ 1
	F_ 1
	dec_octave
	B_ 1
	inc_octave
	D_ 1
	F_ 1
	A_ 1
	D_ 1
	F_ 1
	musicf3
	musicf0 24
	A_ 1
	rest 1
	F_ 1
	musicf0 23
	dec_octave
	B_ 1
	rest 1
	musicf2
	inc_octave
	D_ 1
	dec_octave
	B_ 1
	B_ 1
	inc_octave
	D_ 1
	F_ 1
	dec_octave
	B_ 1
	inc_octave
	D_ 1
	F_ 1
	A_ 1
	D_ 1
	F_ 1
	musicf3
	musicf0 24
	A_ 1
	EndLoop
	rest 1
	F_ 1
	dec_octave
	musicf0 23
	A# 1
	rest 1
	musicf2
	inc_octave
	C# 1
	dec_octave
	A# 1
	A# 1
	inc_octave
	C# 1
	F_ 1
	dec_octave
	A# 1
	inc_octave
	C# 1
	F_ 1
	A_ 1
	C# 1
	F_ 1
	musicf3
	musicf0 24
	A_ 1
	rest 1
	F_ 1
	musicf0 23
	dec_octave
	A# 1
	rest 1
	musicf2
	inc_octave
	C# 1
	dec_octave
	A# 1
	A# 1
	inc_octave
	C# 1
	F_ 1
	dec_octave
	A# 1
	inc_octave
	C# 1
	F_ 1
	A_ 1
	C# 1
	F_ 1
	musicf3
	musicf0 24
	A_ 1
	rest 1
	F_ 1
	dec_octave
	musicf0 23
	A_ 1
	rest 1
	musicf2
	inc_octave
	C# 1
	dec_octave
	A_ 1
	A_ 1
	inc_octave
	C# 1
	F_ 1
	dec_octave
	A_ 1
	inc_octave
	C# 1
	F_ 1
	A_ 1
	C# 1
	F_ 1
	musicf3
	musicf0 24
	A_ 1
	rest 1
	F_ 1
	musicf0 23
	dec_octave
	A_ 1
	rest 1
	musicf2
	inc_octave
	C# 1
	dec_octave
	A_ 1
	A_ 1
	inc_octave
	C# 1
	F_ 1
	dec_octave
	A_ 1
	inc_octave
	C# 1
	F_ 1
	A_ 1
	C# 1
	F_ 1
	musicf3
	musicf0 24
	A_ 1
	duty 1
	octave 3
	musice8 8
	speed 8
	musicf1 103
	musicf3
	octave 3
	volume 29
	F_ 6
	volume 176
	F_ 2
	volume 29
	D_ 6
	volume 176
	D_ 2
	volume 29
	G_ 6
	volume 176
	G_ 2
	volume 29
	D_ 6
	volume 176
	D_ 2
	volume 192
	musicf2
	E_ 1
	E_ 1
	rest 1
	musicf3
	volume 241
	duty 2
	musicee 28
	musicdc 255
	vibrato_delay 0
	speed 1
	octave 3
	musicef 250
	G_ 4
	musicef 2
	G_ 4
	musicef 4
	speed 8
	G_ 4
	rest 4
	inc_octave
	C_ 4
	dec_octave
	Loop 3
	speed 8
	rest 3
	speed 1
	octave 3
	musicef 250
	G_ 4
	musicef 2
	G_ 4
	musicef 4
	speed 8
	G_ 4
	inc_octave
	rest 4
	C_ 4
	dec_octave
	EndLoop
	musicee 0
	duty 1
	octave 3
	musice8 8
	speed 8
	musicf1 103
	musicf3
	octave 3
	volume 29
	D# 6
	volume 176
	D# 2
	volume 29
	C# 6
	volume 176
	C# 2
	volume 29
	G_ 6
	volume 176
	G_ 2
	volume 29
	C# 6
	music_call Branch_1f1c7c
	duty 1
	octave 3
	musice8 8
	speed 8
	musicf1 103
	musicf3
	octave 3
	volume 29
	E_ 6
	volume 176
	E_ 2
	volume 29
	D_ 6
	volume 176
	D_ 2
	volume 29
	G_ 6
	volume 176
	G_ 2
	volume 29
	D_ 6
	volume 176
	D_ 2
	musicee 0
	musicf0 4
	octave 3
	musicf1 80
	musicf3
	speed 1
	E_ 4
	F_ 4
	speed 8
	E_ 5
	music_call Branch_1f1c69
	musicf0 4
	octave 3
	musicf1 80
	musicf3
	musicef 252
	E_ 2
	musicef 4
	musicf2
	D_ 1
	D_ 1
	musicf3
	music_call Branch_1f1c97
	musicf0 4
	octave 3
	musicf1 80
	E_ 1
	E_ 2
	musicf3
	F_ 6
	music_call Branch_1f1c69
	musicf0 4
	octave 3
	musicf1 87
	musicf3
	musicef 252
	F_ 2
	musicef 4
	musicf2
	G_ 1
	G_ 1
	music_call Branch_1f1c97
	musicf0 4
	octave 3
	musicf1 87
	F_ 1
	F_ 2
	musicf3
	speed 1
	E_ 4
	F_ 4
	speed 8
	E_ 5
	music_call Branch_1f1c69
	musicf0 4
	octave 3
	musicf1 80
	musicf3
	musicef 252
	E_ 2
	musicef 4
	dec_octave
	musicf2
	B_ 1
	B_ 1
	music_call Branch_1f1c97
	musicf0 4
	octave 3
	musicf1 80
	D_ 1
	D_ 2
	musicf3
	speed 1
	C# 4
	D_ 4
	speed 8
	musicf2
	C# 7
	C# 1
	musicf3
	speed 1
	octave 2
	G_ 8
	musicf2
	A# 5
	A# 3
	inc_octave
	C# 5
	C# 3
	E_ 5
	E_ 3
	G_ 5
	G_ 3
	A# 5
	A# 3
	inc_octave
	C# 5
	C# 3
	musicf3
	speed 8
	rest 16
	EndMainLoop

Branch_1f1c69:
	volume 241
	duty 2
	musicee 28
	musicdc 255
	vibrato_delay 0
	speed 1
	octave 3
	G_ 16
	musicee 0
	speed 8
	music_ret

Branch_1f1c7c:
	volume 241
	duty 2
	musicee 28
	musicdc 255
	vibrato_delay 0
	speed 1
	octave 3
	musicef 250
	G_ 5
	musicef 4
	G_ 5
	musicef 2
	G_ 6
	musicee 0
	speed 8
	music_ret

Branch_1f1c97:
	volume 241
	duty 2
	musicee 28
	musicdc 255
	vibrato_delay 0
	speed 1
	octave 4
	G_ 8
	musicee 0
	speed 8
	music_ret


Music_Fort4_Ch3: ; 1f1caa (7c:5caa)
	wave 1
	volume 32
	musice9 96
	musicdc 255
	speed 1
	octave 1
	C_ 16
	MainLoop
	music_call Branch_1f1ff8
	Loop 2
	musice8 6
	D_ 16
	musice8 8
	inc_octave
	inc_octave
	inc_octave
	volume 64
	musice8 7
	A_ 4
	rest 4
	D_ 4
	rest 4
	inc_octave
	D_ 4
	rest 4
	dec_octave
	A_ 4
	rest 4
	dec_octave
	dec_octave
	dec_octave
	volume 32
	musice8 6
	D_ 16
	musice8 8
	inc_octave
	inc_octave
	inc_octave
	volume 64
	musice8 7
	A_ 4
	rest 4
	D_ 4
	rest 4
	inc_octave
	D_ 4
	rest 4
	dec_octave
	A_ 4
	rest 4
	D_ 4
	rest 4
	A_ 4
	rest 4
	musice8 8
	dec_octave
	dec_octave
	dec_octave
	volume 32
	C_ 16
	EndLoop
	Loop 2
	musice8 6
	D_ 16
	musice8 8
	inc_octave
	inc_octave
	inc_octave
	volume 64
	musice8 7
	G# 4
	rest 4
	D_ 4
	rest 4
	inc_octave
	D_ 4
	rest 4
	dec_octave
	G# 4
	rest 4
	dec_octave
	dec_octave
	dec_octave
	volume 32
	musice8 6
	D_ 16
	musice8 8
	inc_octave
	inc_octave
	inc_octave
	volume 64
	musice8 7
	G# 4
	rest 4
	D_ 4
	rest 4
	inc_octave
	D_ 4
	rest 4
	dec_octave
	G# 4
	rest 4
	D_ 4
	rest 4
	G# 4
	rest 4
	musice8 8
	dec_octave
	dec_octave
	dec_octave
	volume 32
	C_ 16
	EndLoop
	Loop 2
	musice8 6
	D_ 16
	musice8 8
	inc_octave
	inc_octave
	inc_octave
	volume 64
	musice8 7
	G_ 4
	rest 4
	D# 4
	rest 4
	inc_octave
	D# 4
	rest 4
	dec_octave
	G_ 4
	rest 4
	dec_octave
	dec_octave
	dec_octave
	volume 32
	musice8 6
	D_ 16
	musice8 8
	inc_octave
	inc_octave
	inc_octave
	volume 64
	musice8 7
	G_ 4
	rest 4
	D# 4
	rest 4
	inc_octave
	D# 4
	rest 4
	dec_octave
	G_ 4
	rest 4
	D# 4
	rest 4
	G_ 4
	rest 4
	musice8 8
	dec_octave
	dec_octave
	dec_octave
	volume 32
	C_ 16
	EndLoop
	musice8 6
	D_ 16
	musice8 8
	inc_octave
	inc_octave
	inc_octave
	volume 64
	musice8 7
	A_ 4
	rest 4
	D_ 4
	rest 4
	inc_octave
	D_ 4
	rest 4
	dec_octave
	A_ 4
	rest 4
	dec_octave
	dec_octave
	dec_octave
	volume 32
	musice8 6
	D_ 16
	musice8 8
	inc_octave
	inc_octave
	inc_octave
	volume 64
	musice8 7
	A_ 4
	rest 4
	D_ 4
	rest 4
	inc_octave
	D_ 4
	rest 4
	dec_octave
	A_ 4
	rest 4
	D_ 4
	rest 4
	A_ 4
	rest 4
	musice8 8
	dec_octave
	dec_octave
	dec_octave
	volume 32
	C_ 16
	musice8 6
	D_ 16
	musice8 8
	inc_octave
	inc_octave
	inc_octave
	volume 64
	musice8 7
	A_ 4
	rest 4
	D_ 4
	rest 4
	inc_octave
	D_ 4
	rest 4
	dec_octave
	A_ 4
	rest 4
	dec_octave
	dec_octave
	dec_octave
	volume 32
	musice8 6
	D_ 16
	musice8 8
	inc_octave
	inc_octave
	inc_octave
	volume 64
	musice8 7
	A_ 4
	rest 4
	musice8 8
	dec_octave
	dec_octave
	dec_octave
	volume 32
	G# 4
	tie
	A_ 4
	inc_octave
	C_ 8
	dec_octave
	G_ 8
	A_ 8
	F_ 8
	G_ 8
	C_ 8
	Loop 2
	musice8 6
	D_ 16
	musice8 8
	inc_octave
	inc_octave
	inc_octave
	volume 64
	musice8 7
	A_ 4
	rest 4
	D_ 4
	rest 4
	inc_octave
	D_ 4
	rest 4
	dec_octave
	A_ 4
	rest 4
	dec_octave
	dec_octave
	dec_octave
	volume 32
	musice8 6
	D_ 16
	musice8 8
	inc_octave
	inc_octave
	inc_octave
	volume 64
	musice8 7
	A_ 4
	rest 4
	D_ 4
	rest 4
	inc_octave
	D_ 4
	rest 4
	dec_octave
	A_ 4
	rest 4
	D_ 4
	rest 4
	A_ 4
	rest 4
	musice8 8
	dec_octave
	dec_octave
	dec_octave
	volume 32
	C_ 16
	EndLoop
	Loop 2
	musice8 6
	D_ 16
	musice8 8
	inc_octave
	inc_octave
	inc_octave
	volume 64
	musice8 7
	G_ 4
	rest 4
	D# 4
	rest 4
	inc_octave
	D# 4
	rest 4
	dec_octave
	G_ 4
	rest 4
	dec_octave
	dec_octave
	dec_octave
	volume 32
	musice8 6
	D_ 16
	musice8 8
	inc_octave
	inc_octave
	inc_octave
	volume 64
	musice8 7
	G_ 4
	rest 4
	D# 4
	rest 4
	inc_octave
	D# 4
	rest 4
	dec_octave
	G_ 4
	rest 4
	D# 4
	rest 4
	G_ 4
	rest 4
	musice8 8
	dec_octave
	dec_octave
	dec_octave
	volume 32
	C_ 16
	EndLoop
	musice8 6
	D_ 16
	musice8 8
	inc_octave
	inc_octave
	inc_octave
	volume 64
	musice8 7
	G_ 4
	rest 4
	D_ 4
	rest 4
	inc_octave
	D_ 4
	rest 4
	dec_octave
	G_ 4
	rest 4
	dec_octave
	dec_octave
	dec_octave
	volume 32
	musice8 6
	D_ 16
	musice8 8
	inc_octave
	inc_octave
	inc_octave
	volume 64
	musice8 7
	G_ 4
	rest 4
	D_ 4
	rest 4
	inc_octave
	D_ 4
	rest 4
	dec_octave
	G_ 4
	rest 4
	D_ 4
	rest 4
	G_ 4
	rest 4
	musice8 8
	dec_octave
	dec_octave
	dec_octave
	volume 32
	C_ 16
	musice8 6
	D_ 16
	musice8 8
	inc_octave
	inc_octave
	inc_octave
	volume 64
	musice8 7
	G_ 4
	rest 4
	D_ 4
	rest 4
	inc_octave
	D_ 4
	rest 4
	dec_octave
	G_ 4
	rest 4
	dec_octave
	dec_octave
	dec_octave
	volume 32
	musice8 6
	D_ 16
	musice8 8
	inc_octave
	inc_octave
	inc_octave
	volume 64
	musice8 7
	G_ 4
	rest 4
	D_ 4
	rest 4
	inc_octave
	D_ 4
	rest 4
	dec_octave
	G_ 4
	rest 4
	D_ 4
	rest 4
	G_ 4
	rest 4
	musice8 8
	dec_octave
	dec_octave
	dec_octave
	volume 32
	G_ 16
	musice8 6
	A_ 16
	musice8 8
	inc_octave
	inc_octave
	inc_octave
	volume 64
	musice8 7
	F_ 4
	rest 4
	C# 4
	rest 4
	inc_octave
	C# 4
	rest 4
	dec_octave
	F_ 4
	rest 4
	dec_octave
	dec_octave
	dec_octave
	volume 32
	musice8 6
	A_ 16
	musice8 8
	inc_octave
	inc_octave
	inc_octave
	volume 64
	musice8 7
	F_ 4
	rest 4
	C# 4
	rest 4
	inc_octave
	C# 4
	rest 4
	dec_octave
	F_ 4
	rest 4
	C# 4
	rest 4
	F_ 4
	rest 4
	musice8 8
	dec_octave
	dec_octave
	dec_octave
	volume 32
	G_ 16
	musice8 6
	A_ 16
	musice8 8
	inc_octave
	inc_octave
	inc_octave
	volume 64
	musice8 7
	E_ 4
	rest 4
	C# 4
	rest 4
	inc_octave
	C# 4
	rest 4
	dec_octave
	E_ 4
	rest 4
	dec_octave
	dec_octave
	dec_octave
	volume 32
	musice8 6
	A_ 16
	musice8 8
	inc_octave
	inc_octave
	inc_octave
	volume 64
	musice8 7
	E_ 4
	rest 4
	C# 4
	rest 4
	inc_octave
	C# 4
	rest 4
	dec_octave
	E_ 4
	rest 4
	C# 4
	rest 4
	E_ 4
	rest 4
	musice8 8
	dec_octave
	dec_octave
	dec_octave
	volume 32
	G_ 8
	A_ 8
	vibrato_type 5
	vibrato_delay 48
	A_ 4
	tie
	musice4 17
	A_ 4
	tie
	musice4 34
	A_ 4
	tie
	musice4 51
	A_ 4
	tie
	musice4 0
	A# 16
	tie
	A# 16
	tie
	A# 16
	tie
	A# 16
	tie
	A# 16
	tie
	A# 16
	tie
	A# 16
	tie
	A# 16
	tie
	A# 16
	tie
	A# 16
	tie
	A# 16
	tie
	A# 16
	tie
	A# 16
	tie
	A# 16
	tie
	A# 16
	music_call Branch_1f1ff8
	vibrato_type 5
	vibrato_delay 48
	speed 8
	D# 16
	tie
	D# 16
	E_ 16
	tie
	E_ 16
	speed 1
	musice8 6
	A_ 16
	rest 16
	inc_octave
	musice8 4
	A_ 16
	musice8 6
	dec_octave
	A_ 16
	rest 16
	rest 16
	rest 16
	musice8 8
	E_ 16
	musice8 6
	A# 16
	rest 16
	inc_octave
	inc_octave
	musice8 4
	D_ 16
	musice8 6
	dec_octave
	dec_octave
	A# 16
	rest 16
	rest 16
	rest 16
	musice8 8
	G_ 16
	musice8 6
	A_ 16
	rest 16
	inc_octave
	musice8 4
	A_ 16
	musice8 6
	dec_octave
	A_ 16
	rest 16
	rest 16
	rest 16
	musice8 8
	G_ 16
	A_ 16
	tie
	A_ 16
	tie
	A_ 16
	tie
	A_ 16
	rest 8
	A_ 8
	inc_octave
	E_ 4
	rest 4
	G_ 4
	rest 4
	A_ 4
	rest 4
	E_ 4
	rest 4
	G_ 4
	rest 4
	A_ 4
	rest 4
	EndMainLoop

Branch_1f1ff8:
	octave 1
	Loop 3
	musice8 6
	D_ 8
	rest 8
	rest 16
	inc_octave
	inc_octave
	musice8 7
	F_ 5
	rest 3
	volume 64
	F_ 5
	rest 3
	volume 32
	musice8 6
	dec_octave
	dec_octave
	D_ 16
	rest 16
	inc_octave
	musice8 7
	A_ 5
	rest 3
	volume 64
	A_ 5
	rest 3
	volume 32
	musice8 6
	dec_octave
	rest 16
	musice8 8
	C_ 16
	EndLoop
	musice8 6
	D_ 16
	rest 16
	inc_octave
	inc_octave
	musice8 7
	F_ 5
	rest 3
	volume 64
	F_ 5
	rest 3
	volume 32
	musice8 6
	dec_octave
	dec_octave
	D_ 16
	rest 16
	inc_octave
	musice8 7
	A_ 5
	rest 3
	volume 64
	A_ 5
	rest 3
	volume 32
	musice8 6
	dec_octave
	rest 16
	musice8 8
	C_ 8
	C# 8
	music_ret


Music_Fort4_Ch4: ; 1f204f (7c:604f)
	speed 8
	rest 2
	MainLoop
	bass 2
	snare3 1
	noise2 1
	noisea 2
	bass 2
	snare3 1
	noise2 1
	snare3 2
	noise2 2
	snare1 2
	bass 2
	snare3 1
	noise2 1
	noisea 2
	bass 2
	snare3 1
	noise2 1
	snare3 2
	snare1 2
	snare1 2
	bass 2
	snare3 1
	noise2 1
	noisea 2
	bass 2
	snare3 1
	noise2 1
	snare3 2
	noise2 2
	snare1 2
	bass 2
	snare3 1
	noise2 1
	noisea 2
	bass 2
	snare3 1
	snare1 1
	snare1 2
	snare1 2
	snare1 1
	snare1 1
	music_call Branch_1f2131
	music_call Branch_1f2131
	music_call Branch_1f2131
	music_call Branch_1f2131
	music_call Branch_1f2131
	music_call Branch_1f2131
	music_call Branch_1f2131
	bass 2
	snare3 1
	noise2 1
	noisea 2
	bass 2
	snare3 1
	snare1 1
	snare3 2
	snare1 2
	snare1 1
	snare1 1
	bass 2
	snare3 1
	noise2 1
	noisea 2
	bass 2
	snare3 1
	noise2 1
	snare3 2
	noise2 2
	snare1 2
	music_call Branch_1f2131
	music_call Branch_1f2131
	music_call Branch_1f2131
	music_call Branch_1f2131
	music_call Branch_1f2131
	music_call Branch_1f2131
	bass 2
	snare3 1
	noise2 1
	noisea 2
	bass 2
	snare3 1
	snare1 1
	snare1 1
	snare1 1
	snare1 1
	snare1 1
	snare1 1
	snare1 1
	musicef 2
	noise6 16
	tie
	rest 16
	musicef 0
	bass 2
	snare3 1
	noise2 1
	snare1 2
	bass 2
	snare3 1
	noise2 1
	snare3 2
	noise2 2
	snare1 2
	bass 2
	snare3 1
	noise2 1
	snare1 2
	bass 2
	snare3 1
	noise2 1
	snare3 2
	snare1 2
	snare1 2
	bass 2
	snare3 1
	noise2 1
	snare1 2
	bass 2
	snare3 1
	noise2 1
	snare3 2
	noise2 2
	snare1 2
	bass 2
	snare3 1
	noise2 1
	snare1 2
	bass 2
	snare3 1
	snare1 1
	snare1 2
	snare1 2
	snare1 1
	snare1 1
	musicef 1
	noise6 16
	tie
	rest 16
	musicef 1
	noise6 16
	tie
	rest 16
	musicef 0
	bass 2
	snare3 1
	noise2 1
	snare1 2
	bass 2
	snare3 1
	noise2 1
	snare3 2
	noise2 2
	snare1 2
	bass 2
	snare3 1
	noise2 1
	snare1 2
	bass 2
	snare3 1
	noise2 1
	snare3 2
	snare1 2
	snare1 2
	bass 2
	snare3 1
	noise2 1
	snare1 2
	bass 2
	snare3 1
	noise2 1
	snare3 2
	noise2 2
	snare1 2
	musicef 1
	noise6 9
	musicef 0
	speed 1
	snare1 4
	snare1 4
	speed 8
	snare1 1
	snare1 1
	snare1 1
	snare1 1
	snare1 1
	snare1 1
	EndMainLoop

Branch_1f2131:
	bass 2
	snare3 1
	noise2 1
	noisea 2
	bass 2
	snare3 1
	noise2 1
	snare3 2
	noise2 2
	snare4 2
	music_ret
; 0x1f213c
