Music_Fort1_Ch2:
	speed 1
	stereo_panning TRUE, TRUE
	preset 16
	octave 2
	A# 3
	B_ 3
	inc_octave
	C_ 3
	musicf1 69
	C# 6
	C# 2
	tie
	C# 16
	rest 7
	E_ 6
	E_ 16
	rest 2
	musicf1 70
	preset 2
	musicf3
	vibrato_delay 16
	octave 4
	D# 3
	E_ 4
	MainLoop
	music_call Branch_1ed865
	musicf3
	C# 16
	tie
	C# 15
	E_ 2
	musicf2
	F# 14
	tie
	F# 8
	F# 7
	musicf3
	music_call Branch_1ed865
	musicf3
	C# 16
	D# 15
	E_ 16
	F# 15
	music_call Branch_1ed8a8
	G_ 16
	F# 15
	E_ 16
	musicf2
	D_ 8
	D_ 15
	tie
	D_ 8
	dec_octave
	B_ 8
	B_ 15
	tie
	B_ 8
	inc_octave
	musicf3
	D# 3
	musicf2
	E_ 12
	tie
	E_ 16
	tie
	E_ 15
	tie
	E_ 16
	E_ 15
	musicf3
	D# 2
	E_ 14
	tie
	E_ 15
	F# 16
	tie
	F# 15
	music_call Branch_1ed8a8
	G_ 16
	F# 15
	E_ 16
	musicf2
	D_ 8
	D_ 15
	tie
	D_ 8
	dec_octave
	B_ 8
	B_ 7
	inc_octave
	musicf3
	D# 2
	musicf2
	E_ 14
	tie
	E_ 15
	tie
	E_ 16
	tie
	E_ 15
	tie
	E_ 16
	tie
	E_ 15
	tie
	E_ 16
	tie
	E_ 15
	tie
	E_ 16
	tie
	E_ 15
	tie
	E_ 16
	tie
	E_ 13
	E_ 2
	musicf1 53
	D# 6
	D# 16
	rest 9
	D# 6
	D# 16
	rest 9
	musicf1 70
	musicf3
	F# 16
	musicf2
	G# 8
	G# 7
	pitch_offset 255
	music_call Branch_1edb5a
	octave 4
	musicf2
	B_ 8
	B_ 15
	tie
	B_ 8
	D# 8
	D# 7
	pitch_offset 255
	music_call Branch_1edb5a
	octave 4
	musicf2
	F# 8
	F# 7
	tie
	F# 16
	E_ 8
	E_ 7
	E_ 16
	tie
	E_ 8
	E_ 7
	musicf3
	E_ 16
	D# 15
	E_ 16
	musicf2
	F# 8
	F# 7
	musicf3
	F# 16
	musicf2
	G# 8
	G# 7
	pitch_offset 255
	music_call Branch_1edb5a
	octave 4
	musicf2
	B_ 8
	B_ 15
	tie
	B_ 8
	D# 8
	D# 7
	pitch_offset 255
	music_call Branch_1edb5a
	octave 4
	D# 2
	E_ 13
	tie
	E_ 16
	tie
	E_ 15
	music_call Branch_1edb5a
	octave 4
	E_ 15
	tie
	E_ 16
	D# 15
	E_ 16
	musicf2
	F# 8
	F# 7
	musicf3
	F# 16
	musicf2
	G# 8
	G# 7
	pitch_offset 255
	music_call Branch_1edb5a
	octave 4
	musicf2
	B_ 8
	B_ 15
	tie
	B_ 8
	D# 8
	D# 7
	pitch_offset 255
	music_call Branch_1edb5a
	octave 4
	musicf2
	F# 8
	F# 7
	tie
	F# 16
	E_ 8
	E_ 7
	E_ 16
	tie
	E_ 8
	E_ 7
	musicf3
	E_ 16
	D# 15
	E_ 16
	musicf2
	F# 8
	F# 7
	musicf3
	F# 16
	musicf2
	G# 8
	G# 7
	pitch_offset 255
	music_call Branch_1edb5a
	octave 4
	musicf2
	B_ 8
	B_ 15
	tie
	B_ 8
	D# 8
	D# 7
	pitch_offset 255
	music_call Branch_1edb5a
	octave 4
	D# 2
	E_ 13
	tie
	E_ 16
	tie
	E_ 15
	music_call Branch_1edb5a
	octave 4
	E_ 15
	tie
	E_ 16
	D# 15
	E_ 16
	musicf2
	F# 8
	F# 7
	musicf3
	F# 16
	musicf2
	G_ 8
	G_ 7
	music_call Branch_1edb5a
	octave 4
	musicf2
	B_ 8
	B_ 15
	tie
	B_ 8
	G_ 8
	G_ 7
	music_call Branch_1edb5a
	octave 4
	G_ 2
	A_ 13
	tie
	A_ 16
	tie
	A_ 15
	pitch_offset 2
	music_call Branch_1edb5a
	octave 4
	F# 15
	tie
	F# 16
	tie
	F# 15
	pitch_offset 2
	music_call Branch_1edb5a
	octave 4
	musicf2
	F# 8
	F# 7
	musicf3
	G_ 16
	musicf2
	F# 8
	F# 7
	E_ 8
	E_ 8
	D_ 8
	D_ 15
	tie
	D_ 8
	dec_octave
	B_ 8
	B_ 15
	tie
	B_ 8
	musicf3
	inc_octave
	D# 2
	musicf2
	E_ 13
	tie
	E_ 16
	tie
	E_ 15
	tie
	E_ 16
	tie
	E_ 15
	tie
	E_ 16
	tie
	E_ 15
	tie
	E_ 16
	tie
	E_ 15
	tie
	E_ 16
	tie
	E_ 15
	tie
	E_ 16
	E_ 15
	musicf1 53
	Loop 2
	D# 6
	D# 16
	rest 9
	EndLoop
	EndMainLoop

Branch_1ed865:
	preset 2
	octave 4
	musicf1 70
	musicf3
	D# 16
	C# 15
	D# 16
	musicf2
	G# 8
	G# 15
	tie
	G# 8
	dec_octave
	B_ 8
	B_ 15
	tie
	B_ 8
	musicf3
	inc_octave
	D_ 2
	musicf2
	D# 6
	D# 7
	tie
	D# 16
	C# 8
	C# 7
	C# 16
	tie
	C# 8
	C# 7
	musicf3
	C# 16
	D# 15
	E_ 16
	musicf2
	F# 8
	F# 7
	musicf3
	D# 16
	C# 15
	D# 16
	musicf2
	G# 8
	G# 15
	tie
	G# 8
	dec_octave
	B_ 8
	B_ 15
	tie
	B_ 8
	inc_octave
	musicf3
	C_ 2
	musicf2
	C# 13
	tie
	C# 16
	tie
	C# 15
	tie
	C# 16
	C# 15
	music_ret

Branch_1ed8a8:
	preset 2
	octave 4
	musicf1 70
	musicf3
	G_ 16
	F# 15
	G_ 16
	musicf2
	B_ 8
	B_ 15
	tie
	B_ 8
	G_ 8
	G_ 15
	tie
	G_ 8
	musicf3
	G# 3
	musicf2
	A_ 12
	tie
	A_ 16
	tie
	A_ 15
	A_ 16
	F# 15
	tie
	F# 16
	tie
	F# 15
	F# 16
	F# 8
	F# 7
	musicf3
	music_ret


Music_Fort1_Ch1:
	speed 1
	duty 0
	volume_envelope 9, 0
	stereo_panning TRUE, TRUE
	vibrato_type 10
	vibrato_delay 18
	preset 16
	octave 2
	rest 9
	musicf1 69
	A_ 6
	A_ 16
	rest 9
	inc_octave
	C# 6
	C# 10
	rest 8
	rest 7
	musicf1 70
	MainLoop
	preset 16
	octave 3
	musicf1 70
	Loop 2
	rest 16
	rest 15
	D# 6
	D# 10
	rest 15
	EndLoop
	Loop 2
	rest 16
	rest 15
	C# 6
	C# 10
	rest 15
	EndLoop
	Loop 2
	rest 16
	rest 15
	D# 6
	D# 10
	rest 15
	EndLoop
	rest 16
	rest 15
	C# 6
	C# 10
	rest 15
	musicf3
	volume_envelope 8, 0
	D# 3
	E_ 13
	tie
	E_ 15
	D# 16
	tie
	D# 15
	dec_octave
	B_ 16
	tie
	B_ 15
	preset 16
	musicf1 70
	octave 3
	D# 6
	D# 10
	rest 15
	rest 16
	rest 15
	D# 6
	D# 10
	rest 15
	Loop 2
	rest 16
	rest 15
	C# 6
	C# 10
	rest 15
	EndLoop
	Loop 2
	rest 16
	rest 15
	D# 6
	D# 10
	rest 15
	EndLoop
	rest 16
	rest 15
	musicf3
	C# 6
	C# 10
	rest 8
	preset 30
	octave 4
	musicf3
	D_ 3
	D# 4
	E_ 16
	dec_octave
	B_ 15
	inc_octave
	C# 16
	D# 15
	E_ 16
	D_ 15
	music_call Branch_1edb4e
	octave 4
	musicf2
	G_ 8
	G_ 15
	tie
	G_ 8
	E_ 8
	E_ 7
	music_call Branch_1edb4e
	octave 4
	F# 15
	tie
	F# 16
	tie
	F# 15
	pitch_offset 254
	music_call Branch_1edb4e
	inc_octave
	D_ 15
	tie
	D_ 16
	tie
	D_ 15
	pitch_offset 254
	music_call Branch_1edb4e
	octave 4
	musicf2
	D_ 8
	D_ 7
	E_ 16
	D_ 15
	pitch_offset 252
	music_call Branch_1edb4e
	musicf2
	B_ 8
	B_ 15
	tie
	B_ 8
	G_ 8
	G_ 7
	pitch_offset 254
	music_call Branch_1edb4e
	octave 4
	C_ 15
	tie
	C_ 16
	tie
	C_ 15
	pitch_offset 254
	music_call Branch_1edb4e
	octave 4
	rest 15
	C_ 16
	tie
	C_ 15
	D_ 16
	tie
	D_ 15
	E_ 16
	D_ 15
	music_call Branch_1edb4e
	octave 4
	musicf2
	G_ 8
	G_ 15
	tie
	G_ 8
	E_ 8
	E_ 7
	music_call Branch_1edb4e
	octave 4
	F# 15
	tie
	F# 16
	tie
	F# 15
	pitch_offset 254
	music_call Branch_1edb4e
	octave 4
	D_ 15
	tie
	D_ 16
	tie
	D_ 15
	pitch_offset 254
	music_call Branch_1edb4e
	octave 4
	musicf2
	D_ 8
	D_ 7
	musicf3
	E_ 16
	D_ 15
	C_ 16
	dec_octave
	musicf2
	B_ 8
	B_ 15
	tie
	B_ 8
	preset 16
	octave 3
	musicf2
	D_ 6
	D_ 9
	preset 30
	musicf3
	musicef 2
	musicf2
	inc_octave
	C_ 16
	tie
	C_ 15
	C_ 16
	dec_octave
	musicf1 69
	G_ 8
	G_ 7
	A_ 16
	tie
	A_ 15
	A_ 16
	B_ 8
	B_ 7
	musicf3
	inc_octave
	C_ 16
	tie
	C_ 15
	dec_octave
	musicef 2
	D_ 4
	E_ 4
	F_ 4
	G_ 4
	A_ 4
	B_ 4
	inc_octave
	C_ 4
	D_ 3
	dec_octave
	musicef -2
	musicf1 53
	A_ 6
	A_ 16
	rest 9
	A_ 6
	A_ 16
	rest 9
	musicf3
	musicef -2
	musicf1 70
	inc_octave
	D# 16
	musicf2
	E_ 8
	E_ 7
	pitch_offset 251
	music_call Branch_1edb4e
	octave 4
	musicf2
	G# 8
	G# 15
	tie
	G# 8
	dec_octave
	B_ 8
	B_ 7
	pitch_offset 251
	music_call Branch_1edb4e
	octave 4
	musicf2
	D# 8
	D# 7
	tie
	D# 16
	C# 8
	C# 7
	pitch_offset 253
	music_call Branch_1edb4e
	rest 8
	rest 7
	octave 4
	C# 16
	dec_octave
	B_ 15
	pitch_offset 253
	music_call Branch_1edb4e
	octave 4
	musicf2
	D# 8
	D# 7
	musicf3
	D# 16
	musicf2
	E_ 8
	E_ 7
	pitch_offset 251
	music_call Branch_1edb4e
	octave 4
	musicf2
	G# 8
	G# 15
	tie
	G# 8
	dec_octave
	B_ 8
	B_ 7
	pitch_offset 251
	music_call Branch_1edb4e
	octave 4
	C# 15
	tie
	C# 16
	tie
	C# 15
	pitch_offset 253
	music_call Branch_1edb4e
	octave 3
	musicf2
	A_ 15
	tie
	A_ 8
	A_ 8
	A_ 15
	pitch_offset 253
	music_call Branch_1edb4e
	octave 4
	musicf2
	D# 8
	D# 7
	musicf3
	D# 16
	musicf2
	E_ 8
	E_ 7
	pitch_offset 251
	music_call Branch_1edb4e
	octave 4
	musicf2
	G# 8
	G# 15
	tie
	G# 8
	dec_octave
	B_ 8
	B_ 7
	pitch_offset 251
	music_call Branch_1edb4e
	octave 4
	musicf2
	D# 8
	D# 7
	tie
	D# 16
	C# 8
	C# 7
	pitch_offset 253
	music_call Branch_1edb4e
	rest 8
	rest 7
	octave 4
	C# 16
	dec_octave
	B_ 15
	pitch_offset 253
	music_call Branch_1edb4e
	octave 4
	musicf2
	D# 8
	D# 7
	musicf3
	D# 16
	musicf2
	E_ 8
	E_ 7
	pitch_offset 251
	music_call Branch_1edb4e
	octave 4
	musicf2
	G# 8
	G# 15
	tie
	G# 8
	dec_octave
	B_ 8
	B_ 7
	pitch_offset 251
	music_call Branch_1edb4e
	octave 4
	C# 15
	tie
	C# 16
	tie
	C# 15
	pitch_offset 253
	music_call Branch_1edb4e
	octave 3
	musicf2
	A_ 15
	tie
	A_ 8
	A_ 8
	A_ 15
	pitch_offset 253
	music_call Branch_1edb4e
	octave 3
	A_ 15
	inc_octave
	D_ 16
	musicf2
	E_ 8
	E_ 7
	pitch_offset 251
	music_call Branch_1edb4e
	octave 4
	musicf2
	G_ 8
	G_ 15
	tie
	G_ 8
	E_ 8
	E_ 7
	pitch_offset 251
	music_call Branch_1edb4e
	octave 4
	F# 15
	tie
	F# 16
	tie
	F# 15
	pitch_offset 254
	music_call Branch_1edb4e
	octave 4
	D_ 15
	tie
	D_ 16
	tie
	D_ 15
	pitch_offset 254
	music_call Branch_1edb4e
	octave 4
	musicf2
	D_ 8
	D_ 7
	musicf3
	E_ 16
	musicf2
	D_ 8
	D_ 7
	pitch_offset 252
	music_call Branch_1edb4e
	octave 3
	musicf2
	B_ 8
	B_ 15
	tie
	B_ 8
	G_ 8
	G_ 7
	pitch_offset 254
	music_call Branch_1edb4e
	octave 4
	musicf2
	C_ 15
	tie
	C_ 16
	tie
	C_ 15
	C_ 16
	dec_octave
	musicef 2
	musicf1 69
	G_ 8
	G_ 7
	A_ 16
	tie
	A_ 15
	A_ 16
	B_ 8
	B_ 7
	musicf3
	inc_octave
	C_ 16
	tie
	C_ 15
	dec_octave
	D_ 4
	E_ 4
	F_ 4
	G_ 4
	A_ 4
	B_ 4
	inc_octave
	C_ 4
	D_ 3
	musicf1 53
	dec_octave
	Loop 2
	A_ 6
	A_ 16
	rest 9
	EndLoop
	musicef -2
	EndMainLoop

Branch_1edb4e:
	preset 16
	octave 3
	musicf2
	E_ 6
	E_ 10
	preset 30
	musicf3
	pitch_offset 0
	music_ret

Branch_1edb5a:
	preset 16
	octave 3
	musicf2
	E_ 6
	E_ 10
	preset 2
	musicf3
	pitch_offset 0
	music_ret


Music_Fort1_Ch3:
	speed 1
	wave 4
	volume_envelope 2, 0
	echo 96
	stereo_panning TRUE, TRUE
	octave 1
	cutoff 1
	rest 9
	F# 6
	tie
	F# 16
	rest 9
	B_ 6
	tie
	B_ 16
	rest 9
	MainLoop
	octave 1
	cutoff 7
	E_ 16
	tie
	E_ 15
	inc_octave
	cutoff 3
	G# 16
	cutoff 7
	dec_octave
	B_ 15
	inc_octave
	E_ 16
	dec_octave
	E_ 15
	inc_octave
	cutoff 3
	G# 16
	cutoff 7
	dec_octave
	E_ 15
	A_ 16
	A_ 15
	inc_octave
	cutoff 3
	G# 16
	cutoff 7
	A_ 15
	rest 16
	E_ 15
	cutoff 3
	G# 16
	cutoff 7
	dec_octave
	A_ 15
	E_ 16
	tie
	E_ 15
	inc_octave
	cutoff 3
	G# 16
	cutoff 7
	dec_octave
	B_ 15
	inc_octave
	E_ 16
	dec_octave
	E_ 15
	inc_octave
	cutoff 3
	G# 16
	cutoff 7
	dec_octave
	E_ 15
	A_ 16
	A_ 15
	inc_octave
	cutoff 3
	G# 16
	cutoff 7
	A_ 15
	dec_octave
	A_ 16
	tie
	A_ 15
	B_ 16
	tie
	B_ 15
	E_ 16
	tie
	E_ 15
	inc_octave
	cutoff 3
	G# 16
	cutoff 7
	dec_octave
	B_ 15
	inc_octave
	E_ 16
	dec_octave
	E_ 15
	inc_octave
	cutoff 3
	G# 16
	cutoff 7
	dec_octave
	E_ 15
	A_ 16
	A_ 15
	inc_octave
	cutoff 3
	G# 16
	cutoff 7
	A_ 15
	rest 16
	E_ 15
	cutoff 3
	G# 16
	cutoff 7
	dec_octave
	A_ 15
	E_ 16
	tie
	E_ 15
	inc_octave
	cutoff 3
	G# 16
	cutoff 7
	dec_octave
	B_ 15
	inc_octave
	E_ 16
	dec_octave
	E_ 15
	inc_octave
	cutoff 3
	G# 16
	cutoff 7
	dec_octave
	E_ 15
	A_ 16
	A_ 15
	inc_octave
	cutoff 3
	G# 16
	cutoff 7
	A_ 15
	dec_octave
	A_ 16
	tie
	A_ 15
	B_ 16
	tie
	B_ 15
	inc_octave
	C_ 16
	tie
	C_ 15
	cutoff 3
	B_ 16
	cutoff 7
	dec_octave
	G_ 15
	inc_octave
	C_ 16
	dec_octave
	G_ 15
	cutoff 3
	inc_octave
	B_ 16
	cutoff 7
	dec_octave
	B_ 15
	tie
	B_ 8
	rest 8
	B_ 15
	inc_octave
	cutoff 3
	A_ 16
	cutoff 7
	B_ 15
	rest 16
	F# 15
	cutoff 3
	A_ 16
	cutoff 7
	dec_octave
	B_ 15
	A_ 8
	rest 8
	A_ 15
	inc_octave
	cutoff 3
	G_ 16
	cutoff 7
	dec_octave
	A_ 15
	B_ 8
	rest 8
	B_ 15
	inc_octave
	cutoff 3
	A_ 16
	cutoff 7
	dec_octave
	B_ 4
	tie
	inc_octave
	C_ 11
	tie
	C_ 16
	C_ 15
	cutoff 3
	B_ 16
	cutoff 7
	dec_octave
	G_ 15
	inc_octave
	C_ 16
	tie
	C_ 15
	dec_octave
	B_ 16
	tie
	B_ 15
	A_ 16
	tie
	A_ 15
	inc_octave
	inc_octave
	cutoff 3
	C_ 16
	cutoff 7
	dec_octave
	dec_octave
	E_ 15
	A_ 16
	E_ 15
	inc_octave
	inc_octave
	cutoff 3
	C_ 16
	cutoff 7
	dec_octave
	dec_octave
	B_ 15
	tie
	B_ 8
	rest 8
	B_ 15
	inc_octave
	cutoff 3
	A_ 16
	cutoff 7
	B_ 15
	rest 16
	F# 15
	cutoff 3
	A_ 16
	cutoff 7
	dec_octave
	B_ 15
	inc_octave
	C_ 8
	rest 8
	G_ 8
	rest 7
	inc_octave
	cutoff 3
	G_ 16
	cutoff 7
	dec_octave
	dec_octave
	B_ 8
	rest 7
	inc_octave
	F# 8
	rest 8
	cutoff 6
	F# 8
	rest 7
	cutoff 7
	dec_octave
	F_ 8
	rest 8
	F_ 8
	rest 7
	inc_octave
	cutoff 3
	C_ 16
	cutoff 7
	dec_octave
	F_ 8
	rest 7
	F_ 8
	rest 8
	F_ 8
	rest 7
	inc_octave
	cutoff 3
	C_ 16
	cutoff 7
	dec_octave
	F_ 8
	rest 7
	F_ 8
	rest 8
	F_ 8
	rest 7
	inc_octave
	cutoff 3
	C_ 16
	cutoff 8
	F_ 8
	rest 7
	dec_octave
	B_ 10
	rest 16
	rest 5
	B_ 10
	rest 16
	rest 5
	E_ 8
	rest 8
	E_ 7
	rest 8
	inc_octave
	cutoff 3
	G# 16
	cutoff 7
	E_ 8
	rest 7
	dec_octave
	E_ 8
	rest 8
	E_ 7
	rest 8
	inc_octave
	cutoff 3
	G# 16
	cutoff 7
	E_ 8
	rest 7
	dec_octave
	A_ 8
	rest 8
	A_ 7
	rest 8
	inc_octave
	cutoff 3
	G# 16
	cutoff 7
	E_ 8
	rest 7
	dec_octave
	A_ 8
	rest 8
	A_ 7
	rest 8
	inc_octave
	cutoff 3
	G# 16
	cutoff 7
	E_ 8
	rest 7
	dec_octave
	E_ 8
	rest 8
	E_ 7
	rest 8
	inc_octave
	cutoff 3
	G# 16
	cutoff 7
	E_ 8
	rest 7
	dec_octave
	E_ 8
	rest 8
	E_ 7
	rest 8
	inc_octave
	cutoff 3
	G# 16
	cutoff 7
	E_ 8
	rest 7
	dec_octave
	A_ 8
	rest 8
	A_ 7
	rest 8
	inc_octave
	cutoff 3
	G# 16
	cutoff 7
	E_ 8
	rest 7
	dec_octave
	B_ 8
	rest 8
	B_ 7
	rest 8
	inc_octave
	cutoff 3
	A_ 16
	cutoff 7
	F# 8
	rest 7
	dec_octave
	E_ 8
	rest 8
	E_ 7
	rest 8
	inc_octave
	cutoff 3
	G# 16
	cutoff 7
	E_ 8
	rest 7
	dec_octave
	E_ 8
	rest 8
	E_ 7
	rest 8
	inc_octave
	cutoff 3
	G# 16
	cutoff 7
	E_ 8
	rest 7
	dec_octave
	A_ 8
	rest 8
	A_ 7
	rest 8
	inc_octave
	cutoff 3
	G# 16
	cutoff 7
	E_ 8
	rest 7
	dec_octave
	A_ 8
	rest 8
	A_ 7
	rest 8
	inc_octave
	cutoff 3
	G# 16
	cutoff 7
	E_ 8
	rest 7
	dec_octave
	E_ 8
	rest 8
	E_ 7
	rest 8
	inc_octave
	cutoff 3
	G# 16
	cutoff 7
	E_ 8
	rest 7
	dec_octave
	E_ 8
	rest 8
	E_ 7
	rest 8
	inc_octave
	cutoff 3
	G# 16
	cutoff 7
	E_ 8
	rest 7
	dec_octave
	A_ 8
	rest 8
	A_ 7
	rest 8
	inc_octave
	cutoff 3
	G# 16
	cutoff 7
	E_ 8
	rest 7
	dec_octave
	B_ 8
	rest 8
	B_ 7
	rest 8
	inc_octave
	cutoff 3
	A_ 16
	cutoff 7
	F# 8
	rest 7
	C_ 8
	rest 8
	C_ 7
	rest 8
	cutoff 3
	G_ 16
	cutoff 7
	G_ 8
	rest 7
	C_ 8
	rest 8
	C_ 7
	rest 8
	cutoff 3
	G_ 16
	cutoff 7
	G_ 8
	rest 7
	dec_octave
	G_ 8
	rest 8
	G_ 7
	rest 8
	inc_octave
	cutoff 3
	B_ 16
	cutoff 7
	D_ 8
	rest 7
	dec_octave
	G_ 8
	rest 8
	G_ 7
	rest 8
	inc_octave
	cutoff 3
	B_ 16
	cutoff 7
	D_ 8
	rest 7
	dec_octave
	A_ 8
	rest 8
	inc_octave
	E_ 8
	rest 7
	cutoff 3
	G_ 16
	cutoff 7
	dec_octave
	cutoff 2
	B_ 15
	tie
	B_ 16
	cutoff 3
	inc_octave
	A_ 15
	cutoff 7
	F# 8
	rest 8
	dec_octave
	B_ 8
	rest 7
	F_ 8
	rest 8
	F_ 8
	rest 7
	F_ 8
	rest 8
	F_ 8
	rest 7
	F_ 8
	rest 8
	F_ 8
	rest 7
	F_ 8
	rest 8
	F_ 8
	rest 7
	F_ 8
	rest 8
	F_ 8
	rest 7
	F_ 8
	rest 8
	F_ 8
	rest 7
	Loop 2
	cutoff 1
	B_ 7
	tie
	B_ 16
	rest 8
	EndLoop
	EndMainLoop


Music_Fort1_Ch4:
	speed 1
	rest 1
	octave 1
	rest 9
	noise2 16
	rest 15
	noise2 16
	rest 15
	MainLoop
	Loop 3
	music_call Branch_1edebb
	music_call Branch_1edec8
	EndLoop
	music_call Branch_1edebb
	music_call Branch_1eded5
	music_call Branch_1edebb
	music_call Branch_1edec8
	music_call Branch_1edebb
	music_call Branch_1eded5
	music_call Branch_1edebb
	music_call Branch_1edec8
	bass 16
	snare3 15
	noise2 16
	bass 15
	snare3 16
	noise2 15
	bass 16
	snare3 15
	bass 16
	snare3 8
	snare3 7
	bass 16
	snare3 15
	bass 16
	snare3 15
	bass 16
	snare3 15
	bass 16
	snare2 5
	snare2 5
	snare2 5
	snare2 16
	musicef -2
	snare3 5
	musicef -1
	snare3 5
	musicef 0
	snare3 5
	snare2 16
	rest 15
	Loop 3
	music_call Branch_1edee2
	music_call Branch_1edeef
	EndLoop
	music_call Branch_1edee2
	bass 16
	snare3 15
	snare2 16
	snare3 8
	snare3 7
	bass 16
	snare3 8
	snare2 7
	snare2 8
	snare2 8
	snare2 15
	music_call Branch_1edee2
	music_call Branch_1edee2
	bass 16
	snare4 15
	snare2 16
	snare2 15
	bass 16
	musicef -2
	snare2 5
	musicef -1
	snare2 5
	musicef 0
	snare2 5
	snare2 16
	snare3 15
	snare2 16
	snare3 15
	snare2 16
	snare3 8
	snare3 7
	snare2 16
	snare3 15
	snare2 16
	snare3 15
	snare2 16
	snare3 15
	snare2 16
	snare2 5
	snare2 5
	snare2 5
	snare2 16
	musicef -2
	snare3 5
	musicef -1
	snare3 5
	musicef 0
	snare3 5
	snare2 16
	rest 15
	EndMainLoop

Branch_1edebb:
	octave 1
	speed 1
	bass 16
	snare3 15
	noise2 16
	snare3 8
	snare3 7
	bass 16
	snare3 15
	noise2 16
	snare3 15
	music_ret

Branch_1edec8:
	octave 1
	speed 1
	bass 16
	snare3 15
	noise2 16
	snare3 8
	snare3 7
	bass 16
	snare3 15
	noise2 16
	snare4 15
	music_ret

Branch_1eded5:
	octave 1
	speed 1
	bass 16
	snare3 15
	noise2 16
	snare3 8
	snare3 7
	noise2 16
	bass 15
	noise2 16
	bass 15
	music_ret

Branch_1edee2:
	octave 1
	speed 1
	bass 16
	snare3 15
	snare2 16
	snare3 8
	snare3 7
	bass 16
	snare3 15
	snare2 16
	snare3 15
	music_ret

Branch_1edeef:
	octave 1
	speed 1
	bass 16
	snare3 15
	snare2 16
	snare3 8
	snare3 7
	bass 16
	snare3 15
	snare2 16
	snare4 15
	music_ret
