Music_GRBlimp_Ch2:
	stereo_panning TRUE, TRUE
	vibrato_type 1
	vibrato_delay 28
	cutoff 8
	octave 4
	duty 2
	volume_envelope 7, 5
	vibrato_delay 28
	preset 0
	stereo_panning 15, 15
	musicf1 48
	music_call Branch_1e7cf5
	G# 16
	tie
	G# 5
	G# 7
	inc_octave
	C_ 16
	tie
	C_ 5
	dec_octave
	musicf3
	A# 4
	inc_octave
	C_ 3
	dec_octave
	musicf1 69
	A# 14
	A# 5
	G_ 14
	A# 5
	D# 14
	G_ 4
	speed 6
	F_ 14
	speed 1
	F_ 14
	music_call Branch_1e7cf5
	G# 16
	tie
	G# 5
	G# 7
	inc_octave
	C_ 16
	tie
	C_ 5
	dec_octave
	musicf3
	A# 4
	inc_octave
	C_ 3
	dec_octave
	musicf1 69
	A# 14
	A# 5
	F_ 14
	F_ 5
	A# 14
	A# 4
	inc_octave
	speed 6
	C_ 14
	speed 1
	C_ 14
	preset 2
	musicf3
	speed 1
	C_ 5
	C# 5
	D# 4
	musicf1 68
	F_ 16
	tie
	F_ 12
	tie
	F_ 16
	tie
	F_ 12
	F_ 14
	musicf3
	F_ 14
	musicf1 64
	D# 14
	D# 7
	musicf3
	C# 7
	musicf1 64
	C_ 7
	C# 7
	rest 7
	dec_octave
	G# 5
	inc_octave
	C# 2
	dec_octave
	vibrato_delay 14
	A# 14
	tie
	A# 16
	tie
	A# 16
	tie
	A# 10
	A# 14
	musicf3
	A# 5
	inc_octave
	C_ 5
	C# 4
	vibrato_delay 28
	musicf1 64
	D# 16
	tie
	D# 12
	tie
	D# 16
	tie
	D# 12
	D# 14
	musicf3
	D# 14
	musicf1 64
	C# 14
	D# 7
	dec_octave
	musicf3
	B_ 7
	musicf1 64
	A# 7
	B_ 7
	rest 7
	F# 4
	B_ 3
	vibrato_delay 14
	G# 14
	tie
	G# 16
	tie
	G# 16
	tie
	G# 10
	G# 14
	musicf3
	G# 5
	A# 5
	B_ 4
	inc_octave
	vibrato_delay 28
	C# 16
	tie
	C# 12
	tie
	C# 16
	tie
	C# 16
	tie
	C# 10
	dec_octave
	musicf1 64
	B_ 7
	inc_octave
	C# 7
	dec_octave
	musicf3
	F# 14
	musicf1 64
	B_ 7
	F# 7
	inc_octave
	C# 16
	tie
	C# 12
	tie
	C# 16
	tie
	C# 16
	tie
	C# 10
	C# 14
	musicf1 64
	C# 5
	C# 5
	D# 4
	C# 5
	E_ 5
	D# 4
	D# 16
	tie
	D# 12
	tie
	D# 14
	musicf3
	C# 5
	D# 5
	C# 4
	musicf1 64
	C_ 14
	C_ 5
	dec_octave
	G# 14
	inc_octave
	C_ 5
	C_ 14
	dec_octave
	G# 4
	inc_octave
	vibrato_delay 28
	musicf1 70
	speed 7
	D_ 16
	D_ 2
	music_end

Branch_1e7cf5:
	octave 4
	speed 1
	musicf2
	C_ 4
	C_ 3
	D_ 4
	C_ 3
	musicf1 69
	speed 7
	D# 10
	D# 2
	musicf1 48
	speed 1
	D_ 4
	D_ 3
	C_ 4
	D_ 3
	dec_octave
	A# 4
	inc_octave
	C_ 3
	D_ 4
	dec_octave
	A# 3
	speed 7
	inc_octave
	C_ 12
	C_ 2
	dec_octave
	speed 1
	A_ 4
	A_ 3
	A_ 4
	A_ 3
	A# 16
	tie
	A# 5
	A# 7
	G_ 16
	tie
	G_ 5
	G_ 7
	D# 14
	D# 5
	inc_octave
	D_ 14
	D# 5
	dec_octave
	A# 14
	A# 4
	inc_octave
	C_ 7
	dec_octave
	A# 14
	F_ 4
	inc_octave
	C_ 3
	dec_octave
	F_ 16
	tie
	F_ 12
	tie
	F_ 16
	tie
	F_ 12
	F_ 14
	inc_octave
	C_ 4
	C_ 3
	D_ 4
	C_ 3
	speed 7
	D# 10
	D# 2
	musicf1 64
	speed 1
	D_ 4
	D_ 3
	C_ 4
	D_ 3
	dec_octave
	A# 4
	inc_octave
	C_ 3
	D_ 4
	dec_octave
	A# 3
	inc_octave
	C_ 7
	D_ 7
	dec_octave
	rest 7
	F_ 4
	inc_octave
	C_ 3
	dec_octave
	F_ 16
	tie
	F_ 12
	tie
	F_ 16
	tie
	F_ 12
	F_ 14
	F_ 4
	F_ 3
	G_ 4
	F_ 3
	music_ret


Music_GRBlimp_Ch1:
	stereo_panning TRUE, TRUE
	vibrato_type 1
	vibrato_delay 28
	cutoff 8
	speed 7
	octave 3
	preset 1
	musicf1 64
	music_call Branch_1e7e8a
	C# 14
	tie
	C# 7
	C# 7
	F_ 14
	tie
	F_ 7
	F_ 7
	G_ 14
	G_ 5
	D# 14
	D# 5
	dec_octave
	A# 14
	inc_octave
	D# 4
	dec_octave
	A# 14
	tie
	A# 14
	tie
	A# 14
	musicf3
	A_ 4
	A# 3
	G_ 4
	A_ 3
	musicf2
	A_ 14
	tie
	A_ 14
	A_ 14
	music_call Branch_1e7e8a
	D# 16
	tie
	D# 5
	D# 7
	G# 16
	tie
	G# 5
	G# 7
	F_ 14
	F_ 5
	C# 14
	C# 5
	F_ 14
	F_ 4
	F_ 16
	tie
	F_ 12
	tie
	F_ 16
	musicf3
	E_ 4
	F_ 3
	E_ 4
	D_ 3
	E_ 16
	tie
	E_ 12
	dec_octave
	D_ 4
	E_ 3
	G_ 4
	A# 3
	inc_octave
	D_ 4
	F_ 3
	G_ 4
	inc_octave
	C_ 3
	vibrato_delay 28
	C# 14
	dec_octave
	musicf1 65
	C# 3
	inc_octave
	C# 4
	dec_octave
	C# 3
	C# 4
	F_ 5
	C# 5
	C# 4
	F_ 5
	F_ 5
	C# 4
	vibrato_delay 7
	G# 7
	tie
	G# 14
	G# 7
	inc_octave
	C_ 7
	dec_octave
	G# 7
	rest 7
	A# 4
	A# 3
	G# 7
	A# 7
	dec_octave
	A# 3
	inc_octave
	G# 4
	dec_octave
	A# 3
	A# 4
	inc_octave
	C# 5
	dec_octave
	A# 5
	A# 4
	inc_octave
	C# 5
	C# 5
	dec_octave
	A# 4
	inc_octave
	F# 7
	tie
	F# 16
	tie
	F# 5
	F# 14
	F# 7
	F# 7
	vibrato_delay 28
	B_ 14
	dec_octave
	musicf1 65
	B_ 3
	inc_octave
	B_ 4
	dec_octave
	B_ 3
	B_ 4
	inc_octave
	D# 5
	dec_octave
	B_ 5
	B_ 4
	inc_octave
	D# 5
	D# 5
	dec_octave
	B_ 4
	inc_octave
	vibrato_delay 7
	F# 7
	tie
	F# 14
	F# 7
	A# 7
	F# 7
	rest 7
	G# 4
	G# 3
	F# 7
	F# 7
	dec_octave
	G# 3
	inc_octave
	F# 4
	dec_octave
	G# 3
	G# 4
	B_ 5
	G# 5
	G# 4
	B_ 5
	B_ 5
	G# 4
	inc_octave
	E_ 7
	tie
	E_ 16
	tie
	E_ 4
	E_ 14
	dec_octave
	B_ 7
	B_ 7
	vibrato_delay 28
	inc_octave
	E_ 14
	musicf1 65
	C# 3
	E_ 4
	C# 3
	C# 4
	E_ 5
	C# 5
	C# 4
	E_ 5
	E_ 5
	C# 4
	A_ 14
	musicf1 65
	G# 7
	A_ 7
	musicf3
	D# 14
	musicf1 65
	G# 7
	D# 7
	A_ 14
	musicf1 65
	C# 3
	A_ 4
	C# 3
	C# 4
	E_ 5
	C# 5
	C# 4
	E_ 5
	E_ 5
	C# 4
	A_ 7
	tie
	A_ 14
	A_ 7
	A_ 5
	A_ 4
	B_ 4
	A_ 5
	inc_octave
	C# 5
	dec_octave
	A_ 4
	vibrato_delay 14
	A# 14
	tie
	A# 16
	tie
	A# 5
	A# 7
	A# 7
	A# 7
	G# 14
	G# 5
	D# 14
	G# 5
	G# 14
	D# 4
	vibrato_delay 28
	musicf1 70
	speed 7
	A# 16
	A# 2
	music_end

Branch_1e7e8a:
	octave 3
	musicf2
	speed 1
	A_ 4
	A_ 3
	A_ 4
	A_ 3
	speed 7
	A# 10
	A# 2
	speed 1
	musicf1 64
	A# 4
	A# 3
	A# 4
	A# 3
	G_ 4
	A# 3
	A# 4
	G_ 3
	speed 7
	A_ 12
	A_ 2
	speed 1
	F_ 4
	F_ 3
	F_ 4
	F_ 3
	G_ 16
	tie
	G_ 5
	G_ 7
	D# 16
	tie
	D# 5
	D# 7
	dec_octave
	A# 14
	A# 5
	inc_octave
	G_ 14
	G_ 5
	D# 14
	D# 4
	F_ 7
	D# 14
	C_ 4
	F_ 3
	C_ 16
	tie
	C_ 12
	tie
	C_ 16
	tie
	C_ 12
	C_ 14
	A_ 4
	A_ 3
	A_ 4
	A_ 3
	speed 7
	A# 10
	A# 2
	speed 1
	musicf1 64
	A# 4
	A# 3
	A# 4
	A# 3
	G_ 4
	A# 3
	A# 4
	G_ 3
	A_ 7
	A# 14
	C_ 4
	F_ 3
	C_ 16
	tie
	C_ 12
	tie
	C_ 16
	tie
	C_ 12
	C_ 14
	C_ 4
	C_ 3
	D_ 4
	C_ 3
	music_ret


Music_GRBlimp_Ch3:
	stereo_panning TRUE, TRUE
	wave 1
	volume_envelope 2, 0
	cutoff 3
	echo 96
	octave 1
	speed 1
	rest 14
	speed 7
	Loop 11
	F_ 4
	C_ 4
	EndLoop
	F_ 4
	D# 4
	C# 4
	C# 4
	C_ 4
	C_ 4
	Loop 13
	F_ 4
	C_ 4
	EndLoop
	F_ 4
	G_ 4
	G# 4
	G# 4
	C# 4
	C# 4
	C_ 4
	G_ 4
	inc_octave
	C_ 4
	dec_octave
	C_ 4
	C# 4
	G# 4
	inc_octave
	C# 4
	dec_octave
	G# 4
	F# 4
	C# 4
	F# 4
	C# 4
	B_ 4
	F# 4
	B_ 4
	F# 4
	E_ 4
	B_ 4
	E_ 4
	B_ 4
	A_ 4
	E_ 4
	A_ 4
	G# 4
	F# 4
	C# 4
	F# 4
	E_ 4
	D# 4
	A# 4
	cutoff 2
	speed 1
	G# 10
	tie
	G# 9
	D# 10
	tie
	D# 9
	G# 10
	tie
	G# 8
	cutoff 1
	G# 4
	tie
	A_ 4
	tie
	A# 6
	tie
	speed 7
	A# 14
	tie
	A# 2
	music_end


Music_GRBlimp_Ch4:
	speed 9
	octave 1
	speed 1
	rest 14
	Loop 11
	snare1 14
	musicef -3
	snare1 14
	musicef 0
	snare2 3
	musicef -4
	snare2 4
	snare2 3
	snare2 4
	musicef -3
	snare1 7
	musicef 0
	snare1 7
	snare1 14
	musicef -3
	snare1 14
	musicef 0
	snare2 3
	musicef -3
	snare2 4
	Loop 3
	snare2 3
	snare2 4
	EndLoop
	musicef 0
	snare1 14
	snare1 14
	musicef -3
	snare1 7
	musicef 0
	snare1 14
	musicef -3
	snare1 7
	musicef 0
	snare1 14
	musicef -3
	snare1 14
	musicef 0
	snare2 3
	musicef -3
	snare2 4
	Loop 3
	snare2 3
	snare2 4
	EndLoop
	musicef 0
	EndLoop
	snare1 14
	musicef -3
	snare1 14
	musicef 0
	snare2 3
	musicef -3
	snare2 4
	snare2 3
	snare2 4
	snare1 7
	musicef 0
	snare1 7
	snare2 3
	musicef -3
	snare2 4
	snare2 3
	snare2 4
	musicef -1
	snare1 5
	musicef 1
	snare1 16
	tie
	rest 3
	snare1 16
	tie
	rest 2
	snare2 3
	musicef -5
	snare2 4
	Loop 5
	snare2 3
	snare2 4
	EndLoop
	musicef -4
	Loop 5
	snare2 3
	snare2 4
	EndLoop
	musicef -3
	Loop 5
	snare2 3
	snare2 4
	EndLoop
	musicef 2
	snare2 14
	music_end
