Music_GRDuelTheme3_Ch2: ; 1f6517 (7d:6517)
	MainLoop
	musicf0 27
	stereo_panning 15, 15
	musicf3
	speed 1
	musicef 1
	Loop 7
	octave 3
	D_ 3
	rest 4
	dec_octave
	dec_octave
	B_ 3
	rest 4
	inc_octave
	E_ 3
	rest 4
	inc_octave
	D_ 3
	rest 3
	dec_octave
	E_ 3
	rest 4
	inc_octave
	D_ 3
	rest 4
	dec_octave
	E_ 3
	rest 4
	dec_octave
	B_ 3
	rest 3
	inc_octave
	inc_octave
	E_ 3
	rest 4
	dec_octave
	dec_octave
	B_ 3
	rest 4
	inc_octave
	E_ 3
	rest 4
	inc_octave
	D_ 3
	rest 3
	dec_octave
	E_ 3
	rest 4
	inc_octave
	D_ 3
	rest 4
	dec_octave
	E_ 3
	rest 4
	dec_octave
	B_ 3
	rest 3
	EndLoop
	octave 3
	D_ 3
	rest 4
	dec_octave
	dec_octave
	B_ 3
	rest 4
	inc_octave
	E_ 3
	rest 4
	inc_octave
	D_ 3
	rest 3
	dec_octave
	E_ 3
	rest 4
	inc_octave
	D_ 3
	rest 4
	dec_octave
	E_ 3
	rest 4
	dec_octave
	B_ 3
	rest 3
	inc_octave
	inc_octave
	E_ 3
	rest 4
	dec_octave
	dec_octave
	B_ 3
	rest 4
	inc_octave
	E_ 3
	rest 4
	inc_octave
	D_ 3
	rest 3
	dec_octave
	E_ 3
	rest 4
	inc_octave
	D_ 3
	rest 4
	dec_octave
	E_ 3
	rest 4
	dec_octave
	music_call Branch_1f672f
	B_ 13
	musicf0 27
	musicef 1
	musicf1 87
	musicf3
	Loop 7
	octave 3
	D_ 3
	rest 4
	dec_octave
	dec_octave
	B_ 3
	rest 4
	inc_octave
	E_ 3
	rest 4
	inc_octave
	E_ 3
	rest 3
	dec_octave
	E_ 3
	rest 4
	inc_octave
	musicf0 9
	musicef 254
	musicf1 64
	octave 4
	musicf2
	D_ 3
	D_ 4
	musicf3
	dec_octave
	rest 7
	musicf0 27
	octave 1
	B_ 3
	rest 3
	inc_octave
	inc_octave
	E_ 3
	rest 4
	dec_octave
	dec_octave
	B_ 3
	rest 4
	inc_octave
	E_ 3
	rest 4
	inc_octave
	D_ 3
	rest 3
	dec_octave
	E_ 3
	rest 4
	inc_octave
	D_ 3
	rest 4
	dec_octave
	E_ 3
	rest 4
	dec_octave
	B_ 3
	rest 3
	EndLoop
	octave 3
	D_ 3
	rest 4
	dec_octave
	dec_octave
	B_ 3
	rest 4
	inc_octave
	E_ 3
	rest 4
	inc_octave
	E_ 3
	rest 3
	dec_octave
	E_ 3
	rest 4
	inc_octave
	musicf0 9
	musicef 254
	musicf1 64
	octave 4
	musicf2
	D_ 3
	D_ 4
	musicf3
	dec_octave
	rest 7
	musicf0 27
	octave 1
	B_ 3
	rest 3
	inc_octave
	inc_octave
	E_ 3
	rest 4
	dec_octave
	dec_octave
	B_ 3
	rest 4
	inc_octave
	E_ 3
	rest 4
	inc_octave
	D_ 3
	rest 3
	dec_octave
	E_ 3
	rest 4
	inc_octave
	D_ 3
	rest 4
	dec_octave
	E_ 3
	rest 4
	dec_octave
	music_call Branch_1f672f
	musicf3
	musicf0 0
	octave 3
	musicef 2
	vibrato_delay 58
	E_ 4
	F# 3
	G_ 3
	A_ 3
	A# 3
	B_ 4
	tie
	B_ 14
	inc_octave
	musicf1 87
	C_ 6
	C_ 14
	dec_octave
	E_ 13
	tie
	E_ 14
	tie
	E_ 13
	tie
	E_ 14
	tie
	E_ 13
	tie
	E_ 14
	tie
	E_ 13
	tie
	E_ 14
	E_ 13
	musicf3
	D# 3
	E_ 4
	tie
	E_ 14
	F# 6
	tie
	F# 14
	musicf2
	G_ 7
	G_ 6
	musicf3
	G# 3
	A_ 4
	tie
	A_ 14
	G_ 6
	tie
	G_ 14
	musicf2
	vibrato_delay 27
	F# 7
	F# 6
	D_ 14
	tie
	D_ 13
	tie
	D_ 14
	tie
	D_ 13
	tie
	D_ 14
	tie
	D_ 13
	tie
	D_ 14
	tie
	D_ 13
	tie
	D_ 14
	tie
	D_ 13
	D_ 14
	tie
	D_ 13
	musicf3
	dec_octave
	B_ 14
	tie
	B_ 7
	inc_octave
	musicf2
	C_ 6
	C_ 14
	musicf3
	vibrato_delay 52
	F# 3
	musicf2
	G_ 10
	tie
	G_ 14
	tie
	G_ 13
	tie
	G_ 14
	tie
	G_ 13
	tie
	G_ 14
	tie
	G_ 13
	G_ 14
	E_ 7
	E_ 6
	musicf3
	A# 3
	B_ 11
	tie
	B_ 7
	A_ 6
	tie
	A_ 14
	musicf2
	G_ 7
	G_ 6
	musicf3
	G# 3
	A_ 4
	tie
	A_ 14
	inc_octave
	musicf2
	D_ 6
	D_ 14
	dec_octave
	F# 13
	tie
	F# 14
	tie
	F# 13
	tie
	F# 14
	tie
	F# 13
	tie
	F# 14
	tie
	F# 13
	tie
	F# 14
	tie
	F# 13
	tie
	F# 14
	F# 13
	tie
	F# 14
	musicf3
	G_ 7
	F# 6
	E_ 14
	tie
	E_ 7
	musicf2
	C_ 6
	C_ 14
	musicf3
	F# 3
	G_ 10
	E_ 14
	tie
	E_ 7
	A# 3
	B_ 3
	tie
	B_ 14
	musicf2
	G_ 13
	tie
	G_ 14
	tie
	G_ 13
	tie
	G_ 14
	tie
	G_ 13
	tie
	G_ 14
	G_ 13
	tie
	G_ 14
	musicf3
	G_ 7
	A_ 6
	A# 3
	B_ 4
	tie
	B_ 14
	inc_octave
	D_ 6
	tie
	D_ 14
	C_ 13
	dec_octave
	B_ 14
	tie
	B_ 7
	E_ 6
	tie
	E_ 14
	G# 3
	musicf2
	A_ 10
	tie
	A_ 14
	tie
	A_ 13
	tie
	A_ 14
	tie
	A_ 13
	A_ 14
	G_ 7
	G_ 13
	A_ 7
	A_ 13
	F# 14
	tie
	F# 13
	F# 14
	F# 13
	tie
	F# 14
	F# 13
	musicf3
	F# 3
	musicf2
	G_ 11
	tie
	G_ 13
	tie
	G_ 14
	tie
	G_ 13
	tie
	G_ 14
	G_ 13
	musicf3
	F# 14
	musicf2
	G_ 7
	G_ 6
	A_ 7
	A_ 7
	B_ 7
	B_ 6
	F# 14
	tie
	F# 13
	F# 14
	F# 13
	tie
	F# 14
	F# 13
	musicf3
	F# 3
	musicf2
	G_ 11
	tie
	G_ 13
	tie
	G_ 14
	tie
	G_ 13
	tie
	G_ 14
	tie
	G_ 13
	tie
	G_ 14
	tie
	G_ 13
	G_ 14
	tie
	G_ 13
	EndMainLoop

Branch_1f672f:
	musicf0 0
	musicef 2
	musicf1 87
	musicf3
	octave 3
	E_ 3
	F_ 3
	vibrato_delay 40
	musicf2
	F# 14
	tie
	F# 13
	tie
	F# 14
	tie
	F# 13
	tie
	F# 14
	tie
	F# 13
	tie
	F# 14
	tie
	F# 13
	tie
	F# 14
	tie
	F# 13
	tie
	F# 14
	F# 13
	musicf3
	F_ 3
	F# 11
	tie
	F# 7
	musicf2
	D_ 6
	D_ 14
	dec_octave
	musicf3
	B_ 13
	inc_octave
	D# 3
	musicf2
	E_ 11
	tie
	E_ 13
	tie
	E_ 14
	tie
	E_ 13
	tie
	E_ 14
	tie
	E_ 13
	tie
	E_ 14
	tie
	E_ 13
	tie
	E_ 14
	tie
	E_ 13
	tie
	E_ 14
	tie
	E_ 13
	tie
	E_ 14
	tie
	E_ 13
	E_ 14
	tie
	E_ 13
	musicf3
	F_ 3
	musicf2
	F# 11
	tie
	F# 13
	tie
	F# 14
	tie
	F# 13
	tie
	F# 14
	tie
	F# 13
	tie
	F# 14
	tie
	F# 13
	tie
	F# 14
	tie
	F# 13
	tie
	F# 14
	F# 13
	musicf3
	F# 14
	tie
	F# 7
	G_ 13
	tie
	G_ 7
	musicf2
	A_ 7
	A_ 6
	musicf3
	F_ 3
	musicf2
	F# 11
	tie
	F# 13
	F# 14
	vibrato_delay 28
	E_ 13
	tie
	E_ 14
	tie
	E_ 13
	tie
	E_ 14
	tie
	E_ 13
	tie
	E_ 14
	tie
	E_ 13
	tie
	E_ 14
	tie
	E_ 13
	tie
	E_ 14
	tie
	E_ 13
	E_ 14
	tie
	E_ 13
	musicf3
	D# 3
	musicf2
	E_ 11
	tie
	E_ 13
	tie
	E_ 14
	tie
	E_ 13
	E_ 14
	musicf3
	F# 13
	F# 7
	G_ 14
	G_ 6
	musicf3
	G# 3
	musicf2
	A_ 11
	A_ 7
	musicf3
	G_ 6
	tie
	G_ 14
	musicf2
	F# 7
	F# 6
	E_ 14
	E_ 7
	musicf3
	F# 6
	tie
	F# 14
	dec_octave
	musicf2
	B_ 7
	B_ 6
	inc_octave
	D_ 14
	tie
	D_ 13
	D_ 14
	musicf3
	F_ 3
	musicf2
	F# 10
	tie
	F# 14
	F# 13
	dec_octave
	B_ 14
	tie
	B_ 13
	tie
	B_ 14
	tie
	B_ 13
	tie
	B_ 14
	tie
	B_ 13
	tie
	B_ 14
	tie
	B_ 13
	B_ 14
	tie
	B_ 13
	musicf3
	inc_octave
	D# 3
	vibrato_delay 11
	musicf2
	E_ 11
	tie
	E_ 13
	tie
	E_ 14
	tie
	E_ 13
	E_ 14
	F# 13
	F# 7
	G_ 14
	G_ 6
	musicf3
	G# 3
	musicf2
	A_ 11
	tie
	A_ 13
	A_ 14
	musicf3
	A# 3
	B_ 10
	tie
	B_ 14
	tie
	B_ 13
	musicf2
	G_ 14
	G_ 13
	musicf3
	G# 3
	musicf2
	A_ 11
	tie
	A_ 13
	A_ 14
	musicf3
	E_ 13
	tie
	E_ 14
	tie
	E_ 13
	musicf2
	G_ 14
	G_ 13
	musicf3
	G# 3
	musicf2
	A_ 11
	tie
	A_ 13
	tie
	A_ 14
	A_ 13
	B_ 14
	tie
	B_ 13
	tie
	B_ 14
	music_ret


Music_GRDuelTheme3_Ch1: ; 1f6849 (7d:6849)
	MainLoop
	musicf0 27
	musicef 255
	stereo_panning 15, 15
	speed 1
	musicf1 80
	Loop 7
	octave 2
	A_ 3
	rest 4
	inc_octave
	D_ 3
	rest 4
	rest 3
	rest 4
	dec_octave
	A_ 3
	rest 3
	inc_octave
	D_ 3
	rest 4
	dec_octave
	A_ 3
	rest 4
	inc_octave
	D_ 3
	rest 4
	rest 3
	rest 3
	dec_octave
	B_ 3
	rest 4
	inc_octave
	E_ 3
	rest 4
	rest 3
	rest 4
	dec_octave
	A_ 3
	rest 3
	inc_octave
	D_ 3
	rest 4
	dec_octave
	A_ 3
	rest 4
	inc_octave
	D_ 3
	rest 4
	dec_octave
	rest 3
	rest 3
	EndLoop
	octave 2
	A_ 3
	rest 4
	inc_octave
	D_ 3
	rest 4
	rest 3
	rest 4
	dec_octave
	A_ 3
	rest 3
	inc_octave
	D_ 3
	rest 4
	dec_octave
	A_ 3
	rest 4
	inc_octave
	D_ 3
	rest 4
	rest 3
	rest 3
	dec_octave
	B_ 3
	rest 4
	inc_octave
	E_ 3
	rest 4
	rest 3
	rest 4
	dec_octave
	A_ 3
	rest 3
	inc_octave
	D_ 3
	rest 4
	dec_octave
	A_ 3
	rest 4
	inc_octave
	D_ 3
	rest 4
	dec_octave
	musicf3
	octave 1
	musicef 1
	G_ 3
	rest 3
	Loop 2
	octave 3
	D_ 3
	rest 4
	dec_octave
	dec_octave
	B_ 3
	rest 4
	inc_octave
	E_ 3
	rest 4
	inc_octave
	D_ 3
	rest 3
	dec_octave
	E_ 3
	rest 4
	inc_octave
	D_ 3
	rest 4
	dec_octave
	E_ 3
	rest 4
	dec_octave
	B_ 3
	rest 3
	inc_octave
	inc_octave
	E_ 3
	rest 4
	dec_octave
	dec_octave
	B_ 3
	rest 4
	inc_octave
	E_ 3
	rest 4
	inc_octave
	D_ 3
	rest 3
	dec_octave
	E_ 3
	rest 4
	inc_octave
	D_ 3
	rest 4
	dec_octave
	E_ 3
	rest 4
	dec_octave
	B_ 3
	rest 3
	EndLoop
	Loop 2
	octave 3
	C# 3
	rest 4
	dec_octave
	C# 3
	rest 4
	E_ 3
	rest 4
	inc_octave
	C# 3
	rest 3
	dec_octave
	E_ 3
	rest 4
	inc_octave
	C# 3
	rest 4
	dec_octave
	E_ 3
	rest 4
	C# 3
	rest 3
	inc_octave
	D_ 3
	rest 4
	dec_octave
	C# 3
	rest 4
	E_ 3
	rest 4
	inc_octave
	C# 3
	rest 3
	dec_octave
	E_ 3
	rest 4
	inc_octave
	C# 3
	rest 4
	dec_octave
	E_ 3
	rest 4
	C# 3
	rest 3
	EndLoop
	Loop 2
	octave 3
	D_ 3
	rest 4
	dec_octave
	dec_octave
	B_ 3
	rest 4
	inc_octave
	E_ 3
	rest 4
	inc_octave
	D_ 3
	rest 3
	dec_octave
	E_ 3
	rest 4
	inc_octave
	D_ 3
	rest 4
	dec_octave
	E_ 3
	rest 4
	dec_octave
	B_ 3
	rest 3
	inc_octave
	inc_octave
	E_ 3
	rest 4
	dec_octave
	dec_octave
	B_ 3
	rest 4
	inc_octave
	E_ 3
	rest 4
	inc_octave
	D_ 3
	rest 3
	dec_octave
	E_ 3
	rest 4
	inc_octave
	D_ 3
	rest 4
	dec_octave
	E_ 3
	rest 4
	dec_octave
	B_ 3
	rest 3
	EndLoop
	Loop 2
	octave 3
	C# 3
	rest 4
	dec_octave
	C# 3
	rest 4
	E_ 3
	rest 4
	inc_octave
	C# 3
	rest 3
	dec_octave
	E_ 3
	rest 4
	inc_octave
	C# 3
	rest 4
	dec_octave
	E_ 3
	rest 4
	C# 3
	rest 3
	inc_octave
	D_ 3
	rest 4
	dec_octave
	C# 3
	rest 4
	E_ 3
	rest 4
	inc_octave
	C# 3
	rest 3
	dec_octave
	E_ 3
	rest 4
	inc_octave
	C# 3
	rest 4
	dec_octave
	E_ 3
	rest 4
	C# 3
	rest 3
	EndLoop
	Loop 2
	octave 3
	C_ 3
	rest 4
	dec_octave
	C_ 3
	rest 4
	E_ 3
	rest 4
	inc_octave
	C_ 3
	rest 3
	dec_octave
	E_ 3
	rest 4
	inc_octave
	C_ 3
	rest 4
	dec_octave
	E_ 3
	rest 4
	C_ 3
	rest 3
	inc_octave
	D_ 3
	rest 4
	dec_octave
	C_ 3
	rest 4
	E_ 3
	rest 4
	inc_octave
	C_ 3
	rest 3
	dec_octave
	E_ 3
	rest 4
	inc_octave
	C_ 3
	rest 4
	dec_octave
	E_ 3
	rest 4
	C_ 3
	rest 3
	EndLoop
	Loop 2
	octave 3
	D_ 3
	rest 4
	dec_octave
	dec_octave
	B_ 3
	rest 4
	inc_octave
	E_ 3
	rest 4
	inc_octave
	D_ 3
	rest 3
	dec_octave
	E_ 3
	rest 4
	inc_octave
	D_ 3
	rest 4
	dec_octave
	E_ 3
	rest 4
	dec_octave
	B_ 3
	rest 3
	inc_octave
	inc_octave
	E_ 3
	rest 4
	dec_octave
	dec_octave
	B_ 3
	rest 4
	inc_octave
	E_ 3
	rest 4
	inc_octave
	D_ 3
	rest 3
	dec_octave
	E_ 3
	rest 4
	inc_octave
	D_ 3
	rest 4
	dec_octave
	E_ 3
	rest 4
	dec_octave
	B_ 3
	rest 3
	EndLoop
	octave 3
	C_ 3
	rest 4
	dec_octave
	C_ 3
	rest 4
	E_ 3
	rest 4
	inc_octave
	C_ 3
	rest 3
	dec_octave
	E_ 3
	rest 4
	inc_octave
	C_ 3
	rest 4
	dec_octave
	E_ 3
	rest 4
	C_ 3
	rest 3
	inc_octave
	D_ 3
	rest 4
	dec_octave
	C_ 3
	rest 4
	E_ 3
	rest 4
	inc_octave
	C_ 3
	rest 3
	dec_octave
	E_ 3
	rest 4
	inc_octave
	C_ 3
	rest 4
	dec_octave
	E_ 3
	rest 4
	C_ 3
	rest 3
	inc_octave
	C_ 3
	rest 4
	dec_octave
	C_ 3
	rest 4
	D# 3
	rest 4
	inc_octave
	C_ 3
	rest 3
	dec_octave
	D# 3
	rest 4
	inc_octave
	C_ 3
	rest 4
	dec_octave
	D# 3
	rest 4
	C_ 3
	rest 3
	inc_octave
	D# 3
	rest 4
	dec_octave
	C_ 3
	rest 4
	D# 3
	rest 4
	inc_octave
	C_ 3
	rest 3
	dec_octave
	D# 3
	rest 4
	inc_octave
	C_ 3
	rest 4
	dec_octave
	D# 3
	rest 4
	C_ 3
	rest 3
	inc_octave
	C_ 3
	rest 4
	dec_octave
	C_ 3
	rest 4
	E_ 3
	rest 4
	inc_octave
	C_ 3
	rest 3
	dec_octave
	E_ 3
	rest 4
	inc_octave
	C_ 3
	rest 4
	dec_octave
	E_ 3
	rest 4
	C_ 3
	rest 3
	inc_octave
	D_ 3
	rest 4
	dec_octave
	C_ 3
	rest 4
	E_ 3
	rest 4
	inc_octave
	C_ 3
	rest 3
	dec_octave
	E_ 3
	rest 4
	inc_octave
	C_ 3
	rest 4
	dec_octave
	E_ 3
	rest 4
	C_ 3
	rest 3
	inc_octave
	C_ 3
	rest 4
	dec_octave
	C_ 3
	rest 4
	E_ 3
	rest 4
	inc_octave
	C_ 3
	rest 3
	dec_octave
	E_ 3
	rest 4
	inc_octave
	C_ 3
	rest 4
	dec_octave
	E_ 3
	rest 4
	C_ 3
	rest 3
	B_ 3
	rest 4
	B_ 3
	rest 4
	inc_octave
	D_ 3
	rest 4
	dec_octave
	A_ 3
	rest 3
	B_ 3
	rest 4
	G_ 3
	rest 4
	A_ 3
	rest 4
	F# 3
	rest 3
	Loop 7
	musicf0 27
	musicf1 96
	octave 2
	A_ 3
	rest 4
	inc_octave
	D_ 3
	rest 4
	rest 3
	rest 4
	dec_octave
	A_ 3
	rest 3
	inc_octave
	D_ 3
	rest 4
	dec_octave
	musicf0 9
	musicef 254
	musicf1 64
	musicf2
	octave 3
	B_ 3
	B_ 4
	musicf0 27
	rest 13
	octave 2
	musicf2
	B_ 3
	rest 4
	inc_octave
	E_ 3
	rest 4
	rest 3
	rest 4
	dec_octave
	A_ 3
	rest 3
	inc_octave
	D_ 3
	rest 4
	dec_octave
	A_ 3
	rest 4
	inc_octave
	D_ 3
	rest 4
	dec_octave
	rest 3
	rest 3
	EndLoop
	musicf0 27
	musicf1 96
	octave 2
	A_ 3
	rest 4
	inc_octave
	D_ 3
	rest 4
	rest 3
	rest 4
	dec_octave
	A_ 3
	rest 3
	inc_octave
	D_ 3
	rest 4
	dec_octave
	musicf0 9
	musicef 254
	musicf1 64
	musicf2
	octave 3
	B_ 3
	B_ 4
	musicf0 27
	rest 13
	octave 2
	musicf2
	B_ 3
	rest 4
	musicf0 9
	musicf3
	octave 2
	A_ 7
	musicf2
	A# 4
	A# 3
	B_ 4
	B_ 2
	musicf3
	inc_octave
	D_ 7
	dec_octave
	musicf2
	B_ 4
	B_ 3
	A_ 4
	A_ 3
	musicf3
	musicf0 27
	octave 1
	B_ 3
	rest 3
	octave 3
	musicf0 26
	musicef 1
	musicf3
	vibrato_delay 0
	D_ 16
	tie
	D_ 16
	tie
	D_ 16
	tie
	D_ 16
	tie
	D_ 16
	tie
	D_ 16
	tie
	D_ 12
	tie
	D_ 14
	tie
	D_ 13
	tie
	D_ 14
	rest 13
	D_ 14
	tie
	D_ 4
	rest 3
	dec_octave
	B_ 6
	rest 14
	G_ 13
	inc_octave
	C# 16
	tie
	C# 16
	tie
	C# 16
	tie
	C# 16
	tie
	C# 16
	tie
	C# 16
	tie
	C# 12
	tie
	C# 14
	tie
	C# 13
	tie
	C# 14
	tie
	C# 13
	rest 7
	music_call Branch_1f6dd9
	octave 3
	musicf3
	vibrato_delay 0
	D_ 16
	tie
	D_ 16
	tie
	D_ 16
	tie
	D_ 16
	tie
	D_ 16
	tie
	D_ 16
	tie
	D_ 12
	tie
	D_ 14
	tie
	D_ 13
	tie
	D_ 14
	rest 13
	D_ 14
	tie
	D_ 4
	rest 3
	D_ 6
	tie
	D_ 11
	rest 3
	D_ 13
	C# 14
	tie
	C# 13
	rest 14
	C# 13
	tie
	C# 14
	tie
	C# 13
	tie
	C# 14
	tie
	C# 13
	tie
	C# 14
	tie
	C# 13
	tie
	C# 14
	tie
	C# 13
	rest 7
	music_call Branch_1f6dd9
	octave 3
	C_ 14
	tie
	C_ 13
	tie
	C_ 14
	tie
	C_ 14
	rest 14
	C_ 13
	rest 7
	C_ 14
	rest 6
	C_ 14
	rest 7
	C_ 6
	tie
	C_ 11
	rest 3
	C_ 7
	rest 6
	C_ 14
	rest 7
	C_ 16
	rest 4
	dec_octave
	G_ 7
	rest 6
	B_ 14
	tie
	B_ 13
	rest 14
	inc_octave
	D_ 13
	tie
	D_ 14
	rest 13
	dec_octave
	F# 14
	tie
	F# 13
	tie
	F# 14
	tie
	F# 13
	tie
	F# 14
	tie
	F# 13
	rest 7
	music_call Branch_1f6df4
	octave 3
	C_ 14
	tie
	C_ 13
	tie
	C_ 14
	tie
	C_ 13
	rest 14
	D_ 13
	rest 7
	E_ 13
	rest 6
	D# 14
	tie
	D# 13
	rest 14
	G_ 13
	tie
	G_ 14
	tie
	G_ 12
	rest 1
	D# 14
	rest 13
	E_ 14
	tie
	E_ 13
	rest 14
	dec_octave
	B_ 13
	tie
	B_ 14
	tie
	B_ 13
	inc_octave
	E_ 14
	rest 13
	E_ 14
	tie
	E_ 13
	tie
	E_ 14
	rest 13
	D# 7
	musicf0 9
	musicef 255
	octave 2
	A_ 3
	rest 4
	inc_octave
	C_ 4
	rest 3
	D# 3
	rest 3
	F# 4
	rest 3
	A_ 4
	rest 3
	inc_octave
	C_ 4
	rest 3
	D# 3
	rest 3
	musicf0 26
	octave 3
	G_ 14
	tie
	G_ 7
	A_ 6
	musicf0 28
	octave 2
	B_ 4
	rest 3
	pitch_offset 0
	music_call Branch_1f6dbf
	musicf0 26
	octave 3
	C_ 7
	musicf0 28
	octave 2
	B_ 4
	rest 3
	rest 13
	musicf0 28
	octave 3
	C# 3
	D_ 11
	dec_octave
	B_ 13
	musicf0 26
	octave 3
	C_ 14
	tie
	C_ 13
	musicf0 28
	octave 2
	B_ 4
	rest 3
	pitch_offset 0
	music_call Branch_1f6dbf
	musicf0 26
	octave 3
	C_ 7
	musicf0 28
	octave 2
	B_ 4
	rest 3
	rest 7
	musicf0 26
	octave 3
	D_ 6
	musicf0 28
	octave 2
	A_ 14
	B_ 13
	musicf0 26
	octave 3
	F# 14
	tie
	F# 7
	E_ 6
	musicf0 28
	octave 3
	F# 4
	rest 3
	pitch_offset 2
	music_call Branch_1f6dbf
	musicf0 26
	octave 3
	dec_octave
	A_ 7
	musicf0 28
	octave 3
	F# 4
	rest 3
	rest 13
	musicf0 28
	octave 3
	F# 3
	G_ 11
	F# 13
	musicf0 26
	octave 3
	dec_octave
	A_ 14
	tie
	A_ 13
	musicf0 28
	octave 3
	F# 4
	rest 3
	pitch_offset 2
	music_call Branch_1f6dbf
	rest 7
	musicf0 28
	octave 3
	F# 4
	rest 3
	rest 13
	musicf0 28
	octave 3
	F# 4
	G_ 5
	F# 5
	D_ 13
	musicf0 26
	octave 3
	dec_octave
	G_ 14
	tie
	G_ 7
	A_ 6
	musicf0 28
	octave 2
	B_ 4
	rest 3
	pitch_offset 0
	music_call Branch_1f6dbf
	musicf0 26
	octave 3
	E_ 7
	musicf0 28
	octave 2
	B_ 4
	rest 3
	rest 13
	musicf0 28
	octave 3
	C# 3
	D_ 11
	dec_octave
	B_ 13
	musicf0 26
	octave 3
	E_ 14
	tie
	E_ 13
	musicf0 28
	octave 2
	B_ 4
	rest 3
	pitch_offset 0
	music_call Branch_1f6dbf
	musicf0 26
	octave 3
	G_ 7
	musicf0 28
	octave 2
	B_ 4
	rest 3
	rest 7
	musicf0 26
	octave 3
	F# 6
	musicf0 28
	octave 2
	A_ 14
	B_ 13
	tie
	musicf0 26
	octave 3
	D_ 14
	tie
	D_ 7
	C_ 6
	musicf0 28
	octave 3
	F# 4
	rest 3
	pitch_offset 2
	music_call Branch_1f6dbf
	musicf0 26
	octave 3
	C_ 7
	musicf0 28
	octave 3
	F# 4
	rest 3
	rest 13
	musicf0 28
	octave 3
	F# 3
	G_ 11
	F# 13
	musicf0 26
	octave 3
	D_ 14
	tie
	D_ 13
	musicf0 28
	octave 3
	F# 4
	rest 3
	pitch_offset 2
	music_call Branch_1f6dbf
	rest 7
	musicf0 28
	octave 3
	F# 4
	rest 3
	rest 13
	musicf0 28
	octave 3
	F# 4
	G_ 5
	F# 5
	musicf0 26
	octave 3
	E_ 7
	D# 6
	musicf0 26
	octave 3
	C_ 14
	tie
	C_ 7
	dec_octave
	A_ 6
	musicf0 28
	octave 3
	C_ 4
	rest 3
	rest 7
	musicf0 26
	octave 3
	E_ 13
	C_ 7
	musicf0 28
	octave 3
	C_ 4
	rest 3
	rest 7
	musicf0 26
	octave 3
	G_ 6
	musicf0 28
	octave 2
	B_ 3
	inc_octave
	C_ 11
	dec_octave
	A_ 13
	musicf0 26
	octave 3
	E_ 14
	tie
	E_ 13
	musicf0 28
	octave 3
	E_ 4
	rest 10
	rest 13
	rest 7
	musicf0 28
	octave 3
	E_ 4
	rest 3
	rest 13
	musicf0 28
	octave 2
	B_ 3
	inc_octave
	C_ 11
	dec_octave
	A_ 13
	musicf0 26
	octave 3
	G_ 14
	tie
	G_ 7
	A_ 6
	musicf0 28
	octave 3
	G_ 4
	rest 3
	rest 7
	musicf0 26
	octave 3
	A_ 13
	G_ 7
	musicf0 28
	octave 3
	G_ 4
	rest 3
	rest 7
	musicf0 26
	octave 3
	C_ 6
	musicf0 28
	octave 2
	B_ 3
	inc_octave
	C_ 11
	dec_octave
	A_ 13
	musicf0 26
	octave 3
	F# 14
	tie
	F# 13
	musicf0 28
	octave 2
	F# 4
	rest 10
	rest 13
	rest 7
	musicf0 28
	octave 3
	F# 4
	rest 3
	musicf0 26
	octave 3
	E_ 7
	rest 6
	rest 7
	F# 7
	rest 13
	musicef 2
	musicf1 54
	D_ 14
	tie
	D_ 13
	D_ 14
	D_ 13
	tie
	D_ 14
	D_ 13
	E_ 14
	tie
	E_ 13
	tie
	E_ 14
	tie
	E_ 13
	tie
	E_ 14
	E_ 13
	musicf3
	D_ 14
	musicf2
	E_ 7
	E_ 6
	F# 7
	F# 7
	G_ 7
	G_ 6
	D_ 14
	tie
	D_ 13
	D_ 14
	D_ 13
	tie
	D_ 14
	D_ 13
	E_ 14
	tie
	E_ 13
	tie
	E_ 14
	tie
	E_ 13
	tie
	E_ 14
	tie
	E_ 13
	tie
	E_ 14
	tie
	E_ 13
	E_ 14
	tie
	E_ 13
	EndMainLoop

Branch_1f6dbf:
	octave 3
	musicf0 12
	G_ 4
	musicef 251
	G_ 3
	musicef 5
	inc_octave
	G_ 4
	musicef 251
	G_ 3
	musicef 5
	dec_octave
	G_ 3
	musicef 251
	G_ 3
	musicef 5
	pitch_offset 0
	music_ret

Branch_1f6dd9:
	musicf0 9
	octave 2
	C# 4
	rest 3
	E_ 4
	rest 3
	inc_octave
	C# 4
	rest 2
	dec_octave
	E_ 4
	rest 3
	inc_octave
	C# 4
	rest 3
	dec_octave
	E_ 4
	rest 3
	C# 3
	rest 3
	musicf0 26
	musicf3
	musicef 2
	music_ret

Branch_1f6df4:
	musicf0 9
	octave 1
	B_ 4
	rest 3
	inc_octave
	E_ 4
	rest 3
	inc_octave
	D_ 4
	rest 2
	dec_octave
	E_ 4
	rest 3
	inc_octave
	D_ 4
	rest 3
	dec_octave
	E_ 4
	rest 3
	dec_octave
	B_ 3
	rest 3
	musicf0 26
	musicf3
	musicef 2
	music_ret


Music_GRDuelTheme3_Ch3: ; 1f6e11 (7d:6e11)
	wave 1
	stereo_panning 15, 15
	speed 1
	volume 32
	echo 96
	MainLoop
	octave 2
	pitch_offset 244
	vibrato_type 16
	vibrato_delay 48
	Loop 3
	D_ 14
	tie
	D_ 7
	tie
	E_ 6
	tie
	E_ 14
	tie
	E_ 13
	tie
	E_ 14
	tie
	E_ 13
	tie
	E_ 14
	tie
	E_ 13
	tie
	E_ 14
	tie
	E_ 13
	tie
	E_ 14
	tie
	E_ 13
	tie
	E_ 14
	tie
	E_ 13
	tie
	E_ 14
	tie
	E_ 7
	volume 96
	E_ 6
	volume 32
	EndLoop
	D_ 14
	tie
	D_ 7
	tie
	E_ 6
	tie
	E_ 14
	tie
	E_ 13
	tie
	E_ 14
	tie
	E_ 13
	tie
	E_ 14
	tie
	E_ 13
	tie
	E_ 14
	tie
	E_ 13
	tie
	E_ 14
	tie
	E_ 13
	volume 96
	E_ 7
	volume 32
	inc_octave
	D_ 7
	E_ 7
	dec_octave
	B_ 6
	inc_octave
	D_ 7
	dec_octave
	A_ 7
	B_ 7
	G_ 6
	Loop 3
	D_ 14
	tie
	D_ 7
	tie
	E_ 6
	tie
	E_ 14
	tie
	E_ 13
	tie
	E_ 14
	tie
	E_ 13
	tie
	E_ 14
	tie
	E_ 13
	tie
	E_ 14
	tie
	E_ 13
	tie
	E_ 14
	tie
	E_ 13
	tie
	E_ 14
	tie
	E_ 13
	tie
	E_ 14
	tie
	E_ 7
	volume 96
	E_ 6
	volume 32
	D_ 14
	tie
	D_ 7
	tie
	E_ 6
	tie
	E_ 14
	tie
	E_ 13
	tie
	E_ 14
	tie
	E_ 13
	tie
	E_ 14
	tie
	E_ 13
	tie
	E_ 14
	tie
	E_ 13
	tie
	E_ 14
	tie
	E_ 13
	volume 96
	E_ 7
	volume 32
	B_ 7
	inc_octave
	D_ 7
	dec_octave
	A_ 6
	B_ 7
	G_ 7
	A_ 7
	F# 3
	rest 3
	EndLoop
	D_ 14
	tie
	D_ 7
	tie
	E_ 6
	tie
	E_ 14
	tie
	E_ 13
	tie
	E_ 14
	tie
	E_ 13
	tie
	E_ 14
	tie
	E_ 13
	vibrato_delay 0
	F_ 14
	tie
	F_ 13
	tie
	F_ 14
	tie
	F_ 13
	tie
	F_ 14
	tie
	F_ 13
	tie
	F_ 14
	tie
	F_ 7
	volume 96
	F_ 6
	volume 32
	vibrato_delay 48
	F# 14
	tie
	F# 13
	tie
	F# 14
	tie
	F# 13
	tie
	F# 14
	tie
	F# 13
	tie
	F# 14
	tie
	F# 13
	B_ 14
	tie
	B_ 13
	tie
	B_ 14
	tie
	B_ 13
	volume 96
	B_ 7
	volume 32
	B_ 7
	inc_octave
	D_ 7
	dec_octave
	A_ 6
	B_ 7
	G_ 7
	A_ 7
	F# 3
	rest 3
	Loop 4
	D_ 14
	tie
	D_ 7
	cutoff 4
	E_ 6
	cutoff 8
	E_ 3
	rest 4
	inc_octave
	inc_octave
	inc_octave
	echo 64
	cutoff 4
	E_ 7
	cutoff 8
	echo 96
	dec_octave
	dec_octave
	D_ 5
	rest 2
	D_ 2
	rest 4
	E_ 4
	rest 3
	E_ 2
	rest 5
	dec_octave
	B_ 4
	rest 3
	B_ 1
	rest 5
	inc_octave
	D_ 7
	E_ 7
	dec_octave
	D_ 4
	rest 3
	E_ 3
	rest 3
	D_ 14
	tie
	D_ 7
	cutoff 4
	E_ 6
	cutoff 8
	E_ 3
	rest 4
	inc_octave
	inc_octave
	inc_octave
	echo 64
	cutoff 4
	E_ 7
	cutoff 8
	echo 96
	dec_octave
	dec_octave
	D_ 5
	rest 2
	D_ 2
	rest 4
	E_ 4
	rest 3
	E_ 2
	rest 5
	dec_octave
	B_ 4
	rest 3
	B_ 1
	rest 5
	inc_octave
	D_ 7
	dec_octave
	B_ 4
	rest 3
	A_ 4
	rest 3
	G_ 3
	rest 3
	EndLoop
	D_ 14
	tie
	D_ 7
	E_ 6
	inc_octave
	E_ 2
	rest 12
	dec_octave
	B_ 4
	rest 3
	E_ 3
	rest 3
	E_ 4
	rest 3
	E_ 4
	rest 3
	dec_octave
	B_ 13
	inc_octave
	D_ 14
	D# 13
	E_ 14
	tie
	E_ 7
	E_ 6
	inc_octave
	E_ 2
	rest 12
	dec_octave
	B_ 4
	rest 3
	E_ 3
	rest 3
	E_ 4
	rest 3
	E_ 4
	rest 3
	dec_octave
	B_ 13
	inc_octave
	D_ 14
	dec_octave
	B_ 13
	inc_octave
	D_ 14
	tie
	D_ 7
	E_ 6
	inc_octave
	E_ 2
	rest 12
	dec_octave
	B_ 4
	rest 3
	E_ 3
	rest 3
	E_ 4
	rest 3
	E_ 4
	rest 3
	dec_octave
	B_ 13
	inc_octave
	D_ 14
	D# 13
	E_ 14
	tie
	E_ 7
	E_ 6
	inc_octave
	E_ 2
	rest 12
	dec_octave
	B_ 4
	rest 3
	E_ 3
	rest 3
	E_ 4
	rest 3
	B_ 7
	inc_octave
	D_ 4
	rest 3
	dec_octave
	A_ 4
	rest 2
	B_ 7
	G_ 4
	rest 3
	A_ 4
	rest 3
	F# 4
	rest 2
	D_ 14
	tie
	D_ 7
	E_ 6
	inc_octave
	E_ 2
	rest 12
	dec_octave
	B_ 4
	rest 3
	E_ 3
	rest 3
	E_ 4
	rest 3
	E_ 4
	rest 3
	dec_octave
	B_ 13
	inc_octave
	D_ 14
	D# 13
	E_ 14
	tie
	E_ 7
	E_ 6
	inc_octave
	E_ 2
	rest 12
	dec_octave
	B_ 4
	rest 3
	E_ 3
	rest 3
	E_ 4
	rest 3
	E_ 4
	rest 3
	dec_octave
	B_ 13
	inc_octave
	D_ 14
	dec_octave
	B_ 13
	inc_octave
	D_ 14
	tie
	D_ 7
	E_ 6
	inc_octave
	E_ 2
	rest 12
	dec_octave
	B_ 4
	rest 3
	E_ 3
	rest 3
	E_ 4
	rest 3
	E_ 4
	rest 3
	dec_octave
	B_ 13
	inc_octave
	D_ 14
	D# 13
	E_ 14
	rest 7
	E_ 6
	rest 7
	B_ 7
	inc_octave
	D_ 7
	E_ 6
	rest 7
	dec_octave
	B_ 7
	inc_octave
	D_ 7
	dec_octave
	A_ 6
	B_ 7
	G_ 7
	A_ 7
	F# 3
	rest 3
	D_ 14
	tie
	D_ 7
	E_ 6
	inc_octave
	E_ 2
	rest 12
	dec_octave
	B_ 4
	rest 3
	E_ 3
	rest 3
	E_ 4
	rest 3
	E_ 4
	rest 3
	dec_octave
	B_ 13
	inc_octave
	D_ 14
	D# 13
	E_ 14
	tie
	E_ 7
	E_ 6
	inc_octave
	E_ 2
	rest 12
	dec_octave
	B_ 4
	rest 3
	E_ 3
	rest 3
	E_ 4
	rest 3
	E_ 4
	rest 3
	dec_octave
	B_ 13
	inc_octave
	D_ 14
	dec_octave
	B_ 13
	inc_octave
	D_ 14
	tie
	D_ 7
	E_ 6
	inc_octave
	E_ 2
	rest 12
	dec_octave
	B_ 4
	rest 3
	E_ 3
	rest 3
	E_ 4
	rest 3
	E_ 4
	rest 3
	dec_octave
	B_ 13
	inc_octave
	D_ 14
	D# 13
	E_ 14
	tie
	E_ 7
	E_ 6
	inc_octave
	E_ 2
	rest 12
	dec_octave
	B_ 4
	rest 3
	E_ 3
	rest 3
	E_ 4
	rest 4
	B_ 7
	inc_octave
	D_ 4
	rest 3
	dec_octave
	A_ 4
	rest 2
	B_ 7
	G_ 4
	rest 3
	A_ 4
	rest 3
	F# 4
	rest 2
	D_ 14
	tie
	D_ 7
	E_ 6
	inc_octave
	E_ 2
	rest 12
	dec_octave
	B_ 4
	rest 3
	E_ 3
	rest 3
	E_ 4
	rest 3
	E_ 4
	rest 3
	dec_octave
	B_ 13
	inc_octave
	D_ 14
	E_ 13
	F_ 14
	tie
	F_ 7
	F_ 6
	inc_octave
	F_ 2
	rest 12
	C_ 4
	rest 3
	dec_octave
	F_ 3
	rest 3
	F_ 4
	rest 3
	F_ 4
	rest 3
	C_ 13
	D# 14
	F_ 13
	F# 14
	tie
	F# 7
	F# 6
	inc_octave
	F# 2
	rest 12
	C# 4
	rest 3
	dec_octave
	F# 3
	rest 3
	F# 4
	rest 3
	F# 4
	rest 3
	C# 13
	E_ 14
	C# 13
	B_ 14
	tie
	B_ 7
	B_ 6
	inc_octave
	B_ 1
	rest 13
	F# 4
	rest 3
	dec_octave
	B_ 3
	rest 3
	B_ 4
	rest 3
	inc_octave
	cutoff 4
	F# 7
	A_ 7
	inc_octave
	C_ 6
	D# 7
	F# 7
	A_ 7
	inc_octave
	C_ 6
	cutoff 8
	octave 2
	C_ 14
	C_ 2
	rest 5
	C_ 6
	inc_octave
	cutoff 4
	G_ 7
	cutoff 8
	dec_octave
	G_ 4
	rest 3
	B_ 7
	G_ 4
	rest 2
	C_ 3
	rest 4
	inc_octave
	cutoff 4
	G_ 7
	cutoff 8
	dec_octave
	G_ 7
	C_ 3
	rest 3
	inc_octave
	C_ 14
	dec_octave
	G_ 13
	C_ 14
	C_ 2
	rest 5
	C_ 6
	inc_octave
	cutoff 4
	G_ 7
	cutoff 8
	dec_octave
	G_ 4
	rest 3
	B_ 7
	G_ 4
	rest 2
	C_ 3
	rest 4
	inc_octave
	cutoff 4
	G_ 7
	cutoff 8
	dec_octave
	G_ 7
	C_ 3
	rest 3
	inc_octave
	C_ 14
	dec_octave
	G_ 13
	C_ 14
	C_ 2
	rest 5
	C_ 6
	inc_octave
	cutoff 4
	inc_octave
	D_ 7
	dec_octave
	cutoff 8
	dec_octave
	A_ 4
	rest 3
	inc_octave
	C_ 7
	dec_octave
	A_ 4
	rest 2
	C_ 3
	rest 4
	inc_octave
	cutoff 4
	inc_octave
	D_ 7
	dec_octave
	cutoff 8
	dec_octave
	A_ 7
	C_ 3
	rest 3
	B_ 14
	A_ 13
	C_ 14
	C_ 2
	rest 5
	C_ 6
	inc_octave
	cutoff 4
	inc_octave
	D_ 7
	dec_octave
	cutoff 8
	dec_octave
	A_ 4
	rest 3
	inc_octave
	C_ 7
	dec_octave
	A_ 4
	rest 2
	C_ 3
	rest 4
	inc_octave
	cutoff 4
	inc_octave
	D_ 7
	dec_octave
	cutoff 8
	dec_octave
	A_ 7
	C_ 3
	rest 3
	G_ 14
	A_ 13
	C_ 14
	C_ 2
	rest 5
	C_ 6
	inc_octave
	cutoff 4
	G_ 7
	cutoff 8
	dec_octave
	G_ 4
	rest 3
	B_ 7
	G_ 4
	rest 2
	C_ 3
	rest 4
	inc_octave
	cutoff 4
	G_ 7
	cutoff 8
	dec_octave
	G_ 7
	C_ 3
	rest 3
	inc_octave
	C_ 14
	dec_octave
	G_ 13
	C_ 14
	C_ 2
	rest 5
	C_ 6
	inc_octave
	cutoff 4
	G_ 7
	cutoff 8
	dec_octave
	G_ 4
	rest 3
	B_ 6
	G_ 4
	rest 2
	C_ 3
	rest 4
	inc_octave
	cutoff 4
	G_ 7
	cutoff 8
	dec_octave
	G_ 7
	C_ 3
	rest 3
	inc_octave
	C_ 14
	dec_octave
	G_ 13
	C_ 14
	C_ 2
	rest 5
	C_ 6
	inc_octave
	cutoff 4
	inc_octave
	D_ 7
	dec_octave
	cutoff 8
	dec_octave
	A_ 4
	rest 3
	inc_octave
	C_ 7
	dec_octave
	A_ 4
	rest 2
	C_ 3
	rest 4
	inc_octave
	cutoff 4
	inc_octave
	D_ 7
	dec_octave
	cutoff 8
	dec_octave
	A_ 7
	C_ 3
	rest 3
	B_ 14
	A_ 13
	C_ 14
	C_ 2
	rest 5
	C_ 6
	inc_octave
	cutoff 4
	inc_octave
	D_ 7
	dec_octave
	cutoff 8
	dec_octave
	A_ 4
	rest 3
	inc_octave
	C_ 7
	dec_octave
	A_ 4
	rest 2
	C_ 3
	rest 4
	inc_octave
	cutoff 4
	inc_octave
	D_ 7
	dec_octave
	cutoff 8
	dec_octave
	A_ 7
	C_ 3
	rest 3
	G_ 14
	A_ 13
	D_ 14
	D_ 2
	rest 5
	D_ 6
	inc_octave
	cutoff 4
	A_ 7
	cutoff 8
	dec_octave
	A_ 4
	rest 3
	inc_octave
	C_ 7
	dec_octave
	A_ 4
	rest 2
	D_ 3
	rest 4
	inc_octave
	cutoff 4
	A_ 7
	cutoff 8
	dec_octave
	A_ 7
	F_ 3
	rest 3
	C_ 14
	C# 13
	D_ 14
	D_ 2
	rest 5
	D_ 6
	inc_octave
	cutoff 4
	inc_octave
	C_ 7
	dec_octave
	cutoff 8
	dec_octave
	A_ 4
	rest 3
	inc_octave
	C_ 7
	dec_octave
	A_ 4
	rest 2
	D_ 3
	rest 4
	inc_octave
	cutoff 4
	inc_octave
	C_ 7
	dec_octave
	cutoff 8
	dec_octave
	A_ 7
	F_ 3
	rest 3
	D_ 14
	D_ 13
	D_ 14
	D_ 2
	rest 5
	D_ 6
	inc_octave
	cutoff 4
	inc_octave
	C_ 7
	dec_octave
	cutoff 8
	dec_octave
	A_ 4
	rest 3
	inc_octave
	C_ 7
	dec_octave
	A_ 4
	rest 2
	D_ 3
	rest 4
	inc_octave
	cutoff 4
	inc_octave
	C_ 7
	dec_octave
	cutoff 8
	dec_octave
	A_ 7
	F_ 3
	rest 3
	C_ 14
	C# 13
	D_ 14
	D_ 2
	rest 5
	D_ 6
	inc_octave
	cutoff 4
	inc_octave
	D_ 7
	dec_octave
	cutoff 8
	dec_octave
	A_ 4
	rest 3
	inc_octave
	C_ 7
	dec_octave
	A_ 4
	rest 2
	D_ 3
	rest 4
	inc_octave
	cutoff 4
	inc_octave
	D_ 7
	dec_octave
	cutoff 8
	dec_octave
	A_ 7
	F_ 3
	rest 3
	D_ 14
	D_ 13
	music_call Branch_1f72b7
	cutoff 8
	D_ 14
	cutoff 5
	D_ 7
	cutoff 6
	D_ 6
	cutoff 8
	D_ 7
	inc_octave
	cutoff 6
	D_ 7
	C_ 7
	cutoff 6
	D_ 6
	dec_octave
	cutoff 8
	A_ 7
	cutoff 6
	E_ 7
	C_ 7
	cutoff 7
	C# 6
	cutoff 8
	D_ 14
	cutoff 5
	A_ 13
	inc_octave
	C_ 14
	D_ 13
	music_call Branch_1f72b7
	D_ 14
	tie
	D_ 13
	tie
	D_ 14
	tie
	D_ 13
	tie
	D_ 14
	tie
	D_ 13
	tie
	D_ 14
	tie
	D_ 13
	tie
	D_ 14
	tie
	D_ 13
	EndMainLoop

Branch_1f72b7:
	octave 2
	cutoff 8
	E_ 7
	inc_octave
	cutoff 5
	E_ 7
	D_ 7
	E_ 6
	dec_octave
	B_ 7
	D_ 7
	cutoff 8
	E_ 7
	cutoff 6
	inc_octave
	E_ 6
	cutoff 5
	D_ 7
	E_ 7
	dec_octave
	B_ 7
	cutoff 6
	E_ 6
	music_ret


Music_GRDuelTheme3_Ch4: ; 1f72d5 (7d:72d5)
	MainLoop
	speed 1
	octave 1
	stereo_panning 15, 15
	snare3 7
	snare3 7
	snare4 7
	snare1 6
	snare3 7
	snare1 7
	snare3 7
	snare3 6
	snare3 7
	snare3 7
	snare4 7
	snare3 6
	snare3 7
	snare4 7
	snare3 7
	snare3 6
	snare3 7
	snare3 7
	snare4 7
	snare1 6
	snare3 7
	snare1 7
	snare3 7
	snare3 6
	snare3 7
	snare3 7
	snare4 7
	snare3 6
	snare3 7
	snare4 7
	snare3 7
	snare3 6
	snare3 7
	snare3 7
	snare4 7
	snare1 6
	snare3 7
	snare1 7
	snare3 7
	snare3 6
	snare3 7
	snare3 7
	snare4 7
	snare3 6
	snare3 7
	snare4 7
	snare3 7
	snare3 6
	snare3 7
	snare3 7
	snare4 7
	snare1 6
	snare3 7
	snare1 7
	snare3 7
	snare3 6
	snare3 7
	snare3 7
	snare4 7
	snare3 6
	snare3 7
	snare4 7
	snare3 7
	snare3 6
	bass 7
	snare3 7
	snare4 7
	snare1 6
	bass 7
	snare1 7
	snare3 7
	snare3 6
	bass 7
	snare3 7
	snare4 7
	snare3 6
	bass 7
	snare4 7
	snare3 7
	snare3 6
	bass 7
	snare3 7
	snare4 7
	snare1 6
	bass 7
	snare1 7
	snare3 7
	snare3 6
	bass 7
	snare3 7
	snare4 7
	snare3 6
	bass 7
	snare4 7
	snare3 7
	snare3 6
	bass 7
	snare3 7
	snare4 7
	snare1 6
	bass 7
	snare1 7
	snare3 7
	snare3 6
	bass 7
	snare3 7
	snare4 7
	snare3 6
	bass 7
	snare4 7
	snare3 7
	snare3 6
	bass 7
	snare3 7
	snare4 7
	snare1 6
	bass 7
	snare1 7
	snare3 7
	snare3 6
	bass 7
	snare1 7
	snare1 7
	snare1 6
	snare1 7
	snare1 7
	snare1 7
	snare1 6
	bass 7
	snare3 7
	snare3 7
	bass 6
	snare1 7
	snare3 7
	bass 7
	snare4 6
	snare3 7
	bass 7
	snare3 7
	snare3 6
	snare3 7
	snare3 7
	snare1 7
	snare4 6
	bass 7
	snare3 7
	snare3 7
	bass 6
	snare1 7
	bass 7
	bass 7
	snare4 6
	snare3 7
	snare1 7
	snare3 7
	snare3 6
	snare3 7
	snare3 7
	snare3 7
	snare1 6
	bass 7
	snare3 7
	snare3 7
	bass 6
	snare1 7
	snare3 7
	bass 7
	snare4 6
	snare3 7
	bass 7
	snare3 7
	snare3 6
	snare3 7
	snare3 7
	snare1 7
	snare4 6
	bass 7
	snare3 7
	snare3 7
	bass 6
	snare1 7
	bass 7
	bass 7
	snare4 6
	snare3 7
	snare1 7
	snare3 7
	snare3 6
	snare3 7
	snare3 7
	snare3 7
	snare1 6
	bass 7
	snare3 7
	snare3 7
	bass 6
	snare1 7
	snare3 7
	bass 7
	snare4 6
	snare3 7
	bass 7
	snare3 7
	snare3 6
	snare3 7
	snare3 7
	snare1 7
	snare4 6
	bass 7
	snare3 7
	snare3 7
	bass 6
	snare1 7
	bass 7
	bass 7
	snare4 6
	snare3 7
	snare1 7
	snare3 7
	snare3 6
	snare3 7
	snare3 7
	snare3 7
	snare1 6
	bass 7
	snare3 7
	snare3 7
	bass 6
	snare1 7
	snare3 7
	bass 7
	snare4 6
	snare3 7
	bass 7
	snare3 7
	snare3 6
	snare3 7
	snare3 7
	snare1 7
	snare4 6
	bass 7
	snare3 7
	snare3 7
	bass 6
	snare1 7
	bass 7
	bass 7
	snare4 6
	snare3 7
	snare1 7
	snare3 7
	snare3 6
	snare3 7
	snare3 7
	snare3 7
	snare1 6
	bass 7
	snare3 7
	snare3 7
	bass 6
	snare1 7
	snare3 7
	bass 7
	snare4 6
	snare3 7
	bass 7
	snare3 7
	snare3 6
	snare3 7
	snare3 7
	snare1 7
	snare4 6
	bass 7
	snare3 7
	snare3 7
	bass 6
	snare1 7
	bass 7
	bass 7
	snare4 6
	snare3 7
	snare1 7
	snare3 7
	snare3 6
	snare3 7
	snare3 7
	snare3 7
	snare1 6
	bass 7
	snare3 7
	snare3 7
	bass 6
	snare1 7
	snare3 7
	bass 7
	snare4 6
	snare3 7
	bass 7
	snare3 7
	snare3 6
	snare3 7
	snare3 7
	snare1 7
	snare4 6
	bass 7
	snare3 7
	snare3 7
	bass 6
	snare1 7
	bass 7
	bass 7
	snare4 6
	snare3 7
	snare1 7
	snare3 7
	snare3 6
	snare3 7
	snare3 7
	snare3 7
	snare1 6
	bass 7
	snare3 7
	snare3 7
	bass 6
	snare1 7
	snare3 7
	bass 7
	snare4 6
	snare3 7
	bass 7
	snare3 7
	snare3 6
	snare3 7
	snare3 7
	snare1 7
	snare4 6
	bass 7
	snare3 7
	snare3 7
	bass 6
	snare1 7
	bass 7
	bass 7
	snare4 6
	snare3 7
	snare1 7
	snare3 7
	snare3 6
	snare3 7
	snare3 7
	snare3 7
	snare1 6
	bass 7
	snare3 7
	snare3 7
	bass 6
	snare1 7
	snare3 7
	bass 7
	snare4 6
	snare3 7
	bass 7
	snare3 7
	snare3 6
	snare3 7
	snare3 7
	snare1 7
	snare4 6
	bass 7
	snare3 7
	snare3 7
	bass 6
	snare1 7
	bass 7
	bass 7
	snare4 6
	snare3 7
	snare1 7
	snare1 7
	snare1 6
	snare1 7
	snare1 7
	snare1 7
	snare1 6
	bass 7
	snare3 7
	snare3 7
	bass 6
	snare1 7
	snare3 7
	snare3 7
	snare4 6
	snare3 7
	bass 7
	snare3 7
	snare3 6
	snare1 7
	snare3 7
	snare3 7
	snare1 6
	bass 7
	snare3 7
	snare3 7
	bass 6
	snare1 7
	snare3 7
	snare3 7
	snare4 6
	snare3 7
	bass 7
	snare3 7
	snare3 6
	snare1 7
	snare3 7
	snare3 7
	snare1 6
	bass 7
	snare3 7
	snare3 7
	bass 6
	snare1 7
	snare3 7
	snare3 7
	snare4 6
	snare3 7
	bass 7
	snare3 7
	snare3 6
	snare1 7
	snare3 7
	snare3 7
	snare1 6
	bass 7
	snare3 7
	snare3 7
	bass 6
	snare1 7
	snare3 7
	snare3 7
	snare4 6
	snare3 7
	bass 7
	snare3 7
	snare3 6
	snare1 7
	snare3 7
	snare3 7
	snare1 3
	snare1 3
	bass 7
	snare3 7
	snare3 7
	bass 6
	snare1 7
	snare3 7
	snare3 7
	snare4 6
	snare3 7
	bass 7
	snare3 7
	snare3 6
	snare1 7
	snare3 7
	snare3 7
	snare1 6
	bass 7
	snare3 7
	snare3 7
	bass 6
	snare1 7
	snare3 7
	snare3 7
	snare4 6
	snare3 7
	bass 7
	snare3 7
	snare3 6
	snare1 7
	snare3 7
	snare3 7
	snare1 6
	bass 7
	snare3 7
	snare3 7
	bass 6
	snare1 7
	snare3 7
	snare3 7
	snare4 6
	snare3 7
	bass 7
	snare3 7
	snare3 6
	snare1 7
	snare3 7
	snare3 7
	snare1 6
	bass 7
	snare3 7
	snare3 7
	bass 6
	snare1 7
	snare3 7
	snare3 7
	snare1 6
	snare3 7
	snare1 7
	snare1 7
	snare1 6
	snare1 7
	snare1 7
	snare1 7
	snare1 6
	bass 7
	snare3 7
	snare3 7
	bass 6
	snare1 7
	snare3 7
	snare3 7
	snare4 6
	snare3 7
	bass 7
	snare3 7
	snare3 6
	snare3 7
	snare1 7
	snare3 7
	snare1 6
	bass 7
	snare3 7
	snare3 7
	bass 6
	snare1 7
	snare3 7
	snare3 7
	snare4 6
	snare3 7
	snare1 7
	snare3 7
	snare3 6
	snare3 7
	snare1 7
	snare3 7
	snare1 6
	bass 7
	snare3 7
	snare3 7
	bass 6
	snare1 7
	snare3 7
	snare3 7
	snare4 6
	snare3 7
	bass 7
	snare3 7
	snare3 6
	snare3 7
	snare1 7
	snare3 7
	snare1 6
	bass 7
	snare3 7
	snare3 7
	bass 6
	snare1 7
	snare3 7
	snare3 7
	snare4 6
	snare3 7
	snare1 7
	snare3 7
	snare3 6
	snare3 7
	snare1 7
	snare3 7
	snare1 3
	snare1 3
	bass 7
	snare3 7
	snare3 7
	bass 6
	snare1 7
	snare3 7
	snare3 7
	snare4 6
	snare3 7
	bass 7
	snare3 7
	snare3 6
	snare3 7
	snare1 7
	snare3 7
	snare1 6
	bass 7
	snare3 7
	snare3 7
	bass 6
	snare1 7
	snare3 7
	snare3 7
	snare4 6
	snare3 7
	snare1 7
	snare3 7
	snare3 6
	snare3 7
	snare1 7
	snare3 7
	snare1 6
	bass 7
	snare3 7
	snare3 7
	bass 6
	snare1 7
	snare3 7
	snare3 7
	snare4 6
	snare3 7
	bass 7
	snare3 7
	snare3 6
	snare3 7
	snare1 7
	snare3 7
	snare1 6
	bass 7
	snare3 7
	snare3 7
	bass 6
	snare1 7
	snare3 7
	snare3 7
	snare4 6
	snare3 7
	snare1 7
	snare3 7
	snare1 3
	snare1 3
	snare1 7
	snare1 7
	snare1 7
	snare1 6
	bass 7
	snare3 7
	snare3 7
	bass 6
	snare1 7
	snare3 7
	snare3 7
	snare4 6
	snare3 7
	bass 7
	snare3 7
	snare3 6
	snare3 7
	snare1 7
	snare3 7
	snare1 6
	bass 7
	snare3 7
	snare3 7
	bass 6
	snare1 7
	snare3 7
	snare3 7
	snare4 6
	snare3 7
	snare1 7
	snare3 7
	snare3 6
	snare3 7
	snare1 7
	snare3 7
	snare1 6
	bass 7
	snare3 7
	snare3 7
	bass 6
	snare1 7
	snare3 7
	snare3 7
	snare4 6
	snare3 7
	bass 7
	snare3 7
	snare3 6
	snare3 7
	snare1 7
	snare3 7
	snare1 6
	bass 7
	snare3 7
	snare3 7
	bass 6
	snare1 7
	snare3 7
	snare3 7
	snare4 6
	snare3 7
	snare1 7
	snare3 7
	snare3 6
	snare3 7
	snare1 7
	snare3 7
	snare1 3
	snare1 3
	bass 7
	snare3 7
	snare3 7
	bass 6
	snare1 7
	snare3 7
	snare3 7
	snare4 6
	snare3 7
	bass 7
	snare3 7
	snare3 6
	snare3 7
	snare1 7
	snare3 7
	snare1 6
	bass 7
	snare3 7
	snare3 7
	bass 6
	snare1 7
	snare3 7
	snare3 7
	snare4 6
	snare3 7
	snare1 7
	snare3 7
	snare3 6
	snare3 7
	snare1 7
	snare3 7
	snare1 6
	bass 7
	snare3 7
	snare3 7
	bass 6
	snare1 7
	snare3 7
	snare3 7
	snare4 6
	snare3 7
	bass 7
	snare3 7
	snare3 6
	snare3 7
	snare1 7
	snare3 7
	snare1 6
	bass 7
	snare3 7
	snare3 7
	bass 6
	snare1 7
	snare3 7
	snare3 7
	snare4 6
	snare3 7
	snare1 4
	snare1 3
	snare1 7
	snare1 6
	snare1 7
	snare1 7
	snare1 7
	snare1 6
	bass 7
	snare3 7
	snare3 7
	bass 6
	snare1 7
	snare3 7
	snare3 7
	bass 6
	bass 7
	snare3 7
	bass 7
	snare3 6
	snare1 7
	bass 7
	snare3 7
	snare1 6
	bass 7
	snare3 7
	snare3 7
	bass 6
	snare1 7
	snare3 7
	snare3 7
	bass 6
	bass 7
	snare3 7
	bass 7
	snare3 6
	snare1 7
	bass 7
	snare4 7
	snare1 6
	bass 7
	snare3 7
	snare3 7
	bass 6
	snare1 7
	snare3 7
	snare3 7
	bass 6
	bass 7
	snare3 7
	bass 7
	snare3 6
	snare1 7
	bass 7
	snare3 7
	snare1 6
	bass 7
	snare3 7
	snare3 7
	bass 6
	snare1 7
	snare3 7
	snare3 7
	bass 6
	bass 7
	snare3 7
	bass 7
	snare3 6
	snare1 7
	bass 7
	snare4 7
	snare1 6
	bass 7
	snare3 7
	snare3 7
	bass 6
	snare1 7
	snare3 7
	snare3 7
	bass 6
	bass 7
	snare3 7
	bass 7
	snare3 6
	snare1 7
	bass 7
	snare3 7
	snare1 6
	bass 7
	snare3 7
	snare3 7
	bass 6
	snare1 7
	snare3 7
	snare3 7
	bass 6
	bass 7
	snare3 7
	bass 7
	snare3 6
	snare1 7
	bass 7
	snare4 7
	snare1 6
	bass 7
	snare3 7
	snare3 7
	bass 6
	snare1 7
	snare3 7
	snare3 7
	bass 6
	bass 7
	snare3 7
	bass 7
	snare3 6
	snare1 7
	bass 7
	snare3 7
	snare1 6
	bass 7
	snare3 7
	snare3 7
	bass 6
	snare1 7
	snare3 7
	snare3 7
	bass 6
	bass 7
	snare1 7
	snare4 7
	snare1 3
	snare1 3
	snare1 7
	snare1 7
	snare3 7
	snare1 6
	bass 7
	snare3 7
	snare3 7
	bass 6
	snare1 7
	snare3 7
	snare3 7
	bass 6
	bass 7
	snare3 7
	bass 7
	snare3 6
	snare1 7
	bass 7
	snare3 7
	snare1 6
	bass 7
	snare3 7
	snare3 7
	bass 6
	snare1 7
	snare3 7
	snare3 7
	bass 6
	bass 7
	snare3 7
	bass 7
	snare3 6
	snare1 7
	bass 7
	snare4 7
	snare1 6
	bass 7
	snare3 7
	snare3 7
	bass 6
	snare1 7
	snare3 7
	snare3 7
	bass 6
	bass 7
	snare3 7
	bass 7
	snare3 6
	snare1 7
	bass 7
	snare3 7
	snare1 6
	bass 7
	snare1 7
	snare4 7
	bass 6
	snare1 7
	snare3 7
	snare3 7
	snare1 3
	snare1 3
	snare1 7
	snare1 7
	snare1 7
	snare1 6
	snare1 7
	snare1 7
	snare1 7
	snare1 6
	bass 7
	snare1 7
	snare4 7
	bass 6
	snare1 7
	snare3 7
	bass 7
	snare1 6
	snare4 7
	bass 7
	snare1 7
	snare3 6
	bass 7
	snare1 7
	snare4 7
	bass 6
	bass 7
	snare3 7
	snare3 7
	snare1 6
	snare1 7
	snare1 7
	snare3 7
	snare1 6
	bass 7
	snare1 7
	snare4 7
	bass 6
	snare1 7
	snare3 7
	snare1 7
	snare1 6
	bass 7
	snare1 7
	snare4 7
	bass 6
	snare1 7
	snare3 7
	bass 7
	snare1 6
	snare4 7
	bass 7
	snare1 7
	snare3 6
	speed 9
	snare5 9
	speed 1
	bass 7
	snare1 7
	snare1 7
	snare1 6
	snare1 7
	snare1 7
	snare1 7
	snare1 6
	EndMainLoop
; 0x1f76dc
