Music_GRDuelTheme1_Ch2: ; 1f5865 (7d:5865)
	stereo_panning 15, 15
	speed 1
	musicf0 16
	octave 3
	musicf1 54
	rest 15
	octave 3
	E_ 7
	E_ 7
	tie
	E_ 8
	E_ 7
	E_ 7
	tie
	E_ 7
	F_ 8
	F_ 7
	tie
	F_ 7
	F_ 7
	F_ 15
	rest 14
	rest 15
	octave 3
	G_ 7
	G_ 7
	tie
	G_ 8
	G_ 7
	G_ 7
	tie
	G_ 7
	F_ 8
	F_ 7
	tie
	F_ 7
	F_ 7
	F_ 15
	rest 14
	MainLoop
	Loop 2
	rest 15
	octave 3
	E_ 7
	E_ 7
	tie
	E_ 8
	E_ 7
	E_ 7
	tie
	E_ 7
	F_ 8
	F_ 7
	tie
	F_ 7
	F_ 7
	F_ 15
	rest 14
	rest 15
	octave 3
	G_ 7
	G_ 7
	tie
	G_ 8
	G_ 7
	G_ 7
	tie
	G_ 7
	F_ 8
	F_ 7
	tie
	F_ 7
	F_ 7
	F_ 15
	rest 14
	EndLoop
	rest 15
	octave 3
	E_ 7
	E_ 7
	tie
	E_ 8
	E_ 7
	E_ 7
	tie
	E_ 7
	F_ 8
	F_ 7
	tie
	F_ 7
	F_ 7
	F_ 15
	rest 14
	rest 15
	octave 3
	G_ 7
	G_ 7
	tie
	G_ 8
	G_ 7
	G_ 7
	tie
	G_ 7
	F_ 8
	F_ 7
	tie
	F_ 7
	F_ 7
	F_ 15
	rest 7
	music_call Branch_1f5ae8
	musicf0 16
	musicf1 54
	octave 3
	G_ 7
	G_ 7
	tie
	G_ 8
	G_ 7
	G_ 7
	tie
	G_ 7
	F_ 8
	F_ 7
	tie
	F_ 7
	F_ 7
	F_ 15
	rest 14
	rest 15
	octave 3
	E_ 7
	E_ 7
	tie
	E_ 8
	E_ 7
	E_ 7
	tie
	E_ 7
	F_ 8
	F_ 7
	tie
	F_ 7
	F_ 7
	F_ 15
	rest 14
	rest 15
	octave 3
	G_ 7
	G_ 7
	tie
	G_ 8
	G_ 7
	G_ 7
	tie
	G_ 7
	F_ 8
	F_ 7
	tie
	F_ 7
	F_ 7
	F_ 15
	rest 7
	music_call Branch_1f5ae8
	musicf0 16
	musicf1 54
	octave 3
	G_ 7
	G_ 7
	tie
	G_ 8
	G_ 7
	G_ 7
	tie
	G_ 7
	F_ 8
	F_ 7
	tie
	F_ 7
	F_ 7
	F_ 15
	rest 14
	rest 15
	octave 3
	E_ 7
	E_ 7
	tie
	E_ 8
	E_ 7
	E_ 7
	tie
	E_ 7
	F_ 8
	F_ 7
	tie
	F_ 7
	F_ 7
	F_ 15
	rest 14
	rest 15
	octave 3
	G_ 7
	G_ 7
	tie
	G_ 8
	G_ 7
	G_ 7
	tie
	G_ 7
	F_ 8
	musicf0 4
	musicf3
	octave 2
	A_ 7
	A# 7
	inc_octave
	C# 4
	rest 3
	F_ 8
	F# 7
	A_ 7
	A# 3
	rest 4
	musicf1 71
	inc_octave
	C_ 15
	C_ 7
	dec_octave
	A# 7
	A# 8
	A_ 5
	A_ 9
	F_ 4
	F_ 3
	musicf3
	C# 15
	tie
	C# 14
	G_ 15
	tie
	G_ 7
	F# 4
	F_ 3
	E_ 9
	musicf1 71
	F_ 5
	F_ 5
	G_ 5
	G_ 5
	musicf3
	E_ 9
	musicf1 71
	C_ 5
	C_ 5
	dec_octave
	G_ 5
	G_ 5
	musicf3
	A_ 15
	tie
	A_ 14
	inc_octave
	musicf1 71
	D_ 15
	tie
	D_ 7
	D_ 7
	G_ 3
	musicf1 71
	A_ 12
	A_ 7
	G_ 7
	G_ 8
	D_ 7
	D_ 7
	dec_octave
	musicf3
	A# 7
	inc_octave
	musicf3
	F_ 15
	tie
	F_ 14
	G_ 15
	tie
	G_ 7
	F# 4
	F_ 3
	musicf1 71
	E_ 15
	tie
	E_ 14
	E_ 8
	musicf3
	F_ 7
	musicf1 71
	E_ 7
	E_ 7
	D_ 15
	tie
	D_ 7
	D_ 7
	musicf3
	C# 3
	D_ 12
	musicf1 71
	F_ 7
	F_ 7
	inc_octave
	C_ 15
	C_ 7
	dec_octave
	A# 7
	A# 8
	A_ 5
	A_ 9
	F_ 3
	F_ 4
	musicf3
	C# 15
	tie
	C# 14
	G_ 15
	tie
	G_ 8
	F# 3
	F_ 3
	E_ 9
	musicf1 71
	F_ 5
	F_ 5
	G_ 5
	G_ 5
	musicf3
	E_ 9
	musicf1 71
	C_ 5
	C_ 5
	dec_octave
	G_ 5
	G_ 5
	musicf3
	A_ 15
	tie
	A_ 14
	inc_octave
	musicf1 71
	D_ 15
	tie
	D_ 7
	D_ 7
	A_ 15
	tie
	A_ 14
	A_ 8
	G_ 7
	G_ 14
	musicf3
	B_ 3
	inc_octave
	musicf1 71
	C_ 12
	C_ 7
	dec_octave
	musicf3
	A_ 15
	A# 7
	musicf1 71
	A_ 3
	A_ 4
	G_ 3
	G_ 4
	A_ 15
	tie
	A_ 14
	tie
	A_ 15
	tie
	A_ 14
	tie
	A_ 15
	tie
	A_ 7
	A_ 7
	Loop 2
	musicf0 0
	musicf3
	octave 2
	A_ 5
	A# 5
	inc_octave
	C# 5
	E_ 5
	F_ 5
	G_ 4
	inc_octave
	D# 3
	musicf1 70
	E_ 12
	E_ 7
	C_ 7
	C_ 8
	dec_octave
	A_ 5
	A_ 9
	F_ 4
	F_ 3
	G_ 15
	tie
	G_ 4
	G_ 7
	B_ 3
	musicf3
	inc_octave
	C_ 15
	dec_octave
	musicf1 70
	A# 7
	A# 7
	musicf1 70
	A_ 15
	A_ 7
	musicf3
	F_ 7
	tie
	F_ 15
	musicf1 70
	G_ 7
	G_ 7
	musicf3
	G# 3
	A_ 12
	tie
	A_ 7
	musicf1 70
	G_ 7
	tie
	G_ 15
	tie
	G_ 7
	G_ 7
	inc_octave
	musicf3
	D# 3
	musicf1 70
	E_ 12
	E_ 7
	C_ 7
	C_ 8
	dec_octave
	A_ 5
	A_ 9
	F_ 4
	F_ 3
	G_ 15
	tie
	G_ 4
	G_ 7
	musicf3
	B_ 3
	inc_octave
	C_ 15
	dec_octave
	musicf1 70
	A# 7
	A# 7
	A_ 15
	tie
	A_ 14
	tie
	A_ 15
	tie
	A_ 14
	tie
	A_ 15
	tie
	A_ 14
	EndLoop
	musicf3
	octave 2
	A_ 5
	A# 5
	inc_octave
	C# 5
	E_ 5
	F_ 5
	G_ 4
	musicf0 4
	musicf3
	G# 3
	A_ 12
	tie
	A_ 7
	G_ 15
	tie
	G_ 7
	musicf1 70
	D_ 5
	D_ 9
	musicf3
	C# 15
	tie
	C# 14
	G_ 15
	tie
	G_ 8
	F# 3
	F_ 3
	E_ 9
	musicf1 71
	F_ 5
	F_ 5
	G_ 5
	G_ 5
	musicf3
	E_ 9
	musicf1 71
	C_ 5
	C_ 5
	dec_octave
	G_ 5
	G_ 5
	musicf3
	A_ 15
	tie
	A_ 14
	musicf0 0
	musicf3
	octave 2
	G_ 5
	A_ 5
	A# 5
	inc_octave
	C_ 5
	D_ 5
	E_ 4
	A_ 15
	tie
	A_ 7
	musicf1 70
	G_ 7
	G_ 8
	D_ 5
	D_ 9
	dec_octave
	musicf3
	A# 7
	inc_octave
	E_ 3
	musicf1 70
	F_ 12
	tie
	F_ 7
	F_ 7
	musicf3
	G_ 15
	tie
	G_ 8
	F# 3
	F_ 3
	musicf1 87
	E_ 15
	tie
	E_ 14
	tie
	E_ 15
	tie
	E_ 14
	tie
	E_ 15
	tie
	E_ 14
	tie
	E_ 15
	tie
	E_ 14
	E_ 15
	musicf0 16
	octave 3
	musicf1 54
	octave 3
	G_ 7
	G_ 7
	tie
	G_ 8
	G_ 7
	G_ 7
	tie
	G_ 7
	F_ 8
	F_ 7
	tie
	F_ 7
	F_ 7
	F_ 15
	rest 14
	EndMainLoop

Branch_1f5ae8:
	musicf3
	musicf0 0
	musicef 1
	octave 2
	A# 3
	B_ 4
	vibrato_delay 19
	musicf1 55
	inc_octave
	C_ 15
	tie
	C_ 14
	tie
	C_ 15
	tie
	C_ 14
	tie
	C_ 15
	tie
	C_ 14
	C_ 8
	musicf3
	E_ 7
	musicf2
	G_ 7
	G_ 7
	musicf3
	A# 3
	B_ 12
	tie
	B_ 14
	tie
	B_ 15
	musicf2
	A_ 7
	A_ 7
	musicf3
	inc_octave
	D_ 15
	C_ 14
	dec_octave
	musicf2
	B_ 5
	B_ 5
	musicf3
	G_ 9
	A_ 10
	musicf2
	A# 15
	tie
	A# 14
	tie
	A# 15
	tie
	A# 14
	tie
	A# 15
	tie
	A# 14
	A# 8
	musicf3
	B_ 3
	inc_octave
	C_ 4
	tie
	C_ 14
	dec_octave
	musicf2
	A_ 15
	tie
	A_ 14
	tie
	A_ 15
	tie
	A_ 14
	tie
	A_ 15
	tie
	A_ 14
	A_ 8
	musicf0 16
	octave 3
	musicef 1
	musicf1 54
	F_ 7
	F_ 14
	musicf0 0
	octave 3
	musicef 1
	musicf1 55
	C_ 15
	tie
	C_ 14
	tie
	C_ 15
	tie
	C_ 14
	tie
	C_ 15
	tie
	C_ 14
	C_ 8
	E_ 7
	musicf2
	G_ 7
	G_ 7
	musicf3
	A# 3
	B_ 12
	tie
	B_ 14
	tie
	B_ 15
	musicf2
	A_ 7
	A_ 7
	musicf3
	inc_octave
	D_ 15
	C_ 14
	dec_octave
	musicf2
	B_ 5
	B_ 5
	musicf3
	G_ 9
	A_ 10
	musicf2
	A# 15
	tie
	A# 14
	tie
	A# 15
	tie
	A# 14
	tie
	A# 15
	tie
	A# 14
	A# 8
	musicf3
	inc_octave
	C_ 14
	tie
	C_ 7
	C# 3
	D_ 12
	tie
	D_ 14
	tie
	D_ 15
	C_ 7
	dec_octave
	A# 7
	musicf2
	A_ 15
	A_ 7
	musicf3
	B_ 4
	inc_octave
	C_ 15
	tie
	C_ 3
	dec_octave
	musicf2
	A# 7
	A# 7
	musicf2
	A_ 15
	tie
	A_ 14
	tie
	A_ 15
	musicf2
	A# 7
	A# 7
	A_ 15
	A_ 7
	F_ 15
	F_ 7
	G_ 7
	G_ 7
	musicf3
	G# 3
	musicf2
	A_ 12
	tie
	A_ 14
	tie
	A_ 15
	tie
	A_ 7
	A_ 7
	G_ 15
	tie
	G_ 14
	tie
	G_ 15
	G_ 14
	musicf3
	G_ 15
	tie
	G_ 14
	tie
	G_ 15
	musicf2
	F_ 7
	F_ 7
	musicf3
	B_ 2
	inc_octave
	C_ 13
	dec_octave
	musicf2
	G_ 14
	G_ 8
	F_ 7
	F_ 7
	C_ 4
	C_ 3
	musicf3
	D# 15
	tie
	D# 14
	tie
	D# 15
	tie
	D# 14
	tie
	D# 15
	tie
	D# 14
	F_ 15
	tie
	F_ 8
	E_ 3
	D# 3
	D_ 15
	musicf2
	D# 7
	D# 7
	G_ 8
	G_ 7
	A# 5
	A# 9
	inc_octave
	musicf3
	D_ 15
	tie
	D_ 7
	musicf2
	C_ 7
	C_ 15
	musicf3
	E_ 3
	musicf2
	F_ 7
	F_ 4
	musicf3
	D_ 15
	tie
	D_ 14
	tie
	D_ 15
	musicf2
	D# 7
	D# 7
	musicf3
	D_ 15
	musicf2
	C_ 7
	C_ 7
	musicf3
	dec_octave
	F# 15
	inc_octave
	musicf2
	C_ 7
	C_ 7
	dec_octave
	A_ 15
	tie
	A_ 14
	tie
	A_ 15
	tie
	A_ 14
	tie
	A_ 15
	tie
	A_ 14
	tie
	A_ 15
	tie
	A_ 14
	A_ 15
	music_ret


Music_GRDuelTheme1_Ch1: ; 1f5c1b (7d:5c1b)
	stereo_panning 15, 15
	speed 1
	musicf0 16
	musicef 255
	octave 3
	musicf1 54
	rest 15
	octave 3
	C_ 7
	C_ 7
	tie
	C_ 8
	C_ 7
	C_ 7
	tie
	C_ 7
	C# 8
	C# 7
	tie
	C# 7
	C# 7
	C# 15
	rest 14
	rest 15
	octave 3
	E_ 7
	E_ 7
	tie
	E_ 8
	E_ 7
	E_ 7
	tie
	E_ 7
	C# 8
	C# 7
	tie
	C# 7
	C# 7
	C# 15
	rest 14
	MainLoop
	Loop 3
	rest 15
	octave 3
	C_ 7
	C_ 7
	tie
	C_ 8
	C_ 7
	C_ 7
	tie
	C_ 7
	C# 8
	C# 7
	tie
	C# 7
	C# 7
	C# 15
	rest 14
	rest 15
	octave 3
	E_ 7
	E_ 7
	tie
	E_ 8
	E_ 7
	E_ 7
	tie
	E_ 7
	C# 8
	C# 7
	tie
	C# 7
	C# 7
	C# 15
	rest 14
	EndLoop
	octave 3
	musicef 1
	Loop 2
	rest 15
	E_ 7
	E_ 15
	E_ 7
	E_ 14
	E_ 8
	E_ 14
	E_ 7
	E_ 15
	E_ 7
	E_ 7
	EndLoop
	rest 15
	F_ 7
	F_ 15
	F_ 7
	F_ 14
	F_ 8
	F_ 14
	F_ 7
	F_ 15
	F_ 7
	F_ 7
	rest 15
	F_ 7
	F_ 15
	F_ 7
	F_ 14
	F_ 8
	F_ 14
	F_ 7
	F_ 8
	C# 7
	C# 14
	Loop 2
	rest 15
	E_ 7
	E_ 15
	E_ 7
	E_ 14
	E_ 8
	E_ 14
	E_ 7
	E_ 15
	E_ 7
	E_ 7
	EndLoop
	rest 15
	D# 7
	D# 15
	D# 7
	D# 14
	D# 8
	D# 14
	D# 7
	D# 15
	D# 7
	D# 7
	rest 15
	G_ 7
	G_ 15
	G_ 7
	G_ 14
	G_ 8
	G_ 14
	G_ 7
	G_ 15
	G_ 7
	G_ 7
	rest 15
	D_ 7
	D_ 15
	D_ 7
	D_ 14
	D_ 8
	D_ 14
	D_ 7
	D_ 15
	D_ 7
	D_ 7
	rest 15
	C# 7
	C# 15
	C# 7
	C# 14
	C# 8
	C# 14
	C# 7
	C# 15
	C# 7
	C# 7
	rest 15
	C_ 7
	C_ 15
	C_ 7
	C_ 14
	C_ 8
	C_ 14
	C_ 7
	C_ 15
	C_ 7
	C_ 7
	dec_octave
	rest 15
	B_ 7
	B_ 15
	B_ 7
	B_ 14
	B_ 8
	B_ 14
	B_ 7
	B_ 15
	B_ 7
	B_ 7
	Loop 2
	rest 15
	A# 7
	A# 15
	A# 7
	A# 14
	A# 8
	A# 14
	A# 7
	A# 15
	A# 7
	A# 7
	EndLoop
	rest 15
	octave 3
	E_ 7
	E_ 7
	tie
	E_ 8
	E_ 7
	E_ 7
	tie
	E_ 7
	F_ 8
	F_ 7
	tie
	F_ 7
	F_ 7
	F_ 15
	rest 14
	musicef 255
	rest 15
	octave 3
	E_ 7
	E_ 7
	tie
	E_ 8
	E_ 7
	E_ 7
	tie
	E_ 7
	C# 8
	C# 7
	tie
	C# 7
	C# 7
	C# 15
	rest 14
	rest 15
	octave 3
	C_ 7
	C_ 7
	tie
	C_ 8
	C_ 7
	C_ 7
	tie
	C_ 7
	C# 8
	C# 7
	tie
	C# 7
	C# 7
	C# 15
	rest 14
	rest 15
	octave 3
	E_ 7
	E_ 7
	tie
	E_ 8
	E_ 7
	E_ 7
	tie
	E_ 7
	C# 8
	C# 7
	tie
	C# 7
	C# 7
	C# 15
	rest 7
	musicf0 1
	musicef 255
	musicf1 55
	musicf3
	octave 2
	G_ 3
	G# 4
	vibrato_delay 19
	musicf2
	A_ 15
	tie
	A_ 14
	tie
	A_ 15
	tie
	A_ 14
	tie
	A_ 15
	tie
	A_ 14
	A_ 8
	musicf3
	inc_octave
	C_ 7
	musicf2
	E_ 7
	E_ 7
	musicf3
	F# 3
	G_ 12
	tie
	G_ 14
	tie
	G_ 15
	musicf2
	E_ 7
	E_ 7
	musicf3
	B_ 15
	A_ 14
	musicf3
	G_ 10
	musicf2
	E_ 5
	E_ 5
	C_ 5
	C_ 4
	musicf3
	musicf2
	F_ 15
	tie
	F_ 14
	tie
	F_ 15
	tie
	F_ 14
	tie
	F_ 15
	tie
	F_ 7
	F_ 15
	musicf3
	G_ 7
	tie
	G_ 14
	musicf2
	F_ 15
	tie
	F_ 14
	tie
	F_ 15
	tie
	F_ 14
	tie
	F_ 15
	tie
	F_ 14
	F_ 8
	musicf0 16
	octave 3
	musicf1 54
	C# 7
	C# 14
	musicf0 1
	octave 2
	musicef 255
	musicf1 55
	A_ 15
	tie
	A_ 14
	tie
	A_ 15
	tie
	A_ 14
	tie
	A_ 15
	tie
	A_ 14
	A_ 8
	inc_octave
	musicf3
	C_ 7
	musicf2
	E_ 7
	E_ 7
	musicf3
	F# 3
	G_ 12
	tie
	G_ 14
	tie
	G_ 15
	musicf2
	E_ 7
	E_ 7
	musicf3
	B_ 15
	A_ 14
	musicf3
	G_ 10
	musicf2
	E_ 5
	E_ 5
	C_ 5
	C_ 4
	musicf2
	D# 15
	tie
	D# 14
	tie
	D# 15
	tie
	D# 14
	tie
	D# 15
	tie
	D# 14
	D# 8
	musicf3
	G_ 14
	tie
	G_ 7
	A# 15
	tie
	A# 14
	tie
	A# 15
	A_ 7
	G_ 7
	musicf2
	F_ 15
	F_ 7
	musicf3
	A_ 15
	tie
	A_ 7
	musicf2
	G_ 7
	G_ 7
	musicf2
	F_ 15
	tie
	F_ 14
	tie
	F_ 15
	musicf2
	F_ 7
	F_ 7
	F_ 15
	F_ 7
	D_ 15
	D_ 7
	D_ 7
	D_ 7
	musicf1 38
	C# 15
	tie
	C# 14
	tie
	C# 15
	tie
	C# 7
	C# 7
	C# 15
	tie
	C# 14
	tie
	C# 15
	tie
	C# 7
	C# 7
	musicf3
	C_ 15
	tie
	C_ 14
	tie
	C_ 15
	musicf2
	C_ 7
	C_ 7
	musicf3
	A_ 15
	musicf2
	D_ 14
	D_ 8
	C_ 7
	C_ 7
	dec_octave
	G_ 4
	G_ 3
	musicf2
	B_ 15
	tie
	B_ 14
	tie
	B_ 15
	tie
	B_ 14
	tie
	B_ 15
	tie
	B_ 7
	B_ 7
	musicf3
	B_ 15
	tie
	B_ 14
	A# 15
	musicf2
	A# 7
	A# 7
	inc_octave
	D# 8
	D# 7
	G_ 5
	G_ 9
	musicf3
	A# 15
	tie
	A# 7
	musicf2
	A_ 7
	A_ 15
	musicf3
	musicf2
	inc_octave
	D_ 10
	D_ 4
	dec_octave
	musicf3
	F# 15
	tie
	F# 14
	tie
	F# 15
	musicf2
	F# 7
	F# 7
	musicf3
	F# 15
	musicf2
	F# 7
	F# 7
	musicf3
	C_ 15
	musicf2
	F# 7
	F# 7
	E_ 15
	musicf0 16
	octave 3
	musicef 255
	musicf1 54
	octave 3
	E_ 7
	E_ 15
	E_ 7
	E_ 14
	F_ 8
	F_ 14
	F_ 7
	F_ 15
	rest 14
	rest 15
	octave 3
	E_ 7
	E_ 7
	tie
	E_ 8
	E_ 7
	E_ 7
	tie
	E_ 7
	C# 8
	C# 7
	tie
	C# 7
	C# 7
	C# 15
	rest 14
	rest 15
	octave 3
	C_ 7
	C_ 7
	tie
	C_ 8
	C_ 7
	C_ 7
	tie
	C_ 7
	C# 8
	C# 7
	tie
	C# 7
	C# 7
	C# 15
	rest 14
	rest 15
	octave 3
	E_ 7
	E_ 7
	tie
	E_ 8
	E_ 7
	E_ 7
	tie
	E_ 7
	C# 8
	musicf0 4
	musicef 251
	frequency_offset -2
	rest 7
	musicf3
	octave 2
	A_ 7
	A# 7
	inc_octave
	C# 4
	rest 4
	F_ 7
	F# 7
	A_ 7
	A# 4
	rest 4
	musicf0 16
	musicef 1
	frequency_offset 0
	musicf1 70
	rest 7
	D_ 7
	D_ 7
	tie
	D_ 8
	D_ 7
	D_ 7
	tie
	D_ 7
	rest 15
	E_ 7
	E_ 7
	tie
	E_ 8
	E_ 7
	E_ 7
	tie
	E_ 7
	rest 15
	E_ 7
	E_ 7
	tie
	E_ 8
	E_ 7
	E_ 7
	tie
	E_ 7
	rest 15
	C_ 7
	C_ 7
	tie
	C_ 8
	C_ 7
	C_ 7
	tie
	C_ 7
	dec_octave
	rest 15
	A_ 7
	A_ 7
	tie
	A_ 8
	A_ 7
	A_ 7
	tie
	A_ 7
	rest 15
	A# 7
	A# 7
	tie
	A# 8
	A# 7
	A# 7
	tie
	A# 7
	inc_octave
	rest 15
	C_ 7
	C_ 7
	tie
	C_ 8
	C_ 7
	C_ 7
	tie
	C_ 7
	rest 15
	dec_octave
	A# 7
	A# 7
	tie
	A# 8
	A# 7
	A# 7
	tie
	A# 7
	inc_octave
	rest 15
	D_ 7
	D_ 7
	tie
	D_ 8
	D_ 7
	D_ 7
	tie
	D_ 7
	rest 15
	E_ 7
	E_ 7
	tie
	E_ 8
	E_ 7
	E_ 7
	tie
	E_ 7
	rest 15
	E_ 7
	E_ 7
	tie
	E_ 8
	E_ 7
	E_ 7
	tie
	E_ 7
	rest 15
	C_ 7
	C_ 7
	tie
	C_ 8
	C_ 7
	C_ 7
	tie
	C_ 7
	Loop 2
	rest 15
	C# 7
	C# 7
	tie
	C# 8
	C# 7
	C# 7
	tie
	C# 7
	EndLoop
	rest 15
	D_ 7
	D_ 7
	tie
	D_ 8
	D_ 7
	D_ 7
	tie
	D_ 7
	rest 15
	C# 7
	C# 7
	musicf0 1
	musicf3
	octave 2
	F_ 5
	G_ 5
	A_ 5
	A# 5
	inc_octave
	C# 5
	E_ 4
	inc_octave
	musicf1 70
	C_ 15
	C_ 7
	dec_octave
	A_ 7
	A_ 8
	F_ 5
	F_ 9
	C_ 4
	C_ 3
	C# 15
	C# 7
	G_ 15
	G_ 7
	musicf1 70
	G_ 7
	G_ 7
	E_ 15
	E_ 7
	musicf3
	C_ 15
	tie
	C_ 7
	musicf1 70
	C_ 7
	C_ 7
	musicf3
	C# 15
	tie
	C# 7
	musicf2
	C# 7
	tie
	C# 15
	tie
	C# 7
	C# 7
	inc_octave
	musicf1 70
	C_ 15
	C_ 7
	dec_octave
	A_ 7
	A_ 8
	F_ 5
	F_ 9
	C_ 4
	C_ 3
	dec_octave
	A# 15
	A# 7
	inc_octave
	G_ 15
	G_ 7
	musicf1 70
	G_ 7
	G_ 7
	E_ 15
	tie
	E_ 14
	tie
	E_ 15
	tie
	E_ 7
	E_ 7
	F_ 15
	tie
	F_ 14
	A_ 15
	tie
	A_ 14
	inc_octave
	musicf1 70
	C_ 15
	C_ 7
	dec_octave
	A_ 7
	A_ 8
	F_ 5
	F_ 9
	C_ 4
	C_ 3
	C# 15
	C# 7
	G_ 15
	G_ 7
	musicf1 70
	G_ 7
	G_ 7
	E_ 15
	E_ 7
	musicf3
	C_ 15
	tie
	C_ 7
	musicf1 70
	C_ 7
	C_ 7
	musicf3
	C# 15
	tie
	C# 7
	musicf2
	C# 7
	tie
	C# 15
	tie
	C# 7
	C# 7
	inc_octave
	musicf1 70
	C_ 15
	C_ 7
	dec_octave
	A_ 7
	A_ 8
	F_ 5
	F_ 9
	C_ 4
	C_ 3
	dec_octave
	A# 15
	A# 7
	inc_octave
	G_ 15
	G_ 7
	musicf1 70
	G_ 7
	G_ 7
	D_ 15
	tie
	D_ 14
	tie
	D_ 15
	tie
	D_ 7
	D_ 7
	musicf3
	C# 15
	tie
	C# 14
	octave 2
	F_ 5
	G_ 5
	A_ 5
	A# 5
	inc_octave
	C# 5
	E_ 4
	musicf0 16
	octave 3
	musicf1 54
	rest 15
	F_ 7
	F_ 15
	F_ 7
	F_ 14
	F_ 8
	F_ 14
	F_ 7
	F_ 15
	F_ 7
	F_ 7
	rest 15
	C_ 7
	C_ 15
	C_ 7
	C_ 14
	F_ 8
	F_ 14
	F_ 7
	musicf0 4
	musicf3
	musicef 254
	octave 3
	musicf1 71
	D_ 15
	tie
	D_ 7
	D_ 7
	F_ 15
	tie
	F_ 7
	musicf1 70
	E_ 7
	E_ 8
	dec_octave
	A# 5
	A# 9
	musicf3
	G_ 7
	musicf0 16
	octave 3
	musicf1 53
	volume 112
	Loop 2
	C# 15
	tie
	C# 7
	C# 7
	EndLoop
	musicf0 16
	musicef 255
	octave 3
	musicf1 54
	rest 15
	octave 3
	E_ 7
	E_ 15
	E_ 7
	E_ 14
	F_ 8
	F_ 14
	F_ 7
	F_ 15
	rest 14
	rest 15
	octave 3
	E_ 7
	E_ 7
	tie
	E_ 8
	E_ 7
	E_ 7
	tie
	E_ 7
	C# 8
	C# 7
	tie
	C# 7
	C# 7
	C# 15
	rest 14
	EndMainLoop


Music_GRDuelTheme1_Ch3: ; 1f603f (7d:603f)
	speed 1
	wave 1
	volume 32
	echo 64
	stereo_panning 1, 1
	octave 2
	cutoff 7
	pitch_offset 244
	Loop 2
	music_call Branch_1f6313
	EndLoop
	MainLoop
	octave 2
	Loop 6
	music_call Branch_1f6313
	EndLoop
	speed 11
	D_ 2
	A_ 2
	inc_octave
	speed 1
	D_ 14
	dec_octave
	speed 11
	D_ 2
	A_ 2
	inc_octave
	speed 1
	D_ 14
	dec_octave
	speed 11
	D_ 2
	A_ 2
	inc_octave
	speed 1
	D_ 14
	dec_octave
	speed 11
	D_ 2
	A_ 2
	speed 1
	D_ 14
	speed 11
	D# 2
	A# 2
	inc_octave
	speed 1
	D# 14
	dec_octave
	speed 11
	D# 2
	A# 2
	inc_octave
	speed 1
	D# 14
	dec_octave
	speed 11
	D# 2
	A# 2
	inc_octave
	speed 1
	D# 14
	dec_octave
	speed 11
	D# 2
	C_ 2
	speed 1
	C# 14
	speed 11
	D_ 2
	A_ 2
	inc_octave
	speed 1
	D_ 14
	dec_octave
	speed 11
	D_ 2
	A_ 2
	inc_octave
	speed 1
	D_ 14
	dec_octave
	speed 11
	D_ 2
	A_ 2
	inc_octave
	speed 1
	D_ 14
	dec_octave
	speed 11
	D_ 2
	A_ 2
	speed 1
	D_ 14
	speed 11
	C_ 2
	G_ 2
	inc_octave
	speed 1
	C_ 14
	dec_octave
	speed 11
	C_ 2
	G_ 2
	speed 1
	F# 14
	speed 11
	F_ 2
	inc_octave
	C_ 2
	speed 1
	F_ 14
	dec_octave
	speed 11
	F_ 2
	inc_octave
	C_ 2
	dec_octave
	dec_octave
	speed 1
	A_ 14
	speed 11
	A# 2
	inc_octave
	F_ 2
	speed 1
	A# 14
	dec_octave
	speed 11
	A# 2
	inc_octave
	F_ 2
	speed 1
	E_ 14
	speed 11
	D# 2
	A# 2
	inc_octave
	speed 1
	D# 14
	dec_octave
	speed 11
	D# 2
	A# 2
	speed 1
	D# 14
	speed 11
	D_ 2
	A_ 2
	inc_octave
	speed 1
	D_ 14
	dec_octave
	speed 11
	D_ 2
	A_ 2
	speed 1
	D_ 14
	dec_octave
	speed 11
	G_ 2
	inc_octave
	D_ 2
	speed 1
	G_ 14
	dec_octave
	speed 11
	G_ 2
	inc_octave
	D_ 2
	speed 1
	C# 14
	speed 11
	C_ 2
	G_ 2
	inc_octave
	speed 1
	C_ 14
	dec_octave
	speed 11
	C_ 2
	G_ 2
	speed 1
	A# 14
	speed 11
	G# 2
	inc_octave
	D# 2
	dec_octave
	speed 1
	D# 14
	speed 11
	G# 2
	inc_octave
	D# 2
	dec_octave
	speed 1
	G# 14
	music_call Branch_1f6313
	music_call Branch_1f6313
	music_call Branch_1f6313
	music_call Branch_1f6313
	speed 11
	D_ 2
	A_ 2
	inc_octave
	speed 1
	D_ 14
	dec_octave
	speed 11
	D_ 2
	A_ 2
	inc_octave
	speed 1
	D_ 14
	dec_octave
	speed 11
	D_ 2
	A_ 2
	inc_octave
	speed 1
	D_ 14
	dec_octave
	speed 11
	D_ 2
	A_ 2
	speed 1
	D_ 14
	speed 11
	D# 2
	A# 2
	inc_octave
	speed 1
	D# 14
	dec_octave
	speed 11
	D# 2
	A# 2
	inc_octave
	speed 1
	D# 14
	dec_octave
	speed 11
	D# 2
	A# 2
	inc_octave
	speed 1
	D# 14
	dec_octave
	speed 11
	D# 2
	C_ 2
	speed 1
	C# 14
	speed 11
	D_ 2
	A_ 2
	inc_octave
	speed 1
	D_ 14
	dec_octave
	speed 11
	D_ 2
	A_ 2
	inc_octave
	speed 1
	D_ 14
	dec_octave
	speed 11
	D_ 2
	A_ 2
	inc_octave
	speed 1
	D_ 14
	dec_octave
	speed 11
	D_ 2
	A_ 2
	speed 1
	D_ 14
	speed 11
	C_ 2
	G_ 2
	inc_octave
	speed 1
	C_ 14
	dec_octave
	speed 11
	C_ 2
	G_ 2
	speed 1
	F# 14
	speed 11
	F_ 2
	inc_octave
	C_ 2
	speed 1
	F_ 14
	dec_octave
	speed 11
	F_ 2
	inc_octave
	C_ 2
	dec_octave
	dec_octave
	speed 1
	A_ 14
	speed 11
	A# 2
	inc_octave
	F_ 2
	speed 1
	A# 14
	dec_octave
	speed 11
	A# 2
	inc_octave
	F_ 2
	speed 1
	E_ 14
	speed 11
	D# 2
	A# 2
	inc_octave
	speed 1
	D# 14
	dec_octave
	speed 11
	D# 2
	A# 2
	speed 1
	D# 14
	speed 11
	D_ 2
	A_ 2
	inc_octave
	speed 1
	D_ 14
	dec_octave
	speed 11
	D_ 2
	A_ 2
	speed 1
	D_ 14
	dec_octave
	speed 11
	G_ 2
	inc_octave
	D_ 2
	speed 1
	G_ 14
	dec_octave
	speed 11
	G_ 2
	inc_octave
	D_ 2
	speed 1
	C# 14
	speed 11
	C_ 2
	G_ 2
	inc_octave
	speed 1
	C_ 14
	dec_octave
	speed 11
	C_ 2
	G_ 2
	speed 1
	A# 14
	speed 11
	G# 2
	inc_octave
	D# 2
	dec_octave
	speed 1
	D# 14
	speed 11
	G# 2
	inc_octave
	D# 2
	dec_octave
	speed 1
	G# 14
	music_call Branch_1f6313
	music_call Branch_1f6313
	music_call Branch_1f6313
	speed 11
	D_ 2
	A_ 2
	speed 1
	D_ 14
	D# 16
	tie
	D# 13
	rest 16
	rest 13
	speed 1
	G_ 15
	A_ 14
	A# 15
	B_ 14
	inc_octave
	C_ 15
	dec_octave
	D_ 14
	D# 15
	E_ 14
	F_ 15
	inc_octave
	C_ 14
	F_ 15
	dec_octave
	B_ 14
	A# 15
	F_ 14
	A# 15
	A_ 14
	G_ 15
	inc_octave
	D_ 14
	F_ 15
	G_ 14
	F# 15
	C# 14
	dec_octave
	F# 15
	C# 14
	F_ 15
	inc_octave
	C_ 14
	F_ 15
	dec_octave
	B_ 14
	A# 15
	F_ 14
	A# 15
	A_ 14
	G_ 15
	A_ 14
	A# 15
	B_ 14
	inc_octave
	C_ 15
	dec_octave
	D_ 14
	D# 15
	E_ 14
	F_ 15
	inc_octave
	C_ 14
	F_ 15
	dec_octave
	B_ 14
	A# 15
	F_ 14
	A# 15
	F_ 14
	D# 15
	A# 14
	inc_octave
	C# 15
	dec_octave
	A# 14
	inc_octave
	F_ 15
	C# 14
	dec_octave
	A# 15
	D# 14
	E_ 15
	F# 14
	G_ 15
	G# 14
	A_ 15
	B_ 14
	inc_octave
	C_ 15
	C# 14
	dec_octave
	music_call Branch_1f6313
	music_call Branch_1f6313
	music_call Branch_1f6313
	music_call Branch_1f6313
	music_call Branch_1f6313
	music_call Branch_1f6313
	speed 11
	D_ 2
	A_ 2
	speed 1
	D_ 14
	speed 11
	C_ 2
	G_ 2
	speed 1
	C_ 14
	speed 11
	A# 2
	F_ 2
	speed 1
	A# 14
	speed 11
	A_ 2
	E_ 2
	speed 1
	A_ 14
	speed 11
	G_ 2
	D_ 2
	speed 1
	G_ 14
	speed 11
	C_ 2
	G_ 2
	speed 1
	C_ 14
	speed 11
	F_ 2
	C_ 2
	dec_octave
	speed 1
	B_ 14
	speed 11
	A# 2
	inc_octave
	F_ 2
	speed 1
	A# 14
	speed 11
	G_ 2
	D_ 2
	speed 1
	G_ 14
	cutoff 7
	speed 1
	D# 16
	tie
	D# 13
	D# 16
	tie
	D# 13
	cutoff 7
	music_call Branch_1f6313
	music_call Branch_1f6313
	EndMainLoop

Branch_1f6313:
	octave 2
	pitch_offset 244
	cutoff 7
	speed 11
	D_ 2
	A_ 2
	speed 1
	D_ 14
	speed 11
	D# 2
	A# 2
	speed 1
	D# 14
	music_ret


Music_GRDuelTheme1_Ch4: ; 1f6327 (7d:6327)
	speed 1
	octave 1
	music_call Branch_1f6503
	music_call Branch_1f6503
	music_call Branch_1f6503
	MainLoop
	snare3 8
	snare3 7
	snare4 7
	snare3 7
	snare3 8
	snare4 7
	snare3 7
	snare3 7
	snare4 8
	snare3 7
	snare3 7
	snare4 7
	snare3 8
	snare1 7
	snare1 14
	bass 15
	snare3 14
	snare1 8
	snare3 7
	snare4 14
	bass 15
	snare3 7
	snare3 7
	snare3 8
	snare1 7
	snare4 14
	bass 15
	snare3 14
	snare1 8
	snare3 7
	snare4 14
	bass 15
	snare3 7
	snare3 7
	snare3 8
	snare1 7
	snare4 7
	snare1 7
	bass 15
	snare3 14
	snare1 8
	snare3 7
	snare4 14
	bass 15
	snare3 7
	snare3 7
	snare3 8
	snare1 7
	snare4 14
	bass 15
	snare3 14
	snare1 8
	snare3 7
	snare4 14
	bass 15
	snare3 7
	snare4 7
	snare3 8
	snare1 7
	snare1 14
	Loop 6
	bass 15
	noise2 14
	snare3 8
	noise2 7
	snare3 14
	noise2 15
	snare3 7
	noise2 7
	snare3 8
	noise2 7
	snare4 14
	bass 15
	noise2 14
	snare3 8
	noise2 7
	snare3 14
	noise2 15
	snare3 7
	noise2 7
	snare3 8
	snare1 7
	snare4 14
	EndLoop
	bass 15
	noise2 14
	snare3 8
	noise2 7
	snare3 14
	noise2 15
	snare3 7
	noise2 7
	snare3 8
	noise2 7
	snare4 14
	bass 15
	noise2 14
	snare3 8
	noise2 7
	snare3 14
	noise2 15
	snare3 7
	noise2 7
	snare3 8
	snare1 7
	snare1 7
	snare4 7
	bass 15
	snare3 14
	snare1 8
	snare3 7
	snare4 14
	bass 15
	snare3 7
	snare3 7
	snare3 8
	snare1 7
	snare4 14
	bass 15
	snare3 14
	snare1 8
	snare3 7
	snare4 14
	bass 15
	snare3 7
	snare3 7
	snare3 8
	snare1 7
	snare4 7
	snare1 7
	bass 15
	snare3 14
	snare1 8
	snare3 7
	snare4 14
	bass 15
	snare3 7
	snare3 7
	snare3 8
	snare1 7
	snare4 14
	bass 15
	snare3 14
	snare1 8
	snare3 7
	snare4 14
	bass 15
	snare3 7
	snare4 7
	snare3 8
	snare1 7
	snare1 14
	Loop 6
	bass 15
	noise2 14
	snare3 8
	noise2 7
	snare3 14
	noise2 15
	snare3 7
	noise2 7
	snare3 8
	noise2 7
	snare4 14
	bass 15
	noise2 14
	snare3 8
	noise2 7
	snare3 14
	noise2 15
	snare3 7
	noise2 7
	snare3 8
	snare1 7
	snare4 14
	EndLoop
	bass 15
	noise2 14
	snare3 8
	noise2 7
	snare3 14
	noise2 15
	snare3 7
	noise2 7
	snare3 8
	noise2 7
	snare4 14
	bass 15
	noise2 14
	snare3 8
	noise2 7
	snare3 14
	noise2 15
	snare3 7
	noise2 7
	snare3 8
	snare1 7
	snare1 7
	snare4 7
	bass 15
	snare3 14
	snare1 8
	snare3 7
	snare4 14
	bass 15
	snare3 7
	snare3 7
	snare3 8
	snare1 7
	snare4 14
	bass 15
	snare3 14
	snare1 8
	snare3 7
	snare4 14
	bass 15
	snare3 7
	snare3 7
	snare3 8
	snare1 7
	snare4 7
	snare1 7
	bass 15
	snare3 14
	snare1 8
	snare3 7
	snare4 14
	bass 15
	snare3 7
	snare3 7
	snare3 8
	snare1 7
	snare4 14
	bass 15
	snare3 7
	snare1 7
	snare1 8
	snare1 7
	bass 7
	snare4 7
	snare1 15
	rest 14
	rest 15
	rest 14
	bass 15
	snare3 7
	noise2 7
	snare3 8
	noise2 7
	snare3 14
	noise2 15
	snare3 7
	noise2 7
	snare3 8
	noise2 7
	snare4 14
	bass 15
	noise2 14
	snare3 8
	noise2 7
	snare3 14
	noise2 15
	snare3 7
	noise2 7
	snare3 8
	noise2 7
	snare4 7
	snare1 7
	bass 15
	snare3 7
	noise2 7
	snare3 8
	noise2 7
	snare3 14
	noise2 15
	snare3 7
	noise2 7
	snare3 8
	noise2 7
	snare4 14
	bass 15
	noise2 14
	snare3 8
	noise2 7
	snare3 14
	noise2 15
	snare3 7
	noise2 7
	snare3 8
	noise2 7
	snare4 7
	snare1 7
	bass 15
	snare3 7
	noise2 7
	snare3 8
	noise2 7
	snare3 14
	noise2 15
	snare3 7
	noise2 7
	snare3 8
	noise2 7
	snare4 14
	bass 15
	noise2 14
	snare3 8
	noise2 7
	snare3 14
	noise2 15
	snare3 7
	noise2 7
	snare3 8
	noise2 7
	snare4 7
	snare1 7
	bass 15
	snare3 7
	noise2 7
	snare3 8
	noise2 7
	snare3 14
	noise2 15
	snare3 7
	noise2 7
	snare3 8
	noise2 7
	snare4 14
	bass 15
	noise2 14
	snare3 8
	noise2 7
	snare3 14
	snare3 8
	noise2 7
	snare3 7
	noise2 7
	snare1 4
	musicef 252
	snare1 5
	musicef 253
	snare1 5
	musicef 254
	snare1 5
	musicef 0
	snare1 5
	snare1 5
	Loop 3
	bass 15
	snare1 14
	snare3 8
	snare1 7
	snare3 7
	snare3 7
	snare4 15
	bass 7
	snare1 7
	snare3 8
	snare1 7
	snare4 14
	EndLoop
	bass 15
	snare1 14
	snare3 8
	snare1 7
	snare3 7
	snare3 7
	snare4 15
	bass 7
	snare1 7
	snare3 8
	snare1 7
	snare4 7
	snare1 7
	Loop 3
	bass 15
	snare1 14
	snare3 8
	snare1 7
	snare3 7
	snare3 7
	snare4 15
	bass 7
	snare1 7
	snare3 8
	snare1 7
	snare4 14
	EndLoop
	bass 15
	snare1 14
	snare3 8
	snare1 7
	snare3 7
	snare3 7
	snare4 15
	bass 7
	snare1 7
	snare3 8
	snare1 7
	musicef 253
	snare1 4
	musicef 254
	snare1 5
	musicef 255
	snare1 5
	musicef 0
	bass 15
	snare1 14
	snare3 8
	snare1 7
	snare4 14
	bass 15
	snare1 7
	rest 7
	snare3 8
	snare1 7
	snare4 7
	snare1 7
	bass 15
	snare1 7
	rest 7
	snare3 8
	snare1 7
	snare4 14
	bass 15
	snare1 7
	rest 7
	snare3 8
	snare1 7
	snare4 7
	snare1 7
	bass 15
	snare1 7
	rest 7
	snare3 8
	snare1 7
	snare4 14
	snare1 16
	rest 13
	snare1 16
	rest 13
	Loop 2
	music_call Branch_1f6503
	EndLoop
	music_call Branch_1f6503
	EndMainLoop

Branch_1f6503:
	octave 1
	speed 1
	snare3 8
	snare3 7
	snare4 7
	snare3 7
	snare3 8
	snare4 7
	snare3 7
	snare3 7
	snare4 8
	snare3 7
	snare3 7
	snare4 7
	snare3 8
	snare3 7
	snare4 7
	snare3 7
	music_ret
; 0x1f6517
