Music_GRDuelTheme2_Ch2: ; 1ef1ec (7b:71ec)
	preset 0
	octave 3
	speed 1
	stereo_panning 15, 15
	musicf1 71
	musicf3
	G# 3
	musicf2
	A_ 11
	A_ 7
	G_ 13
	G_ 7
	E_ 13
	E_ 7
	D_ 4
	E_ 3
	musicf3
	D# 7
	E_ 6
	C_ 7
	dec_octave
	A_ 7
	musicf2
	G_ 4
	A_ 3
	G# 3
	G_ 3
	A_ 7
	A_ 7
	musicf3
	preset 1
	vibrato_type 5
	vibrato_delay 27
	octave 3
	C_ 7
	G_ 6
	preset 0
	octave 4
	D# 4
	musicf2
	E_ 3
	tie
	E_ 7
	tie
	E_ 13
	tie
	E_ 14
	tie
	E_ 13
	tie
	E_ 14
	E_ 13
	MainLoop
	preset 0
	musicf1 71
	octave 3
	A_ 7
	A_ 7
	music_call Branch_1ef490
	preset 0
	musicf1 71
	musicf3
	octave 3
	C_ 5
	D_ 5
	D# 5
	E_ 4
	G_ 4
	G# 4
	octave 3
	musicf2
	A_ 7
	A_ 7
	music_call Branch_1ef490
	music_call Branch_1ef4d1
	A_ 14
	tie
	A_ 13
	tie
	A_ 14
	tie
	A_ 13
	rest 7
	music_call Branch_1ef615
	preset 35
	musicf1 71
	musicf3
	octave 3
	G_ 3
	G# 3
	A_ 14
	tie
	A_ 7
	G_ 6
	pitch_offset 254
	music_call Branch_1ef5f5
	pitch_offset 0
	preset 35
	D_ 13
	F_ 14
	tie
	F_ 7
	G_ 13
	tie
	G_ 7
	musicf2
	E_ 13
	tie
	E_ 14
	tie
	E_ 13
	tie
	E_ 14
	tie
	E_ 13
	E_ 14
	musicf3
	F_ 13
	G_ 14
	A_ 13
	E_ 14
	tie
	E_ 7
	C_ 6
	music_call Branch_1ef5f5
	preset 35
	D_ 13
	dec_octave
	A_ 14
	tie
	A_ 7
	inc_octave
	D# 3
	E_ 3
	tie
	E_ 14
	musicf2
	C_ 13
	tie
	C_ 14
	tie
	C_ 13
	tie
	C_ 14
	tie
	C_ 13
	tie
	C_ 14
	C_ 13
	musicf3
	D_ 5
	E_ 5
	F_ 5
	F# 4
	G_ 4
	G# 4
	A_ 14
	tie
	A_ 7
	G_ 6
	pitch_offset 254
	music_call Branch_1ef5f5
	pitch_offset 0
	preset 35
	D_ 13
	F_ 14
	tie
	F_ 7
	G_ 13
	tie
	G_ 7
	musicf2
	F_ 7
	F_ 6
	musicf3
	A# 3
	inc_octave
	C_ 4
	tie
	C_ 14
	dec_octave
	A# 6
	pitch_offset 8
	music_call Branch_1ef5f5
	pitch_offset 0
	preset 35
	F_ 13
	G# 14
	tie
	G# 13
	A# 14
	tie
	A# 7
	A_ 3
	G# 3
	musicf2
	G_ 14
	tie
	G_ 13
	G_ 14
	A_ 13
	tie
	A_ 14
	A_ 13
	inc_octave
	C_ 14
	tie
	C_ 13
	C_ 14
	dec_octave
	B_ 13
	tie
	B_ 14
	B_ 13
	G_ 7
	G_ 7
	rest 13
	music_call Branch_1ef4d1
	A_ 14
	tie
	A_ 13
	tie
	A_ 14
	tie
	A_ 13
	A_ 7
	musicf3
	music_call Branch_1ef628
	music_call Branch_1ef564
	A_ 14
	tie
	A_ 13
	tie
	A_ 14
	tie
	A_ 13
	musicf3
	preset 34
	musicf1 71
	musicf3
	octave 2
	G_ 4
	inc_octave
	C_ 5
	F_ 5
	musicf2
	G_ 13
	G_ 7
	A_ 14
	A_ 6
	musicf3
	A_ 4
	musicf2
	A# 16
	tie
	A# 7
	tie
	A# 14
	tie
	A# 13
	tie
	A# 14
	tie
	A# 13
	tie
	A# 14
	tie
	A# 13
	tie
	A# 14
	tie
	A# 13
	A# 14
	G_ 7
	A# 6
	musicf3
	inc_octave
	C# 3
	D_ 4
	tie
	D_ 14
	C_ 6
	tie
	C_ 14
	dec_octave
	musicf2
	A# 7
	inc_octave
	C_ 6
	dec_octave
	musicf3
	A_ 14
	tie
	A_ 7
	musicf2
	A# 6
	A_ 7
	tie
	A# 7
	inc_octave
	C_ 7
	C_ 6
	dec_octave
	musicf3
	A_ 14
	tie
	A_ 7
	F_ 6
	tie
	F_ 14
	musicf2
	D_ 7
	F_ 6
	musicf3
	G# 3
	A_ 11
	tie
	A_ 13
	tie
	A_ 14
	tie
	A_ 13
	tie
	A_ 14
	preset 9
	octave 2
	A# 13
	inc_octave
	C# 4
	D_ 10
	dec_octave
	A# 13
	preset 34
	octave 3
	musicf2
	G_ 14
	tie
	G_ 13
	tie
	G_ 14
	tie
	G_ 13
	tie
	G_ 14
	tie
	G_ 13
	tie
	G_ 14
	tie
	G_ 13
	tie
	G_ 14
	tie
	G_ 13
	G_ 14
	D# 13
	D# 7
	preset 9
	octave 2
	musicf1 48
	musicf2
	A# 5
	A# 2
	musicf3
	preset 34
	octave 3
	musicf1 71
	musicf2
	A# 7
	A# 13
	inc_octave
	C_ 14
	C_ 6
	musicf3
	dec_octave
	A_ 14
	tie
	A_ 7
	musicf2
	A# 6
	A_ 7
	tie
	A# 7
	A_ 7
	A_ 6
	musicf3
	F_ 14
	tie
	F_ 7
	musicf2
	D_ 6
	F_ 7
	tie
	D_ 7
	musicf3
	G# 3
	A_ 10
	tie
	A_ 14
	tie
	A_ 13
	tie
	A_ 14
	tie
	A_ 13
	tie
	A_ 14
	tie
	A_ 13
	preset 9
	octave 2
	G_ 14
	A_ 13
	preset 35
	octave 3
	musicf1 87
	G_ 14
	tie
	G_ 7
	musicf2
	A_ 6
	G_ 7
	tie
	A_ 7
	A# 7
	G_ 6
	musicf3
	B_ 4
	vibrato_delay 14
	musicf2
	inc_octave
	C_ 10
	tie
	C_ 13
	tie
	C_ 14
	tie
	C_ 13
	vibrato_delay 0
	C_ 14
	tie
	C_ 7
	dec_octave
	A# 6
	inc_octave
	C_ 7
	tie
	dec_octave
	A# 7
	F# 7
	A# 6
	musicf3
	D_ 14
	tie
	D_ 7
	A_ 3
	A# 3
	tie
	A# 14
	musicf2
	F# 7
	F# 6
	musicf3
	G# 4
	vibrato_delay 10
	A_ 10
	tie
	A_ 13
	tie
	A_ 14
	vibrato_delay 0
	musicf2
	G_ 13
	tie
	G_ 7
	G_ 7
	D_ 13
	D_ 7
	E_ 14
	E_ 6
	F_ 14
	tie
	F_ 8
	F_ 5
	musicf3
	preset 9
	octave 3
	musicf1 48
	musicf2
	C# 5
	C# 9
	musicf3
	preset 35
	musicf1 71
	musicf3
	G_ 13
	tie
	G_ 14
	musicf2
	A_ 13
	A_ 7
	A# 14
	A# 6
	inc_octave
	C_ 14
	tie
	C_ 13
	C_ 14
	vibrato_delay 27
	D_ 13
	tie
	D_ 14
	tie
	D_ 13
	tie
	D_ 14
	tie
	D_ 13
	tie
	D_ 14
	tie
	D_ 13
	tie
	D_ 14
	tie
	D_ 13
	tie
	D_ 14
	tie
	D_ 13
	D_ 14
	tie
	D_ 13
	C_ 14
	tie
	C_ 13
	C_ 14
	D_ 13
	tie
	D_ 14
	D_ 13
	D_ 14
	tie
	D_ 13
	D_ 14
	musicf3
	D# 3
	musicf2
	E_ 10
	tie
	E_ 14
	tie
	E_ 8
	E_ 5
	musicf3
	preset 1
	musicef 2
	musicf1 71
	octave 3
	E_ 4
	E_ 3
	musicf3
	inc_octave
	D_ 7
	musicf2
	dec_octave
	B_ 4
	inc_octave
	D_ 3
	dec_octave
	G_ 3
	B_ 3
	musicf3
	B_ 7
	musicf2
	G_ 4
	B_ 3
	D_ 4
	G_ 3
	G_ 3
	D_ 3
	E_ 7
	E_ 7
	music_call Branch_1ef490
	octave 2
	B_ 14
	inc_octave
	C_ 13
	rest 14
	music_call Branch_1ef490
	preset 0
	musicf1 71
	musicf3
	octave 3
	C_ 5
	D_ 5
	D# 5
	E_ 4
	G_ 4
	G# 4
	EndMainLoop

Branch_1ef490:
	preset 9
	octave 3
	musicf1 48
	musicf2
	C_ 5
	C_ 8
	rest 7
	C_ 5
	C_ 9
	rest 6
	rest 7
	C_ 5
	C_ 9
	rest 6
	musicf3
	D_ 14
	C_ 13
	rest 14
	musicf2
	C_ 5
	C_ 8
	rest 7
	C_ 5
	C_ 9
	rest 6
	rest 7
	C_ 5
	C_ 9
	rest 6
	musicf3
	dec_octave
	B_ 14
	inc_octave
	C_ 13
	rest 14
	musicf2
	C_ 5
	C_ 8
	rest 7
	C_ 5
	C_ 9
	rest 6
	rest 7
	C_ 5
	C_ 9
	rest 6
	musicf3
	D_ 14
	C_ 13
	rest 14
	musicf2
	C_ 5
	C_ 8
	rest 7
	C_ 5
	C_ 9
	rest 6
	rest 7
	C_ 5
	C_ 9
	rest 6
	musicf3
	music_ret

Branch_1ef4d1:
	preset 34
	musicf1 71
	musicf3
	octave 2
	G_ 5
	G# 5
	A_ 5
	inc_octave
	C_ 4
	D_ 4
	D# 4
	E_ 14
	tie
	E_ 7
	G_ 6
	music_call Branch_1ef5f5
	preset 34
	octave 3
	F# 13
	tie
	F# 14
	tie
	F# 13
	tie
	F# 14
	tie
	F# 13
	tie
	F# 14
	tie
	F# 13
	music_call Branch_1ef5f5
	preset 34
	octave 3
	E_ 7
	F# 6
	G_ 14
	F# 7
	E_ 6
	D_ 4
	rest 3
	F# 14
	tie
	F# 6
	E_ 14
	tie
	E_ 7
	C_ 6
	music_call Branch_1ef5f5
	preset 34
	octave 3
	D_ 13
	tie
	D_ 14
	tie
	D_ 13
	tie
	D_ 14
	tie
	D_ 13
	tie
	D_ 14
	tie
	D_ 13
	tie
	D_ 14
	tie
	D_ 13
	rest 7
	music_call Branch_1ef602
	preset 34
	E_ 14
	tie
	E_ 7
	G_ 6
	music_call Branch_1ef5f5
	preset 34
	octave 3
	F# 13
	tie
	F# 14
	tie
	F# 13
	tie
	F# 14
	tie
	F# 13
	tie
	F# 14
	tie
	F# 13
	music_call Branch_1ef5f5
	preset 34
	octave 3
	E_ 7
	F# 6
	G_ 14
	F# 7
	E_ 6
	D_ 4
	rest 3
	F# 14
	tie
	F# 6
	B_ 14
	tie
	B_ 7
	G_ 6
	music_call Branch_1ef5f5
	preset 34
	musicf1 71
	musicf2
	A_ 13
	tie
	A_ 14
	tie
	A_ 13
	tie
	A_ 14
	tie
	A_ 13
	tie
	music_ret

Branch_1ef564:
	preset 35
	musicf1 71
	musicf3
	octave 2
	G_ 5
	G# 5
	A_ 5
	inc_octave
	C_ 4
	D_ 4
	D# 4
	E_ 14
	tie
	E_ 7
	G_ 6
	music_call Branch_1ef5f5
	preset 35
	octave 3
	F# 13
	tie
	F# 14
	tie
	F# 13
	tie
	F# 14
	tie
	F# 13
	tie
	F# 14
	tie
	F# 13
	music_call Branch_1ef5f5
	preset 35
	octave 3
	E_ 7
	F# 6
	G_ 14
	F# 7
	E_ 6
	D_ 4
	rest 3
	F# 14
	tie
	F# 6
	E_ 14
	tie
	E_ 7
	C_ 6
	music_call Branch_1ef5f5
	preset 35
	octave 3
	D_ 13
	tie
	D_ 14
	tie
	D_ 13
	tie
	D_ 14
	tie
	D_ 13
	tie
	D_ 14
	tie
	D_ 13
	tie
	D_ 14
	tie
	D_ 13
	rest 7
	music_call Branch_1ef602
	preset 35
	E_ 14
	tie
	E_ 7
	G_ 6
	music_call Branch_1ef5f5
	preset 35
	octave 3
	F# 13
	tie
	F# 14
	tie
	F# 13
	tie
	F# 14
	tie
	F# 13
	tie
	F# 14
	tie
	F# 13
	music_call Branch_1ef5f5
	preset 35
	octave 3
	E_ 7
	F# 6
	G_ 14
	F# 7
	E_ 6
	D_ 4
	rest 3
	F# 14
	tie
	F# 6
	B_ 14
	tie
	B_ 7
	G_ 6
	music_call Branch_1ef5f5
	preset 35
	musicf2
	A_ 13
	tie
	A_ 14
	tie
	A_ 13
	tie
	A_ 14
	tie
	A_ 13
	tie
	music_ret

Branch_1ef5f5:
	preset 9
	octave 2
	musicf1 48
	octave 3
	musicf2
	C_ 5
	C_ 9
	musicf1 71
	musicf3
	music_ret

Branch_1ef602:
	preset 9
	octave 3
	musicf1 48
	musicf3
	E_ 7
	dec_octave
	G_ 4
	A_ 4
	G_ 5
	inc_octave
	D_ 14
	C_ 13
	octave 3
	musicf1 71
	musicf3
	music_ret

Branch_1ef615:
	preset 9
	octave 3
	musicf1 48
	musicf3
	E_ 7
	dec_octave
	G_ 4
	A_ 4
	G_ 5
	inc_octave
	D_ 14
	C_ 7
	octave 3
	musicf1 71
	musicf3
	music_ret

Branch_1ef628:
	preset 9
	octave 3
	musicf1 48
	musicf3
	E_ 7
	dec_octave
	G_ 4
	A_ 4
	G_ 5
	music_ret


Music_GRDuelTheme2_Ch1: ; 1ef634 (7b:7634)
	preset 9
	octave 2
	speed 1
	stereo_panning 15, 15
	octave 3
	E_ 14
	rest 7
	D_ 13
	rest 7
	C_ 13
	rest 7
	dec_octave
	G_ 4
	rest 3
	A_ 7
	inc_octave
	C_ 4
	rest 2
	dec_octave
	A_ 7
	E_ 7
	D_ 4
	rest 3
	D# 4
	rest 2
	E_ 7
	rest 7
	preset 1
	octave 3
	rest 3
	E_ 7
	B_ 3
	musicf1 71
	musicf2
	G# 14
	tie
	G# 13
	tie
	G# 14
	tie
	G# 13
	tie
	G# 14
	G# 13
	MainLoop
	Loop 2
	preset 0
	musicf1 71
	octave 3
	musicf2
	E_ 7
	E_ 7
	music_call Branch_1ef8d6
	rest 14
	music_call Branch_1ef8f0
	EndLoop
	music_call Branch_1ef90b
	preset 7
	musicef -3
	octave 3
	F# 14
	tie
	F# 13
	tie
	F# 14
	tie
	F# 13
	rest 7
	music_call Branch_1efa51
	preset 9
	octave 3
	musicf1 48
	rest 14
	rest 13
	musicf2
	D_ 5
	D_ 9
	rest 13
	rest 7
	D_ 5
	D_ 2
	musicf3
	D_ 13
	F_ 14
	dec_octave
	A# 13
	rest 14
	rest 13
	musicf2
	A# 5
	A# 9
	rest 13
	inc_octave
	rest 7
	D_ 5
	D_ 2
	musicf3
	D_ 13
	E_ 14
	F_ 13
	Loop 2
	rest 14
	rest 13
	musicf2
	E_ 5
	E_ 9
	rest 13
	rest 7
	E_ 5
	E_ 2
	musicf3
	dec_octave
	A_ 13
	inc_octave
	C_ 14
	dec_octave
	A_ 13
	inc_octave
	EndLoop
	rest 14
	rest 13
	musicf2
	D_ 5
	D_ 9
	rest 13
	rest 7
	D_ 5
	D_ 2
	musicf3
	D_ 13
	F_ 14
	dec_octave
	A# 13
	inc_octave
	rest 14
	rest 13
	musicf2
	C# 5
	C# 9
	rest 13
	rest 7
	G# 5
	G# 2
	musicf3
	F_ 13
	dec_octave
	A_ 5
	A# 5
	inc_octave
	C_ 5
	D_ 4
	E_ 4
	F_ 4
	preset 1
	octave 3
	musicf1 71
	C_ 14
	tie
	C_ 13
	C_ 14
	D_ 13
	tie
	D_ 14
	D_ 13
	F_ 14
	tie
	F_ 13
	F_ 14
	E_ 13
	tie
	E_ 14
	E_ 13
	C_ 7
	C_ 14
	tie
	C_ 6
	musicf3
	preset 0
	preset 4
	musicf1 71
	musicf2
	G# 7
	G# 14
	rest 6
	musicf3
	music_call Branch_1ef90b
	preset 7
	musicef -3
	octave 3
	F# 14
	tie
	F# 13
	tie
	F# 14
	tie
	F# 13
	rest 7
	music_call Branch_1efa62
	music_call Branch_1ef997
	preset 9
	octave 3
	musicf1 48
	musicf2
	rest 7
	E_ 5
	E_ 9
	rest 6
	C_ 5
	C_ 9
	rest 13
	C_ 5
	C_ 9
	musicf3
	preset 0
	musicf1 71
	octave 3
	E_ 13
	E_ 7
	F_ 14
	E_ 6
	preset 7
	octave 3
	musicf1 48
	musicf3
	D# 14
	tie
	D# 13
	preset 9
	octave 2
	musicf2
	A# 5
	A# 9
	rest 13
	rest 7
	octave 3
	D# 5
	D# 9
	musicf3
	dec_octave
	G_ 6
	A# 14
	G_ 13
	preset 7
	octave 3
	D# 14
	tie
	D# 13
	preset 9
	octave 2
	musicf2
	A# 5
	A# 9
	musicf3
	preset 7
	octave 3
	D_ 7
	rest 6
	A# 14
	tie
	A# 7
	A_ 13
	tie
	A_ 7
	G_ 7
	rest 6
	F_ 14
	tie
	F_ 7
	G_ 6
	preset 9
	octave 3
	musicf2
	D_ 5
	D_ 9
	musicf3
	preset 7
	octave 3
	A_ 7
	rest 6
	F_ 14
	tie
	F_ 7
	preset 9
	octave 2
	A# 6
	inc_octave
	D_ 14
	dec_octave
	A# 13
	preset 7
	octave 3
	F_ 14
	tie
	F_ 13
	tie
	F_ 14
	tie
	F_ 13
	tie
	F_ 7
	preset 9
	octave 3
	musicf2
	F_ 5
	F_ 2
	musicf3
	dec_octave
	G_ 13
	A# 4
	rest 3
	rest 7
	G_ 13
	preset 7
	octave 3
	D# 14
	tie
	D# 13
	preset 9
	octave 2
	musicf2
	A# 5
	A# 9
	rest 13
	rest 7
	octave 3
	D# 5
	D# 9
	musicf3
	dec_octave
	G_ 6
	A# 14
	G_ 13
	preset 7
	octave 3
	D# 14
	tie
	D# 13
	preset 9
	octave 2
	musicf2
	A# 5
	A# 9
	musicf3
	preset 7
	octave 3
	C_ 13
	preset 9
	octave 3
	musicf2
	D# 5
	D# 9
	musicf3
	preset 7
	octave 3
	G_ 7
	rest 13
	A_ 14
	rest 6
	F_ 14
	tie
	F_ 7
	G_ 6
	preset 9
	octave 3
	musicf2
	D_ 5
	D_ 9
	musicf3
	preset 7
	octave 3
	F_ 7
	rest 6
	D_ 14
	tie
	D_ 7
	preset 9
	octave 2
	F_ 6
	A_ 14
	F_ 13
	preset 7
	octave 3
	F_ 14
	tie
	F_ 13
	tie
	F_ 14
	tie
	F_ 13
	tie
	F_ 7
	preset 9
	octave 3
	musicf2
	D_ 5
	D_ 2
	musicf3
	dec_octave
	F_ 4
	G_ 3
	tie
	G_ 6
	D# 14
	F_ 13
	preset 9
	octave 3
	musicf1 48
	rest 14
	rest 13
	musicf2
	C_ 5
	C_ 9
	rest 13
	rest 7
	F_ 5
	F_ 9
	musicf3
	dec_octave
	G_ 6
	A# 14
	G_ 13
	inc_octave
	rest 14
	rest 13
	musicf2
	F_ 5
	F_ 9
	rest 13
	rest 7
	A# 5
	A# 2
	musicf3
	C_ 13
	D# 14
	F_ 13
	rest 14
	rest 13
	musicf2
	octave 2
	A# 5
	A# 9
	rest 13
	rest 7
	A# 5
	A# 9
	musicf3
	F_ 6
	A# 14
	F_ 13
	inc_octave
	rest 14
	rest 13
	musicf2
	F_ 5
	F_ 9
	rest 13
	rest 7
	F_ 5
	F_ 9
	musicf3
	dec_octave
	A# 6
	preset 0
	musicf3
	octave 2
	A_ 5
	A# 5
	inc_octave
	C_ 5
	D_ 4
	E_ 4
	F_ 4
	musicf1 71
	F_ 14
	tie
	F_ 7
	preset 9
	octave 3
	musicf1 48
	F_ 6
	F_ 14
	preset 0
	musicf1 71
	G_ 13
	tie
	G_ 14
	tie
	G_ 13
	tie
	G_ 14
	tie
	G_ 13
	tie
	G_ 14
	tie
	G_ 13
	tie
	G_ 14
	tie
	G_ 13
	tie
	G_ 14
	tie
	G_ 7
	G_ 6
	musicf3
	D_ 5
	E_ 5
	F_ 5
	G_ 4
	A_ 4
	B_ 4
	F_ 14
	tie
	F_ 7
	preset 9
	octave 3
	musicf1 48
	musicf2
	F_ 6
	F_ 14
	preset 0
	musicf3
	octave 3
	G_ 13
	tie
	G_ 7
	preset 9
	octave 3
	musicf1 48
	G_ 5
	G_ 9
	rest 6
	preset 0
	octave 3
	musicf1 71
	G# 14
	tie
	G# 7
	G# 6
	tie
	G# 14
	A_ 13
	tie
	A_ 14
	A_ 7
	preset 1
	musicef 2
	musicf1 71
	musicf3
	D_ 3
	D# 3
	dec_octave
	musicf2
	B_ 4
	B_ 3
	musicf3
	inc_octave
	B_ 7
	musicf2
	G_ 4
	B_ 3
	D_ 3
	G_ 3
	musicf3
	G_ 7
	musicf2
	D_ 4
	G_ 3
	dec_octave
	B_ 4
	inc_octave
	D_ 3
	D_ 3
	dec_octave
	B_ 3
	dec_octave
	B_ 7
	B_ 7
	music_call Branch_1ef8d6
	rest 14
	music_call Branch_1ef8d6
	rest 14
	music_call Branch_1ef8d6
	rest 14
	music_call Branch_1ef8f0
	EndMainLoop

Branch_1ef8d6:
	preset 9
	octave 2
	musicf3
	rest 13
	rest 14
	rest 13
	rest 14
	rest 13
	A_ 14
	G_ 13
	rest 14
	rest 13
	rest 7
	musicf2
	G_ 5
	G_ 9
	rest 6
	rest 7
	G_ 5
	G_ 9
	rest 6
	musicf3
	F# 14
	G_ 13
	music_ret

Branch_1ef8f0:
	preset 9
	octave 2
	musicf3
	rest 13
	rest 14
	rest 13
	rest 14
	rest 13
	A_ 14
	G_ 13
	rest 14
	rest 13
	musicf2
	rest 7
	G_ 5
	G_ 9
	rest 6
	rest 7
	G_ 5
	G_ 9
	rest 6
	musicf3
	B_ 14
	inc_octave
	C_ 13
	music_ret

Branch_1ef90b:
	preset 7
	musicf3
	octave 3
	C_ 14
	tie
	C_ 7
	E_ 6
	music_call Branch_1efa34
	preset 7
	D_ 13
	tie
	D_ 14
	tie
	D_ 7
	music_call Branch_1efa41
	preset 7
	musicef -3
	D_ 14
	tie
	D_ 13
	music_call Branch_1efa34
	preset 7
	C_ 7
	D_ 6
	E_ 14
	D_ 7
	C_ 6
	dec_octave
	B_ 4
	rest 3
	inc_octave
	D_ 14
	tie
	D_ 6
	C_ 14
	tie
	C_ 7
	dec_octave
	A_ 6
	music_call Branch_1efa34
	preset 7
	octave 2
	F# 13
	tie
	F# 14
	tie
	F# 13
	music_call Branch_1efa4a
	preset 7
	octave 2
	musicef -3
	F# 14
	tie
	F# 13
	tie
	F# 14
	tie
	F# 13
	rest 7
	music_call Branch_1efa51
	preset 7
	octave 3
	C_ 14
	tie
	C_ 7
	E_ 6
	music_call Branch_1efa34
	D_ 13
	tie
	D_ 14
	tie
	D_ 7
	music_call Branch_1efa41
	preset 7
	musicef -3
	D_ 14
	tie
	D_ 13
	music_call Branch_1efa34
	preset 7
	C_ 7
	D_ 6
	E_ 14
	D_ 7
	C_ 6
	dec_octave
	B_ 4
	rest 3
	inc_octave
	D_ 14
	tie
	D_ 6
	G_ 14
	tie
	G_ 7
	E_ 6
	music_call Branch_1efa34
	preset 7
	F# 13
	tie
	F# 14
	tie
	F# 13
	music_call Branch_1efa4a
	music_ret

Branch_1ef997:
	preset 1
	musicf1 71
	musicf3
	octave 2
	A_ 14
	tie
	A_ 7
	inc_octave
	C_ 6
	music_call Branch_1efa34
	preset 1
	D_ 13
	tie
	D_ 14
	tie
	D_ 7
	music_call Branch_1efa41
	preset 1
	musicef -3
	D_ 14
	tie
	D_ 13
	music_call Branch_1efa34
	preset 1
	octave 2
	A_ 7
	B_ 6
	inc_octave
	C_ 14
	dec_octave
	B_ 7
	A_ 6
	musicf2
	G_ 4
	G_ 3
	musicf3
	B_ 14
	tie
	B_ 6
	A_ 14
	tie
	A_ 7
	dec_octave
	E_ 6
	music_call Branch_1efa34
	preset 1
	octave 2
	F# 13
	tie
	F# 14
	tie
	F# 13
	music_call Branch_1efa4a
	preset 1
	musicef -3
	octave 2
	musicf1 71
	F# 14
	tie
	F# 13
	tie
	F# 14
	tie
	F# 13
	F# 7
	music_call Branch_1efa51
	preset 1
	octave 2
	A_ 14
	tie
	A_ 7
	inc_octave
	C_ 6
	music_call Branch_1efa34
	preset 1
	D_ 13
	tie
	D_ 14
	tie
	D_ 7
	music_call Branch_1efa41
	preset 1
	musicef -3
	D_ 14
	tie
	D_ 13
	music_call Branch_1efa34
	octave 2
	preset 1
	A_ 7
	B_ 6
	inc_octave
	C_ 14
	dec_octave
	B_ 7
	A_ 6
	musicf2
	G_ 4
	G_ 3
	musicf3
	B_ 14
	tie
	B_ 6
	inc_octave
	D_ 14
	tie
	D_ 7
	dec_octave
	A_ 6
	music_call Branch_1efa34
	preset 1
	octave 2
	F# 13
	tie
	F# 14
	tie
	F# 13
	music_call Branch_1efa4a
	music_ret

Branch_1efa34:
	preset 9
	octave 2
	musicf1 48
	octave 3
	musicf2
	E_ 5
	E_ 9
	musicf3
	musicf1 71
	music_ret

Branch_1efa41:
	preset 9
	octave 2
	octave 3
	musicf3
	C_ 6
	D_ 14
	C_ 13
	music_ret

Branch_1efa4a:
	preset 9
	octave 2
	musicf3
	A_ 14
	G_ 13
	music_ret

Branch_1efa51:
	preset 9
	musicf1 48
	musicf2
	octave 2
	G_ 5
	inc_octave
	C_ 9
	dec_octave
	rest 6
	musicf3
	A_ 14
	G_ 13
	musicf1 71
	music_ret

Branch_1efa62:
	preset 9
	musicf1 48
	musicf2
	octave 2
	G_ 5
	inc_octave
	C_ 9
	dec_octave
	rest 6
	musicf3
	inc_octave
	D_ 14
	C_ 13
	musicf1 71
	music_ret


Music_GRDuelTheme2_Ch3: ; 1efa74 (7b:7a74)
	wave 5
	speed 1
	volume 32
	echo 96
	stereo_panning 15, 15
	octave 1
	A_ 14
	A_ 4
	rest 3
	inc_octave
	C_ 13
	C_ 4
	rest 3
	D_ 13
	inc_octave
	D_ 4
	rest 3
	dec_octave
	D_ 7
	D# 7
	E_ 6
	dec_octave
	G_ 7
	E_ 7
	G_ 7
	G# 6
	A_ 7
	rest 16
	rest 4
	A# 14
	tie
	A# 7
	A# 3
	rest 3
	A# 7
	inc_octave
	F_ 4
	rest 3
	A# 13
	F_ 14
	dec_octave
	A# 13
	MainLoop
	music_call Branch_1efd79
	music_call Branch_1efd91
	music_call Branch_1efd79
	music_call Branch_1efd91
	music_call Branch_1efd79
	music_call Branch_1efd91
	music_call Branch_1efd79
	music_call Branch_1efd91
	music_call Branch_1efda8
	music_call Branch_1efdc0
	music_call Branch_1efda8
	music_call Branch_1efdd9
	music_call Branch_1efda8
	music_call Branch_1efdc0
	music_call Branch_1efda8
	music_call Branch_1efdd9
	octave 1
	G_ 14
	G_ 4
	rest 3
	G_ 6
	inc_octave
	F_ 5
	rest 2
	dec_octave
	D_ 4
	rest 3
	F_ 7
	F# 6
	G_ 4
	rest 3
	inc_octave
	A# 5
	rest 2
	dec_octave
	A# 13
	inc_octave
	C_ 14
	dec_octave
	A# 13
	G_ 14
	G_ 4
	rest 3
	G_ 6
	inc_octave
	F_ 5
	rest 2
	dec_octave
	D_ 4
	rest 3
	F_ 7
	F# 6
	G_ 4
	rest 3
	inc_octave
	A# 5
	rest 2
	dec_octave
	E_ 13
	F_ 14
	F# 13
	Loop 2
	octave 1
	F_ 14
	F_ 4
	rest 3
	F_ 6
	inc_octave
	A_ 5
	rest 2
	dec_octave
	inc_octave
	C_ 4
	rest 3
	E_ 7
	F_ 6
	dec_octave
	F_ 4
	rest 3
	inc_octave
	inc_octave
	C_ 5
	rest 2
	dec_octave
	dec_octave
	inc_octave
	F_ 13
	dec_octave
	A# 14
	inc_octave
	C_ 13
	EndLoop
	octave 1
	G_ 14
	G_ 4
	rest 3
	G_ 6
	inc_octave
	F_ 5
	rest 2
	dec_octave
	D_ 4
	rest 3
	F_ 7
	F# 6
	G_ 4
	rest 3
	inc_octave
	A# 5
	rest 2
	dec_octave
	F_ 13
	G_ 14
	F_ 13
	D# 14
	D# 4
	rest 3
	D# 6
	inc_octave
	A# 5
	rest 2
	dec_octave
	A# 4
	rest 3
	inc_octave
	C# 7
	D_ 6
	D# 4
	rest 3
	inc_octave
	C# 5
	rest 2
	dec_octave
	dec_octave
	D# 13
	inc_octave
	D# 14
	dec_octave
	D# 13
	inc_octave
	D_ 7
	dec_octave
	A_ 4
	rest 3
	D_ 4
	rest 3
	A_ 4
	rest 2
	D_ 4
	rest 3
	A_ 4
	rest 3
	inc_octave
	E_ 7
	dec_octave
	B_ 4
	rest 2
	E_ 4
	rest 3
	B_ 4
	rest 3
	E_ 4
	rest 3
	B_ 4
	rest 2
	inc_octave
	G_ 7
	D_ 4
	rest 3
	dec_octave
	G_ 4
	rest 3
	inc_octave
	D_ 4
	rest 2
	dec_octave
	G_ 4
	rest 3
	inc_octave
	D_ 4
	rest 3
	A_ 7
	E_ 4
	rest 2
	dec_octave
	A_ 4
	rest 3
	inc_octave
	E_ 4
	rest 3
	dec_octave
	A_ 4
	rest 3
	inc_octave
	E_ 4
	rest 2
	D_ 7
	dec_octave
	A_ 4
	rest 3
	D_ 4
	rest 3
	A_ 4
	rest 2
	A# 7
	inc_octave
	F_ 4
	rest 3
	A# 7
	G# 4
	rest 2
	music_call Branch_1efda8
	music_call Branch_1efdc0
	music_call Branch_1efda8
	music_call Branch_1efdd9
	music_call Branch_1efda8
	music_call Branch_1efdc0
	music_call Branch_1efda8
	music_call Branch_1efdd9
	music_call Branch_1efda8
	music_call Branch_1efdc0
	music_call Branch_1efda8
	music_call Branch_1efdd9
	music_call Branch_1efda8
	music_call Branch_1efdc0
	music_call Branch_1efda8
	octave 1
	A_ 4
	rest 3
	inc_octave
	A_ 5
	rest 2
	G_ 7
	A_ 4
	rest 2
	G_ 5
	rest 2
	dec_octave
	E_ 4
	rest 3
	G_ 7
	G# 6
	A_ 7
	rest 7
	A_ 13
	A_ 4
	rest 3
	G_ 14
	G_ 3
	rest 3
	Loop 2
	octave 1
	F_ 14
	F_ 4
	rest 3
	F_ 6
	inc_octave
	G_ 5
	rest 2
	C_ 4
	rest 3
	D# 7
	F_ 6
	dec_octave
	F_ 4
	rest 3
	inc_octave
	A# 5
	rest 2
	F_ 13
	C_ 14
	D# 13
	EndLoop
	octave 1
	F_ 14
	F_ 4
	rest 3
	F_ 6
	inc_octave
	A# 5
	rest 2
	C_ 4
	rest 3
	D# 7
	F_ 6
	dec_octave
	F_ 4
	rest 3
	inc_octave
	inc_octave
	F_ 5
	rest 2
	dec_octave
	F_ 13
	C_ 14
	D# 13
	octave 1
	F_ 14
	F_ 4
	rest 3
	F_ 6
	inc_octave
	inc_octave
	D_ 5
	rest 2
	dec_octave
	C_ 4
	rest 3
	D# 7
	F_ 6
	dec_octave
	F_ 4
	rest 3
	inc_octave
	inc_octave
	D_ 5
	rest 2
	dec_octave
	F_ 13
	C_ 14
	D# 13
	octave 1
	F_ 14
	F_ 4
	rest 3
	F_ 6
	inc_octave
	G_ 5
	rest 2
	C_ 4
	rest 3
	D# 7
	F_ 6
	dec_octave
	F_ 4
	rest 3
	inc_octave
	A# 5
	rest 2
	F_ 13
	C_ 14
	D# 13
	octave 1
	F_ 14
	F_ 4
	rest 3
	F_ 6
	inc_octave
	G_ 5
	rest 2
	C_ 4
	rest 3
	D# 7
	F_ 6
	dec_octave
	F_ 4
	rest 3
	inc_octave
	G_ 5
	rest 2
	F_ 13
	C_ 14
	D# 13
	dec_octave
	octave 1
	A# 14
	A# 4
	rest 3
	A# 6
	inc_octave
	A_ 5
	rest 2
	dec_octave
	F_ 4
	rest 3
	A_ 7
	A# 6
	A# 4
	rest 3
	inc_octave
	inc_octave
	D_ 5
	rest 2
	dec_octave
	F_ 13
	A_ 14
	F_ 13
	octave 1
	A# 14
	A# 4
	rest 3
	A# 6
	inc_octave
	inc_octave
	D_ 5
	rest 2
	dec_octave
	dec_octave
	F_ 4
	rest 3
	A_ 7
	A# 6
	A# 4
	rest 3
	inc_octave
	A_ 5
	rest 2
	dec_octave
	F_ 13
	A_ 14
	F_ 13
	octave 1
	G# 14
	G# 4
	rest 3
	G# 6
	inc_octave
	G_ 5
	rest 2
	D# 4
	rest 3
	G_ 7
	G# 6
	dec_octave
	G# 4
	rest 3
	inc_octave
	inc_octave
	C_ 5
	rest 2
	dec_octave
	D# 13
	G_ 14
	D# 13
	octave 1
	D_ 14
	D_ 4
	rest 3
	D_ 6
	inc_octave
	inc_octave
	C_ 5
	rest 2
	dec_octave
	dec_octave
	A_ 4
	rest 3
	inc_octave
	C_ 7
	D_ 6
	dec_octave
	D_ 4
	rest 3
	inc_octave
	inc_octave
	F_ 5
	rest 2
	dec_octave
	dec_octave
	A_ 13
	inc_octave
	C_ 14
	dec_octave
	A_ 13
	G_ 14
	G_ 4
	rest 3
	G_ 6
	inc_octave
	F_ 5
	rest 2
	D_ 4
	rest 3
	F_ 7
	G_ 6
	dec_octave
	G_ 4
	rest 3
	inc_octave
	F_ 5
	rest 2
	dec_octave
	G_ 13
	inc_octave
	D_ 14
	C# 13
	dec_octave
	D# 14
	D# 4
	rest 3
	D# 6
	inc_octave
	A# 5
	rest 2
	dec_octave
	A# 4
	rest 3
	inc_octave
	C# 7
	D# 6
	dec_octave
	D# 4
	rest 3
	inc_octave
	inc_octave
	C# 5
	rest 2
	dec_octave
	D# 13
	dec_octave
	A# 14
	inc_octave
	C# 13
	D_ 7
	dec_octave
	A_ 4
	rest 3
	D_ 4
	rest 3
	inc_octave
	inc_octave
	C_ 5
	rest 1
	dec_octave
	dec_octave
	D_ 4
	rest 3
	D_ 2
	rest 5
	E_ 13
	E_ 4
	rest 3
	inc_octave
	inc_octave
	G_ 5
	rest 2
	dec_octave
	E_ 13
	dec_octave
	B_ 14
	inc_octave
	D_ 13
	E_ 7
	dec_octave
	E_ 4
	rest 3
	E_ 2
	rest 5
	inc_octave
	inc_octave
	D_ 5
	rest 1
	dec_octave
	dec_octave
	E_ 4
	rest 3
	inc_octave
	E_ 7
	D_ 7
	E_ 6
	dec_octave
	E_ 4
	rest 3
	inc_octave
	inc_octave
	D_ 5
	rest 2
	dec_octave
	dec_octave
	B_ 13
	inc_octave
	D_ 14
	dec_octave
	B_ 13
	inc_octave
	D_ 7
	dec_octave
	A_ 4
	rest 3
	D_ 4
	rest 3
	inc_octave
	inc_octave
	C_ 5
	rest 1
	dec_octave
	dec_octave
	D_ 4
	rest 3
	D_ 2
	rest 5
	E_ 13
	E_ 4
	rest 3
	inc_octave
	inc_octave
	D_ 5
	rest 2
	dec_octave
	E_ 13
	dec_octave
	A# 14
	inc_octave
	inc_octave
	D_ 5
	rest 2
	dec_octave
	dec_octave
	A# 3
	rest 3
	A# 7
	inc_octave
	A# 4
	rest 3
	dec_octave
	E_ 13
	E_ 14
	E_ 4
	rest 3
	inc_octave
	D_ 6
	E_ 7
	dec_octave
	D_ 4
	rest 3
	D# 4
	rest 3
	E_ 4
	rest 2
	G_ 7
	E_ 4
	rest 3
	G_ 4
	rest 3
	G# 4
	rest 2
	music_call Branch_1efd79
	music_call Branch_1efd91
	music_call Branch_1efd79
	music_call Branch_1efd91
	music_call Branch_1efd79
	music_call Branch_1efd91
	music_call Branch_1efd79
	music_call Branch_1efd91
	EndMainLoop

Branch_1efd79:
	octave 1
	A_ 14
	inc_octave
	G_ 5
	rest 2
	dec_octave
	A_ 6
	A_ 4
	rest 3
	inc_octave
	G_ 5
	rest 2
	dec_octave
	inc_octave
	G_ 7
	G# 6
	A_ 4
	rest 3
	G_ 5
	rest 2
	C_ 13
	D_ 14
	E_ 13
	music_ret

Branch_1efd91:
	octave 1
	A_ 14
	inc_octave
	G_ 5
	rest 2
	dec_octave
	A_ 6
	A_ 4
	rest 3
	A_ 1
	rest 6
	inc_octave
	G_ 7
	G# 6
	A_ 4
	rest 3
	dec_octave
	A_ 2
	rest 5
	F# 13
	G_ 14
	G# 13
	music_ret

Branch_1efda8:
	octave 1
	A_ 14
	A_ 4
	rest 3
	A_ 6
	inc_octave
	G_ 5
	rest 2
	dec_octave
	E_ 4
	rest 3
	G_ 7
	G# 6
	A_ 4
	rest 3
	inc_octave
	inc_octave
	C_ 5
	rest 2
	dec_octave
	C_ 13
	D_ 14
	C_ 13
	music_ret

Branch_1efdc0:
	octave 1
	A_ 14
	A_ 4
	rest 3
	A_ 6
	inc_octave
	G_ 5
	rest 2
	dec_octave
	E_ 4
	rest 3
	G_ 7
	G# 6
	A_ 4
	rest 3
	inc_octave
	inc_octave
	C_ 5
	rest 2
	dec_octave
	dec_octave
	F# 13
	G_ 14
	G# 13
	music_ret

Branch_1efdd9:
	octave 1
	A_ 14
	A_ 4
	rest 3
	A_ 6
	inc_octave
	inc_octave
	C_ 5
	rest 2
	dec_octave
	dec_octave
	E_ 4
	rest 3
	G_ 7
	G# 6
	A_ 4
	rest 3
	inc_octave
	inc_octave
	C_ 5
	rest 2
	dec_octave
	dec_octave
	F# 13
	G_ 14
	G# 13
	music_ret


Music_GRDuelTheme2_Ch4: ; 1efdf4 (7b:7df4)
	octave 1
	speed 1
	snare4 14
	snare1 7
	snare4 13
	snare1 7
	snare4 13
	snare3 7
	snare1 3
	snare1 4
	snare1 7
	snare1 6
	snare1 7
	snare1 7
	bass 7
	bass 6
	snare1 14
	bass 4
	bass 4
	bass 5
	snare1 14
	bass 7
	snare1 6
	snare1 4
	musicef -4
	snare1 5
	snare1 5
	musicef 0
	snare1 4
	musicef -4
	snare1 4
	snare1 5
	musicef 0
	snare1 7
	snare1 7
	bass 13
	MainLoop
	bass 14
	snare3 7
	bass 6
	snare1 14
	snare3 7
	snare3 6
	bass 7
	snare3 7
	snare4 13
	snare1 7
	bass 7
	snare4 13
	music_call Branch_1effdc
	music_call Branch_1effeb
	music_call Branch_1effdc
	music_call Branch_1effeb
	music_call Branch_1effdc
	music_call Branch_1effeb
	musicef 0
	snare1 7
	musicef -6
	snare1 7
	musicef 0
	snare1 7
	musicef -6
	snare1 6
	musicef 0
	snare1 7
	snare1 7
	musicef -6
	snare1 7
	musicef 0
	snare1 6
	musicef -6
	snare1 7
	musicef 0
	snare1 7
	musicef -6
	snare1 7
	musicef -4
	snare1 3
	snare1 3
	musicef 0
	snare1 7
	snare1 7
	musicef -6
	snare1 7
	musicef 0
	snare1 6
	music_call Branch_1effeb
	music_call Branch_1effdc
	music_call Branch_1effeb
	music_call Branch_1effdc
	music_call Branch_1effeb
	music_call Branch_1effdc
	music_call Branch_1effeb
	bass 14
	snare3 7
	bass 6
	snare1 14
	snare3 7
	snare3 6
	bass 7
	snare1 7
	snare4 7
	musicef -3
	snare1 3
	snare1 3
	musicef 0
	snare1 7
	snare1 7
	bass 7
	snare1 6
	music_call Branch_1effeb
	music_call Branch_1effdc
	music_call Branch_1effeb
	music_call Branch_1effdc
	music_call Branch_1effeb
	bass 14
	snare3 7
	bass 6
	snare1 14
	snare3 7
	snare3 6
	bass 7
	snare1 7
	snare4 13
	snare1 14
	snare1 7
	snare1 6
	snare1 14
	snare4 7
	bass 6
	snare1 14
	snare1 13
	snare4 7
	bass 7
	snare1 13
	snare1 14
	snare4 7
	bass 6
	snare1 14
	snare1 13
	snare4 7
	bass 7
	snare1 13
	snare1 3
	snare1 4
	snare1 7
	snare1 7
	snare1 6
	snare1 7
	snare1 7
	snare1 7
	snare1 6
	music_call Branch_1effeb
	music_call Branch_1effdc
	music_call Branch_1effeb
	music_call Branch_1effdc
	music_call Branch_1effeb
	music_call Branch_1effdc
	music_call Branch_1effeb
	bass 14
	snare3 7
	bass 6
	snare1 14
	snare3 7
	musicef -3
	snare1 3
	snare1 3
	musicef 0
	snare1 4
	musicef -3
	snare1 5
	snare1 5
	musicef 0
	snare1 4
	musicef -3
	snare1 4
	snare1 5
	musicef 0
	snare1 7
	snare1 7
	snare3 6
	snare1 6
	music_call Branch_1effeb
	music_call Branch_1effdc
	music_call Branch_1effeb
	music_call Branch_1effdc
	music_call Branch_1effeb
	music_call Branch_1effdc
	music_call Branch_1effeb
	bass 7
	snare1 7
	snare4 7
	snare1 3
	snare1 3
	snare1 7
	snare1 7
	snare1 7
	bass 6
	snare1 14
	bass 13
	snare1 7
	bass 14
	snare1 6
	music_call Branch_1effeb
	music_call Branch_1effdc
	music_call Branch_1effeb
	music_call Branch_1effdc
	music_call Branch_1effeb
	music_call Branch_1effdc
	music_call Branch_1effeb
	bass 14
	snare3 7
	bass 6
	snare1 14
	snare3 7
	snare3 6
	bass 7
	snare1 7
	snare4 7
	musicef -3
	snare1 3
	snare1 3
	musicef 0
	snare1 7
	snare1 7
	snare3 7
	snare1 6
	music_call Branch_1effeb
	music_call Branch_1effdc
	music_call Branch_1effeb
	bass 14
	snare3 7
	bass 6
	snare1 15
	snare3 7
	musicef -3
	snare1 3
	snare1 3
	musicef 0
	snare1 7
	snare1 7
	snare1 7
	snare1 6
	snare1 7
	snare1 7
	snare1 7
	snare1 6
	snare1 14
	snare4 7
	bass 6
	snare1 14
	snare1 13
	snare3 7
	bass 7
	snare4 13
	snare1 14
	snare4 13
	bass 14
	snare3 7
	bass 6
	snare1 14
	snare3 7
	snare3 6
	bass 7
	snare1 7
	snare4 13
	snare1 7
	snare3 7
	snare1 7
	snare1 6
	snare1 14
	snare4 7
	bass 6
	snare1 14
	snare1 13
	snare3 7
	snare1 7
	snare4 13
	snare1 14
	snare3 7
	snare1 6
	bass 14
	snare1 13
	snare3 7
	snare4 7
	snare1 7
	bass 6
	snare1 4
	musicef -2
	snare1 5
	snare1 5
	musicef 0
	snare1 4
	musicef -2
	snare1 4
	snare1 5
	musicef 0
	snare1 7
	snare1 7
	snare3 7
	snare1 6
	speed 6
	snare5 16
	speed 1
	rest 12
	rest 16
	rest 16
	rest 16
	rest 16
	rest 16
	rest 16
	rest 12
	rest 16
	rest 16
	rest 16
	rest 16
	rest 16
	rest 16
	rest 12
	rest 16
	rest 16
	rest 16
	rest 16
	rest 16
	rest 1
	snare3 4
	snare3 5
	snare3 5
	snare4 13
	Loop 3
	snare3 7
	snare3 7
	snare4 13
	snare3 7
	snare4 7
	snare3 7
	snare3 6
	snare3 7
	snare3 7
	snare4 13
	snare3 7
	snare4 7
	snare3 7
	snare3 6
	EndLoop
	snare3 7
	snare3 7
	snare4 13
	snare3 7
	snare4 7
	snare3 7
	musicef -3
	snare1 3
	snare1 3
	musicef 0
	snare1 7
	snare1 7
	snare1 7
	snare1 6
	snare1 7
	snare1 7
	snare1 7
	snare1 6
	EndMainLoop

Branch_1effdc:
	octave 1
	bass 14
	snare3 7
	bass 6
	snare1 14
	snare3 7
	snare3 6
	bass 7
	snare1 7
	snare4 13
	snare1 7
	bass 7
	snare3 7
	snare1 6
	music_ret

Branch_1effeb:
	octave 1
	bass 14
	snare3 7
	bass 6
	snare1 14
	snare3 7
	snare3 6
	bass 7
	snare3 7
	snare4 13
	snare1 7
	bass 7
	snare4 13
	music_ret
; 0x1efff9
