Music_Ishihara_Ch2: ; 1dd6cc (77:56cc)
	speed 1
	stereo_panning 15, 15
	rest 13
	rest 14
	rest 13
	MainLoop
	musicf0 27
	octave 2
	musicf1 87
	musicf3
	F_ 5
	rest 9
	F_ 5
	rest 8
	A_ 5
	rest 9
	A_ 5
	rest 8
	D# 5
	rest 9
	D# 5
	rest 8
	G_ 5
	rest 9
	G_ 5
	rest 8
	F_ 5
	rest 9
	F_ 5
	rest 8
	A_ 5
	rest 9
	A_ 5
	rest 8
	D# 5
	rest 9
	D# 5
	rest 8
	G_ 16
	tie
	G_ 11
	F_ 5
	rest 9
	F_ 5
	rest 8
	A_ 5
	rest 9
	A_ 5
	rest 8
	D# 5
	rest 9
	D# 5
	rest 8
	G_ 5
	rest 9
	G_ 5
	rest 8
	musicf2
	F_ 5
	rest 2
	F_ 5
	rest 2
	musicf3
	musicf0 3
	musicef 254
	musicf1 69
	octave 4
	musicf3
	G# 13
	musicf2
	A_ 5
	rest 2
	A_ 7
	musicf3
	dec_octave
	B_ 13
	inc_octave
	musicf2
	C_ 5
	rest 2
	C_ 7
	musicf3
	dec_octave
	G# 13
	musicf2
	A_ 2
	rest 5
	A_ 7
	musicf3
	E_ 13
	musicf2
	F_ 5
	rest 2
	F_ 7
	musicf3
	musicf0 27
	octave 2
	musicf3
	C_ 5
	rest 8
	A_ 5
	rest 9
	A_ 5
	rest 8
	D# 5
	rest 9
	D# 5
	rest 8
	G_ 5
	rest 9
	G_ 5
	rest 8
	F_ 5
	rest 9
	F_ 5
	rest 8
	A_ 5
	rest 9
	A_ 5
	rest 8
	D# 5
	rest 9
	D# 5
	rest 8
	G_ 16
	tie
	G_ 11
	F_ 5
	rest 9
	F_ 5
	rest 8
	A_ 5
	rest 9
	A_ 5
	rest 8
	D# 5
	rest 9
	D# 5
	rest 8
	G_ 5
	rest 9
	G_ 5
	rest 8
	musicf2
	F_ 5
	rest 2
	F_ 5
	rest 2
	rest 13
	rest 14
	rest 13
	rest 14
	rest 13
	rest 14
	rest 13
	music_call Branch_1dd880
	C# 14
	musicf2
	F_ 7
	C# 6
	G# 7
	F_ 7
	musicf3
	B_ 4
	inc_octave
	C_ 9
	tie
	C_ 14
	dec_octave
	A# 4
	inc_octave
	C_ 4
	dec_octave
	A# 5
	musicf2
	A_ 7
	G# 7
	G_ 7
	A_ 6
	musicf3
	music_call Branch_1dd880
	C# 14
	musicf2
	F_ 7
	C# 6
	G# 7
	F_ 7
	musicf3
	B_ 4
	inc_octave
	C_ 9
	tie
	C_ 14
	dec_octave
	A# 4
	inc_octave
	C_ 4
	dec_octave
	A# 5
	musicf2
	G# 7
	A# 7
	G_ 7
	G# 6
	musicf0 32
	musicf1 55
	music_call Branch_1dd809
	musicf0 27
	octave 2
	musicf3
	A_ 13
	pitch_offset 254
	music_call Branch_1ddc41
	musicf0 32
	musicf1 55
	music_call Branch_1dd849
	F_ 13
	tie
	F_ 14
	tie
	F_ 13
	tie
	F_ 14
	tie
	F_ 13
	tie
	F_ 14
	musicf0 27
	octave 2
	musicf3
	A_ 13
	pitch_offset 254
	music_call Branch_1ddc41
	music_call Branch_1ddc4e
	musicf0 2
	musicf1 55
	music_call Branch_1dd809
	musicf0 27
	octave 2
	A_ 13
	pitch_offset 254
	music_call Branch_1ddc41
	musicf0 2
	musicf1 55
	music_call Branch_1dd849
	E_ 3
	tie
	F_ 10
	tie
	F_ 14
	musicf0 27
	musicf1 32
	octave 3
	musicf3
	F_ 13
	musicf2
	A_ 5
	A_ 9
	inc_octave
	C_ 5
	C_ 8
	F_ 5
	F_ 9
	musicf3
	F_ 4
	A_ 4
	inc_octave
	C_ 5
	musicf2
	F_ 5
	F_ 9
	rest 13
	EndMainLoop

Branch_1dd809:
	octave 4
	musicf2
	F_ 7
	rest 7
	F_ 7
	rest 6
	C# 7
	rest 7
	C# 7
	rest 6
	musicf3
	F_ 14
	musicf2
	G_ 7
	F_ 6
	G# 7
	G_ 7
	musicf3
	A_ 3
	A# 10
	tie
	A# 14
	musicf2
	G_ 7
	A_ 6
	F_ 7
	G_ 7
	D# 13
	tie
	D# 14
	tie
	D# 13
	D# 14
	C_ 7
	C_ 6
	C# 7
	C_ 7
	tie
	C# 7
	rest 6
	musicf3
	F_ 14
	musicf2
	D# 7
	F_ 6
	tie
	D# 7
	rest 7
	C# 7
	rest 6
	C# 7
	rest 7
	C_ 13
	tie
	C_ 14
	tie
	C_ 13
	tie
	C_ 14
	tie
	C_ 13
	tie
	C_ 14
	music_ret

Branch_1dd849:
	octave 4
	C_ 7
	C_ 6
	musicf3
	C_ 14
	musicf2
	C# 7
	C_ 6
	F_ 7
	C# 7
	musicf3
	G_ 3
	G# 10
	tie
	G# 14
	musicf2
	G_ 7
	G# 6
	F_ 7
	G_ 7
	musicf3
	F# 3
	G_ 10
	tie
	G_ 14
	musicf2
	A# 7
	G_ 6
	F_ 7
	A# 7
	D# 13
	tie
	D# 14
	tie
	D# 13
	D# 14
	D# 7
	D# 6
	musicf3
	F_ 14
	musicf2
	G_ 7
	F_ 6
	G# 7
	G_ 7
	G_ 13
	tie
	G_ 7
	G_ 7
	musicf3
	D# 13
	musicf2
	G_ 7
	D# 7
	music_ret

Branch_1dd880:
	musicf0 32
	musicf1 39
	octave 4
	E_ 4
	tie
	F_ 3
	rest 7
	E_ 4
	tie
	F_ 3
	rest 6
	A_ 7
	rest 7
	A_ 7
	rest 6
	musicf3
	D# 14
	musicf2
	F_ 7
	D# 6
	G_ 7
	F_ 7
	F_ 7
	G_ 6
	tie
	F_ 7
	rest 7
	C_ 7
	rest 6
	C_ 7
	rest 7
	musicf3
	D_ 3
	tie
	D# 10
	tie
	D# 14
	musicf2
	D_ 7
	D# 6
	dec_octave
	A# 7
	inc_octave
	D_ 7
	D_ 7
	dec_octave
	A# 6
	inc_octave
	C_ 7
	D_ 7
	tie
	C_ 7
	rest 6
	dec_octave
	F_ 7
	rest 7
	F_ 7
	rest 6
	musicf3
	D# 14
	musicf2
	F_ 7
	D# 6
	G_ 7
	F_ 7
	F_ 7
	G_ 6
	musicf0 27
	musicf1 32
	octave 2
	A_ 5
	rest 2
	A_ 5
	rest 2
	inc_octave
	C_ 5
	rest 2
	C_ 5
	rest 1
	dec_octave
	A_ 5
	rest 2
	A_ 5
	rest 2
	musicf3
	A# 13
	tie
	A# 14
	musicf2
	inc_octave
	D_ 5
	rest 2
	D_ 5
	rest 1
	dec_octave
	A# 5
	rest 2
	A# 5
	rest 2
	inc_octave
	D_ 5
	rest 2
	D_ 5
	rest 1
	musicf0 32
	musicf1 39
	octave 4
	A_ 7
	rest 7
	A_ 7
	rest 6
	inc_octave
	C_ 7
	rest 7
	C_ 7
	rest 6
	dec_octave
	musicf3
	G_ 14
	musicf2
	A_ 7
	G_ 6
	A# 7
	A_ 7
	A_ 7
	A# 6
	tie
	A_ 7
	rest 7
	F_ 7
	rest 6
	F_ 7
	rest 7
	musicf3
	F# 3
	tie
	G_ 10
	tie
	G_ 14
	musicf2
	F_ 7
	G_ 6
	D_ 7
	F_ 7
	F_ 7
	D_ 6
	D# 7
	F_ 7
	tie
	D# 7
	rest 6
	dec_octave
	A_ 7
	rest 7
	A_ 7
	rest 6
	musicf3
	A# 14
	musicf2
	inc_octave
	C_ 7
	dec_octave
	A# 6
	inc_octave
	D_ 7
	C_ 7
	F_ 7
	D_ 6
	musicf0 27
	musicf1 32
	octave 2
	musicf2
	F_ 5
	rest 2
	F_ 5
	rest 2
	inc_octave
	C_ 5
	rest 2
	C_ 5
	rest 1
	dec_octave
	F_ 5
	rest 2
	F_ 5
	rest 2
	A# 5
	rest 2
	A# 6
	tie
	A# 14
	musicf3
	inc_octave
	C_ 13
	tie
	C_ 14
	musicf2
	dec_octave
	F_ 5
	rest 2
	F_ 5
	rest 1
	musicf0 2
	octave 4
	musicef 255
	musicf1 39
	musicf3
	D_ 14
	musicf2
	E_ 7
	D_ 6
	F_ 7
	E_ 7
	musicf3
	F# 4
	G_ 9
	tie
	G_ 14
	musicf2
	E_ 7
	G_ 6
	D_ 7
	E_ 7
	E_ 7
	D_ 6
	musicf3
	C_ 14
	dec_octave
	musicf2
	A_ 7
	inc_octave
	C_ 6
	musicf3
	F# 3
	G_ 11
	musicf2
	F_ 13
	tie
	F_ 14
	tie
	F_ 13
	F_ 14
	C_ 7
	F_ 6
	musicf3
	D_ 14
	musicf2
	E_ 7
	D_ 6
	F_ 7
	E_ 7
	musicf3
	G# 4
	A_ 9
	tie
	A_ 14
	musicf2
	G_ 7
	A_ 6
	E_ 7
	G_ 7
	D_ 7
	E_ 6
	C_ 14
	tie
	C_ 13
	tie
	C_ 14
	tie
	C_ 13
	tie
	C_ 14
	tie
	C_ 13
	C_ 14
	musicf3
	rest 13
	D_ 14
	musicf2
	E_ 7
	D_ 6
	F_ 7
	E_ 7
	musicf3
	F# 4
	G_ 9
	tie
	G_ 14
	musicf2
	E_ 7
	G_ 6
	D_ 7
	E_ 7
	E_ 7
	D_ 6
	musicf3
	C_ 14
	musicf2
	D_ 7
	C_ 6
	E_ 7
	D_ 7
	musicf3
	F_ 13
	tie
	F_ 14
	musicf2
	C_ 7
	F_ 6
	dec_octave
	A_ 7
	inc_octave
	C_ 7
	musicf3
	dec_octave
	A# 13
	tie
	A# 14
	inc_octave
	musicf2
	D_ 7
	dec_octave
	A# 6
	inc_octave
	F_ 7
	D_ 7
	musicf3
	C_ 13
	tie
	C_ 14
	musicf2
	E_ 7
	C_ 6
	G_ 7
	E_ 7
	musicf3
	C# 13
	tie
	music_ret


Music_Ishihara_Ch1: ; 1dd9de (77:59de)
	speed 1
	stereo_panning 15, 15
	musicf1 86
	rest 13
	rest 14
	rest 13
	MainLoop
	Loop 3
	rest 14
	rest 13
	rest 14
	rest 13
	rest 14
	rest 13
	rest 14
	rest 13
	EndLoop
	rest 14
	musicf0 3
	musicef 254
	musicf1 69
	octave 4
	musicf3
	E_ 13
	musicf2
	F_ 5
	rest 2
	F_ 7
	musicf3
	dec_octave
	G# 13
	musicf2
	A_ 5
	rest 2
	A_ 7
	musicf3
	E_ 13
	musicf2
	F_ 5
	rest 2
	F_ 7
	musicf3
	dec_octave
	A# 13
	musicf2
	A_ 5
	rest 2
	A_ 5
	rest 2
	musicf3
	musicf0 27
	octave 2
	musicf3
	C_ 5
	rest 8
	F_ 5
	rest 9
	F_ 5
	rest 8
	dec_octave
	A# 5
	rest 9
	A# 5
	rest 8
	inc_octave
	E_ 5
	rest 9
	D# 5
	rest 8
	C_ 5
	rest 9
	C_ 5
	rest 8
	F_ 5
	rest 9
	F_ 5
	rest 8
	dec_octave
	A# 5
	rest 9
	A# 5
	rest 8
	inc_octave
	D# 16
	tie
	D# 11
	C_ 5
	rest 9
	C_ 5
	rest 8
	F_ 5
	rest 9
	F_ 5
	rest 8
	dec_octave
	A# 5
	rest 9
	A# 5
	rest 8
	inc_octave
	D# 5
	rest 9
	D# 5
	rest 8
	musicf2
	C_ 5
	rest 2
	C_ 5
	rest 2
	rest 13
	rest 14
	rest 13
	rest 14
	rest 13
	rest 14
	rest 13
	music_call Branch_1ddc75
	F_ 14
	musicf2
	C# 7
	C# 6
	F_ 7
	F_ 7
	musicf3
	G_ 3
	G# 10
	tie
	G# 14
	G_ 4
	G# 4
	G_ 5
	musicf0 27
	octave 2
	F_ 4
	G_ 3
	A_ 4
	A# 3
	inc_octave
	C_ 4
	D_ 3
	D# 3
	E_ 3
	music_call Branch_1ddc75
	F_ 14
	musicf2
	C# 7
	C# 6
	F_ 7
	F_ 7
	musicf3
	G_ 3
	G# 10
	tie
	G# 14
	G_ 4
	G# 4
	G_ 5
	F_ 14
	musicf0 36
	octave 2
	musicf3
	G# 4
	A# 3
	B_ 3
	inc_octave
	C_ 3
	musicf0 1
	octave 3
	musicf2
	G# 7
	G# 7
	musicf3
	rest 13
	musicf0 27
	octave 3
	musicf1 32
	pitch_offset 1
	music_call Branch_1ddc41
	pitch_offset 249
	music_call Branch_1ddc4e
	rest 14
	musicf0 36
	musicf1 69
	musicf3
	octave 3
	D# 13
	F_ 7
	rest 7
	F# 3
	vibrato_delay 3
	G_ 10
	tie
	G_ 14
	vibrato_delay 0
	D# 7
	rest 6
	pitch_offset 3
	music_call Branch_1ddc41
	vibrato_delay 7
	C_ 7
	tie
	C_ 6
	tie
	C_ 14
	vibrato_delay 0
	pitch_offset 252
	music_call Branch_1ddc4e
	pitch_offset 3
	music_call Branch_1ddc41
	pitch_offset 253
	music_call Branch_1ddc4e
	rest 14
	C# 13
	pitch_offset 1
	music_call Branch_1ddc41
	F_ 7
	rest 6
	G_ 14
	G# 7
	rest 6
	A# 7
	rest 7
	vibrato_delay 7
	A_ 13
	tie
	A_ 14
	vibrato_delay 0
	F_ 7
	rest 6
	music_call Branch_1ddc41
	dec_octave
	A# 7
	rest 6
	A_ 14
	musicf0 27
	octave 2
	musicf3
	F_ 13
	pitch_offset 251
	music_call Branch_1ddc41
	music_call Branch_1ddc4e
	C_ 3
	vibrato_delay 3
	C# 11
	tie
	C# 13
	vibrato_delay 0
	pitch_offset 1
	music_call Branch_1ddc41
	pitch_offset 249
	music_call Branch_1ddc4e
	rest 14
	F_ 7
	rest 6
	G# 7
	rest 7
	A_ 3
	vibrato_delay 7
	A# 10
	tie
	A# 14
	vibrato_delay 0
	G_ 7
	rest 6
	pitch_offset 254
	music_call Branch_1ddc41
	dec_octave
	vibrato_delay 7
	A# 13
	tie
	A# 14
	vibrato_delay 0
	pitch_offset 251
	music_call Branch_1ddc4e
	pitch_offset 3
	music_call Branch_1ddc41
	pitch_offset 251
	music_call Branch_1ddc4e
	octave 3
	C# 14
	D# 7
	rest 6
	pitch_offset 252
	music_call Branch_1ddc41
	D# 13
	tie
	D# 7
	rest 7
	dec_octave
	A# 7
	rest 6
	pitch_offset 3
	music_call Branch_1ddc41
	octave 2
	A_ 3
	vibrato_delay 7
	A# 10
	tie
	A# 14
	vibrato_delay 0
	inc_octave
	F_ 7
	rest 6
	music_call Branch_1ddc41
	dec_octave
	A# 7
	rest 6
	A_ 14
	pitch_offset 249
	music_call Branch_1ddc4e
	octave 2
	C# 4
	D# 3
	F_ 4
	F# 3
	G# 4
	A# 3
	B_ 3
	inc_octave
	C_ 3
	vibrato_delay 7
	C# 14
	tie
	C# 13
	musicf0 26
	octave 3
	musicf3
	G# 7
	rest 7
	pitch_offset 249
	music_call Branch_1ddc68
	octave 4
	C# 14
	pitch_offset 249
	music_call Branch_1ddc68
	octave 4
	F_ 7
	rest 7
	F# 3
	G_ 10
	tie
	G_ 14
	pitch_offset 251
	music_call Branch_1ddc68
	octave 3
	G# 7
	rest 7
	G_ 13
	tie
	G_ 14
	pitch_offset 252
	music_call Branch_1ddc68
	pitch_offset 3
	music_call Branch_1ddc5b
	octave 3
	A_ 7
	rest 6
	A# 7
	rest 7
	rest 13
	inc_octave
	C# 14
	C_ 7
	rest 6
	rest 14
	dec_octave
	A# 7
	rest 6
	rest 14
	A# 13
	A# 14
	A_ 7
	rest 6
	G_ 7
	rest 7
	A_ 13
	tie
	A_ 14
	musicf0 27
	octave 2
	F_ 13
	pitch_offset 251
	music_call Branch_1ddc5b
	octave 3
	A_ 7
	rest 6
	G# 12
	rest 2
	G# 7
	rest 6
	pitch_offset 1
	music_call Branch_1ddc5b
	octave 4
	E_ 3
	F_ 10
	tie
	F_ 14
	D# 7
	rest 6
	pitch_offset 1
	music_call Branch_1ddc5b
	octave 4
	D_ 3
	D# 10
	D# 14
	G_ 7
	rest 6
	pitch_offset 3
	music_call Branch_1ddc5b
	octave 3
	G_ 13
	tie
	G_ 14
	pitch_offset 251
	music_call Branch_1ddc4e
	pitch_offset 3
	music_call Branch_1ddc41
	pitch_offset 251
	music_call Branch_1ddc4e
	inc_octave
	C# 14
	musicf0 27
	octave 2
	C# 4
	G# 4
	inc_octave
	C# 5
	inc_octave
	musicf2
	C# 5
	C# 9
	musicf0 26
	musicf3
	octave 4
	D# 13
	rest 14
	musicf0 27
	octave 2
	D# 4
	A# 4
	inc_octave
	D# 5
	inc_octave
	musicf2
	D# 5
	D# 9
	musicf3
	musicf0 26
	octave 3
	A_ 13
	tie
	A_ 14
	musicf0 27
	musicf1 32
	octave 3
	musicef 254
	musicf3
	C_ 13
	musicf2
	F_ 5
	F_ 9
	A_ 5
	A_ 8
	inc_octave
	C_ 5
	C_ 9
	musicf3
	rest 13
	musicf2
	inc_octave
	C_ 5
	C_ 9
	rest 13
	EndMainLoop

Branch_1ddc41:
	musicf0 27
	octave 3
	musicf1 32
	C_ 5
	C_ 9
	pitch_offset 0
	musicf0 36
	musicf3
	music_ret

Branch_1ddc4e:
	musicf0 27
	octave 3
	musicf1 32
	C_ 5
	C_ 8
	pitch_offset 0
	musicf0 36
	musicf3
	music_ret

Branch_1ddc5b:
	musicf0 27
	octave 3
	musicf1 32
	C_ 5
	C_ 9
	pitch_offset 0
	musicf0 26
	musicf3
	music_ret

Branch_1ddc68:
	musicf0 27
	octave 3
	musicf1 32
	C_ 5
	C_ 8
	pitch_offset 0
	musicf0 26
	musicf3
	music_ret

Branch_1ddc75:
	musicf0 27
	musicf1 32
	octave 2
	musicf2
	A_ 5
	rest 2
	A_ 5
	rest 2
	A_ 5
	rest 2
	A_ 5
	rest 1
	inc_octave
	C_ 5
	rest 2
	C_ 5
	rest 2
	C_ 5
	rest 2
	C_ 5
	rest 1
	dec_octave
	G_ 5
	rest 2
	G_ 5
	rest 2
	G_ 5
	rest 2
	G_ 5
	rest 1
	A# 5
	rest 2
	A# 5
	rest 2
	A# 5
	rest 2
	A# 5
	rest 1
	A_ 5
	rest 2
	A_ 5
	rest 2
	A_ 5
	rest 2
	A_ 5
	rest 1
	inc_octave
	C_ 5
	rest 2
	C_ 5
	rest 2
	C_ 5
	rest 2
	C_ 5
	rest 1
	dec_octave
	G_ 5
	rest 2
	G_ 5
	rest 2
	G_ 5
	rest 2
	G_ 5
	rest 1
	A# 14
	tie
	A# 5
	A# 8
	A_ 5
	rest 2
	A_ 5
	rest 2
	A_ 5
	rest 2
	A_ 5
	rest 1
	inc_octave
	C_ 5
	rest 2
	C_ 5
	rest 2
	C_ 5
	rest 2
	C_ 5
	rest 1
	dec_octave
	G_ 5
	rest 2
	G_ 5
	rest 2
	G_ 5
	rest 2
	G_ 5
	rest 1
	A# 5
	rest 2
	A# 5
	rest 2
	A# 5
	rest 2
	A# 5
	rest 1
	rest 14
	rest 13
	rest 14
	musicf3
	G_ 13
	tie
	G_ 14
	musicf2
	A# 5
	rest 2
	A# 5
	rest 1
	G_ 5
	rest 2
	G_ 5
	rest 2
	A# 5
	rest 2
	A# 5
	rest 1
	musicf0 26
	musicf3
	octave 4
	E_ 4
	F_ 3
	rest 7
	musicf0 27
	octave 2
	musicf2
	A_ 5
	rest 2
	A_ 5
	rest 1
	musicf3
	musicf0 26
	octave 4
	A_ 7
	rest 16
	rest 4
	D# 14
	F_ 7
	rest 6
	musicf0 27
	octave 2
	musicf2
	G_ 5
	rest 2
	G_ 5
	rest 2
	musicf3
	musicf0 26
	octave 4
	F_ 7
	rest 6
	musicf0 27
	octave 2
	musicf2
	A_ 5
	rest 2
	A_ 5
	rest 2
	musicf3
	musicf0 26
	octave 4
	C_ 7
	rest 6
	musicf0 27
	octave 3
	musicf2
	C_ 5
	rest 2
	C_ 5
	rest 2
	musicf0 26
	octave 4
	musicf3
	D_ 3
	D# 10
	tie
	D# 14
	D_ 7
	rest 6
	musicf0 27
	octave 2
	musicf2
	G_ 5
	rest 2
	G_ 5
	rest 2
	musicf3
	musicf0 26
	octave 4
	D_ 7
	rest 6
	C_ 7
	rest 7
	musicf0 2
	octave 2
	musicf2
	A_ 5
	rest 2
	A_ 5
	rest 1
	musicf3
	musicf0 26
	octave 3
	F_ 7
	rest 7
	rest 7
	rest 6
	G_ 14
	A_ 7
	rest 6
	musicf0 27
	octave 2
	musicf2
	G_ 5
	rest 2
	rest 5
	rest 2
	musicf3
	musicf0 26
	octave 4
	C_ 7
	rest 6
	musicf0 27
	musicf1 32
	octave 2
	musicf2
	rest 14
	rest 13
	rest 14
	F_ 5
	rest 2
	F_ 6
	tie
	F_ 14
	G_ 5
	rest 2
	G_ 5
	rest 1
	musicf0 0
	musicf3
	octave 2
	C_ 4
	D_ 3
	E_ 4
	F_ 3
	G_ 4
	A_ 3
	A# 3
	inc_octave
	C_ 3
	musicf0 27
	octave 2
	musicf2
	rest 14
	F_ 5
	rest 2
	F_ 5
	rest 1
	inc_octave
	D_ 5
	rest 2
	D_ 5
	rest 2
	D_ 5
	rest 2
	D_ 5
	rest 1
	rest 9
	rest 5
	dec_octave
	F_ 5
	rest 2
	F_ 5
	rest 1
	inc_octave
	D_ 5
	rest 2
	D_ 5
	rest 2
	dec_octave
	F_ 5
	rest 2
	F_ 5
	rest 1
	rest 14
	F_ 5
	rest 2
	F_ 5
	rest 1
	inc_octave
	C_ 5
	rest 2
	C_ 5
	rest 2
	C_ 5
	rest 2
	C_ 5
	rest 1
	rest 9
	rest 5
	dec_octave
	F_ 5
	rest 2
	F_ 5
	rest 1
	inc_octave
	E_ 5
	rest 2
	E_ 5
	rest 2
	dec_octave
	F_ 5
	rest 2
	F_ 5
	rest 1
	rest 14
	F_ 5
	rest 2
	F_ 5
	rest 1
	inc_octave
	D_ 5
	rest 2
	D_ 5
	rest 2
	D_ 5
	rest 2
	D_ 5
	rest 1
	rest 9
	rest 5
	dec_octave
	G_ 5
	rest 2
	G_ 5
	rest 1
	inc_octave
	D_ 5
	rest 2
	D_ 5
	rest 2
	dec_octave
	G_ 5
	rest 2
	G_ 5
	rest 1
	rest 14
	F_ 5
	rest 2
	F_ 5
	rest 1
	inc_octave
	C_ 5
	rest 2
	C_ 5
	rest 2
	C_ 5
	rest 2
	C_ 5
	rest 1
	rest 9
	rest 5
	dec_octave
	musicf3
	A_ 13
	A# 14
	musicf2
	inc_octave
	C_ 5
	rest 2
	C_ 5
	rest 1
	rest 14
	dec_octave
	F_ 5
	rest 2
	F_ 5
	rest 1
	inc_octave
	D_ 5
	rest 2
	D_ 5
	rest 2
	D_ 5
	rest 2
	D_ 5
	rest 1
	rest 9
	rest 5
	dec_octave
	G_ 5
	rest 2
	G_ 5
	rest 1
	inc_octave
	E_ 5
	rest 2
	E_ 5
	rest 2
	dec_octave
	G_ 5
	rest 2
	G_ 5
	rest 1
	rest 14
	musicf3
	B_ 13
	musicf2
	inc_octave
	C# 5
	rest 2
	C# 5
	rest 2
	musicf3
	D_ 13
	tie
	D_ 14
	musicf2
	dec_octave
	A_ 5
	rest 2
	A_ 5
	rest 1
	inc_octave
	C_ 5
	rest 2
	C_ 5
	rest 2
	musicf3
	D_ 13
	musicf2
	musicf3
	D_ 14
	dec_octave
	musicf2
	A# 7
	A# 6
	inc_octave
	D_ 7
	D_ 7
	musicf3
	E_ 13
	tie
	E_ 14
	musicf2
	C_ 7
	C_ 6
	E_ 7
	E_ 7
	musicf3
	F_ 13
	tie
	music_ret


Music_Ishihara_Ch3: ; 1dde54 (77:5e54)
	wave 1
	volume 32
	echo 96
	stereo_panning 15, 15
	speed 1
	rest 13
	octave 1
	C_ 14
	tie
	C# 4
	tie
	D_ 3
	tie
	D# 3
	tie
	E_ 3
	MainLoop
	octave 1
	F_ 7
	rest 7
	F_ 7
	rest 6
	inc_octave
	C_ 7
	rest 7
	C_ 7
	rest 6
	dec_octave
	D# 7
	rest 7
	D# 7
	rest 6
	A# 7
	rest 7
	A# 7
	rest 6
	F_ 7
	rest 7
	F_ 7
	rest 6
	inc_octave
	C_ 7
	rest 7
	C_ 7
	rest 6
	dec_octave
	D# 7
	rest 7
	C_ 7
	rest 6
	D# 7
	rest 7
	E_ 7
	rest 6
	F_ 7
	rest 7
	F_ 7
	rest 6
	inc_octave
	C_ 7
	rest 7
	C_ 7
	rest 6
	dec_octave
	D# 7
	rest 7
	D# 7
	rest 6
	A# 7
	rest 7
	A# 7
	rest 6
	F_ 14
	inc_octave
	inc_octave
	E_ 13
	F_ 4
	rest 10
	dec_octave
	B_ 13
	inc_octave
	C_ 4
	rest 10
	dec_octave
	E_ 13
	F_ 4
	rest 10
	C_ 13
	dec_octave
	F_ 7
	rest 7
	F_ 7
	rest 6
	inc_octave
	C_ 7
	rest 7
	C_ 7
	rest 6
	dec_octave
	D# 7
	rest 7
	D# 7
	rest 6
	A# 7
	rest 7
	A# 7
	rest 6
	F_ 7
	rest 7
	F_ 7
	rest 6
	inc_octave
	C_ 7
	rest 7
	C_ 7
	rest 6
	dec_octave
	D# 7
	rest 7
	C_ 7
	rest 6
	D# 7
	rest 7
	E_ 7
	rest 6
	F_ 7
	rest 7
	F_ 7
	rest 6
	inc_octave
	C_ 7
	rest 7
	C_ 7
	rest 6
	dec_octave
	D# 7
	rest 7
	D# 7
	rest 6
	A# 7
	rest 7
	A# 7
	rest 6
	F_ 14
	A# 13
	B_ 7
	rest 7
	inc_octave
	C_ 7
	rest 6
	vibrato_type 5
	vibrato_delay 7
	D# 7
	tie
	D# 7
	vibrato_delay 0
	C_ 7
	rest 6
	D# 7
	rest 7
	E_ 7
	rest 6
	music_call Branch_1de0c5
	octave 1
	A# 14
	inc_octave
	F_ 13
	A# 7
	rest 7
	D# 13
	tie
	D# 14
	dec_octave
	A# 13
	D# 14
	E_ 7
	rest 6
	music_call Branch_1de0c5
	octave 1
	A# 14
	inc_octave
	F_ 13
	A# 7
	rest 7
	D# 13
	tie
	D# 14
	dec_octave
	A# 13
	D# 14
	D_ 7
	rest 6
	C# 7
	rest 7
	C# 7
	rest 6
	inc_octave
	cutoff 2
	G# 14
	cutoff 8
	dec_octave
	G# 7
	rest 6
	C# 7
	rest 7
	C# 7
	rest 6
	inc_octave
	inc_octave
	cutoff 2
	C# 14
	cutoff 8
	dec_octave
	dec_octave
	G_ 7
	rest 6
	G# 7
	rest 7
	G# 7
	rest 6
	inc_octave
	inc_octave
	cutoff 2
	C_ 14
	cutoff 8
	dec_octave
	dec_octave
	D# 7
	rest 6
	G# 7
	rest 7
	G# 7
	rest 6
	inc_octave
	cutoff 2
	A# 14
	cutoff 8
	dec_octave
	A_ 7
	rest 6
	A# 7
	rest 7
	A# 7
	rest 6
	inc_octave
	cutoff 2
	A# 14
	cutoff 8
	dec_octave
	B_ 7
	rest 6
	inc_octave
	C_ 7
	rest 7
	C_ 7
	rest 6
	inc_octave
	cutoff 2
	D# 14
	cutoff 8
	dec_octave
	C_ 7
	rest 6
	dec_octave
	F_ 7
	rest 7
	F_ 7
	rest 6
	inc_octave
	cutoff 2
	A# 14
	cutoff 8
	dec_octave
	F_ 7
	rest 6
	F_ 7
	rest 7
	F_ 13
	D# 7
	rest 7
	D# 7
	rest 6
	C# 7
	rest 7
	C# 7
	rest 6
	inc_octave
	cutoff 2
	G# 14
	cutoff 8
	dec_octave
	G# 7
	rest 6
	C# 7
	rest 7
	C# 7
	rest 6
	inc_octave
	inc_octave
	cutoff 2
	C# 14
	cutoff 8
	dec_octave
	dec_octave
	C# 7
	rest 6
	C_ 7
	rest 7
	C_ 7
	rest 6
	inc_octave
	inc_octave
	cutoff 2
	D# 14
	cutoff 8
	dec_octave
	dec_octave
	G_ 7
	rest 6
	C_ 7
	rest 7
	C_ 7
	rest 6
	inc_octave
	cutoff 2
	A# 14
	cutoff 8
	dec_octave
	G_ 7
	rest 6
	A# 7
	rest 7
	A# 7
	rest 6
	inc_octave
	inc_octave
	cutoff 2
	C# 14
	cutoff 8
	dec_octave
	dec_octave
	F_ 7
	rest 6
	C_ 7
	rest 7
	C_ 7
	rest 6
	inc_octave
	cutoff 2
	A# 14
	cutoff 8
	dec_octave
	F_ 13
	tie
	F_ 7
	rest 7
	F_ 7
	rest 6
	inc_octave
	cutoff 2
	A# 14
	cutoff 8
	dec_octave
	C_ 7
	rest 6
	F_ 7
	rest 7
	F_ 7
	rest 6
	D# 7
	rest 7
	D# 7
	rest 6
	C# 7
	rest 7
	C# 7
	rest 6
	inc_octave
	inc_octave
	cutoff 2
	C# 14
	cutoff 8
	dec_octave
	dec_octave
	G# 7
	rest 6
	C# 7
	rest 7
	C# 7
	rest 6
	inc_octave
	inc_octave
	cutoff 2
	C# 14
	cutoff 8
	dec_octave
	dec_octave
	G_ 7
	rest 6
	G# 7
	rest 7
	G# 7
	rest 6
	inc_octave
	inc_octave
	cutoff 2
	D# 14
	cutoff 8
	dec_octave
	dec_octave
	D# 7
	rest 6
	G# 7
	rest 7
	G# 7
	rest 6
	inc_octave
	cutoff 2
	A# 14
	cutoff 8
	dec_octave
	A_ 7
	rest 6
	A# 7
	rest 7
	A# 7
	rest 6
	inc_octave
	inc_octave
	cutoff 2
	C# 14
	cutoff 8
	dec_octave
	dec_octave
	B_ 7
	rest 6
	inc_octave
	C_ 7
	rest 7
	C_ 7
	rest 6
	inc_octave
	cutoff 2
	D# 14
	dec_octave
	cutoff 8
	C_ 7
	rest 6
	dec_octave
	F_ 7
	rest 7
	F_ 7
	rest 6
	inc_octave
	cutoff 2
	A# 14
	cutoff 8
	dec_octave
	F_ 7
	rest 6
	F_ 7
	rest 7
	F_ 13
	D# 7
	rest 7
	D# 7
	rest 6
	C# 7
	rest 7
	C# 7
	rest 6
	inc_octave
	cutoff 2
	G# 14
	cutoff 8
	dec_octave
	G# 7
	rest 6
	C# 7
	rest 7
	C# 7
	rest 6
	inc_octave
	cutoff 2
	G# 14
	cutoff 8
	dec_octave
	G# 7
	rest 6
	C_ 7
	rest 7
	C_ 7
	rest 6
	inc_octave
	cutoff 2
	A# 14
	cutoff 8
	dec_octave
	G_ 7
	rest 6
	C_ 7
	rest 7
	C_ 7
	rest 6
	inc_octave
	cutoff 2
	A# 14
	cutoff 8
	dec_octave
	G_ 7
	rest 6
	A# 7
	rest 7
	A# 7
	rest 6
	inc_octave
	inc_octave
	cutoff 2
	G# 14
	cutoff 8
	dec_octave
	dec_octave
	C_ 13
	tie
	C_ 7
	rest 7
	inc_octave
	C_ 7
	rest 6
	inc_octave
	cutoff 2
	A# 14
	cutoff 8
	dec_octave
	dec_octave
	F_ 13
	tie
	F_ 7
	rest 7
	F_ 13
	A_ 7
	rest 7
	inc_octave
	C_ 7
	rest 6
	F_ 7
	rest 7
	rest 7
	rest 6
	inc_octave
	inc_octave
	F_ 7
	volume 96
	F_ 7
	rest 13
	volume 32
	EndMainLoop

Branch_1de0c5:
	octave 1
	F_ 7
	rest 7
	F_ 7
	rest 6
	inc_octave
	C_ 7
	rest 7
	dec_octave
	F_ 7
	rest 6
	D# 7
	rest 7
	D# 7
	rest 6
	A# 7
	rest 7
	D# 7
	rest 6
	F_ 7
	rest 7
	F_ 7
	rest 6
	inc_octave
	C_ 7
	rest 7
	dec_octave
	F_ 7
	rest 6
	C_ 7
	rest 7
	C_ 7
	rest 6
	inc_octave
	G_ 14
	dec_octave
	C_ 7
	rest 6
	F_ 7
	rest 7
	F_ 7
	rest 6
	inc_octave
	C_ 7
	rest 7
	dec_octave
	F_ 7
	rest 6
	D# 7
	rest 7
	D# 7
	rest 6
	A# 7
	rest 7
	D# 7
	rest 6
	F_ 7
	rest 7
	F_ 7
	rest 6
	inc_octave
	C_ 7
	rest 7
	dec_octave
	C_ 13
	tie
	C_ 7
	rest 7
	C_ 7
	rest 6
	D# 14
	E_ 7
	rest 6
	F_ 7
	rest 7
	F_ 7
	rest 6
	inc_octave
	cutoff 2
	F_ 14
	cutoff 8
	dec_octave
	F_ 7
	rest 6
	D# 7
	rest 7
	D# 7
	rest 6
	inc_octave
	cutoff 2
	A# 14
	cutoff 8
	dec_octave
	D# 7
	rest 6
	F_ 7
	rest 7
	F_ 7
	rest 6
	inc_octave
	cutoff 2
	A_ 14
	cutoff 8
	dec_octave
	F_ 7
	rest 6
	C_ 7
	rest 7
	C_ 7
	rest 6
	inc_octave
	cutoff 2
	A# 14
	cutoff 8
	dec_octave
	C_ 7
	rest 6
	F_ 7
	rest 7
	F_ 7
	rest 6
	inc_octave
	cutoff 2
	A_ 14
	cutoff 8
	dec_octave
	F_ 7
	rest 6
	D# 7
	rest 7
	D# 7
	rest 6
	inc_octave
	cutoff 2
	A# 14
	cutoff 8
	dec_octave
	D# 7
	rest 6
	F_ 7
	rest 7
	F_ 7
	rest 6
	inc_octave
	C_ 7
	rest 7
	dec_octave
	G_ 13
	rest 14
	A_ 13
	tie
	A_ 14
	F_ 7
	rest 6
	A# 7
	rest 7
	A# 7
	rest 6
	inc_octave
	cutoff 4
	A_ 14
	A_ 13
	cutoff 8
	dec_octave
	A# 7
	rest 7
	A# 7
	rest 6
	inc_octave
	cutoff 4
	A_ 14
	cutoff 8
	dec_octave
	A# 7
	rest 6
	A_ 7
	rest 7
	A_ 7
	rest 6
	inc_octave
	cutoff 4
	A_ 14
	A_ 13
	cutoff 8
	dec_octave
	A_ 7
	rest 7
	A_ 7
	rest 6
	inc_octave
	cutoff 4
	A_ 14
	cutoff 8
	dec_octave
	A_ 7
	rest 6
	G_ 7
	rest 7
	G_ 7
	rest 6
	inc_octave
	cutoff 4
	A# 14
	A# 13
	cutoff 8
	dec_octave
	C_ 7
	rest 7
	C_ 7
	rest 6
	inc_octave
	cutoff 8
	A# 14
	cutoff 8
	dec_octave
	C_ 7
	rest 6
	F_ 7
	rest 7
	F_ 7
	rest 6
	inc_octave
	cutoff 4
	A_ 14
	A_ 13
	cutoff 8
	dec_octave
	F_ 7
	rest 7
	F_ 13
	G_ 14
	A_ 7
	rest 6
	A# 7
	rest 7
	A# 7
	rest 6
	inc_octave
	cutoff 4
	A_ 14
	A_ 13
	cutoff 8
	dec_octave
	A# 7
	rest 7
	A# 7
	rest 6
	inc_octave
	inc_octave
	cutoff 4
	C_ 14
	cutoff 8
	dec_octave
	dec_octave
	A# 7
	rest 6
	A_ 7
	rest 7
	B_ 7
	rest 6
	inc_octave
	C# 7
	rest 7
	D_ 13
	tie
	D_ 14
	dec_octave
	D_ 7
	rest 6
	inc_octave
	cutoff 4
	inc_octave
	C_ 14
	dec_octave
	cutoff 8
	dec_octave
	G_ 13
	tie
	G_ 14
	inc_octave
	D_ 13
	G_ 7
	rest 7
	dec_octave
	A_ 13
	tie
	A_ 14
	inc_octave
	E_ 13
	A_ 7
	rest 7
	dec_octave
	A# 13
	tie
	music_ret


Music_Ishihara_Ch4: ; 1de20c (77:620c)
	speed 1
	stereo_panning 15, 15
	octave 1
	snare3 13
	speed 9
	snare4 3
	speed 1
	MainLoop
	music_call Branch_1de321
	music_call Branch_1de321
	bass 14
	bass 13
	snare1 14
	snare1 13
	bass 14
	snare3 13
	snare1 14
	snare3 7
	snare1 6
	snare1 16
	rest 16
	rest 16
	rest 16
	rest 16
	rest 16
	rest 12
	music_call Branch_1de321
	music_call Branch_1de321
	bass 14
	bass 13
	snare1 14
	snare1 13
	bass 14
	snare3 13
	snare1 14
	snare3 7
	snare1 6
	snare1 14
	rest 13
	rest 14
	rest 13
	rest 14
	rest 13
	snare3 7
	snare3 7
	snare4 13
	Loop 2
	music_call Branch_1de321
	music_call Branch_1de321
	music_call Branch_1de321
	bass 14
	bass 13
	snare1 14
	snare4 13
	bass 14
	snare3 4
	snare3 4
	snare3 5
	snare1 14
	snare1 13
	music_call Branch_1de321
	music_call Branch_1de321
	music_call Branch_1de321
	bass 14
	bass 13
	snare1 14
	snare1 13
	bass 14
	snare4 13
	snare1 7
	snare1 7
	snare1 13
	music_call Branch_1de321
	music_call Branch_1de321
	music_call Branch_1de321
	bass 14
	bass 13
	snare1 14
	snare1 13
	bass 14
	snare1 4
	snare1 4
	snare1 5
	snare1 14
	snare1 13
	music_call Branch_1de321
	bass 14
	snare1 13
	snare1 14
	bass 16
	rest 11
	snare1 13
	snare1 14
	snare4 13
	tie
	rest 14
	snare1 13
	snare1 14
	bass 16
	rest 11
	snare1 13
	snare1 14
	bass 13
	tie
	rest 14
	snare1 13
	snare1 14
	bass 13
	rest 14
	musicef 253
	snare1 4
	musicef 254
	snare1 4
	snare1 5
	musicef 0
	snare1 14
	snare1 13
	EndLoop
	music_call Branch_1de321
	music_call Branch_1de321
	music_call Branch_1de321
	bass 14
	bass 13
	snare1 14
	snare1 13
	bass 14
	snare1 13
	snare1 14
	snare1 13
	music_call Branch_1de321
	music_call Branch_1de321
	bass 14
	bass 13
	snare1 14
	snare1 13
	bass 14
	snare1 13
	snare1 14
	snare4 13
	tie
	rest 14
	musicef 252
	snare1 4
	musicef 253
	snare1 4
	musicef 254
	snare1 5
	musicef 0
	snare1 14
	snare1 13
	snare1 14
	snare3 7
	snare1 6
	snare1 14
	snare1 13
	music_call Branch_1de321
	music_call Branch_1de321
	music_call Branch_1de321
	bass 14
	bass 13
	snare1 14
	snare1 13
	bass 14
	musicef 253
	snare1 4
	musicef 254
	snare1 4
	musicef 255
	snare1 5
	musicef 0
	snare1 14
	snare1 13
	music_call Branch_1de321
	bass 14
	bass 13
	snare1 14
	snare4 13
	snare1 14
	snare3 7
	snare1 6
	snare1 14
	snare1 13
	bass 14
	musicef 253
	snare1 5
	musicef 254
	snare1 4
	musicef 255
	snare1 4
	musicef 0
	snare1 14
	bass 13
	snare3 14
	snare1 13
	snare1 14
	bass 13
	tie
	rest 14
	snare1 13
	snare1 14
	snare1 13
	snare1 14
	snare3 5
	snare3 4
	snare3 4
	speed 9
	snare5 3
	speed 1
	EndMainLoop

Branch_1de321:
	bass 14
	bass 13
	snare1 14
	snare1 13
	bass 14
	snare3 13
	snare1 14
	snare4 13
	music_ret
; 0x1de32a
