Music_TitleScreen_Ch2:
	preset 0
	octave 3
	speed 1
	stereo_panning TRUE, TRUE
	note G_, 3
	note A_, 4
	note B_, 3
	inc_octave
	note C_, 4
	note D_, 3
	note E_, 4
	note F_, 3
	note F#, 4
	musicf1 101
	musicf2
	vibrato_delay 0
	Loop 4
	note G_, 16
	tie
	note G_, 14
	stereo_panning FALSE, TRUE
	note G_, 15
	stereo_panning TRUE, TRUE
	Loop 3
	note G_, 4
	stereo_panning FALSE, TRUE
	note G_, 1
	stereo_panning TRUE, TRUE
	EndLoop
	EndLoop
	musicf3
	stereo_panning TRUE, TRUE
	Loop 8
	note G_, 3
	note A_, 4
	note G_, 4
	note A_, 4
	EndLoop
	speed 10
	note G_, 3
	octave 2
	cutoff 4
	duty 2
	musicef -4
	note F_, 3
	note E_, 3
	preset 0
	octave 3
	cutoff 8
	speed 1
	musicf1 101
	musicf2
	note G_, 8
	stereo_panning FALSE, TRUE
	note G_, 7
	stereo_panning FALSE, FALSE
	rest 8
	stereo_panning TRUE, TRUE
	note F_, 5
	note F_, 2
	speed 5
	note E_, 3
	stereo_panning FALSE, TRUE
	note E_, 3
	stereo_panning TRUE, TRUE
	note G_, 3
	stereo_panning FALSE, TRUE
	note G_, 3
	inc_octave
	stereo_panning TRUE, TRUE
	vibrato_delay 15
	note D_, 6
	stereo_panning FALSE, TRUE
	note D_, 3
	speed 1
	stereo_panning TRUE, TRUE
	note C_, 7
	stereo_panning FALSE, TRUE
	note C_, 8
	dec_octave
	vibrato_delay 30
	speed 10
	stereo_panning TRUE, TRUE
	note G_, 6
	stereo_panning FALSE, TRUE
	note G_, 3
	stereo_panning TRUE, TRUE
	speed 1
	note E_, 8
	stereo_panning FALSE, TRUE
	note E_, 15
	stereo_panning TRUE, TRUE
	note G_, 5
	note G_, 2
	musicf2
	note G_, 15
	tie
	note G_, 15
	stereo_panning FALSE, TRUE
	note G_, 15
	stereo_panning TRUE, TRUE
	note F_, 8
	stereo_panning FALSE, TRUE
	note F_, 7
	stereo_panning TRUE, TRUE
	musicf3
	note F_, 15
	note E_, 5
	note F_, 5
	note E_, 5
	musicf1 101
	musicf2
	note D_, 7
	stereo_panning FALSE, TRUE
	note F_, 8
	stereo_panning TRUE, TRUE
	note C_, 7
	stereo_panning FALSE, TRUE
	note D_, 8
	stereo_panning TRUE, TRUE
	note D_, 15
	tie
	note D_, 16
	tie
	note D_, 16
	tie
	note D_, 16
	tie
	note D_, 12
	stereo_panning FALSE, TRUE
	note D_, 15
	stereo_panning TRUE, TRUE
	note G_, 8
	stereo_panning FALSE, TRUE
	note G_, 7
	stereo_panning FALSE, FALSE
	rest 8
	stereo_panning TRUE, TRUE
	note F_, 5
	stereo_panning FALSE, TRUE
	note F_, 2
	stereo_panning TRUE, TRUE
	speed 5
	note E_, 3
	stereo_panning FALSE, TRUE
	note E_, 3
	stereo_panning TRUE, TRUE
	note G_, 3
	stereo_panning FALSE, TRUE
	note G_, 3
	inc_octave
	stereo_panning TRUE, TRUE
	vibrato_delay 15
	note D_, 6
	stereo_panning FALSE, TRUE
	note D_, 3
	speed 1
	stereo_panning TRUE, TRUE
	note E_, 8
	stereo_panning FALSE, TRUE
	note E_, 7
	dec_octave
	vibrato_delay 30
	speed 10
	stereo_panning TRUE, TRUE
	note G_, 6
	stereo_panning FALSE, TRUE
	speed 5
	note G_, 3
	stereo_panning TRUE, TRUE
	musicf3
	note E_, 3
	note F_, 3
	speed 1
	musicf1 101
	musicf2
	note G_, 8
	stereo_panning FALSE, TRUE
	note G_, 7
	stereo_panning TRUE, TRUE
	note G#, 15
	tie
	note G#, 8
	stereo_panning FALSE, TRUE
	note G#, 7
	stereo_panning TRUE, TRUE
	inc_octave
	note C_, 15
	tie
	note C_, 8
	stereo_panning FALSE, TRUE
	note C_, 7
	stereo_panning TRUE, TRUE
	vibrato_delay 15
	note D_, 15
	tie
	note D_, 15
	stereo_panning FALSE, TRUE
	note D_, 15
	stereo_panning TRUE, TRUE
	note C_, 8
	stereo_panning FALSE, TRUE
	note C_, 7
	stereo_panning TRUE, TRUE
	musicf3
	note F#, 4
	vibrato_delay 25
	note G_, 11
	tie
	note G_, 15
	note G_, 15
	tie
	note G_, 15
	tie
	note G_, 15
	musicf1 101
	musicf2
	note F_, 8
	stereo_panning FALSE, TRUE
	note G_, 7
	stereo_panning TRUE, TRUE
	musicf3
	note C_, 15
	musicf2
	note D_, 8
	stereo_panning FALSE, TRUE
	note D_, 7
	preset 4
	vibrato_delay 26
	stereo_panning TRUE, TRUE
	musicf1 87
	octave 4
	note D_, 4
	musicf2
	note D#, 11
	tie
	note D#, 15
	tie
	note D#, 15
	tie
	note D#, 15
	tie
	note D#, 15
	stereo_panning FALSE, TRUE
	note D#, 15
	musicf2
	stereo_panning TRUE, TRUE
	note F_, 8
	stereo_panning FALSE, TRUE
	note F_, 15
	stereo_panning TRUE, TRUE
	note D#, 5
	stereo_panning FALSE, TRUE
	note D#, 2
	stereo_panning TRUE, TRUE
	note D_, 8
	musicf2
	note D#, 3
	stereo_panning FALSE, TRUE
	note D_, 4
	stereo_panning TRUE, TRUE
	note D_, 4
	stereo_panning FALSE, TRUE
	note D#, 4
	dec_octave
	stereo_panning TRUE, TRUE
	note A#, 4
	inc_octave
	stereo_panning FALSE, TRUE
	note D_, 3
	dec_octave
	stereo_panning TRUE, TRUE
	vibrato_delay 15
	note G_, 15
	tie
	note G_, 15
	tie
	note G_, 15
	stereo_panning FALSE, TRUE
	note G_, 15
	stereo_panning TRUE, TRUE
	note G#, 8
	stereo_panning FALSE, TRUE
	note G#, 15
	stereo_panning TRUE, TRUE
	note A#, 5
	stereo_panning FALSE, TRUE
	note G#, 2
	stereo_panning TRUE, TRUE
	inc_octave
	note C_, 8
	stereo_panning FALSE, TRUE
	dec_octave
	note A#, 7
	tie
	inc_octave
	note C_, 8
	stereo_panning TRUE, TRUE
	note G_, 5
	stereo_panning FALSE, TRUE
	note C_, 2
	stereo_panning TRUE, TRUE
	note G_, 15
	tie
	note G_, 15
	stereo_panning FALSE, TRUE
	note G_, 15
	stereo_panning TRUE, TRUE
	musicf3
	note F_, 8
	note G_, 7
	musicf2
	note A#, 7
	stereo_panning FALSE, TRUE
	note G_, 3
	stereo_panning TRUE, TRUE
	note D#, 7
	stereo_panning FALSE, TRUE
	note A#, 3
	stereo_panning TRUE, TRUE
	note C_, 7
	stereo_panning FALSE, TRUE
	note D#, 3
	stereo_panning TRUE, TRUE
	musicf3
	note D_, 8
	musicf2
	note D#, 4
	stereo_panning FALSE, TRUE
	note D_, 3
	stereo_panning TRUE, TRUE
	note D_, 4
	stereo_panning FALSE, TRUE
	note D#, 4
	stereo_panning TRUE, TRUE
	dec_octave
	note A#, 4
	inc_octave
	stereo_panning FALSE, TRUE
	note D_, 3
	stereo_panning TRUE, TRUE
	dec_octave
	note G_, 15
	tie
	note G_, 15
	tie
	note G_, 15
	tie
	note G_, 15
	stereo_panning FALSE, TRUE
	note G_, 15
	stereo_panning TRUE, TRUE
	note G#, 5
	stereo_panning FALSE, TRUE
	note G_, 3
	stereo_panning TRUE, TRUE
	note A#, 5
	stereo_panning FALSE, TRUE
	note G#, 2
	inc_octave
	stereo_panning TRUE, TRUE
	note C_, 15
	tie
	note C_, 15
	stereo_panning FALSE, TRUE
	note C_, 8
	stereo_panning TRUE, TRUE
	note G_, 4
	stereo_panning FALSE, TRUE
	note G_, 3
	stereo_panning TRUE, TRUE
	note D#, 4
	stereo_panning FALSE, TRUE
	note G_, 4
	stereo_panning TRUE, TRUE
	note C_, 4
	stereo_panning FALSE, TRUE
	note D#, 3
	dec_octave
	stereo_panning TRUE, TRUE
	note B_, 15
	inc_octave
	stereo_panning FALSE, TRUE
	note C_, 8
	stereo_panning TRUE, TRUE
	musicf3
	note F#, 4
	note G_, 15
	tie
	note G_, 3
	musicf2
	note F_, 8
	stereo_panning FALSE, TRUE
	note G_, 7
	musicf1 64
	musicf2
	stereo_panning TRUE, TRUE
	note D_, 7
	stereo_panning FALSE, TRUE
	note D_, 3
	stereo_panning TRUE, TRUE
	note D#, 7
	stereo_panning FALSE, TRUE
	note D_, 3
	stereo_panning TRUE, TRUE
	note F_, 7
	stereo_panning FALSE, TRUE
	note D#, 3
	stereo_panning TRUE, TRUE
	note D_, 7
	stereo_panning FALSE, TRUE
	note F_, 3
	stereo_panning TRUE, TRUE
	note A#, 7
	stereo_panning FALSE, TRUE
	note D_, 3
	stereo_panning TRUE, TRUE
	note F_, 7
	stereo_panning FALSE, TRUE
	note A#, 3
	stereo_panning TRUE, TRUE
	musicf1 71
	musicf2
	note D#, 15
	stereo_panning FALSE, TRUE
	note D#, 8
	stereo_panning TRUE, TRUE
	musicf3
	note C_, 15
	musicf2
	note D_, 3
	stereo_panning FALSE, TRUE
	note C_, 4
	stereo_panning TRUE, TRUE
	note D#, 4
	stereo_panning FALSE, TRUE
	note D_, 4
	stereo_panning TRUE, TRUE
	note F_, 3
	stereo_panning FALSE, TRUE
	note D#, 4
	stereo_panning TRUE, TRUE
	musicf3
	note G_, 15
	tie
	note G_, 16
	tie
	note G_, 14
	musicf2
	note F_, 8
	stereo_panning FALSE, TRUE
	note G_, 7
	stereo_panning TRUE, TRUE
	note G_, 15
	stereo_panning FALSE, TRUE
	note F_, 8
	stereo_panning TRUE, TRUE
	musicf3
	note A_, 3
	note A#, 12
	musicf2
	note G#, 3
	stereo_panning FALSE, TRUE
	note A#, 4
	stereo_panning TRUE, TRUE
	note D#, 4
	stereo_panning FALSE, TRUE
	note A#, 4
	stereo_panning TRUE, TRUE
	note G#, 3
	stereo_panning FALSE, TRUE
	note D#, 4
	stereo_panning TRUE, TRUE
	speed 5
	note G_, 12
	tie
	note G_, 6
	stereo_panning FALSE, TRUE
	note G_, 3
	stereo_panning TRUE, TRUE
	preset 0
	musicf3
	octave 4
	note G_, 1
	note A_, 1
	note B_, 1
	speed 1
	vibrato_delay 20
	inc_octave
	note C_, 15
	tie
	note C_, 15
	tie
	note C_, 15
	tie
	note C_, 15
	tie
	note C_, 15
	tie
	note C_, 15
	dec_octave
	musicf1 101
	musicf2
	note B_, 8
	inc_octave
	stereo_panning FALSE, TRUE
	note C_, 15
	dec_octave
	stereo_panning TRUE, TRUE
	note A_, 5
	stereo_panning FALSE, TRUE
	note B_, 2
	stereo_panning TRUE, TRUE
	note G_, 15
	tie
	note G_, 15
	tie
	note G_, 15
	tie
	note G_, 15
	tie
	note G_, 15
	tie
	note G_, 15
	stereo_panning FALSE, TRUE
	note G_, 15
	stereo_panning TRUE, TRUE
	note E_, 5
	stereo_panning FALSE, TRUE
	note G_, 3
	stereo_panning TRUE, TRUE
	note G_, 5
	stereo_panning FALSE, TRUE
	note E_, 2
	stereo_panning TRUE, TRUE
	note A_, 15
	tie
	note A_, 15
	tie
	note A_, 15
	tie
	note A_, 15
	tie
	note A_, 15
	musicf1 80
	musicf2
	note G_, 8
	stereo_panning FALSE, TRUE
	note A_, 7
	stereo_panning TRUE, TRUE
	note F_, 8
	stereo_panning FALSE, TRUE
	note G_, 7
	stereo_panning TRUE, TRUE
	note A_, 8
	stereo_panning FALSE, TRUE
	note F_, 7
	stereo_panning TRUE, TRUE
	musicf3
	note G_, 8
	musicf1 71
	musicf2
	note A_, 3
	stereo_panning FALSE, TRUE
	note G_, 4
	stereo_panning TRUE, TRUE
	note G_, 4
	stereo_panning FALSE, TRUE
	note A_, 4
	stereo_panning TRUE, TRUE
	note E_, 3
	stereo_panning FALSE, TRUE
	note G_, 4
	stereo_panning TRUE, TRUE
	note C_, 15
	tie
	note C_, 15
	tie
	note C_, 15
	tie
	note C_, 15
	preset 7
	musicf1 80
	musicf2
	cutoff 8
	octave 3
	note D_, 8
	stereo_panning FALSE, TRUE
	note D_, 7
	preset 0
	musicf1 101
	musicf2
	octave 4
	stereo_panning TRUE, TRUE
	note D_, 5
	stereo_panning FALSE, TRUE
	note C_, 3
	stereo_panning TRUE, TRUE
	note E_, 5
	stereo_panning FALSE, TRUE
	note D_, 2
	musicf2
	stereo_panning TRUE, TRUE
	note F_, 15
	tie
	note F_, 15
	tie
	note F_, 15
	tie
	note F_, 15
	tie
	note F_, 8
	stereo_panning FALSE, TRUE
	note F_, 7
	stereo_panning TRUE, TRUE
	note E_, 8
	stereo_panning FALSE, TRUE
	note F_, 7
	stereo_panning TRUE, TRUE
	note D_, 8
	stereo_panning FALSE, TRUE
	note E_, 7
	stereo_panning TRUE, TRUE
	note F_, 8
	stereo_panning FALSE, TRUE
	note D_, 7
	stereo_panning TRUE, TRUE
	note E_, 8
	stereo_panning FALSE, TRUE
	note F_, 15
	stereo_panning TRUE, TRUE
	dec_octave
	note G_, 5
	stereo_panning FALSE, TRUE
	inc_octave
	note E_, 2
	stereo_panning TRUE, TRUE
	note C_, 15
	tie
	note C_, 15
	tie
	note C_, 15
	tie
	note C_, 15
	stereo_panning FALSE, TRUE
	note C_, 15
	dec_octave
	stereo_panning TRUE, TRUE
	note A_, 5
	inc_octave
	stereo_panning FALSE, TRUE
	note C_, 3
	stereo_panning TRUE, TRUE
	note C_, 5
	dec_octave
	stereo_panning FALSE, TRUE
	note A_, 2
	inc_octave
	vibrato_delay 0
	stereo_panning TRUE, TRUE
	stereo_panning TRUE, TRUE
	note D_, 16
	tie
	note D_, 14
	stereo_panning FALSE, TRUE
	note D_, 15
	musicf3
	stereo_panning TRUE, TRUE
	note D_, 8
	note E_, 7
	musicf2
	note D_, 15
	stereo_panning FALSE, TRUE
	note D_, 8
	stereo_panning TRUE, TRUE
	musicf3
	dec_octave
	note A_, 16
	tie
	note A_, 7
	inc_octave
	musicf2
	note C_, 8
	dec_octave
	stereo_panning FALSE, TRUE
	note A_, 7
	inc_octave
	stereo_panning TRUE, TRUE
	note C_, 16
	tie
	note C_, 14
	stereo_panning FALSE, TRUE
	note C_, 15
	stereo_panning TRUE, TRUE
	musicf3
	dec_octave
	note B_, 4
	inc_octave
	note C_, 4
	dec_octave
	note B_, 3
	note A_, 4
	musicf2
	note B_, 16
	tie
	note B_, 14
	stereo_panning FALSE, TRUE
	note B_, 15
	stereo_panning TRUE, TRUE
	inc_octave
	note C_, 8
	dec_octave
	stereo_panning FALSE, TRUE
	note B_, 7
	inc_octave
	musicf1 101
	musicf2
	vibrato_delay 30
	stereo_panning TRUE, TRUE
	note C_, 16
	tie
	note C_, 14
	tie
	note C_, 16
	tie
	note C_, 16
	tie
	note C_, 16
	tie
	note C_, 16
	tie
	note C_, 16
	tie
	note C_, 10
	tie
	note C_, 16
	tie
	note C_, 16
	tie
	note C_, 16
	tie
	note C_, 16
	tie
	note C_, 16
	tie
	note C_, 12
	stereo_panning FALSE, TRUE
	note C_, 12
	music_end


Music_TitleScreen_Ch1:
	preset 1
	octave 3
	speed 1
	frequency_offset -1
	musicef -4
	rest 2
	stereo_panning TRUE, FALSE
	note G_, 3
	note A_, 4
	note B_, 3
	inc_octave
	stereo_panning TRUE, TRUE
	note C_, 4
	note D_, 3
	note E_, 4
	stereo_panning FALSE, TRUE
	note F_, 3
	note F#, 2
	frequency_offset 0
	musicef 4
	vibrato_delay 0
	stereo_panning TRUE, TRUE
	musicf1 85
	musicf2
	note D_, 16
	tie
	note D_, 14
	stereo_panning TRUE, FALSE
	note D_, 15
	stereo_panning TRUE, TRUE
	Loop 3
	note D_, 4
	stereo_panning TRUE, FALSE
	note D_, 1
	stereo_panning TRUE, TRUE
	EndLoop
	note C_, 16
	tie
	note C_, 14
	stereo_panning TRUE, FALSE
	note C_, 15
	stereo_panning TRUE, TRUE
	Loop 3
	note C_, 4
	stereo_panning TRUE, FALSE
	note C_, 1
	stereo_panning TRUE, TRUE
	EndLoop
	dec_octave
	note B_, 16
	tie
	note B_, 14
	stereo_panning TRUE, FALSE
	note B_, 15
	stereo_panning TRUE, TRUE
	Loop 3
	note B_, 4
	stereo_panning TRUE, FALSE
	note B_, 1
	stereo_panning TRUE, TRUE
	EndLoop
	note A_, 16
	tie
	note A_, 14
	stereo_panning TRUE, FALSE
	note A_, 15
	stereo_panning TRUE, TRUE
	Loop 3
	note A_, 4
	stereo_panning TRUE, FALSE
	note A_, 1
	stereo_panning TRUE, TRUE
	EndLoop
	vibrato_delay 28
	speed 10
	note G_, 12
	tie
	note G_, 3
	rest 3
	rest 3
	speed 1
	octave 2
	octave 2
	cutoff 8
	speed 1
	musicf2
	note B_, 8
	stereo_panning TRUE, FALSE
	note B_, 7
	rest 8
	stereo_panning TRUE, TRUE
	inc_octave
	note D_, 5
	stereo_panning TRUE, FALSE
	note D_, 2
	speed 5
	stereo_panning TRUE, TRUE
	note C_, 3
	stereo_panning TRUE, FALSE
	note C_, 3
	stereo_panning TRUE, TRUE
	note E_, 3
	stereo_panning TRUE, FALSE
	note E_, 3
	stereo_panning TRUE, TRUE
	vibrato_delay 15
	note G_, 6
	stereo_panning TRUE, FALSE
	note G_, 3
	speed 1
	stereo_panning TRUE, TRUE
	note G_, 8
	stereo_panning TRUE, FALSE
	note G_, 7
	stereo_panning TRUE, TRUE
	note E_, 15
	preset 3
	musicf3
	octave 3
	stereo_panning TRUE, TRUE
	note E_, 8
	inc_octave
	note C_, 7
	musicf2
	note D_, 8
	stereo_panning TRUE, FALSE
	note C_, 7
	stereo_panning TRUE, TRUE
	musicf3
	note C_, 8
	note D_, 7
	musicef -1
	Loop 2
	note G_, 4
	note A_, 4
	note G_, 3
	note A_, 4
	EndLoop
	preset 1
	speed 1
	musicf1 85
	musicf2
	octave 3
	note C_, 8
	stereo_panning TRUE, FALSE
	note C_, 7
	rest 8
	stereo_panning TRUE, TRUE
	note D_, 5
	stereo_panning TRUE, FALSE
	note C_, 2
	vibrato_delay 0
	stereo_panning TRUE, TRUE
	note F_, 15
	tie
	note F_, 15
	stereo_panning TRUE, FALSE
	note F_, 15
	stereo_panning TRUE, TRUE
	note C_, 8
	stereo_panning TRUE, FALSE
	note C_, 7
	stereo_panning TRUE, TRUE
	note C_, 15
	dec_octave
	musicf2
	note A_, 8
	inc_octave
	stereo_panning TRUE, FALSE
	note C_, 7
	dec_octave
	stereo_panning TRUE, TRUE
	note F_, 8
	stereo_panning TRUE, FALSE
	note A_, 7
	stereo_panning TRUE, TRUE
	note E_, 8
	stereo_panning TRUE, FALSE
	note F_, 7
	stereo_panning TRUE, TRUE
	note F_, 8
	preset 3
	musicf3
	octave 2
	note A_, 7
	musicf2
	note B_, 4
	stereo_panning TRUE, FALSE
	note A_, 4
	stereo_panning TRUE, TRUE
	inc_octave
	note C_, 4
	dec_octave
	stereo_panning TRUE, FALSE
	note B_, 3
	inc_octave
	musicf3
	stereo_panning TRUE, TRUE
	note D_, 8
	musicf2
	note F_, 4
	stereo_panning TRUE, FALSE
	note D_, 3
	stereo_panning TRUE, TRUE
	note A_, 4
	stereo_panning TRUE, FALSE
	note F_, 4
	inc_octave
	stereo_panning TRUE, TRUE
	note C_, 4
	dec_octave
	stereo_panning TRUE, FALSE
	note A_, 3
	musicf3
	stereo_panning TRUE, TRUE
	note B_, 15
	note A_, 5
	note B_, 5
	note A_, 5
	musicf2
	note E_, 8
	stereo_panning TRUE, FALSE
	note A_, 7
	stereo_panning TRUE, TRUE
	note D_, 8
	stereo_panning TRUE, FALSE
	note E_, 7
	preset 1
	musicf3
	octave 3
	speed 5
	stereo_panning TRUE, TRUE
	musicf2
	note C_, 3
	stereo_panning TRUE, FALSE
	note C_, 3
	stereo_panning TRUE, TRUE
	note E_, 3
	stereo_panning TRUE, FALSE
	note E_, 3
	stereo_panning TRUE, TRUE
	vibrato_delay 15
	note G_, 6
	stereo_panning TRUE, FALSE
	note G_, 3
	speed 1
	stereo_panning TRUE, TRUE
	note G_, 8
	stereo_panning TRUE, FALSE
	note G_, 7
	stereo_panning TRUE, TRUE
	note E_, 15
	preset 3
	musicf3
	octave 3
	stereo_panning TRUE, TRUE
	note E_, 8
	inc_octave
	note C_, 7
	musicf2
	musicf1 87
	note D_, 8
	stereo_panning TRUE, FALSE
	note C_, 7
	stereo_panning TRUE, TRUE
	musicf3
	note C_, 8
	note D_, 7
	musicef -1
	note G_, 4
	note A_, 4
	note G_, 3
	musicef -1
	note A_, 4
	preset 1
	speed 1
	musicf3
	stereo_panning TRUE, TRUE
	octave 3
	note C_, 15
	note D_, 15
	stereo_panning TRUE, TRUE
	musicf2
	note E_, 8
	stereo_panning TRUE, FALSE
	note E_, 7
	stereo_panning TRUE, TRUE
	note F_, 15
	preset 3
	musicf3
	octave 3
	note C_, 8
	note F_, 7
	musicf2
	note G#, 8
	stereo_panning TRUE, FALSE
	note F_, 7
	stereo_panning TRUE, TRUE
	musicf3
	note F_, 8
	note G#, 7
	preset 1
	musicf1 87
	musicf2
	octave 3
	speed 1
	stereo_panning TRUE, TRUE
	note G#, 16
	tie
	note G#, 14
	stereo_panning TRUE, FALSE
	note G#, 15
	stereo_panning TRUE, TRUE
	note F_, 8
	stereo_panning TRUE, FALSE
	note F_, 7
	stereo_panning TRUE, TRUE
	inc_octave
	note D#, 15
	preset 3
	stereo_panning TRUE, TRUE
	musicf3
	octave 3
	note F_, 8
	note G#, 7
	inc_octave
	musicf1 87
	musicf2
	note C_, 8
	stereo_panning TRUE, FALSE
	note C_, 7
	stereo_panning TRUE, TRUE
	musicf3
	dec_octave
	note G#, 8
	inc_octave
	note C_, 7
	note D_, 4
	note D#, 4
	dec_octave
	note F_, 7
	musicf1 70
	musicf2
	note G#, 4
	stereo_panning TRUE, FALSE
	note F_, 4
	stereo_panning TRUE, TRUE
	inc_octave
	note C_, 4
	dec_octave
	stereo_panning TRUE, FALSE
	note F_, 3
	stereo_panning TRUE, TRUE
	inc_octave
	note F_, 3
	stereo_panning TRUE, FALSE
	note C_, 2
	dec_octave
	stereo_panning TRUE, TRUE
	note G#, 3
	inc_octave
	stereo_panning TRUE, FALSE
	note C_, 2
	stereo_panning TRUE, TRUE
	note C_, 3
	dec_octave
	stereo_panning TRUE, FALSE
	note G#, 2
	inc_octave
	stereo_panning TRUE, TRUE
	note F_, 3
	stereo_panning TRUE, FALSE
	note C_, 2
	stereo_panning TRUE, TRUE
	note G#, 3
	stereo_panning TRUE, FALSE
	note F_, 2
	stereo_panning TRUE, TRUE
	inc_octave
	note C_, 3
	dec_octave
	stereo_panning TRUE, FALSE
	note G#, 2
	musicf3
	volume_envelope 3, 7
	stereo_panning TRUE, FALSE
	note C_, 3
	musicf1 39
	musicf2
	dec_octave
	note G#, 3
	rest 2
	preset 12
	musicf3
	stereo_panning TRUE, TRUE
	speed 1
	octave 3
	musicf1 55
	musicf2
	note G#, 3
	stereo_panning TRUE, FALSE
	note G#, 4
	stereo_panning TRUE, TRUE
	inc_octave
	note C_, 4
	dec_octave
	stereo_panning TRUE, FALSE
	note G#, 4
	stereo_panning TRUE, TRUE
	note G#, 3
	stereo_panning TRUE, FALSE
	inc_octave
	note C_, 4
	stereo_panning TRUE, TRUE
	note D#, 4
	stereo_panning TRUE, FALSE
	dec_octave
	note G#, 4
	stereo_panning TRUE, TRUE
	note G#, 3
	stereo_panning TRUE, FALSE
	inc_octave
	note D#, 4
	stereo_panning TRUE, TRUE
	note G_, 4
	stereo_panning TRUE, FALSE
	dec_octave
	note G#, 4
	stereo_panning TRUE, TRUE
	note G#, 3
	stereo_panning TRUE, FALSE
	inc_octave
	preset 6
	musicf3
	stereo_panning TRUE, FALSE
	note G_, 8
	dec_octave
	note G#, 4
	preset 12
	stereo_panning TRUE, TRUE
	musicf2
	note G#, 4
	stereo_panning TRUE, FALSE
	note G#, 3
	stereo_panning TRUE, TRUE
	inc_octave
	note C_, 4
	stereo_panning TRUE, FALSE
	dec_octave
	note G#, 4
	stereo_panning TRUE, TRUE
	note G#, 3
	stereo_panning TRUE, FALSE
	inc_octave
	note C_, 4
	stereo_panning TRUE, TRUE
	note D#, 4
	stereo_panning TRUE, FALSE
	dec_octave
	note G#, 4
	stereo_panning TRUE, TRUE
	note G#, 3
	stereo_panning TRUE, FALSE
	inc_octave
	note D#, 4
	stereo_panning TRUE, TRUE
	note G_, 4
	stereo_panning TRUE, FALSE
	dec_octave
	note G#, 4
	stereo_panning TRUE, TRUE
	note G#, 3
	stereo_panning TRUE, FALSE
	inc_octave
	note G_, 4
	preset 6
	musicf3
	stereo_panning TRUE, FALSE
	note G_, 4
	dec_octave
	note G#, 4
	preset 12
	stereo_panning TRUE, TRUE
	musicf2
	note D_, 4
	stereo_panning TRUE, FALSE
	note D_, 3
	stereo_panning TRUE, TRUE
	note G_, 4
	stereo_panning TRUE, FALSE
	note D_, 4
	stereo_panning TRUE, TRUE
	note D_, 3
	stereo_panning TRUE, FALSE
	note G_, 4
	stereo_panning TRUE, TRUE
	note A#, 4
	stereo_panning TRUE, FALSE
	note D_, 4
	stereo_panning TRUE, TRUE
	note D_, 3
	stereo_panning TRUE, FALSE
	note A#, 4
	stereo_panning TRUE, TRUE
	inc_octave
	note D_, 4
	stereo_panning TRUE, FALSE
	dec_octave
	note D_, 4
	stereo_panning TRUE, TRUE
	note D_, 3
	stereo_panning TRUE, FALSE
	inc_octave
	preset 6
	musicf3
	stereo_panning TRUE, FALSE
	note D_, 8
	dec_octave
	note D_, 4
	preset 12
	stereo_panning TRUE, TRUE
	musicf2
	note D_, 4
	stereo_panning TRUE, FALSE
	note D_, 3
	stereo_panning TRUE, TRUE
	note G_, 4
	stereo_panning TRUE, FALSE
	note D_, 4
	stereo_panning TRUE, TRUE
	note D_, 3
	stereo_panning TRUE, FALSE
	note G_, 4
	stereo_panning TRUE, TRUE
	note A#, 4
	stereo_panning TRUE, FALSE
	note D_, 4
	stereo_panning TRUE, TRUE
	note D_, 3
	stereo_panning TRUE, FALSE
	note A#, 4
	stereo_panning TRUE, TRUE
	inc_octave
	note D_, 4
	stereo_panning TRUE, FALSE
	dec_octave
	note D_, 4
	stereo_panning TRUE, TRUE
	note D_, 3
	stereo_panning TRUE, FALSE
	inc_octave
	note D_, 4
	preset 6
	musicf3
	stereo_panning TRUE, FALSE
	note D_, 4
	dec_octave
	note D_, 4
	preset 12
	stereo_panning TRUE, TRUE
	musicf2
	note F_, 3
	stereo_panning TRUE, FALSE
	note F_, 4
	stereo_panning TRUE, TRUE
	note G#, 4
	stereo_panning TRUE, FALSE
	note F_, 4
	stereo_panning TRUE, TRUE
	note F_, 3
	stereo_panning TRUE, FALSE
	note G#, 4
	stereo_panning TRUE, TRUE
	inc_octave
	note C_, 4
	stereo_panning TRUE, FALSE
	dec_octave
	note F_, 4
	stereo_panning TRUE, TRUE
	note F_, 3
	stereo_panning TRUE, FALSE
	inc_octave
	note C_, 4
	stereo_panning TRUE, TRUE
	note D#, 4
	stereo_panning TRUE, FALSE
	dec_octave
	note F_, 4
	stereo_panning TRUE, TRUE
	note F_, 3
	stereo_panning TRUE, FALSE
	inc_octave
	preset 6
	musicf3
	stereo_panning TRUE, FALSE
	note D#, 8
	dec_octave
	note F_, 4
	preset 12
	stereo_panning TRUE, TRUE
	musicf2
	note F_, 4
	stereo_panning TRUE, FALSE
	note F_, 3
	stereo_panning TRUE, TRUE
	note G#, 4
	stereo_panning TRUE, FALSE
	note F_, 4
	stereo_panning TRUE, TRUE
	note F_, 3
	stereo_panning TRUE, FALSE
	note G#, 4
	stereo_panning TRUE, TRUE
	inc_octave
	note C_, 4
	stereo_panning TRUE, FALSE
	dec_octave
	note F_, 4
	stereo_panning TRUE, TRUE
	note F_, 3
	stereo_panning TRUE, FALSE
	inc_octave
	note C_, 4
	stereo_panning TRUE, TRUE
	note D#, 4
	stereo_panning TRUE, FALSE
	dec_octave
	note F_, 4
	stereo_panning TRUE, TRUE
	note F_, 3
	stereo_panning TRUE, FALSE
	inc_octave
	note D#, 4
	preset 6
	musicf3
	stereo_panning TRUE, FALSE
	note D#, 4
	dec_octave
	note F_, 4
	preset 12
	stereo_panning TRUE, TRUE
	musicf2
	note D#, 4
	stereo_panning TRUE, FALSE
	note D#, 3
	stereo_panning TRUE, TRUE
	note G_, 4
	stereo_panning TRUE, FALSE
	note D#, 4
	stereo_panning TRUE, TRUE
	note D#, 3
	stereo_panning TRUE, FALSE
	note G_, 4
	stereo_panning TRUE, TRUE
	note A#, 4
	stereo_panning TRUE, FALSE
	note D#, 4
	stereo_panning TRUE, TRUE
	note D#, 3
	stereo_panning TRUE, FALSE
	note A#, 4
	stereo_panning TRUE, TRUE
	inc_octave
	note D_, 4
	stereo_panning TRUE, FALSE
	dec_octave
	note D#, 4
	stereo_panning TRUE, TRUE
	note D#, 3
	stereo_panning TRUE, FALSE
	inc_octave
	preset 6
	musicf3
	stereo_panning TRUE, FALSE
	note D_, 8
	dec_octave
	note D#, 4
	preset 12
	stereo_panning TRUE, TRUE
	musicf2
	note D#, 4
	stereo_panning TRUE, FALSE
	note D#, 3
	stereo_panning TRUE, TRUE
	note G_, 4
	stereo_panning TRUE, FALSE
	note D#, 4
	stereo_panning TRUE, TRUE
	note D#, 3
	stereo_panning TRUE, FALSE
	note G_, 4
	stereo_panning TRUE, TRUE
	note A#, 4
	stereo_panning TRUE, FALSE
	note D#, 4
	stereo_panning TRUE, TRUE
	note E_, 3
	stereo_panning TRUE, FALSE
	note A#, 4
	stereo_panning TRUE, TRUE
	inc_octave
	note C_, 4
	stereo_panning TRUE, FALSE
	dec_octave
	note E_, 4
	stereo_panning TRUE, TRUE
	note E_, 3
	stereo_panning TRUE, FALSE
	inc_octave
	note C_, 4
	preset 1
	musicf1 80
	musicf2
	stereo_panning TRUE, TRUE
	octave 3
	note D#, 8
	stereo_panning TRUE, FALSE
	note D#, 7
	musicf3
	stereo_panning TRUE, TRUE
	note C_, 5
	note D#, 5
	note G#, 5
	musicf2
	inc_octave
	note C_, 8
	dec_octave
	stereo_panning TRUE, FALSE
	note G#, 7
	stereo_panning TRUE, TRUE
	musicf3
	note G#, 5
	inc_octave
	note C_, 5
	note D#, 5
	note F#, 15
	musicf2
	note D#, 8
	stereo_panning TRUE, FALSE
	note F#, 7
	dec_octave
	stereo_panning TRUE, TRUE
	note B_, 8
	inc_octave
	stereo_panning TRUE, FALSE
	note D#, 7
	dec_octave
	stereo_panning TRUE, TRUE
	note G#, 8
	stereo_panning TRUE, FALSE
	note B_, 7
	stereo_panning TRUE, TRUE
	note A#, 15
	stereo_panning TRUE, FALSE
	note A#, 8
	stereo_panning TRUE, TRUE
	note F_, 7
	stereo_panning TRUE, FALSE
	note A#, 8
	stereo_panning TRUE, TRUE
	note F_, 5
	stereo_panning TRUE, FALSE
	note F#, 2
	stereo_panning TRUE, TRUE
	musicf3
	note A#, 8
	musicf2
	note F_, 5
	stereo_panning TRUE, FALSE
	note A#, 2
	vibrato_delay 8
	stereo_panning TRUE, TRUE
	note G_, 8
	tie
	note G_, 15
	stereo_panning TRUE, FALSE
	note G_, 7
	stereo_panning TRUE, TRUE
	note C_, 8
	tie
	note C_, 15
	stereo_panning TRUE, FALSE
	note C_, 7
	stereo_panning TRUE, TRUE
	note F_, 8
	stereo_panning TRUE, FALSE
	note C_, 7
	stereo_panning TRUE, TRUE
	musicf3
	note C_, 5
	note F_, 5
	note A_, 5
	musicf2
	inc_octave
	note C_, 8
	dec_octave
	stereo_panning TRUE, FALSE
	note A_, 7
	stereo_panning TRUE, TRUE
	musicf3
	note F_, 5
	note A_, 5
	inc_octave
	note C_, 5
	note F_, 15
	musicf2
	note C_, 8
	stereo_panning TRUE, FALSE
	note C_, 7
	stereo_panning TRUE, TRUE
	dec_octave
	note A_, 8
	inc_octave
	stereo_panning TRUE, FALSE
	note C_, 7
	dec_octave
	stereo_panning TRUE, TRUE
	note F_, 8
	stereo_panning TRUE, FALSE
	note A_, 7
	stereo_panning TRUE, TRUE
	note G_, 8
	stereo_panning TRUE, FALSE
	note F_, 7
	stereo_panning TRUE, TRUE
	musicf3
	note D_, 5
	note G_, 5
	note B_, 5
	inc_octave
	musicf2
	note D_, 8
	dec_octave
	stereo_panning TRUE, FALSE
	note B_, 7
	stereo_panning TRUE, TRUE
	musicf3
	note B_, 5
	inc_octave
	note D_, 5
	note G_, 5
	note B_, 8
	tie
	note B_, 15
	tie
	note B_, 7
	dec_octave
	dec_octave
	dec_octave
	musicf3
	stereo_panning TRUE, TRUE
	note B_, 3
	inc_octave
	note D_, 4
	note G_, 4
	note B_, 4
	inc_octave
	note F_, 3
	note B_, 4
	inc_octave
	note D_, 4
	note E_, 4
	Loop 2
	preset 0
	musicf3
	octave 4
	cutoff 8
	stereo_panning TRUE, TRUE
	note E_, 16
	tie
	note E_, 14
	preset 7
	musicf1 80
	musicf2
	cutoff 8
	octave 3
	note C_, 8
	stereo_panning FALSE, TRUE
	note C_, 7
	dec_octave
	musicf1 39
	musicf2
	cutoff 8
	stereo_panning TRUE, TRUE
	note E_, 5
	stereo_panning TRUE, FALSE
	note E_, 3
	stereo_panning TRUE, TRUE
	note E_, 5
	stereo_panning TRUE, FALSE
	note E_, 2
	Loop 2
	stereo_panning TRUE, TRUE
	note E_, 8
	stereo_panning TRUE, FALSE
	note E_, 7
	EndLoop
	inc_octave
	musicf1 64
	musicf2
	cutoff 8
	stereo_panning TRUE, TRUE
	note C_, 8
	stereo_panning FALSE, TRUE
	note C_, 7
	rest 8
	preset 0
	musicf1 101
	stereo_panning TRUE, TRUE
	octave 4
	musicf2
	cutoff 8
	note E_, 5
	note E_, 2
	EndLoop
	preset 0
	musicf3
	octave 4
	cutoff 8
	stereo_panning TRUE, TRUE
	note E_, 16
	tie
	note E_, 14
	preset 7
	musicf1 80
	musicf2
	cutoff 8
	octave 3
	note C_, 8
	stereo_panning FALSE, TRUE
	note C_, 7
	dec_octave
	musicf1 55
	musicf2
	cutoff 8
	stereo_panning TRUE, TRUE
	note F_, 5
	stereo_panning TRUE, FALSE
	note F_, 3
	stereo_panning TRUE, TRUE
	note F_, 5
	stereo_panning TRUE, FALSE
	note F_, 2
	stereo_panning TRUE, TRUE
	note F_, 8
	stereo_panning TRUE, FALSE
	note F_, 7
	preset 0
	musicf1 85
	octave 4
	cutoff 8
	stereo_panning TRUE, TRUE
	note E_, 8
	stereo_panning TRUE, FALSE
	note E_, 7
	preset 7
	musicf1 80
	musicf2
	octave 3
	cutoff 8
	stereo_panning TRUE, TRUE
	note C_, 8
	stereo_panning FALSE, TRUE
	note C_, 7
	preset 0
	musicf1 85
	musicf2
	stereo_panning TRUE, TRUE
	octave 4
	cutoff 8
	note D_, 5
	stereo_panning TRUE, FALSE
	note D_, 3
	stereo_panning TRUE, TRUE
	note C_, 5
	stereo_panning TRUE, FALSE
	note D_, 2
	stereo_panning TRUE, TRUE
	note D_, 8
	stereo_panning TRUE, FALSE
	note C_, 4
	rest 11
	dec_octave
	stereo_panning TRUE, TRUE
	note G_, 4
	inc_octave
	stereo_panning FALSE, TRUE
	note D_, 3
	dec_octave
	stereo_panning TRUE, TRUE
	note G_, 15
	tie
	note G_, 15
	tie
	note G_, 15
	tie
	note G_, 15
	musicf3
	dec_octave
	note B_, 3
	inc_octave
	note C_, 4
	note D_, 4
	note E_, 4
	note F_, 3
	note G_, 4
	note A_, 4
	note B_, 4
	vibrato_delay 30
	inc_octave
	note C_, 15
	tie
	note C_, 15
	tie
	note C_, 15
	tie
	note C_, 15
	tie
	note C_, 15
	musicf2
	dec_octave
	note G#, 8
	stereo_panning TRUE, FALSE
	inc_octave
	note C_, 7
	dec_octave
	stereo_panning TRUE, TRUE
	note F_, 8
	stereo_panning TRUE, FALSE
	note A#, 7
	stereo_panning TRUE, TRUE
	inc_octave
	note C_, 8
	stereo_panning TRUE, FALSE
	note F_, 7
	stereo_panning TRUE, TRUE
	note C_, 8
	stereo_panning TRUE, FALSE
	note C_, 15
	dec_octave
	stereo_panning TRUE, TRUE
	note E_, 5
	inc_octave
	stereo_panning TRUE, FALSE
	note C_, 2
	stereo_panning TRUE, TRUE
	dec_octave
	note G_, 15
	tie
	note G_, 15
	tie
	note G_, 15
	tie
	note G_, 15
	stereo_panning TRUE, FALSE
	note G_, 15
	stereo_panning TRUE, TRUE
	note E_, 5
	stereo_panning TRUE, FALSE
	note G_, 3
	stereo_panning TRUE, TRUE
	note G_, 5
	stereo_panning TRUE, FALSE
	note E_, 2
	stereo_panning TRUE, TRUE
	note F#, 16
	tie
	note F#, 14
	stereo_panning TRUE, FALSE
	note F#, 15
	stereo_panning TRUE, TRUE
	note F#, 5
	stereo_panning TRUE, FALSE
	note F#, 3
	stereo_panning TRUE, TRUE
	note F#, 5
	stereo_panning TRUE, FALSE
	note F#, 2
	stereo_panning TRUE, TRUE
	note F#, 15
	stereo_panning TRUE, FALSE
	note F#, 8
	stereo_panning TRUE, TRUE
	note F#, 16
	tie
	note F#, 4
	stereo_panning TRUE, FALSE
	note F#, 3
	stereo_panning TRUE, TRUE
	note F#, 8
	stereo_panning TRUE, FALSE
	note F#, 7
	stereo_panning TRUE, TRUE
	note F_, 16
	tie
	note F_, 14
	stereo_panning TRUE, FALSE
	note F_, 15
	stereo_panning TRUE, TRUE
	note F_, 8
	stereo_panning TRUE, FALSE
	note F_, 7
	stereo_panning TRUE, TRUE
	note F_, 16
	tie
	note F_, 14
	stereo_panning TRUE, FALSE
	note F_, 15
	stereo_panning TRUE, TRUE
	note F_, 8
	stereo_panning TRUE, FALSE
	note F_, 7
	stereo_panning TRUE, TRUE
	note F_, 16
	tie
	note F_, 14
	stereo_panning TRUE, FALSE
	note F_, 15
	stereo_panning TRUE, TRUE
	note F_, 5
	stereo_panning TRUE, FALSE
	note F_, 3
	stereo_panning TRUE, TRUE
	note F_, 5
	stereo_panning TRUE, FALSE
	note F_, 2
	stereo_panning TRUE, TRUE
	note F_, 15
	stereo_panning TRUE, FALSE
	note F_, 5
	stereo_panning TRUE, TRUE
	note D_, 15
	stereo_panning TRUE, FALSE
	note F_, 5
	stereo_panning TRUE, TRUE
	note F_, 15
	stereo_panning TRUE, FALSE
	note D_, 5
	stereo_panning TRUE, TRUE
	musicf1 55
	note E_, 16
	tie
	note E_, 16
	tie
	note E_, 16
	tie
	note E_, 16
	tie
	note E_, 16
	tie
	note E_, 10
	stereo_panning TRUE, FALSE
	note E_, 12
	music_end


Music_TitleScreen_Ch3:
	stereo_panning TRUE, TRUE
	wave 1
	volume_envelope 2, 0
	cutoff 3
	echo 96
	speed 1
	rest 14
	rest 14
	speed 5
	octave 2
	cutoff 6
	note D_, 9
	cutoff 7
	note D_, 1
	note D_, 1
	note D_, 1
	cutoff 6
	note C_, 9
	cutoff 7
	note C_, 1
	note C_, 1
	note C_, 1
	cutoff 6
	dec_octave
	note B_, 9
	cutoff 7
	note B_, 1
	note B_, 1
	note B_, 1
	cutoff 6
	note A_, 9
	cutoff 7
	note A_, 1
	note A_, 1
	note A_, 1
	speed 10
	cutoff 1
	note G_, 12
	tie
	note G_, 3
	cutoff 4
	note F_, 3
	note E_, 3
	note D_, 3
	speed 5
	octave 2
	note C_, 6
	note C_, 6
	dec_octave
	note B_, 6
	note B_, 6
	note A_, 6
	note A_, 6
	note G_, 6
	note G_, 6
	note F_, 6
	note F_, 6
	note E_, 6
	note E_, 6
	note D_, 6
	note D_, 6
	note G_, 6
	cutoff 8
	note A_, 3
	note B_, 3
	cutoff 4
	inc_octave
	note C_, 6
	note C_, 6
	dec_octave
	note B_, 6
	note B_, 6
	note A_, 6
	note A_, 6
	note G_, 6
	note G_, 6
	note F_, 6
	note F_, 6
	note F_, 6
	note F_, 6
	note A#, 6
	note A#, 6
	note A#, 6
	note A_, 6
	speed 5
	cutoff 6
	note G#, 3
	cutoff 4
	note G#, 6
	speed 1
	cutoff 4
	note G#, 7
	note G#, 8
	speed 5
	cutoff 6
	note G#, 3
	cutoff 4
	note G#, 6
	cutoff 8
	note G#, 3
	cutoff 6
	note G_, 3
	cutoff 4
	note G_, 6
	speed 1
	cutoff 4
	note G_, 7
	note G_, 8
	speed 5
	cutoff 6
	note G_, 3
	cutoff 4
	note G_, 6
	cutoff 8
	note G_, 3
	cutoff 6
	note F_, 3
	cutoff 4
	note F_, 6
	speed 1
	cutoff 4
	note F_, 7
	note F_, 8
	speed 5
	cutoff 6
	note A#, 3
	cutoff 4
	note A#, 6
	cutoff 8
	note E_, 3
	cutoff 6
	note D#, 3
	cutoff 4
	note D#, 6
	speed 1
	cutoff 4
	note D#, 7
	note D#, 8
	speed 5
	cutoff 6
	note D#, 3
	cutoff 8
	note D#, 3
	note E_, 6
	cutoff 4
	note F_, 6
	note F_, 6
	note G#, 6
	note G#, 6
	note G_, 6
	note G_, 6
	note C_, 6
	note C_, 6
	note D_, 6
	note D_, 6
	note D_, 6
	note D_, 6
	note G_, 6
	note G_, 6
	note G_, 6
	note G_, 6
	speed 5
	cutoff 7
	octave 1
	Loop 2
	speed 5
	cutoff 7
	note A_, 3
	note A_, 3
	music_call Branch_1ea254
	speed 1
	cutoff 4
	note A_, 7
	note A_, 8
	EndLoop
	Loop 2
	speed 5
	cutoff 7
	note G_, 3
	note G_, 3
	music_call Branch_1ea254
	speed 1
	cutoff 4
	note G_, 7
	note G_, 8
	EndLoop
	Loop 2
	speed 5
	cutoff 7
	note F_, 3
	note F_, 3
	music_call Branch_1ea254
	speed 1
	cutoff 4
	note F_, 7
	note F_, 8
	EndLoop
	speed 5
	cutoff 7
	note E_, 3
	note E_, 3
	music_call Branch_1ea254
	speed 1
	cutoff 4
	note E_, 7
	note E_, 8
	speed 5
	cutoff 7
	note E_, 3
	note E_, 3
	music_call Branch_1ea26d
	speed 1
	cutoff 4
	note E_, 7
	note E_, 8
	cutoff 4
	speed 5
	octave 1
	note G#, 6
	note G#, 6
	note G#, 6
	note G#, 6
	note G_, 6
	note G_, 6
	note G_, 6
	note G_, 6
	note F#, 6
	note F#, 6
	note F#, 6
	note F#, 6
	note G_, 6
	note G_, 6
	note G_, 6
	note G_, 6
	cutoff 3
	inc_octave
	note C_, 3
	dec_octave
	note G_, 3
	inc_octave
	note C_, 3
	dec_octave
	note G_, 3
	inc_octave
	cutoff 5
	note C_, 4
	dec_octave
	note G_, 4
	note G_, 4
	cutoff 6
	speed 10
	note C_, 12
	music_end

Branch_1ea254:
	speed 1
	octave 3
	cutoff 4
	stereo_panning TRUE, TRUE
	cutoff 6
	volume_envelope 2, 0
	note E_, 8
	stereo_panning TRUE, FALSE
	volume_envelope 6, 0
	note E_, 7
	stereo_panning TRUE, TRUE
	volume_envelope 2, 0
	octave 1
	cutoff 7
	music_ret

Branch_1ea26d:
	speed 1
	octave 3
	cutoff 4
	stereo_panning TRUE, TRUE
	cutoff 6
	volume_envelope 2, 0
	note G_, 8
	stereo_panning TRUE, FALSE
	volume_envelope 6, 0
	note G_, 7
	stereo_panning TRUE, TRUE
	volume_envelope 2, 0
	octave 1
	cutoff 7
	music_ret


Music_TitleScreen_Ch4:
	octave 1
	speed 1
	musicef -4
	snare2 3
	snare2 4
	musicef -2
	snare2 3
	snare2 4
	musicef 0
	snare2 3
	snare2 4
	snare2 3
	snare2 4
	speed 5
	Loop 4
	snare5 9
	snare1 1
	musicef -4
	snare1 1
	snare1 1
	musicef 0
	EndLoop
	speed 1
	snare2 5
	musicef -4
	Loop 23
	snare2 5
	EndLoop
	speed 10
	musicef 2
	snare5 12
	musicef 0
	speed 1
	Loop 15
	snare1 15
	musicef -4
	snare1 15
	musicef 0
	snare1 15
	musicef -2
	snare2 3
	musicef -4
	snare2 4
	snare2 4
	snare2 4
	musicef 0
	EndLoop
	snare1 15
	musicef -4
	snare1 15
	musicef 0
	snare2 3
	musicef -4
	snare2 4
	snare2 4
	snare2 4
	snare2 3
	snare2 4
	snare2 4
	snare2 4
	musicef 0
	Loop 7
	snare1 15
	snare1 15
	musicef 2
	snare4 15
	musicef 0
	snare2 3
	musicef -4
	snare2 4
	snare2 4
	snare2 4
	musicef 0
	EndLoop
	snare1 15
	snare1 15
	snare2 3
	musicef -4
	snare2 4
	snare2 4
	snare2 4
	snare2 3
	snare2 4
	snare2 4
	snare2 4
	musicef 0
	Loop 7
	snare1 15
	musicef -4
	snare1 15
	musicef 0
	snare1 15
	musicef -2
	snare2 3
	musicef -4
	snare2 4
	snare2 4
	snare2 4
	musicef 0
	EndLoop
	snare1 15
	musicef -4
	snare1 15
	musicef 0
	snare2 3
	musicef -4
	snare2 4
	snare2 4
	snare2 4
	snare2 3
	snare2 4
	snare2 4
	snare2 4
	musicef 0
	Loop 8
	snare1 15
	snare1 16
	tie
	snare1 14
	musicef -4
	snare2 3
	snare2 4
	snare2 4
	snare2 4
	musicef 0
	EndLoop
	Loop 8
	snare1 15
	musicef -4
	snare1 15
	musicef 0
	snare1 15
	snare2 3
	musicef -4
	snare2 4
	snare2 4
	snare2 4
	musicef 0
	EndLoop
	musicef 1
	snare1 15
	snare2 3
	musicef -4
	snare2 4
	snare2 4
	snare2 4
	musicef 0
	snare1 15
	musicef -6
	snare2 3
	snare2 4
	musicef -4
	snare2 4
	snare2 4
	musicef -2
	snare2 3
	snare2 4
	snare2 4
	snare2 4
	musicef 0
	snare1 5
	speed 5
	snare1 4
	snare1 4
	musicef 2
	snare5 12
	music_end
